<svg xmlns="http://www.w3.org/2000/svg">
<defs>
<font id="Vollkorn-BoldItalic" horiz-adv-x="550" >
  <font-face 
    font-family="Vollkorn"
    font-weight="700"
    font-style="italic"
    font-stretch="normal"
    units-per-em="1000"
    panose-1="0 0 8 0 0 0 0 0 0 0"
    ascent="800"
    descent="-200"
    x-height="462.997"
    cap-height="678.997"
    bbox="-685 -474.004 1586 1097.01"
    underline-thickness="57"
    underline-position="-292"
    slope="-11"
    unicode-range="U+000D-U+1D550"
  />
<missing-glyph horiz-adv-x="453" 
d="M138 677h352l-132 -677h-352zM405 319v270h-270v-270h270zM145 579h70v-70h-70v70zM325 349h20v10h-10v10h-10v-20h-10v10h-20v20h-10v10h-10v-20h-10v10h-10v-10h-20v10h10v10h-10v10h10v20h-20v20h10v30h10v-40h10v20h10v10h-10v20h-20v10h-10v50h20v20h-20v20h10v-10
h10v10h30v-20h-10v10h-10v-20h10v-10h-10v-10h-20v-30h10v20h10v-30h10v50h10v20h10v-10h10v-10h-10v-10h-10v-50h-10v-10h10v-30h-10v-20h10v-20h20v-10h10v10h-10v50h10v10h-20v10h10v20h10v-10h10v-50h-10v-10h30v20h-10v20h10v10h20v20h10v-10h10v-10h-10v-10h-20v-40
h10v-20h10v-10h-10v-10h10v-10h20v-10h10v-10h-20v10h-20v-20h-30v10zM325 579h70v-70h-70v70zM205 519v50h-50v-50h50zM385 519v50h-50v-50h50zM165 559h30v-30h-30v30zM295 559h10v-10h-10v10zM345 559h30v-30h-30v30zM305 549h10v-10h-10v10zM325 489h-20v40h10v-30h40
v-10h-10v-10h-20v10zM285 519h10v-10h-10v10zM145 499h30v-10h20v10h20v-10h-10v-10h20v-10h-30v10h-40v-10h10v-10h-20v40zM385 479h-10v20h20v-30h-10v10zM275 479h10v-10h-10v10zM175 469h10v-10h-10v10zM175 449h20v10h30v-20h-10v10h-10v-10h-20v-10h-10v20zM385 439
h-10v10h10v10h10v-30h-10v10zM145 439h10v10h10v-20h-20v10zM205 439h10v-10h-10v10zM355 439h20v-10h-20v10zM185 429h20v-10h20v-10h-40v20zM145 419h30v-10h-30v10zM375 419h10v-10h-10v10zM225 409h10v-10h-10v10zM345 379v30h-30v-30h30zM365 409h10v-10h-10v10z

<glyph glyph-name="f_f" unicode="ff" horiz-adv-x="715" 
d="M234.5 627.5c51 40.333 115.836 60.5 194.503 60.5c50.667 0 97.667 -11.333 141 -34c43.333 40 103.333 60 180 60c25.333 0 48.5 -2 69.5 -6s36.5 -9 46.5 -15c-6.66699 -18 -12.5 -40.5 -17.5 -67.5s-7.83301 -49.833 -8.5 -68.5c-6.66699 -3.33301 -17.5 -6 -32.5 -8
s-29.167 -3 -42.5 -3c-1.33301 34 -5 60.167 -11 78.5s-17.333 27.5 -34 27.5c-14 0 -25.667 -5.66699 -35 -17s-18.333 -31.333 -27 -60s-18.334 -71 -29.001 -127h96c0 -30 -3 -51 -9 -63c-28 0 -61.667 -3.66699 -101 -11
c-24.667 -153.333 -50.334 -261.666 -77.001 -324.999c-20.667 -47.333 -47.5 -90.5 -80.5 -129.5s-69.333 -69.833 -109 -92.5s-79.167 -34 -118.5 -34c-47.333 0 -88.333 15.667 -123 47c-45.333 -58.667 -97.666 -88 -156.999 -88c-38.667 0 -72.334 14.333 -101.001 43
c-0.666992 13.333 0.5 27.833 3.5 43.5s7.16699 29.5 12.5 41.5c30.667 -13.333 67 -20 109 -20c19.333 0 34.333 3.83301 45 11.5s20 24.667 28 51s15.333 67.5 22 123.5c12.667 105.333 29 215.333 49 330c-26.667 7.33301 -52.334 11 -77.001 11
c0 28 4.33301 48.333 13 61h76c18.667 79.333 53.5 139.166 104.5 179.499zM492.003 515c6.66699 24.667 13.999 45.333 21.999 62c-23.333 33.333 -56.333 50 -99 50c-33.333 0 -60.833 -14 -82.5 -42s-38.5 -73.667 -50.5 -137h195l1 6
c2.66699 16 7.33398 36.333 14.001 61zM466.002 375.999c-26.667 6.66699 -58.333 10.002 -95 10.002c-35.333 0 -70 -4 -104 -12l-48 -253c-15.333 -84.667 -38.333 -155.334 -69 -212.001c26 -12 56.667 -18 92 -18c32 0 57.833 3.33301 77.5 10s36 19.167 49 37.5
s24.167 45.166 33.5 80.499c24 90 45.333 209 64 357z" />
    <glyph glyph-name="f_f_i" unicode="ffi" horiz-adv-x="983" 
d="M580 649c49.333 43.333 115.001 64.998 197.001 64.998c81.333 0 144 -10.667 188 -32c-14.667 -44.667 -22.667 -86.334 -24 -125.001c-8 -4 -19.333 -7.16699 -34 -9.5s-29.667 -3.5 -45 -3.5s-26 0.666992 -32 2c-1.33301 34 -8 60.5 -20 79.5s-29.667 28.5 -53 28.5
c-22.667 0 -41.167 -5.83301 -55.5 -17.5s-27.166 -32.167 -38.499 -61.5s-22.666 -71.666 -33.999 -126.999h62c66.667 0 114 1.33301 142 4s50.667 7.66699 68 15c25.333 -11.333 38 -32.666 38 -63.999c0 -14.667 -2.33301 -31.334 -7 -50.001l-44 -189
c-7.33301 -31.333 -11 -51.666 -11 -60.999c0 -12 5 -18 15 -18c12 0 25.333 7 40 21c6 -6 11.667 -13.667 17 -23s8.33301 -18.666 9 -27.999c-20.667 -21.333 -43.167 -37.333 -67.5 -48s-48.833 -16 -73.5 -16c-61.333 0 -92 30.333 -92 91c0 21.333 3.66699 46 11 74
l29 114c8 33.333 12 56 12 68c0 18 -5 30.333 -15 37s-27.333 10 -52 10c-19.333 0 -35.5 -0.833008 -48.5 -2.5s-28.5 -4.5 -46.5 -8.5c-24.667 -153.333 -50.334 -261.666 -77.001 -324.999c-20.667 -47.333 -47.5 -90.5 -80.5 -129.5s-69.333 -69.833 -109 -92.5
s-79.167 -34 -118.5 -34c-47.333 0 -88.333 15.667 -123 47c-45.333 -58.667 -97.666 -88 -156.999 -88c-38.667 0 -72.334 14.333 -101.001 43c-0.666992 13.333 0.5 27.833 3.5 43.5s7.16699 29.5 12.5 41.5c30.667 -13.333 67 -20 109 -20
c19.333 0 34.333 3.83301 45 11.5s20 24.667 28 51s15.333 67.5 22 123.5c12.667 105.333 29 215.333 49 330c-26.667 7.33301 -52.334 11 -77.001 11c0 28 4.33301 48.333 13 61h76c18.667 79.333 53.5 139.166 104.5 179.499s115.833 60.5 194.5 60.5
c55.333 0 105.666 -13 150.999 -39zM332.501 584.998c-21.667 -28 -38.5 -73.667 -50.5 -137h195c10 47.333 24 88 42 122c-24 38 -58.667 57 -104 57c-33.333 0 -60.833 -14 -82.5 -42zM267.001 373.998l-47.999 -252.998c-15.333 -84.667 -38.333 -155.334 -69 -212.001
c26 -12 56.667 -18 92 -18c32 0 57.833 3.33301 77.5 10s36 19.167 49 37.5s24.167 45.166 33.5 80.499c24 90 45.333 209 64 357c-26.667 6.66699 -58.334 10 -95.001 10c-35.333 0 -70 -4 -104 -12z" />
    <glyph glyph-name="f_f_l" unicode="ffl" horiz-adv-x="991" 
d="M234.5 627.5c51 40.333 115.836 60.501 194.503 60.501c56 0 106.333 -13.333 151 -40c50 44 115.333 66 196 66c51.333 0 92.666 -7.66699 123.999 -23c20 4 37.333 10.333 52 19c9.33301 -6 16.166 -12.833 20.499 -20.5s6.5 -17.167 6.5 -28.5
c0 -7.33301 -1 -16.666 -3 -27.999c-18.667 -108 -44 -242.667 -76 -404c-0.666992 -6 -2.33398 -15 -5.00098 -27c-8 -39.333 -12 -69 -12 -89c0 -10.667 1.33301 -18 4 -22s6.66699 -6 12 -6c10.667 0 24.667 7 42 21c5.33301 -6 10.5 -13.833 15.5 -23.5
s8.16699 -18.5 9.5 -26.5c-18.667 -20.667 -40.5 -36.667 -65.5 -48s-49.833 -17 -74.5 -17c-33.333 0 -57.166 7.66699 -71.499 23s-21.5 37.666 -21.5 66.999c0 24 1.66699 47 5 69s12.333 69.667 27 143l44 229c4.66699 26.667 7 47 7 61
c0 23.333 -4.83301 40.833 -14.5 52.5s-25.5 17.5 -47.5 17.5c-21.333 0 -39.166 -5.83301 -53.499 -17.5s-27.333 -32.334 -39 -62.001s-22.167 -71.5 -31.5 -125.5h95c0 -30 -3 -51 -9 -63c-34 0 -67.667 -3.66699 -101 -11
c-24.667 -153.333 -50.334 -261.666 -77.001 -324.999c-20.667 -47.333 -47.5 -90.5 -80.5 -129.5s-69.333 -69.833 -109 -92.5s-79.167 -34 -118.5 -34c-47.333 0 -88.333 15.667 -123 47c-45.333 -58.667 -97.666 -88 -156.999 -88c-38.667 0 -72.334 14.333 -101.001 43
c-0.666992 13.333 0.5 27.833 3.5 43.5s7.16699 29.5 12.5 41.5c30.667 -13.333 67 -20 109 -20c19.333 0 34.333 3.83301 45 11.5s20 24.667 28 51s15.333 67.5 22 123.5c12.667 105.333 29 215.333 49 330c-26.667 7.33301 -52.334 11 -77.001 11
c0 28 4.33301 48.333 13 61h76c18.667 79.333 53.5 139.166 104.5 179.499zM519.003 570.001c-23.333 38 -58.001 56.999 -104.001 56.999c-33.333 0 -60.833 -14 -82.5 -42s-38.5 -73.667 -50.5 -137h196c8.66699 46.667 22.334 87.334 41.001 122.001zM466.002 376
c-26.667 6.66699 -58.333 10.002 -95 10.002c-35.333 0 -70 -4 -104 -12l-48 -253c-15.333 -84.667 -38.333 -155.334 -69 -212.001c26 -12 56.667 -18 92 -18c32 0 57.833 3.33301 77.5 10s36 19.167 49 37.5s24.167 45.166 33.5 80.499c24 90 45.333 209 64 357z" />
    <glyph glyph-name="f_f_t.liga" unicode="fft" horiz-adv-x="1032" 
d="M879 134c0 -34.667 11 -52.002 33 -52.002c8.66699 0 18.334 3 29.001 9s20.667 13.667 30 23c5.33301 -6.66699 10.333 -15.167 15 -25.5s7.33398 -20.166 8.00098 -29.499c-14.667 -18.667 -36.667 -34.667 -66 -48s-57.666 -20 -84.999 -20
c-76 0 -114 41.333 -114 124c0 30 4.33301 63.333 13 100l38 164c-14 3.33301 -32.667 5.66602 -56 6.99902c-0.666992 10.667 0.166016 21.834 2.49902 33.501s5.83301 21.167 10.5 28.5h59c6.66699 29.333 11.167 51 13.5 65s3.5 27.333 3.5 40
c0 42.667 -22.667 64 -68 64c-20 0 -36.833 -4.5 -50.5 -13.5s-26 -25.833 -37 -50.5s-20.5 -59.667 -28.5 -105h70c1.33301 -10 1 -21.167 -1 -33.5s-5 -21.833 -9 -28.5c-24.667 0 -49.334 -4 -74.001 -12c-24.667 -153.333 -50.334 -261.666 -77.001 -324.999
c-20.667 -47.333 -47.5 -90.5 -80.5 -129.5s-69.333 -69.833 -109 -92.5s-79.167 -34 -118.5 -34c-47.333 0 -88.333 15.667 -123 47c-45.333 -58.667 -97.666 -88 -156.999 -88c-38.667 0 -72.334 14.333 -101.001 43c-0.666992 13.333 0.5 27.833 3.5 43.5
s7.16699 29.5 12.5 41.5c30.667 -13.333 67 -20 109 -20c19.333 0 34.333 3.83301 45 11.5s20 24.667 28 51s15.333 67.5 22 123.5c12.667 105.333 29 215.333 49 330c-26.667 7.33301 -52.334 11 -77.001 11c0 28 4.33301 48.333 13 61h76c37.333 152.667 137 229 299 229
c58.667 0 112.334 -14 161.001 -42c44.667 28.667 103.667 43 177 43c48 0 90.333 -8.33301 127 -25c20 4 37.667 10.333 53 19c9.33301 -5.33301 16 -11.833 20 -19.5s6 -17.834 6 -30.501c0 -7.33301 -0.333008 -13 -1 -17c-4.66699 -34 -14 -86.333 -28 -157h91
c0 -30 -3 -51 -9 -63c-36.667 0 -69.667 -3.66699 -99 -11l-35 -149c-8.66699 -37.333 -13 -67.666 -13 -90.999zM521 563.998c-24 34.667 -58.6689 51.999 -104.002 51.999c-34 0 -62.167 -12.667 -84.5 -38s-39.166 -68.666 -50.499 -129.999h195
c10.667 48 25.334 86.667 44.001 116zM465.998 375.997c-26.667 6.66699 -58.333 10.002 -95 10.002c-35.333 0 -70 -4 -104 -12l-48 -253c-15.333 -84.667 -38.333 -155.334 -69 -212.001c26 -12 56.667 -18 92 -18c32 0 57.833 3.33301 77.5 10s36 19.167 49 37.5
s24.167 45.166 33.5 80.499c24 90 45.333 209 64 357z" />
    <glyph glyph-name="f_i.liga" unicode="fi" horiz-adv-x="629" 
d="M-151 -205c-0.666992 13.333 0.5 27.832 3.5 43.499s7.16699 29.5 12.5 41.5c30.667 -13.333 67 -20 109 -20c19.333 0 34.333 3.83301 45 11.5s20 24.667 28 51s15.333 67.5 22 123.5l5 42c13.333 117.333 26 213.333 38 288c-26.667 7.33301 -52.334 11 -77.001 11
c0 26 4.33301 46.333 13 61h75c18 90.667 52 157.667 102 201s116 65 198 65c81.333 0 144 -10.667 188 -32c-14.667 -41.333 -22.667 -83 -24 -125c-8 -4 -19.333 -7.16699 -34 -9.5s-29.667 -3.5 -45 -3.5s-26 0.666992 -32 2c-1.33301 34 -8 60.5 -20 79.5
s-29.667 28.5 -53 28.5c-22.667 0 -41.334 -5.83301 -56.001 -17.5s-27.5 -32.167 -38.5 -61.5s-22.167 -71.666 -33.5 -126.999h62c66.667 0 114 1.33301 142 4s50.333 7.66699 67 15c26 -11.333 39 -32.666 39 -63.999c0 -15.333 -2.33301 -32 -7 -50l-45 -189
c-6.66699 -27.333 -10 -47.333 -10 -60c0 -7.33301 1.16699 -12.333 3.5 -15s5.83301 -4 10.5 -4c12.667 0 26.334 7 41.001 21c6 -5.33301 11.5 -12.833 16.5 -22.5s8.16699 -19.167 9.5 -28.5c-20.667 -21.333 -43.167 -37.333 -67.5 -48s-48.833 -16 -73.5 -16
c-61.333 0 -92 30.333 -92 91c0 21.333 3.66699 46 11 74l29 114c8 33.333 12 56 12 68c0 18 -5 30.333 -15 37s-27.333 10 -52 10c-19.333 0 -35.5 -0.833008 -48.5 -2.5s-28.5 -4.5 -46.5 -8.5c-17.333 -106 -27.333 -168 -30 -186l-7 -43
c-12 -73.333 -30.667 -139.833 -56 -199.5s-56.666 -106.834 -93.999 -141.501s-78.666 -52 -123.999 -52c-38.667 0 -72.334 14.333 -101.001 43z" />
    <glyph glyph-name="f_j.liga" unicode="fj" horiz-adv-x="606" 
d="M533 102c-12.667 -66.667 -30.333 -121.667 -53 -165s-52.5 -79.5 -89.5 -108.5s-84.833 -54.167 -143.5 -75.5c-15.333 13.333 -23.333 32.666 -24 57.999c41.333 26 74.833 58.333 100.5 97s43.5 86.667 53.5 144l42 234c4 25.333 6 41.333 6 48
c0 18 -5.16699 31 -15.5 39s-28.166 12 -53.499 12c-19.333 0 -35.5 -0.833008 -48.5 -2.5s-28.5 -4.5 -46.5 -8.5c-17.333 -106 -27.333 -168 -30 -186l-7 -43c-12 -73.333 -30.667 -139.833 -56 -199.5s-56.666 -106.834 -93.999 -141.501s-78.666 -52 -123.999 -52
c-38.667 0 -72.334 14.333 -101.001 43c-0.666992 13.333 0.5 27.833 3.5 43.5s7.16699 29.5 12.5 41.5c30.667 -13.333 67 -20 109 -20c19.333 0 34.333 3.83301 45 11.5s20 24.667 28 51s15.333 67.5 22 123.5l5 42c13.333 117.333 26 213.333 38 288
c-26.667 7.33301 -52.334 11 -77.001 11c0 26 4.33301 46.333 13 61h75c18 90.667 52 157.667 102 201s116 65 198 65c81.333 0 144 -10.667 188 -32c-14.667 -41.333 -22.667 -83 -24 -125c-8 -4 -19.333 -7.16699 -34 -9.5s-29.667 -3.5 -45 -3.5s-26 0.666992 -32 2
c-1.33301 34 -8 60.5 -20 79.5s-29.667 28.5 -53 28.5c-22.667 0 -41.334 -5.83301 -56.001 -17.5s-27.5 -32.167 -38.5 -61.5s-22.167 -71.666 -33.5 -126.999h62c66.667 0 114 1.33301 142 4s50.333 7.66699 67 15c26.667 -12.667 40 -35 40 -67
c0 -9.33301 -1 -19.666 -3 -30.999z" />
    <glyph glyph-name="f_l.liga" unicode="fl" horiz-adv-x="637" 
d="M421 714c52 0 93.334 -7.66406 124.001 -22.9971c20 4 37.667 10.333 53 19c9.33301 -6.66699 16 -13.5 20 -20.5s6 -16.167 6 -27.5c0 -8 -1 -17.667 -3 -29c-17.333 -100 -37 -206.333 -59 -319c-6 -27.333 -13.333 -64.666 -22 -111.999c-8 -44 -12 -73.667 -12 -89
c0 -10.667 1.33301 -18 4 -22s6.66699 -6 12 -6c11.333 0 25.333 7 42 21c6 -6 11.5 -13.667 16.5 -23s8.16699 -18.333 9.5 -27c-19.333 -20.667 -41.5 -36.667 -66.5 -48s-49.833 -17 -74.5 -17c-33.333 0 -57.166 7.66699 -71.499 23s-21.5 37.666 -21.5 66.999
c0 38.667 25.333 185.667 76 441c4.66699 21.333 7 41.666 7 60.999c0 23.333 -4.83301 40.833 -14.5 52.5s-25.5 17.5 -47.5 17.5c-20.667 0 -38.334 -5.83301 -53.001 -17.5s-27.834 -32.334 -39.501 -62.001s-22.167 -71.5 -31.5 -125.5h95
c0 -29.333 -2.66699 -50.333 -8 -63c-34 0 -67.667 -3.66699 -101 -11c-17.333 -106 -27.333 -168 -30 -186l-7 -43c-12 -73.333 -30.667 -139.833 -56 -199.5s-56.666 -106.834 -93.999 -141.501s-78.666 -52 -123.999 -52c-38.667 0 -72.334 14.333 -101.001 43
c-0.666992 13.333 0.5 27.833 3.5 43.5s7.16699 29.5 12.5 41.5c30.667 -13.333 67 -20 109 -20c19.333 0 34.333 3.83301 45 11.5s20 24.667 28 51s15.333 67.5 22 123.5l5 42c13.333 117.333 26 213.333 38 288c-26.667 7.33301 -52.334 11 -77.001 11
c0 26 4.33301 46.333 13 61h75c36 177.333 135.333 266 298 266z" />
    <glyph glyph-name="f_t.liga" unicode="ft" horiz-adv-x="678" 
d="M540 653c20.667 4 38 10.332 52 18.999c9.33301 -4.66699 16 -10.667 20 -18s6 -17 6 -29c0 -14.667 -2 -34.167 -6 -58.5s-11.333 -63.833 -22 -118.5h91c0 -30 -3 -51 -9 -63c-36.667 0 -69.667 -3.66699 -99 -11l-35 -149c-8.66699 -37.333 -13 -67.666 -13 -90.999
c0 -34.667 11 -52 33 -52c8.66699 0 18.334 3 29.001 9s20.334 13.667 29.001 23c6 -6.66699 11.167 -15.167 15.5 -25.5s7.16602 -20.166 8.49902 -29.499c-14.667 -18.667 -36.667 -34.667 -66 -48s-57.666 -20 -84.999 -20c-76.667 0 -115 41.667 -115 125
c0 30.667 4.33301 63.667 13 99l38 164c-13.333 3.33301 -31.666 5.66602 -54.999 6.99902c-0.666992 10.667 0.166016 21.834 2.49902 33.501s5.5 21.167 9.5 28.5h59c7.33301 28.667 12.166 50.167 14.499 64.5s3.5 27.833 3.5 40.5c0 42.667 -22.667 64 -68 64
c-20 0 -37 -4.5 -51 -13.5s-26.333 -25.667 -37 -50s-20 -59.5 -28 -105.5h70c0.666992 -10 0 -21.167 -2 -33.5s-4.66699 -21.833 -8 -28.5c-24.667 0 -49.334 -4 -74.001 -12c-17.333 -106 -27.333 -168 -30 -186l-7 -43c-12 -73.333 -30.667 -139.833 -56 -199.5
s-56.666 -106.834 -93.999 -141.501s-78.666 -52 -123.999 -52c-38.667 0 -72.334 14.333 -101.001 43c-0.666992 13.333 0.5 27.833 3.5 43.5s7.16699 29.5 12.5 41.5c30.667 -13.333 67 -20 109 -20c19.333 0 34.333 3.83301 45 11.5s20 24.667 28 51
s15.333 67.5 22 123.5l5 42c13.333 117.333 26 213.333 38 288c-26.667 7.33301 -52.334 11 -77.001 11c0 26 4.33301 46.333 13 61h75c16.667 80.667 49.167 139.167 97.5 175.5s112.166 54.5 191.499 54.5c48.667 0 91.334 -8.33301 128.001 -25z" />
    <glyph glyph-name="longs_t.liga" unicode="&#x17f;t" horiz-adv-x="678" 
d="M540 653c20.667 4 38.001 10.332 52.001 18.999c9.33301 -4.66699 16 -10.667 20 -18s6 -17 6 -29c0 -14.667 -2 -34.167 -6 -58.5s-11.333 -63.833 -22 -118.5h91c0 -30 -3 -51 -9 -63c-36.667 0 -69.667 -3.66699 -99 -11l-35 -149
c-8.66699 -37.333 -13 -67.666 -13 -90.999c0 -34.667 11 -52 33 -52c8.66699 0 18.334 3 29.001 9s20.334 13.667 29.001 23c6 -6.66699 11.167 -15.167 15.5 -25.5s7.16602 -20.166 8.49902 -29.499c-14.667 -18.667 -36.667 -34.667 -66 -48s-57.666 -20 -84.999 -20
c-76.667 0 -115 41.667 -115 125c0 30.667 4.33301 63.667 13 99l38 164c-13.333 3.33301 -31.666 5.66602 -54.999 6.99902c-0.666992 10.667 0.166016 21.834 2.49902 33.501s5.5 21.167 9.5 28.5h59c7.33301 28.667 12.166 50.167 14.499 64.5s3.5 27.833 3.5 40.5
c0 42.667 -22.667 64 -68 64c-20 0 -36.833 -4.33301 -50.5 -13s-25.834 -25.167 -36.501 -49.5s-20.334 -59.833 -29.001 -106.5c-13.333 -68.667 -28.333 -156.667 -45 -264l-6 -39c-12 -73.333 -30.667 -139.833 -56 -199.5s-56.666 -106.834 -93.999 -141.501
s-78.666 -52 -123.999 -52c-38.667 0 -72.334 14.333 -101.001 43c-0.666992 13.333 0.5 27.833 3.5 43.5s7.16699 29.5 12.5 41.5c30.667 -13.333 67 -20 109 -20c19.333 0 34.333 3.83301 45 11.5s20 24.667 28 51s15.333 67.5 22 123.5l5 42
c13.333 117.333 26 213.333 38 288c-26.667 7.33301 -52.334 11 -77.001 11c0 26 4.33301 46.333 13 61h75c16.667 80.667 49.167 139.167 97.5 175.5s112.166 54.5 191.499 54.5c48.667 0 91.334 -8.33301 128.001 -25z" />
    <glyph glyph-name="longs_h.liga" unicode="&#x17f;h" horiz-adv-x="925" 
d="M891.5 82c5 -9.33301 8.16992 -18.3281 9.50293 -26.9951c-42.667 -42.667 -90 -64 -142 -64c-32.667 0 -55.834 7.16699 -69.501 21.5s-20.5 35.5 -20.5 63.5c0 20 4 49 12 87l20 89c5.33301 22 8 42 8 60c0 27.333 -8.66699 41 -26 41
c-15.333 0 -33.166 -9.83301 -53.499 -29.5s-39.833 -49 -58.5 -88s-33 -85.5 -43 -139.5l-18 -96h-148l92 522c4 23.333 6 43.666 6 60.999c0 23.333 -4.66699 40.833 -14 52.5s-25 17.5 -47 17.5c-20.667 0 -38.334 -5.83301 -53.001 -17.5
s-27.834 -32.334 -39.501 -62.001s-22.167 -71.5 -31.5 -125.5l-45 -266l-6 -37c-12 -73.333 -30.667 -139.833 -56 -199.5s-56.666 -106.834 -93.999 -141.501s-78.666 -52 -123.999 -52c-38.667 0 -72.334 14.333 -101.001 43c-0.666992 13.333 0.5 27.833 3.5 43.5
s7.16699 29.5 12.5 41.5c30.667 -13.333 67 -20 109 -20c19.333 0 34.333 3.83301 45 11.5s20 24.667 28 51s15.333 67.5 22 123.5l5 42c13.333 117.333 26 213.333 38 288c-26.667 7.33301 -52.334 11 -77.001 11c0 26 4.33301 46.333 13 61h75
c36 177.333 135.333 266 298 266c52 0 93.333 -7.66699 124 -23c20 4 37.667 10.333 53 19c9.33301 -6.66699 16 -13.5 20 -20.5s6 -16.167 6 -27.5c0 -8 -1 -17.667 -3 -29c-20 -112.667 -34.833 -191.334 -44.5 -236.001s-21.834 -89 -36.501 -133v-3l24 50
c20 42 49.333 78.5 88 109.5s77.667 46.5 117 46.5c28.667 0 52.167 -9.16699 70.5 -27.5s27.5 -47.5 27.5 -87.5c0 -21.333 -3.66699 -48.333 -11 -81l-24 -101c-8.66699 -36.667 -13 -60.334 -13 -71.001c0 -6 1 -10 3 -12s5.33301 -3 10 -3c10.667 0 25 7.33301 43 22
c6 -6.66699 11.5 -14.667 16.5 -24z" />
    <glyph glyph-name="longs_i.liga" unicode="&#x17f;i" horiz-adv-x="639" 
d="M611 682c-14.667 -41.333 -22.666 -83 -23.999 -125c-8 -4 -19.333 -7.16699 -34 -9.5s-29.667 -3.5 -45 -3.5s-26 0.666992 -32 2c-1.33301 34 -8 60.5 -20 79.5s-29.667 28.5 -53 28.5c-22.667 0 -41.334 -5.83301 -56.001 -17.5s-27.5 -32.167 -38.5 -61.5
s-21.833 -71.666 -32.5 -126.999c-8.66699 -43.333 -22.667 -124 -42 -242l-10 -61c-12 -73.333 -30.667 -139.833 -56 -199.5s-56.666 -106.834 -93.999 -141.501s-78.666 -52 -123.999 -52c-38.667 0 -72.334 14.333 -101.001 43c-0.666992 13.333 0.5 27.833 3.5 43.5
s7.16699 29.5 12.5 41.5c30.667 -13.333 67 -20 109 -20c19.333 0 34.333 3.83301 45 11.5s20 24.667 28 51s15.333 67.5 22 123.5l5 42c13.333 117.333 26 213.333 38 288c-26.667 7.33301 -52.334 11 -77.001 11c0 26 4.33301 46.333 13 61h75
c18 90.667 52 157.667 102 201s116 65 198 65c81.333 0 144 -10.667 188 -32zM381.001 81c0 20.667 3.66797 45.668 11.001 75.001l29 114c8 33.333 12 54.666 12 63.999c0 13.333 -4.33301 22.166 -13 26.499s-24 6.5 -46 6.5c0 23.333 3.33301 43 10 59
c29.333 1.33301 59.166 5.83301 89.499 13.5s57.833 16.834 82.5 27.501c25.333 -11.333 38 -33.333 38 -66c0 -12.667 -2 -28.667 -6 -48l-45 -189c-6.66699 -27.333 -10 -47.333 -10 -60c0 -7.33301 1.16699 -12.333 3.5 -15s5.83301 -4 10.5 -4c11.333 0 25 7 41 21
c6 -5.33301 11.5 -12.833 16.5 -22.5s8.16699 -19.167 9.5 -28.5c-20.667 -21.333 -43.167 -37.333 -67.5 -48s-48.833 -16 -73.5 -16c-61.333 0 -92 30 -92 90z" />
    <glyph glyph-name="longs_longs.liga" unicode="&#x17f;&#x17f;" horiz-adv-x="677" 
d="M819.5 708c21 -4 36.502 -9.00098 46.502 -15.001c-6.66699 -18 -12.5 -40.5 -17.5 -67.5s-7.83301 -49.833 -8.5 -68.5c-6.66699 -3.33301 -17.5 -6 -32.5 -8s-29.167 -3 -42.5 -3c-1.33301 34 -5 60.167 -11 78.5s-17 27.5 -33 27.5c-14 0 -25.833 -5.5 -35.5 -16.5
s-18.834 -30.833 -27.501 -59.5s-18.334 -71.334 -29.001 -128.001c-28 -146.667 -47 -242 -57 -286s-21.667 -81.667 -35 -113c-32.667 -74.667 -77 -136 -133 -184s-114 -72 -174 -72c-47.333 0 -88.333 15.667 -123 47c-45.333 -58.667 -97.666 -88 -156.999 -88
c-38.667 0 -72.334 14.333 -101.001 43c-0.666992 13.333 0.5 27.833 3.5 43.5s7.16699 29.5 12.5 41.5c30.667 -13.333 66.334 -20 107.001 -20c21.333 0 37.333 4 48 12s19.667 24.833 27 50.5s14.666 66.834 21.999 123.501l6 47c8.66699 69.333 23 163.666 43 282.999
c-26.667 7.33301 -52.334 11 -77.001 11c0 28 4.33301 48.333 13 61h76c18.667 78.667 53.5 138.334 104.5 179.001s116.167 61 195.5 61c50 0 96.667 -11.333 140 -34c22.667 20.667 48.834 35.834 78.501 45.501s64.167 14.5 103.5 14.5c24 0 46.5 -2 67.5 -6z
M333.002 584.999c-21.333 -28 -38.333 -73.667 -51 -137l-58 -299l-5 -28c-15.333 -80.667 -38.333 -151.334 -69 -212.001c26 -12 57 -18 93 -18c33.333 0 59.5 3.5 78.5 10.5s34.667 19.5 47 37.5s23.5 44.667 33.5 80c23.333 81.333 44.666 200.333 63.999 357
c-26.667 7.33301 -52 11 -76 11c0 26.667 4 47 12 61h75l1 6c2.66699 16 7.33398 36.333 14.001 61s14 45.334 22 62.001c-23.333 33.333 -56 50 -98 50c-34 0 -61.667 -14 -83 -42z" />
    <glyph glyph-name="uni04070407.rlig" unicode="&#x407;&#x407;" horiz-adv-x="777" 
d="M133 739.5c-12.667 11.667 -18.9971 26.166 -18.9971 43.499c0 19.333 7.16699 36.5 21.5 51.5s34.833 22.5 61.5 22.5c23.333 0 40.833 -5.5 52.5 -16.5s17.5 -25.833 17.5 -44.5c0 -4 -0.666992 -10.667 -2 -20c-2.66699 -15.333 -11.834 -28.166 -27.501 -38.499
s-33.834 -15.5 -54.501 -15.5s-37.334 5.83301 -50.001 17.5zM325.003 738.499c-12 11 -18.001 26.167 -18.001 45.5c0 4.66699 0.666992 11.667 2 21c2.66699 16.667 11.5 29.5 26.5 38.5s33.5 13.5 55.5 13.5c20.667 0 37.334 -5.83301 50.001 -17.5s19 -26.167 19 -43.5
c0 -20.667 -6.66699 -38.167 -20 -52.5s-34 -21.5 -62 -21.5c-23.333 0 -41 5.5 -53 16.5zM520.002 739.499c-12.667 11.667 -18.999 26.166 -18.999 43.499c0 20 7.16699 37.333 21.5 52s35.166 22 62.499 22c24 0 41.5 -5.33301 52.5 -16s16.5 -25 16.5 -43
c0 -10 -0.666992 -17.333 -2 -22c-3.33301 -15.333 -12.5 -28.166 -27.5 -38.499s-32.833 -15.5 -53.5 -15.5c-21.333 0 -38.333 5.83301 -51 17.5zM712.503 738.498c-12.333 11 -18.501 26.167 -18.501 45.5c0 9.33301 0.666992 16.333 2 21
c3.33301 16.667 12.333 29.5 27 38.5s33 13.5 55 13.5c21.333 0 38.333 -5.83301 51 -17.5s19 -26.5 19 -44.5c0 -20 -6.83301 -37.167 -20.5 -51.5s-34.167 -21.5 -61.5 -21.5c-23.333 0 -41.166 5.5 -53.499 16.5zM177.002 564.998
c0 17.333 -4.33496 29.501 -13.002 36.501s-24 12.167 -46 15.5c-2 10 -3 21.667 -3 35c0 6 0.666992 15 2 27c29.333 -2 78.333 -3 147 -3c66 0 115.667 1 149 3c0 -22.667 -3.66699 -43.334 -11 -62.001c-18.667 -2.66699 -32.667 -6.83398 -42 -12.501
s-16.5 -15.167 -21.5 -28.5s-10.167 -35 -15.5 -65l-61 -355c-4 -20.667 -6 -37 -6 -49c0 -16 4 -27 12 -33s22.667 -11 44 -15c2 -12 3 -25 3 -39c0 -10 -0.333008 -17.667 -1 -23c-33.333 2 -81.666 3 -144.999 3c-59.333 0 -109.666 -1 -150.999 -3
c2 24.667 7 45.334 15 62.001c18 2.66699 31.333 6.5 40 11.5s15.667 13.667 21 26s10.333 31.833 15 58.5l63 367c3.33301 18.667 5 33 5 43zM566 564.999c0 17.333 -4.33496 29.501 -13.002 36.501s-24 12.167 -46 15.5c-2 10 -3 21.667 -3 35c0 6 0.666992 15 2 27
c29.333 -2 78.333 -3 147 -3c66 0 115.667 1 149 3c0 -22.667 -3.66699 -43.334 -11 -62.001c-18.667 -2.66699 -32.667 -6.83398 -42 -12.501s-16.5 -15.167 -21.5 -28.5s-10.167 -35 -15.5 -65l-61 -355c-4 -20.667 -6 -37 -6 -49c0 -16 4 -27 12 -33s22.667 -11 44 -15
c2 -12 3 -25 3 -39c0 -10 -0.333008 -17.667 -1 -23c-33.333 2 -81.666 3 -144.999 3c-59.333 0 -109.666 -1 -150.999 -3c2 24.667 7 45.334 15 62.001c18 2.66699 31.333 6.5 40 11.5s15.667 13.667 21 26s10.333 31.833 15 58.5l63 367c3.33301 18.667 5 33 5 43z" />
    <glyph glyph-name="uni04570457.rlig" unicode="&#x457;&#x457;" horiz-adv-x="604" 
d="M42 531.5c-11.333 12.333 -17.001 27.833 -17.001 46.5c0 8 1 15.333 3 22c9.33301 41.333 34 62 74 62c22 0 38.833 -5.33301 50.5 -16s17.5 -25.334 17.5 -44.001c0 -7.33301 -1 -15.666 -3 -24.999c-4.66699 -20 -13.5 -35.667 -26.5 -47s-29.5 -17 -49.5 -17
c-21.333 0 -37.666 6.16699 -48.999 18.5zM210.999 529.5c-11.333 11 -16.999 26.499 -16.999 46.499c0 4 0.666992 10.667 2 20c7.33301 44 33.333 66 78 66c21.333 0 37.666 -5.16699 48.999 -15.5s17 -25.166 17 -44.499c0 -4 -0.666992 -11.333 -2 -22
c-8 -44.667 -33.667 -67 -77 -67c-22 0 -38.667 5.5 -50 16.5zM381.5 530.499c-11.667 11.667 -17.499 27.167 -17.499 46.5c0 7.33301 1 15 3 23c9.33301 41.333 34 62 74 62c21.333 0 38 -5.33301 50 -16s18 -25.667 18 -45c0 -6.66699 -1 -14.667 -3 -24
c-4.66699 -20 -13.5 -35.667 -26.5 -47s-29.5 -17 -49.5 -17c-20.667 0 -36.834 5.83301 -48.501 17.5zM549.501 529.999c-11.667 11.333 -17.499 26.666 -17.499 45.999c0 4 0.666992 10.667 2 20c8.66699 44 35 66 79 66c21.333 0 37.666 -5.16699 48.999 -15.5
s17 -25.166 17 -44.499c0 -4 -0.666992 -11.333 -2 -22c-9.33301 -44.667 -35 -67 -77 -67c-22 0 -38.833 5.66699 -50.5 17zM44.002 80.999c0 20.667 3.66797 45.668 11.001 75.001l29 114c8 33.333 12 54.666 12 63.999c0 13.333 -4.33301 22.166 -13 26.499
s-24 6.5 -46 6.5c0 23.333 3.33301 43 10 59c29.333 1.33301 59.166 5.83301 89.499 13.5s57.833 16.834 82.5 27.501c25.333 -11.333 38 -33.333 38 -66c0 -12.667 -2 -28.667 -6 -48l-45 -189c-6.66699 -27.333 -10 -47.333 -10 -60c0 -7.33301 1.16699 -12.333 3.5 -15
s5.83301 -4 10.5 -4c11.333 0 25 7 41 21c6 -5.33301 11.5 -12.833 16.5 -22.5s8.16699 -19.167 9.5 -28.5c-20.667 -21.333 -43.167 -37.333 -67.5 -48s-48.833 -16 -73.5 -16c-61.333 0 -92 30 -92 90zM346.003 81c0 20.667 3.66797 45.668 11.001 75.001l29 114
c8 33.333 12 54.666 12 63.999c0 13.333 -4.33301 22.166 -13 26.499s-24 6.5 -46 6.5c0 23.333 3.33301 43 10 59c29.333 1.33301 59.166 5.83301 89.499 13.5s57.833 16.834 82.5 27.501c25.333 -11.333 38 -33.333 38 -66c0 -12.667 -2 -28.667 -6 -48l-45 -189
c-6.66699 -27.333 -10 -47.333 -10 -60c0 -7.33301 1.16699 -12.333 3.5 -15s5.83301 -4 10.5 -4c11.333 0 25 7 41 21c6 -5.33301 11.5 -12.833 16.5 -22.5s8.16699 -19.167 9.5 -28.5c-20.667 -21.333 -43.167 -37.333 -67.5 -48s-48.833 -16 -73.5 -16
c-61.333 0 -92 30 -92 90z" />
    <glyph glyph-name=".notdef" horiz-adv-x="453" 
d="M138 677h352l-132 -677h-352zM405 319v270h-270v-270h270zM145 579h70v-70h-70v70zM325 349h20v10h-10v10h-10v-20h-10v10h-20v20h-10v10h-10v-20h-10v10h-10v-10h-20v10h10v10h-10v10h10v20h-20v20h10v30h10v-40h10v20h10v10h-10v20h-20v10h-10v50h20v20h-20v20h10v-10
h10v10h30v-20h-10v10h-10v-20h10v-10h-10v-10h-20v-30h10v20h10v-30h10v50h10v20h10v-10h10v-10h-10v-10h-10v-50h-10v-10h10v-30h-10v-20h10v-20h20v-10h10v10h-10v50h10v10h-20v10h10v20h10v-10h10v-50h-10v-10h30v20h-10v20h10v10h20v20h10v-10h10v-10h-10v-10h-20v-40
h10v-20h10v-10h-10v-10h10v-10h20v-10h10v-10h-20v10h-20v-20h-30v10zM325 579h70v-70h-70v70zM205 519v50h-50v-50h50zM385 519v50h-50v-50h50zM165 559h30v-30h-30v30zM295 559h10v-10h-10v10zM345 559h30v-30h-30v30zM305 549h10v-10h-10v10zM325 489h-20v40h10v-30h40
v-10h-10v-10h-20v10zM285 519h10v-10h-10v10zM145 499h30v-10h20v10h20v-10h-10v-10h20v-10h-30v10h-40v-10h10v-10h-20v40zM385 479h-10v20h20v-30h-10v10zM275 479h10v-10h-10v10zM175 469h10v-10h-10v10zM175 449h20v10h30v-20h-10v10h-10v-10h-20v-10h-10v20zM385 439
h-10v10h10v10h10v-30h-10v10zM145 439h10v10h10v-20h-20v10zM205 439h10v-10h-10v10zM355 439h20v-10h-20v10zM185 429h20v-10h20v-10h-40v20zM145 419h30v-10h-30v10zM375 419h10v-10h-10v10zM225 409h10v-10h-10v10zM345 379v30h-30v-30h30zM365 409h10v-10h-10v10z
M385 409h10v-20h-10v20zM145 399h70v-70h-70v70zM325 399h10v-10h-10v10zM205 339v50h-50v-50h50zM225 389h10v-10h-10v10zM375 389h10v-10h-10v10zM165 379h30v-30h-30v30zM225 359h10v-20h10v20h10v10h10v-20h-10v-10h10v10h10v-20h-50v30zM285 359h10v-20h-10v20z
M305 349h10v-20h-10v20zM355 339h10v-10h-10v10zM385 339h10v-10h-10v10zM184 227v3c-2.66699 0 -4 2 -4 6v32c0 2 -0.666992 3 -2 3c-2.66699 -1.33301 -6 -2 -10 -2v-3c3.33301 0 5 -1.33301 5 -4v-26c0 -2 -0.333008 -3.5 -1 -4.5s-2 -1.5 -4 -1.5v-3h16zM203 227v3
c-2.66699 0 -4 2 -4 6v32c0 2 -0.666992 3 -2 3c-2.66699 -1.33301 -6 -2 -10 -2v-3c3.33301 0 5 -1.33301 5 -4v-26c0 -4 -1.33301 -6 -4 -6v-3h15zM223 227v3c-2.66699 0 -4 2 -4 6v5l11 -14h9v3c-2 0 -4.5 2 -7.5 6s-5.16699 6.66699 -6.5 8c6 6 10.333 9 13 9v3h-14v-3
c2 0 3 -0.333008 3 -1c0 -1.33301 -2.66699 -4.33301 -8 -9v25c0 2 -0.666992 3 -2 3c-2.66699 -1.33301 -6 -2 -10 -2v-3c3.33301 0 5 -1.33301 5 -4v-26c0 -4 -1.33301 -6 -4 -6v-3h15zM119 227l8.99902 20.999c0.666992 0.666992 1.33398 1.83398 2.00098 3.50098
s1.66699 2.5 3 2.5v3h-12v-3c4 0 5 -2 3 -6l-5 -13l-4 10c-1.33301 4 -1.83301 6.5 -1.5 7.5s1.5 1.5 3.5 1.5v3h-16v-3c2 0 3.66699 -2 5 -6l9 -21h4zM160.999 230.999c2.66699 2.66699 4 6.33398 4 11.001s-1.33301 8.33398 -4 11.001s-6.33398 4 -11.001 4
s-8.33398 -1.33301 -11.001 -4s-4 -6.33398 -4 -11.001s1.33301 -8.33398 4 -11.001s6.33398 -4 11.001 -4s8.33398 1.33301 11.001 4zM266.999 230.999c2.66699 2.66699 4 6.33398 4 11.001s-1.33301 8.33398 -4 11.001s-6.33398 4 -11.001 4s-8.33398 -1.33301 -11.001 -4
s-4 -6.33398 -4 -11.001s1.33301 -8.33398 4 -11.001s6.33398 -4 11.001 -4s8.33398 1.33301 11.001 4zM292.999 226.999l0.000976562 2.99902c-2.66699 0 -4.33398 0.333008 -5.00098 1s-1 2.33398 -1 5.00098v5c0 2.66699 0.5 5 1.5 7s2.16699 3 3.5 3
c2 0 3 -1.33301 3 -4h4v9c-0.666992 0.666992 -2 1 -4 1c-3.33301 0 -6 -2.33301 -8 -7v3c0 2 -0.666992 3.33301 -2 4c-2.66699 -1.33301 -6 -2 -10 -2v-3c3.33301 0 5 -1.66699 5 -5v-11c0 -2 -0.333008 -3.5 -1 -4.5s-2 -1.5 -4 -1.5v-3h18zM318 226.998l-0.000976562 3
c-2.66699 0 -4 2 -4 6v6c0 7.33301 2.33301 11 7 11c3.33301 0 5 -2.66699 5 -8v-9c0 -4 -1.33301 -6 -4 -6v-3h15v3c-2.66699 0 -4 2 -4 6v10c0 7.33301 -3 11 -9 11c-5.33301 0 -8.66602 -2.33301 -9.99902 -7v3c0 2 -0.666992 3.33301 -2 4
c-2.66699 -1.33301 -5.66699 -2 -9 -2v-3c2.66699 0 4 -1.66699 4 -5v-11c0 -4 -1.33301 -6 -4 -6v-3h15zM142.999 241.998c0 7.33301 2.33301 11 7 11s7 -3.66699 7 -11s-2.33301 -11 -7 -11s-7 3.66699 -7 11zM248.999 241.998c0 7.33301 2.33301 11 7 11
s7 -3.66699 7 -11s-2.33301 -11 -7 -11s-7 3.66699 -7 11zM359.999 239.998v6h-18v-6h18zM230.999 162.998l0.000976562 2.99902c-2.66699 0 -4.33398 0.333008 -5.00098 1s-1 2.33398 -1 5.00098v17h7v3h-7c0 7.33301 1.33301 11 4 11c3.33301 0 5 -2 5 -6h4v8
c-1.33301 1.33301 -3.33301 2 -6 2c-4 0 -7.33301 -1.16699 -10 -3.5s-4 -5.83301 -4 -10.5v-1h-5v-3h5v-17c0 -4 -1.33301 -6 -4 -6v-3h17zM109 164.997l-0.999023 3l-4 -1c-2 0 -3 2 -3 6v16h7v3h-7v7c0 2 -0.666992 3 -2 3l-5 -3v-7h-5v-3h5v-18
c0 -5.33301 2.66699 -8 8 -8c3.33301 0 5.66602 0.666992 6.99902 2zM164.001 147.997l0.00195312 2.99902c-2.66699 0 -4.33398 0.333008 -5.00098 1s-1 2.33398 -1 5.00098v6h5c4.66699 0 8.5 1.5 11.5 4.5s4.5 6.83301 4.5 11.5c0 9.33301 -3.66699 14 -11 14
c-4.66699 0 -8 -2 -10 -6v3c0 1.33301 -0.333008 2.33301 -1 3c-2.66699 -1.33301 -6.33398 -2 -11.001 -2v-3c3.33301 0 5 -1.66699 5 -5v-26c0 -2 -0.333008 -3.5 -1 -4.5s-2 -1.5 -4 -1.5v-3h18zM209.003 166.996l-2.00195 3c-2 -2 -4.66699 -3 -8 -3
c-2 0 -3.83301 1 -5.5 3s-2.5 4.33301 -2.5 7h17l1 3c0 3.33301 -1.16699 6.33301 -3.5 9s-5.16602 4 -8.49902 4c-4 0 -7.33301 -1.5 -10 -4.5s-4 -6.5 -4 -10.5c0 -10 5 -15 15 -15c4.66699 0 8.33398 1.33301 11.001 4zM254.001 167.996
c0 -3.33301 0.666992 -4.99902 2 -4.99902l7 2v3c-1.33301 0 -2.16602 0.5 -2.49902 1.5s-0.5 2.16699 -0.5 3.5v7c0 8.66699 -3.66699 13 -11 13c-4 0 -7.66699 -1 -11 -3l1 -7h4c0 4 1.66699 6 5 6c2 0 3.33301 -0.833008 4 -2.5s1 -3.83398 1 -6.50098
c-11.333 -2 -17 -5.66699 -17 -11c0 -4 2.66699 -6 8 -6s8.66602 1.66699 9.99902 5zM291.001 166.997l-2 3c-2 -2 -4.33301 -3 -7 -3s-4.66699 1 -6 3s-2 4.66699 -2 8c0 7.33301 2 11 6 11c3.33301 0 5.33301 -2.33301 6 -7h4v8c-2 2 -5 3 -9 3s-7.33301 -1.5 -10 -4.5
s-4 -6.5 -4 -10.5c0 -10 4.66699 -15 14 -15c4 0 7.33301 1.33301 10 4zM321.001 166.997l-2.00195 3c-2 -2 -4.66699 -3 -8 -3c-2 0 -3.83301 1 -5.5 3s-2.5 4.33301 -2.5 7h17l1 3c0 3.33301 -1.16699 6.33301 -3.5 9s-5.16602 4 -8.49902 4c-4 0 -7.33301 -1.5 -10 -4.5
s-4 -6.5 -4 -10.5c0 -10 5 -15 15 -15c4.66699 0 8.33398 1.33301 11.001 4zM128.999 160.997l9 22c2 4 3.66699 6 5 6v3h-12v-3c4 0 5 -2.33301 3 -7l-4 -11l-5 12c-2 4 -1 6 3 6v3h-17v-3c2.66699 0 4.66699 -2 6 -6l9 -21c0 -0.666992 -0.666992 -2.16699 -2 -4.5
s-3.33301 -3.5 -6 -3.5l-5 1v-5c1.33301 -1.33301 3 -2 5 -2c4 0 7.66699 4.33301 11 13zM195.999 188.997c4 0 6 -2.66699 6 -8h-11c0 5.33301 1.66699 8 5 8zM307.999 188.997c4 0 6 -2.66699 6 -8h-11c0 5.33301 1.66699 8 5 8zM157.999 166.997v9c0 8 2.33301 12 7 12
c4 0 6 -3.33301 6 -10c0 -7.33301 -2.66699 -11 -8 -11h-5zM243.999 170.997c0 2.66699 3 4.66699 9 6c0 -6.66699 -2 -10 -6 -10c-2 0 -3 1.33301 -3 4zM114.999 102.997l-2 3c-2 -2 -4.33301 -3 -7 -3s-4.66699 1 -6 3s-2 4.66699 -2 8c0 7.33301 2 11 6 11
c3.33301 0 5.33301 -2.33301 6 -7h4v8c-2 2 -5 3 -9 3s-7.33301 -1.5 -10 -4.5s-4 -6.5 -4 -10.5c0 -10 4.66699 -15 14 -15c4 0 7.33301 1.33301 10 4zM144.999 102.997c2.66699 2.66699 4 6.33398 4 11.001s-1.33301 8.33398 -4 11.001s-6.33398 4 -11.001 4
s-8.33398 -1.33301 -11.001 -4s-4 -6.33398 -4 -11.001s1.33301 -8.33398 4 -11.001s6.33398 -4 11.001 -4s8.33398 1.33301 11.001 4zM188.999 124.997c3.33301 0 4.99805 -2.66699 4.99805 -8v-9c0 -4 -1.33301 -6 -4 -6v-3h15v3c-2.66699 0 -4 2 -4 6v10
c0 7.33301 -3 11 -9 11c-5.33301 0 -8.66602 -2 -9.99902 -6c-1.33301 4 -4.33301 6 -9 6c-5.33301 0 -8.66602 -2.33301 -9.99902 -7v3c0 2 -0.666992 3.33301 -2 4c-2.66699 -1.33301 -5.66699 -2 -9 -2v-3c2.66699 0 4 -1.66699 4 -5v-11c0 -4 -1.33301 -6 -4 -6v-3h15v3
c-2.66699 0 -4 2 -4 6v6c0 7.33301 2.33301 11 7 11c3.33301 0 5 -2.66699 5 -8v-9c0 -4 -1.33301 -6 -4 -6v-3h15v3c-2.66699 0 -4 2 -4 6v6c0 7.33301 2.33301 11 7 11zM126.997 113.997c0 7.33301 2.33301 11 7 11s7 -3.66699 7 -11s-2.33301 -11 -7 -11
s-7 3.66699 -7 11zM83.9971 103.997c0 3.33301 -1.66699 5 -5 5s-5 -1.66699 -5 -5s1.66699 -5 5 -5s5 1.66699 5 5z" />
    <glyph glyph-name="NULL" horiz-adv-x="0" 
 />
    <glyph glyph-name="nonmarkingreturn" unicode="&#xd;" horiz-adv-x="191" 
 />
    <glyph glyph-name="space" unicode=" " horiz-adv-x="191" 
 />
    <glyph glyph-name="exclam" unicode="!" horiz-adv-x="421" 
d="M309.5 455c-20.333 -76.667 -38.499 -149.668 -54.499 -219.001l-18 -1c-24 0 -43.333 3.66699 -58 11c15.333 138 24.666 282 27.999 432c22.667 3.33301 46.667 8.33301 72 15s47 14.334 65 23.001c17.333 -5.33301 26 -17.333 26 -36
c0 -9.33301 -2.66699 -22.666 -8 -39.999c-14.667 -46.667 -32.167 -108.334 -52.5 -185.001zM125.001 10.499c-14.667 13 -21.999 31.167 -21.999 54.5c0 28 7.83301 50 23.5 66s38.167 24 67.5 24c21.333 0 39.333 -6.66699 54 -20s22 -31.333 22 -54
c0 -4.66699 -0.666992 -11.667 -2 -21c-4 -22 -13 -39 -27 -51s-33 -18 -57 -18c-24.667 0 -44.334 6.5 -59.001 19.5z" />
    <glyph glyph-name="quotedbl" unicode="&#x22;" horiz-adv-x="372" 
d="M249 682c0 -10 -2.33105 -20.667 -6.99805 -32c-17.333 -45.333 -37.333 -115.333 -60 -210c-25.333 0 -45.333 4.33301 -60 13c13.333 85.333 20.666 164.333 21.999 237c31.333 3.33301 59.666 12 84.999 26c13.333 -6 20 -17.333 20 -34zM404.002 682
c0 -10 -2.33105 -20.667 -6.99805 -32c-17.333 -45.333 -37.333 -115.333 -60 -210c-25.333 0 -45.333 4.33301 -60 13c13.333 85.333 20.666 164.333 21.999 237c31.333 3.33301 59.666 12 84.999 26c13.333 -6 20 -17.333 20 -34z" />
    <glyph glyph-name="numbersign" unicode="#" horiz-adv-x="610" 
d="M483 437l-33.001 -168.001h112c0 -26 -4.66699 -50 -14 -72h-95h-17l-40 -206c-32 2 -54 9.66699 -66 23l36 183c-71.333 0 -121 -0.333008 -149 -1l-40 -205c-14 1.33301 -27 4.33301 -39 9s-21 10.667 -27 18l35 178l-54 -1c-26 0 -44 -0.333008 -54 -1
c0 30.667 4.66699 55.667 14 75h108l33 167c-28 0 -63.333 -0.666992 -106 -2c0 28 4.66699 53 14 75h106l41 207c14.667 -1.33301 28 -4 40 -8s20.667 -9.33301 26 -16l-36 -183h149l40 207c14 -0.666992 27.333 -3.16699 40 -7.5s21.334 -9.16602 26.001 -14.499l-36 -185
h102c0 -28.667 -4.33301 -52.667 -13 -72h-76h-27zM412.999 436.999h-149l-33 -168h149z" />
    <glyph glyph-name="dollar" unicode="$" horiz-adv-x="501" 
d="M353 605l-38.9971 -195.003c34 -21.333 61.167 -40 81.5 -56s37.833 -36.167 52.5 -60.5s22 -52.5 22 -84.5c0 -7.33301 -1.33301 -20.333 -4 -39c-8.66699 -51.333 -35 -93.166 -79 -125.499s-97 -50.166 -159 -53.499l-14 -80
c-31.333 1.33301 -54.666 7.66602 -69.999 18.999l12 64c-32.667 3.33301 -60.834 10.333 -84.501 21s-48.5 26.334 -74.5 47.001c18 50.667 29.333 100.334 34 149.001c18 3.33301 34.667 5 50 5s28.666 -1.33301 39.999 -4c-1.33301 -16 -2 -27.333 -2 -34
c0 -57.333 17.333 -94 52 -110l40 212c-41.333 28 -73.5 56.333 -96.5 85s-34.5 66 -34.5 112c0 13.333 1.66699 30 5 50c8.66699 46 32.167 82.833 70.5 110.5s86.166 43.167 143.499 46.5l13 70c28 0 51 -5.66699 69 -17l-12 -55c26.667 -2.66699 50.667 -8 72 -16
s39 -17.667 53 -29c-8 -58 -11.667 -106 -11 -144c-18 -6 -37.667 -9 -59 -9c-6 0 -15 0.666992 -27 2c-0.666992 58 -15.334 97.667 -44.001 119zM206.003 533.997c0 -16 4.16699 -30.501 12.5 -43.501s20.166 -25.833 35.499 -38.5l32 168
c-45.333 -4 -71.666 -27.333 -78.999 -70c-0.666992 -3.33301 -1 -8.66602 -1 -15.999zM312.503 196.996c-9.66699 14 -23.168 27.667 -40.501 41l-32 -179c24.667 3.33301 45.334 13.333 62.001 30s25 37 25 61c0 17.333 -4.83301 33 -14.5 47z" />
    <glyph glyph-name="percent" unicode="%" horiz-adv-x="771" 
d="M147.5 13.5c-9 10.333 -14.167 21.167 -15.5 32.5l514 639c26 -11.333 41.667 -30 47 -56l-257.5 -313l-257.5 -325c-11.333 4.66699 -21.5 12.167 -30.5 22.5zM120.5 395.501c-25 24.333 -37.499 57.498 -37.499 99.498c0 12.667 1.66699 28.334 5 47.001
c8.66699 40.667 28.167 73.334 58.5 98.001s66.166 37 107.499 37s73.833 -12.167 97.5 -36.5s35.5 -56.5 35.5 -96.5c0 -18 -1.66699 -34 -5 -48c-8.66699 -40.667 -27.667 -73.667 -57 -99s-63.333 -38 -102 -38c-43.333 0 -77.5 12.167 -102.5 36.5zM267.501 438.999
c11.667 12.667 19.834 30.665 24.501 53.998c3.33301 18 5 33 5 45c0 24 -4.83301 43 -14.5 57s-22.834 21 -39.501 21c-14.667 0 -28.167 -6.5 -40.5 -19.5s-20.833 -30.5 -25.5 -52.5c-2.66699 -13.333 -4 -27.666 -4 -42.999c0 -25.333 4.83301 -45.166 14.5 -59.499
s23.5 -21.5 41.5 -21.5c14 0 26.833 6.33301 38.5 19zM462.501 27.4971c-25 24.333 -37.499 57.498 -37.499 99.498c0 12.667 1.66699 28.334 5 47.001c8.66699 40.667 28.167 73.334 58.5 98.001s66.166 37 107.499 37s73.833 -12.167 97.5 -36.5s35.5 -56.5 35.5 -96.5
c0 -18 -1.66699 -34 -5 -48c-8.66699 -40.667 -27.667 -73.667 -57 -99s-63.333 -38 -102 -38c-43.333 0 -77.5 12.167 -102.5 36.5zM609.502 70.9951c11.667 12.667 19.834 30.665 24.501 53.998c3.33301 18 5 33 5 45c0 24 -4.83301 43 -14.5 57s-22.834 21 -39.501 21
c-14.667 0 -28.167 -6.5 -40.5 -19.5s-20.833 -30.5 -25.5 -52.5c-2.66699 -13.333 -4 -27.666 -4 -42.999c0 -25.333 4.83301 -45.166 14.5 -59.499s23.5 -21.5 41.5 -21.5c14 0 26.833 6.33301 38.5 19z" />
    <glyph glyph-name="ampersand" unicode="&#x26;" horiz-adv-x="770" 
d="M732.5 89c6.33301 -10 10.1611 -19.0059 11.4941 -27.0059c-13.333 -19.333 -33.333 -36 -60 -50s-55 -21 -85 -21c-28.667 0 -52.5 2.66699 -71.5 8s-38.833 17 -59.5 35c-68 -28.667 -137 -43 -207 -43c-82 0 -143.833 14.833 -185.5 44.5s-62.5 71.834 -62.5 126.501
c0 16 1.33301 30.667 4 44c8.66699 47.333 28.5 84.666 59.5 111.999s71.833 52 122.5 74c-16 30.667 -27.333 57.834 -34 81.501s-10 46.834 -10 69.501c0 18 1.33301 34 4 48c6 36.667 27.167 66.834 63.5 90.501s90.5 35.5 162.5 35.5c56.667 0 101 -10.667 133 -32
s48 -50.666 48 -87.999c0 -8 -1 -16.667 -3 -26c-6.66699 -33.333 -19.167 -61 -37.5 -83s-39.166 -39.333 -62.499 -52s-53.666 -26.667 -90.999 -42c20.667 -32 45 -67 73 -105c40.667 -56 75 -100.333 103 -133c13.333 14.667 24.333 30.834 33 48.501
s14.667 34.5 18 50.5c2 12 3 23 3 33c0 52 -30.333 78 -91 78c-0.666992 4.66699 -1 11.334 -1 20.001c0 12.667 1.66699 25.667 5 39c22.667 2.66699 49.334 8.16699 80.001 16.5s54.334 16.833 71.001 25.5c38 -13.333 57 -46 57 -98c0 -16 -2 -34.667 -6 -56
c-7.33301 -37.333 -21.666 -73 -42.999 -107s-48.333 -65 -81 -93c11.333 -8.66699 21.833 -14.5 31.5 -17.5s20.5 -4.5 32.5 -4.5c20.667 0 39.334 6.66699 56.001 20c6.66699 -4.66699 13.167 -12 19.5 -22zM336.995 449.994c28 14 50.5 30.166 67.5 48.499
s28.167 40.833 33.5 67.5c2 8 3 16 3 24c0 20 -6 36 -18 48s-28.333 18 -49 18c-24 0 -42.833 -7.66699 -56.5 -23s-20.5 -37 -20.5 -65c0 -31.333 13.333 -70.666 40 -117.999zM164.995 172.993c0 -36 12 -64.668 36 -86.001s55.667 -32 95 -32c43.333 0 86 7.33301 128 22
c-28 30.667 -65.667 78.334 -113 143.001c-26.667 35.333 -51 70.333 -73 105c-38 -31.333 -61.333 -72 -70 -122c-2 -10 -3 -20 -3 -30z" />
    <glyph glyph-name="quotesingle" unicode="'" horiz-adv-x="217" 
d="M249 682c0 -10 -2.33105 -20.667 -6.99805 -32c-17.333 -45.333 -37.333 -115.333 -60 -210c-25.333 0 -45.333 4.33301 -60 13c13.333 85.333 20.666 164.333 21.999 237c31.333 3.33301 59.666 12 84.999 26c13.333 -6 20 -17.333 20 -34z" />
    <glyph glyph-name="parenleft" unicode="(" horiz-adv-x="325" 
d="M248 531.5c-30.667 -67.667 -54.332 -150.5 -70.999 -248.5c-14 -80.667 -21 -158 -21 -232c0 -120 18 -223.333 54 -310c-14 -9.33301 -32.667 -13.333 -56 -12c-36 58 -63.667 121.333 -83 190s-29 139.667 -29 213c0 48 3.66699 92.667 11 134
c16.667 96 44.667 180.167 84 252.5s99.333 146.5 180 222.5c12 1.33301 23.333 0.333008 34 -3s19 -8.33301 25 -15c-54.667 -60 -97.334 -123.833 -128.001 -191.5z" />
    <glyph glyph-name="parenright" unicode=")" horiz-adv-x="317" 
d="M183 -33c-42 -78 -103.333 -157.333 -184 -238c-25.333 -1.33301 -45 3.33398 -59 14.001c58.667 76.667 104 151.667 136 225s56.667 159.666 74 258.999c13.333 73.333 20 144 20 212c0 106 -18 201 -54 285c16.667 11.333 35 17 55 17
c75.333 -126.667 113 -253 113 -379c0 -38.667 -3.66699 -80 -11 -124c-18 -102.667 -48 -193 -90 -271z" />
    <glyph glyph-name="asterisk" unicode="*" horiz-adv-x="483" 
d="M344.5 675c-15 4 -30.501 6.00098 -46.501 6.00098c-9.33301 0 -16.333 -0.333008 -21 -1c1.33301 -18 2 -43 2 -75c0 -31.333 -0.666992 -55.333 -2 -72c-44 35.333 -79.667 68.666 -107 99.999c-30 -18 -47.667 -48.333 -53 -91c47.333 -11.333 93 -26.333 137 -45
c-45.333 -29.333 -88 -53 -128 -71c8.66699 -38.667 31.667 -66 69 -82c30 45.333 59.333 85 88 119c12.667 -50 21.334 -98.667 26.001 -146c20.667 0 40.167 4 58.5 12s33.5 19 45.5 33c-36.667 44 -66.667 83.667 -90 119c52 -5.33301 102 -13 150 -23
c3.33301 16.667 5 31 5 43c0 26 -5.66699 49 -17 69c-48 -18 -95.333 -32.667 -142 -44c20.667 50 42 93.667 64 131c-10.667 8 -23.5 14 -38.5 18z" />
    <glyph glyph-name="plus" unicode="+" 
d="M507 231h-198c-9.33301 -50 -22.666 -125.667 -39.999 -227c-10.667 -1.33301 -18.334 -2 -23.001 -2c-20 0 -36 4.66699 -48 14l41 214c-66 0 -132.667 -1 -200 -3c0 28.667 6.66699 52.667 20 72h194l39 204c13.333 2.66699 23.333 4 30 4c13.333 0 27 -2.66699 41 -8
l-6 -30l-35 -170h203c0 -28 -6 -50.667 -18 -68z" />
    <glyph glyph-name="comma" unicode="," horiz-adv-x="244" 
d="M175 85c0 -11.333 -1.66699 -26.335 -5 -45.002c-8 -42 -24.833 -82.5 -50.5 -121.5s-57.167 -72.833 -94.5 -101.5c-24 2.66699 -40.667 12.667 -50 30c26 24.667 46.5 48.334 61.5 71.001s22.5 42.334 22.5 59.001c0 26 -18.333 42.333 -55 49c0 35.333 8 65.333 24 90
c20.667 0.666992 41.5 4.16699 62.5 10.5s38.833 13.833 53.5 22.5c20.667 -10 31 -31.333 31 -64z" />
    <glyph glyph-name="hyphen" unicode="-" horiz-adv-x="369" 
d="M66 304l269.002 0.000976562c-0.666992 -17.333 -2.33398 -32.333 -5.00098 -45s-7 -25.334 -13 -38.001c-104.667 0 -195.334 -1 -272.001 -3c3.33301 36 10.333 64.667 21 86z" />
    <glyph glyph-name="period" unicode="." horiz-adv-x="244" 
d="M28 11.5c-16 14.333 -24 34.168 -24 59.501c0 30.667 8.66699 54.667 26 72s42 26 74 26c23.333 0 42.833 -7.33301 58.5 -22s23.5 -34.334 23.5 -59.001c0 -30 -8 -53.833 -24 -71.5s-39 -26.5 -69 -26.5c-27.333 0 -49 7.16699 -65 21.5z" />
    <glyph glyph-name="slash" unicode="/" horiz-adv-x="296" 
d="M350.5 707c9.66699 -4.66699 18.5 -11.333 26.5 -20l-182.5 -356.5l-163.5 -339.5c-28 4 -48.667 16 -62 36l346 690c14 -2 25.833 -5.33301 35.5 -10z" />
    <glyph glyph-name="zero" unicode="0" horiz-adv-x="615" 
d="M109.5 52c-42.333 40.667 -63.5 95.332 -63.5 163.999c0 24 2.33301 47.667 7 71c13.333 68.667 46 122.667 98 162s116.667 59 194 59c74 0 131.5 -19.333 172.5 -58s61.5 -91.667 61.5 -159c0 -23.333 -2.33301 -46.333 -7 -69
c-13.333 -71.333 -45.5 -127.666 -96.5 -168.999s-113.5 -62 -187.5 -62c-76.667 0 -136.167 20.333 -178.5 61zM374.5 90.498c21.667 23.667 36.5 57.168 44.5 100.501c6 33.333 9 63.666 9 90.999c0 50 -9.33301 89.167 -28 117.5s-44.667 42.5 -78 42.5
c-29.333 0 -54.833 -12 -76.5 -36s-36.167 -57 -43.5 -99c-5.33301 -33.333 -8 -62 -8 -86c0 -51.333 9.33301 -91.833 28 -121.5s45 -44.5 79 -44.5c27.333 0 51.833 11.833 73.5 35.5z" />
    <glyph glyph-name="one" unicode="1" horiz-adv-x="416" 
d="M43 59c18.667 2.66699 32.334 6.50098 41.001 11.501s15.5 13.5 20.5 25.5s10.167 31.667 15.5 59l36 191c3.33301 20 5 34.333 5 43c0 17.333 -4.33301 29.5 -13 36.5s-24 12.167 -46 15.5c-2 10 -3 21.667 -3 35c0 6 0.666992 15 2 27c28.667 -2 77 -3 145 -3
c66.667 0 116.667 1 150 3c0 -23.333 -4 -44 -12 -62c-18.667 -2.66699 -32.334 -6.83398 -41.001 -12.501s-15.667 -15.167 -21 -28.5s-10.666 -35 -15.999 -65l-34 -179c-4 -20.667 -6 -37.334 -6 -50.001c0 -16 4 -26.833 12 -32.5s23.333 -10.5 46 -14.5
c2.66699 -16 4 -28 4 -36c0 -5.33301 -0.666992 -14 -2 -26c-33.333 2 -82.333 3 -147 3c-58.667 0 -108.334 -1 -149.001 -3c2 26.667 6.33301 47.334 13 62.001z" />
    <glyph glyph-name="two" unicode="2" horiz-adv-x="508" 
d="M102 459c-1.33301 -48 -8.3291 -92.335 -20.9961 -133.002c22 -10.667 50.333 -15.334 85 -14.001c8 48 18.667 81.833 32 101.5s31.333 29.5 54 29.5c18.667 0 33.5 -5.33301 44.5 -16s16.5 -25.667 16.5 -45c0 -6.66699 -1 -14.667 -3 -24
c-4.66699 -24 -15.834 -46.833 -33.501 -68.5s-43.834 -45.5 -78.501 -71.5l-105.5 -81.5c-20.333 -16.333 -45.833 -39.166 -76.5 -68.499c-0.666992 -3.33301 -1 -8.66602 -1 -15.999c0 -23.333 4.33301 -41.666 13 -54.999c45.333 2 109.333 3 192 3
c34.667 -0 70.667 -0.666992 108 -2c10 -0.666992 21.667 -1 35 -1c15.333 0 27.5 2.33301 36.5 7s16.5 13.334 22.5 26.001c-1.33301 20.667 -0.666016 44 2.00098 70s6.66699 50.667 12 74c-7.33301 3.33301 -16.666 6.16602 -27.999 8.49902s-22.333 3.5 -33 3.5
c-6.66699 0 -11.667 -0.333008 -15 -1c-5.33301 -23.333 -11.333 -39.166 -18 -47.499s-16.334 -12.5 -29.001 -12.5c-8.66699 0 -16 0.333008 -22 1c-18.667 1.33301 -35 2 -49 2c-25.333 0 -45 -0.666992 -59 -2c27.333 22 50.166 39.167 68.499 51.5
s30.166 20.166 35.499 23.499l37 25c47.333 30.667 81.166 56.5 101.499 77.5s32.833 45.167 37.5 72.5c1.33301 9.33301 2 16.333 2 21c0 34.667 -14.833 61.5 -44.5 80.5s-72.167 28.5 -127.5 28.5c-74 0 -137.667 -15.667 -191 -47z" />
    <glyph glyph-name="three" unicode="3" horiz-adv-x="499" 
d="M73 326c12 -5.33301 25.8311 -9.33008 41.498 -11.9971s30.5 -3.33398 44.5 -2.00098c8 48 18.833 81.833 32.5 101.5s31.834 29.5 54.501 29.5c19.333 0 34.5 -6 45.5 -18s16.5 -28.333 16.5 -49c0 -8 -1 -16.667 -3 -26c-6.66699 -35.333 -23.834 -64.333 -51.501 -87
s-66.167 -40.667 -115.5 -54c-1.33301 -8 -2 -14.333 -2 -19c0 -19.333 4 -34 12 -44c40.667 1.33301 72.167 -6.83398 94.5 -24.501s33.5 -42.834 33.5 -75.501c0 -11.333 -1.33301 -22.333 -4 -33c-8 -36.667 -25.5 -65.5 -52.5 -86.5s-61.5 -31.5 -103.5 -31.5
c-34.667 0 -62.667 5.33301 -84 16c-6 -3.33301 -12.167 -10.833 -18.5 -22.5s-9.83301 -21.834 -10.5 -30.501c25.333 -19.333 65 -29 119 -29c74 0 138.333 17.667 193 53s89.667 83.333 105 144c4.66699 16.667 7 34.334 7 53.001c0 34.667 -9.5 65.167 -28.5 91.5
s-45.5 45.5 -79.5 57.5c42.667 20.667 73.834 41.5 93.501 62.5s32.834 44.5 39.501 70.5c3.33301 13.333 5 25 5 35c0 34.667 -15 61.667 -45 81s-74 29 -132 29c-69.333 0 -131.333 -15.667 -186 -47c-1.33301 -46.667 -8.33301 -91 -21 -133z" />
    <glyph glyph-name="four" unicode="4" horiz-adv-x="575" 
d="M480 0h-77l-29 -153c-5.33301 0.666992 -13 1 -23 1c-34 0 -67.333 -6.33301 -100 -19c-14 6.66699 -21 17.667 -21 33c0 5.33301 0.333008 9.66602 1 12.999l23 124c-113.333 -1.33301 -189 -2.66602 -227 -3.99902c-13.333 20.667 -19.333 46.667 -18 78
c156.667 164.667 289 309 397 433c35.333 0 65 -4.33301 89 -13l-70 -372h46c18 0 31 -8.33301 39 -25c-12.667 -24.667 -22.667 -56.667 -30 -96zM134 121l144 0.000976562l13 73c4 20 9.5 45.167 16.5 75.5s12.167 50.5 15.5 60.5
c-50 -66.667 -113 -136.334 -189 -209.001z" />
    <glyph glyph-name="five" unicode="5" horiz-adv-x="482" 
d="M69 174c58 -4.66699 102.999 -18.501 134.999 -41.501s48 -52.833 48 -89.5c0 -9.33301 -1 -19 -3 -29c-7.33301 -36.667 -25.333 -65.667 -54 -87s-64 -32 -106 -32c-31.333 0 -58.666 5 -81.999 15c-14 -14 -23 -32.667 -27 -56c27.333 -16.667 66 -25 116 -25
c74.667 0 139.834 18.167 195.501 54.5s90.834 87.5 105.501 153.5c3.33301 14 5 30 5 48c0 56 -22.833 102.333 -68.5 139s-110.834 60.334 -195.501 71.001l22 75c40 2 117.333 3 232 3c23.333 0 38.333 8 45 24c4.66699 60.667 13 110.667 25 150c-16 6 -34.667 9 -56 9
c-10.667 0 -18.334 -0.333008 -23.001 -1c-7.33301 -36.667 -28.333 -55 -63 -55c-77.333 0 -138.333 1 -183 3l-86 -279c-0.666992 -19.333 5.33301 -36 18 -50z" />
    <glyph glyph-name="six" unicode="6" horiz-adv-x="574" 
d="M226 366c22 10.667 42.668 18.1689 62.001 22.502s40.333 6.5 63 6.5c52.667 0 94 -14.167 124 -42.5s45 -66.833 45 -115.5c0 -14.667 -1.66699 -31.334 -5 -50.001c-11.333 -61.333 -39.833 -109.333 -85.5 -144s-102.834 -52 -171.501 -52
c-66.667 0 -117.667 18 -153 54s-53 87 -53 153c0 27.333 3 57 9 89c13.333 68.667 40.833 128.667 82.5 180s95 91.666 160 120.999s138.167 46 219.5 50c4.66699 -6.66699 7 -16 7 -28c0 -10 -1.33301 -19.333 -4 -28c-153.333 -29.333 -253.333 -101.333 -300 -216z
M208.001 309.002l-2.99902 -17.001c-6.66699 -38 -10 -73 -10 -105c0 -42 6.33301 -74 19 -96s31 -33 55 -33c23.333 0 43.666 9.83301 60.999 29.5s29.333 46.167 36 79.5c3.33301 18.667 5 34.334 5 47.001c0 33.333 -8 60 -24 80s-37.333 30 -64 30c-26 0 -51 -5 -75 -15
z" />
    <glyph glyph-name="seven" unicode="7" horiz-adv-x="479" 
d="M479 443c-68 -92 -114.333 -157.5 -139 -196.5s-45.667 -77.167 -63 -114.5c-14 -30 -24.167 -62.833 -30.5 -98.5s-10.166 -82.5 -11.499 -140.5c-20 -6 -40.833 -14.833 -62.5 -26.5s-40.167 -23.834 -55.5 -36.501c-22.667 6.66699 -34 28 -34 64
c0 29.333 6.16699 60.833 18.5 94.5s38.166 80.834 77.499 141.501s98 141.334 176 242.001h-111c-26 0 -45.667 -5.33301 -59 -16s-24 -29.334 -32 -56.001c-33.333 -1.33301 -60.666 3.66699 -81.999 15c17.333 61.333 29.666 124 36.999 188c38 -2 99.667 -3 185 -3
c71.333 0 127.333 1 168 3c12 -16.667 18 -36.667 18 -60z" />
    <glyph glyph-name="eight" unicode="8" horiz-adv-x="552" 
d="M484.5 414.5c-22.333 -21.667 -52.498 -40.833 -90.498 -57.5c66.667 -52 100 -109.333 100 -172c0 -17.333 -2.33301 -34 -7 -50c-12.667 -48 -39.334 -84 -80.001 -108s-94.334 -36 -161.001 -36c-67.333 0 -119.5 12.167 -156.5 36.5s-55.5 58.5 -55.5 102.5
c0 15.333 1.66699 29.333 5 42c8.66699 36 25 66.5 49 91.5s58.333 48.167 103 69.5c-48.667 40.667 -73 85.334 -73 134.001c0 15.333 1.66699 28.666 5 39.999c10.667 42 35.667 74.167 75 96.5s89 33.5 149 33.5s105.5 -11 136.5 -33s46.5 -50.667 46.5 -86
c0 -8.66699 -1 -17.667 -3 -27c-6 -29.333 -20.167 -54.833 -42.5 -76.5zM396.002 514.001c0 20.667 -5.49805 36.666 -16.498 47.999s-25.5 17 -43.5 17c-17.333 0 -32 -4.66699 -44 -14s-20.333 -22.666 -25 -39.999c-2.66699 -8 -4 -16.333 -4 -25
c0 -20.667 6.66699 -39 20 -55s30.666 -31.333 51.999 -46c16.667 11.333 29.667 24 39 38s15.666 30.667 18.999 50c2 10 3 19 3 27zM342.004 159c0 24.667 -7.33301 46.332 -22 64.999s-38 40 -70 64c-18.667 -12.667 -33.167 -27.167 -43.5 -43.5
s-17.833 -36.166 -22.5 -59.499c-2 -12.667 -3 -24.667 -3 -36c0 -28.667 6.83301 -51.5 20.5 -68.5s32.5 -25.5 56.5 -25.5c42 0 68.667 23.667 80 71c2.66699 10.667 4 21.667 4 33z" />
    <glyph glyph-name="nine" unicode="9" horiz-adv-x="570" 
d="M474 452.5c35.333 -35.667 53 -86.168 53 -151.501c0 -25.333 -3 -53.666 -9 -84.999c-14.667 -73.333 -44.167 -138 -88.5 -194s-100.833 -100.5 -169.5 -133.5s-145.667 -52.167 -231 -57.5c-4.66699 8 -7 18 -7 30c0 7.33301 1 15.666 3 24.999
c84.667 16 152.334 43.667 203.001 83s88.667 88 114 146c-34.667 -17.333 -73.334 -26 -116.001 -26c-53.333 0 -94.333 14.833 -123 44.5s-43 69.834 -43 120.501c0 18.667 2 39 6 61c12 59.333 40.5 106 85.5 140s103.5 51 175.5 51c62.667 0 111.667 -17.833 147 -53.5z
M384 314.999c0 40.667 -6.66895 71.501 -20.002 92.501s-31.666 31.5 -54.999 31.5s-43.5 -9.83301 -60.5 -29.5s-28.5 -46.167 -34.5 -79.5c-3.33301 -21.333 -5 -40 -5 -56c0 -34.667 7.16699 -62.334 21.5 -83.001s36.833 -31 67.5 -31c22.667 0 44.334 5 65.001 15
c4.66699 16.667 8.66699 33.667 12 51c6 34 9 63.667 9 89z" />
    <glyph glyph-name="colon" unicode=":" horiz-adv-x="244" 
d="M88 306.5c-14.667 13 -21.999 31.167 -21.999 54.5c0 28 7.83301 50 23.5 66s38.167 24 67.5 24c21.333 0 39.333 -6.66699 54 -20s22 -31.333 22 -54c0 -4.66699 -0.666992 -11.667 -2 -21c-4 -22 -13 -39 -27 -51s-33 -18 -57 -18c-24.667 0 -44.334 6.5 -59.001 19.5z
M34.001 29.5c-14.667 13 -21.999 31.167 -21.999 54.5c0 28 7.83301 50 23.5 66s38.167 24 67.5 24c21.333 0 39.333 -6.66699 54 -20s22 -31.333 22 -54c0 -4.66699 -0.666992 -11.667 -2 -21c-4 -22 -13 -39 -27 -51s-33 -18 -57 -18c-24.667 0 -44.334 6.5 -59.001 19.5z
" />
    <glyph glyph-name="semicolon" unicode=";" horiz-adv-x="254" 
d="M94 306.5c-14.667 13 -21.999 31.167 -21.999 54.5c0 28 7.83301 50 23.5 66s38.167 24 67.5 24c21.333 0 39.333 -6.66699 54 -20s22 -31.333 22 -54c0 -4.66699 -0.666992 -11.667 -2 -21c-4 -22 -13 -39 -27 -51s-33 -18 -57 -18c-24.667 0 -44.334 6.5 -59.001 19.5z
M179.001 85c0 -11.333 -1.66699 -26.335 -5 -45.002c-8 -42 -24.833 -82.5 -50.5 -121.5s-57.167 -72.833 -94.5 -101.5c-24 2.66699 -40.667 12.667 -50 30c26 24.667 46.5 48.334 61.5 71.001s22.5 42.334 22.5 59.001c0 26 -18.333 42.333 -55 49
c0 35.333 8 65.333 24 90c20.667 0.666992 41.5 4.16699 62.5 10.5s38.833 13.833 53.5 22.5c20.667 -10 31 -31.333 31 -64z" />
    <glyph glyph-name="less" unicode="&#x3c;" 
d="M58 222c0 28 8.33301 53.333 25 76l381 206c12 -4 22.333 -10.5 31 -19.5s17 -21.5 25 -37.5l-374 -187l297 -181c0.666992 -12.667 -1.5 -26.5 -6.5 -41.5s-11.5 -26.167 -19.5 -33.5c-123.333 81.333 -243 154 -359 218z" />
    <glyph glyph-name="equal" unicode="=" 
d="M85 379l436 0.000976562c0 -15.333 -0.833008 -28.333 -2.5 -39s-4.83398 -21.334 -9.50098 -32.001c-53.333 0.666992 -121.666 1 -204.999 1c-94 0 -171 -0.666992 -231 -2c0 29.333 4 53.333 12 72zM50 202.001h438.001c0 -26 -4.33301 -49.667 -13 -71
c-52.667 0.666992 -121.334 1 -206.001 1c-94 0 -171 -0.666992 -231 -2c0 32 4 56 12 72z" />
    <glyph glyph-name="greater" unicode="&#x3e;" 
d="M471 216c-64 -30.667 -123 -60.5 -177 -89.5l-216 -119.5c-11.333 13.333 -17 30.666 -17 51.999c0 9.33301 1 18.333 3 27l347 174l-300 203c18 24 40.667 39.333 68 46l315 -223c2 -25.333 -5.66699 -48.666 -23 -69.999z" />
    <glyph glyph-name="question" unicode="?" horiz-adv-x="534" 
d="M274.5 704c29 8 58.165 11.9971 87.498 11.9971c54.667 0 97.834 -10.333 129.501 -31s47.5 -49.667 47.5 -87c0 -8.66699 -1 -18 -3 -28c-6 -28.667 -17.5 -52.834 -34.5 -72.501s-40.833 -41.167 -71.5 -64.5c-32 -25.333 -56.833 -48.333 -74.5 -69
s-29.167 -46.667 -34.5 -78c-2 -10 -3 -21.667 -3 -35c0 -7.33301 0.666992 -16.333 2 -27c-18 -10.667 -39.667 -15.334 -65 -14.001c-9.33301 6 -16.833 17.333 -22.5 34s-8.5 35.334 -8.5 56.001c0 11.333 1 23 3 35c6 30.667 16.167 55.834 30.5 75.501
s33.833 40.834 58.5 63.501c24 22.667 41.833 42.834 53.5 60.501s17.5 40.167 17.5 67.5c0 16.667 -4 29.667 -12 39s-19.667 14 -35 14c-18 0 -34.167 -9.66699 -48.5 -29s-29.166 -53.666 -44.499 -102.999c-16 0 -29.667 1.33301 -41 4s-22 7 -32 13
c8 26 13.833 48.5 17.5 67.5s6.16699 40.5 7.5 64.5c21.333 13.333 46.5 24 75.5 32zM190.998 9.49707c-14.667 13 -21.999 31.167 -21.999 54.5c0 28 7.83301 50 23.5 66s38.167 24 67.5 24c21.333 0 39.333 -6.66699 54 -20s22 -31.333 22 -54
c0 -4.66699 -0.666992 -11.667 -2 -21c-4 -22 -13 -39 -27 -51s-33 -18 -57 -18c-24.667 0 -44.334 6.5 -59.001 19.5z" />
    <glyph glyph-name="at" unicode="@" horiz-adv-x="855" 
d="M480 82c0 16 3 37.665 9 64.998c-22 -49.333 -48.833 -87.666 -80.5 -114.999s-66.5 -41 -104.5 -41c-39.333 0 -68.166 13.167 -86.499 39.5s-27.5 61.5 -27.5 105.5c0 26.667 3 54.334 9 83.001c14.667 73.333 46.667 133 96 179s113.333 69 192 69
c35.333 0 65 -4.66699 89 -14c35.333 3.33301 64 8 86 14c7.33301 -4.66699 12.833 -10.334 16.5 -17.001s5.5 -15.667 5.5 -27c0 -8.66699 -2.33301 -24.667 -7 -48l-47 -207c-6 -26.667 -9 -46 -9 -58c0 -9.33301 1.66699 -15.666 5 -18.999s8 -5 14 -5
c28 0 53.167 16.833 75.5 50.5s38.833 79.5 49.5 137.5c4.66699 25.333 7 51 7 77c0 80 -24.833 141.667 -74.5 185s-119.834 65 -210.501 65c-61.333 0 -118 -13.333 -170 -40s-95.333 -64.834 -130 -114.501s-58 -107.834 -70 -174.501c-6 -36 -9 -70 -9 -102
c0 -97.333 28 -173.166 84 -227.499s135 -81.5 237 -81.5c49.333 0 97.5 8.5 144.5 25.5s90.5 40.5 130.5 70.5c17.333 -6 28.333 -18.667 33 -38c-39.333 -37.333 -86.5 -66.833 -141.5 -88.5s-115.833 -32.5 -182.5 -32.5c-80.667 0 -150.167 14.5 -208.5 43.5
s-103 70.5 -134 124.5s-46.5 118 -46.5 192c0 29.333 3.33301 64 10 104c14 78.667 43 148.167 87 208.5s99.333 107 166 140s140 49.5 220 49.5c108 0 191.5 -25.333 250.5 -76s88.5 -121.667 88.5 -213c0 -25.333 -2.66699 -53.333 -8 -84
c-9.33301 -54 -27.5 -103.667 -54.5 -149s-59.333 -81.166 -97 -107.499s-77.5 -39.5 -119.5 -39.5c-58 0 -87 30.333 -87 91zM425.5 124.498c16.333 15.667 32.832 41 49.499 76s31.334 80.167 44.001 135.5l13 56c-18 7.33301 -38 11 -60 11
c-30.667 0 -55.167 -12.833 -73.5 -38.5s-32.5 -61.5 -42.5 -107.5c-7.33301 -36.667 -11 -66 -11 -88c0 -45.333 12.333 -68 37 -68c12.667 0 27.167 7.83301 43.5 23.5z" />
    <glyph glyph-name="A" unicode="A" horiz-adv-x="700" 
d="M646 24c0 -6 -0.663086 -15.0039 -1.99609 -27.0039c-24.667 2 -70.334 3 -137.001 3c-73.333 0 -123 -1 -149 -3c0 24.667 3.66699 45.334 11 62.001c21.333 3.33301 36.333 8.16602 45 14.499s13 16.5 13 30.5c0 7.33301 -1.66699 18.666 -5 33.999l-12 52
c-88.667 0 -170.667 -2.33301 -246 -7c-1.33301 -3.33301 -8 -15 -20 -35c-13.333 -22.667 -20 -40.334 -20 -53.001c0 -18.667 14 -30.667 42 -36c2 -10 3 -20.667 3 -32c0 -10 -1 -20 -3 -30c-26 2 -62.333 3 -109 3c-34.667 0 -64.334 -1 -89.001 -3
c1.33301 24.667 5.33301 45.334 12 62.001c17.333 4.66699 32.666 13.834 45.999 27.501s31.666 39.834 54.999 78.501l299 511c9.33301 2.66699 19.166 4.33398 29.499 5.00098s20.833 1 31.5 1c24 -79.333 49.667 -169.666 77 -270.999s48.333 -182.666 63 -243.999
c6.66699 -30 12.834 -52.333 18.501 -67s11.667 -24.667 18 -30s14.5 -9 24.5 -11c2.66699 -13.333 4 -25 4 -35zM396.004 245.996l-7.99902 29.999l-32 118c-8.66699 28.667 -15.334 64.334 -20.001 107.001c-10 -22 -28 -58.333 -54 -109l-81 -146h195z" />
    <glyph glyph-name="B" unicode="B" horiz-adv-x="663" 
d="M586.5 415c-31 -25.333 -71.499 -41.333 -121.499 -48c56 -2.66699 97.833 -16.834 125.5 -42.501s41.5 -60.5 41.5 -104.5c0 -13.333 -1.66699 -29.333 -5 -48c-10.667 -54 -41.334 -96.167 -92.001 -126.5s-122.334 -45.5 -215.001 -45.5
c-145.333 0 -246.666 -1 -303.999 -3c2 23.333 7 44 15 62c19.333 2.66699 33.5 6.83398 42.5 12.501s16 15.667 21 30s10.5 38.166 16.5 71.499l61 352c2.66699 15.333 4 29 4 41c0 18 -4.33301 30.333 -13 37s-23.667 11.334 -45 14.001c-2 10 -3 20.667 -3 32
c0 6.66699 0.666992 16.667 2 30c38 -2 74.667 -3 110 -3l82 1c45.333 1.33301 81 2 107 2c78.667 0 136.667 -10.667 174 -32s56 -55 56 -101c0 -7.33301 -1.33301 -20.333 -4 -39c-6 -36 -24.5 -66.667 -55.5 -92zM489.001 535c0 26.667 -8.66602 47 -25.999 61
s-41.333 21 -72 21c-12.667 0 -30 -3.66699 -52 -11l-38 -223h30c42 0 76.667 11.167 104 33.5s44.666 53.5 51.999 93.5c1.33301 6 2 14.333 2 25zM463.002 225c0 34 -11.502 57.834 -34.502 71.501s-60.5 20.5 -112.5 20.5h-27l-28 -165c-3.33301 -21.333 -5 -37 -5 -47
c0 -18.667 4.5 -30.834 13.5 -36.501s24.833 -8.5 47.5 -8.5c34.667 0 65.334 11.5 92.001 34.5s43.334 53.5 50.001 91.5c2.66699 13.333 4 26.333 4 39z" />
    <glyph glyph-name="C" unicode="C" horiz-adv-x="623" 
d="M630 476c-14.667 -5.33301 -30.334 -8.00098 -47.001 -8.00098c-10 0 -20 1 -30 3c2 16 3 30.667 3 44c0 41.333 -8.66699 69.833 -26 85.5s-43.333 23.5 -78 23.5c-62.667 0 -114.834 -26.5 -156.501 -79.5s-68.5 -120.833 -80.5 -203.5
c-3.33301 -25.333 -5 -47.666 -5 -66.999c0 -62 14.667 -111.5 44 -148.5s73.333 -55.5 132 -55.5c55.333 0 112.333 15.667 171 47c12 -12.667 19 -31 21 -55c-69.333 -47.333 -148 -71 -236 -71c-61.333 0 -114 12 -158 36s-77.333 57.667 -100 101s-34 93.333 -34 150
c0 26 1.66699 49 5 69c11.333 73.333 36.833 135.5 76.5 186.5s87.334 89 143.001 114s113.167 37.5 172.5 37.5c42 0 80.333 -4.33301 115 -13s68.334 -23 101.001 -43c-16 -42.667 -27 -93.667 -33 -153z" />
    <glyph glyph-name="D" unicode="D" horiz-adv-x="734" 
d="M642.5 622c59 -37.333 88.5029 -103.334 88.5029 -198.001c0 -27.333 -3 -58.666 -9 -93.999c-22 -122.667 -73.833 -208.334 -155.5 -257.001s-171.834 -73 -270.501 -73h-3c-141.333 0 -233.333 -1 -276 -3c1.33301 24 6 44.667 14 62c18.667 2 32.667 6.16699 42 12.5
s16.666 16.833 21.999 31.5s10.666 38 15.999 70l61 352c2.66699 15.333 4 29 4 41c0 18 -4.33301 30.333 -13 37s-23.667 11.334 -45 14.001c-2 11.333 -3 23 -3 35c0 7.33301 0.666992 16.333 2 27c45.333 -2 103.666 -3 174.999 -3c22.667 0 40.334 0.333008 53.001 1
l63 1c97.333 0 175.5 -18.667 234.5 -56zM575.003 432.999c0 123.333 -58.666 184.999 -175.999 184.999c-21.333 0 -42 -3.33301 -62 -10l-75 -448c-4 -20.667 -6 -37.667 -6 -51c0 -19.333 5 -32 15 -38s28 -9 54 -9c53.333 0 102.166 20.333 146.499 61
s75.833 112.334 94.5 215.001c6 36 9 67.667 9 95z" />
    <glyph glyph-name="E" unicode="E" horiz-adv-x="614" 
d="M340 614l-40.999 -239.998h28c36 0 61 4.83301 75 14.5s23.333 29.5 28 59.5c13.333 2.66699 29 4 47 4c10.667 0 19 -0.333008 25 -1c-10.667 -46.667 -18.334 -87 -23.001 -121c-6 -48 -9.33301 -85.333 -10 -112c-27.333 1.33301 -50.333 6 -69 14
c1.33301 27.333 -3.5 47.5 -14.5 60.5s-32.833 19.5 -65.5 19.5h-31l-25 -147c-4 -22 -6 -39.667 -6 -53c0 -20.667 5.16699 -34.167 15.5 -40.5s28.833 -9.5 55.5 -9.5h16c44.667 0 78.667 10.167 102 30.5s44.333 55.5 63 105.5c16 -2.66699 29.833 -6.33398 41.5 -11.001
s22.5 -11.334 32.5 -20.001c-22.667 -57.333 -38.667 -114 -48 -170c-39.333 2 -119 3 -239 3c-138.667 0 -231.667 -1 -279 -3c0.666992 21.333 5.33398 42.333 14.001 63c19.333 2 33.666 6 42.999 12s16.5 16.167 21.5 30.5s10.167 37.833 15.5 70.5l60 345
c3.33301 20 5 35 5 45c0 18.667 -4.33301 31.5 -13 38.5s-24.334 12.167 -47.001 15.5c-2 10 -3 20.333 -3 31c0 10 1 20.333 3 31c45.333 -2 121.666 -3 228.999 -3c108 0 200.667 1 278 3c-6 -48 -9 -92 -9 -132c0 -18.667 0.333008 -32.667 1 -42
c-25.333 -6.66699 -51 -9.66699 -77 -9c-1.33301 28.667 -5.16602 51.167 -11.499 67.5s-18.666 28.833 -36.999 37.5s-45.5 13 -81.5 13h-69z" />
    <glyph glyph-name="F" unicode="F" horiz-adv-x="576" 
d="M611 551c0 -10.667 0.667969 -26.001 2.00098 -46.001c-25.333 -6.66699 -51 -9.66699 -77 -9c-1.33301 28.667 -5.16602 51.167 -11.499 67.5s-18.666 28.833 -36.999 37.5s-45.5 13 -81.5 13h-67l-47 -275h40c36 0 61.167 5 75.5 15s23.833 29.667 28.5 59
c15.333 3.33301 30 5 44 5c6 0 15 -0.666992 27 -2c-8 -36 -15.333 -76.333 -22 -121c-6.66699 -43.333 -10.334 -81.333 -11.001 -114c-28 1.33301 -50.667 6 -68 14c1.33301 30 -3.5 51.333 -14.5 64s-33.167 19 -66.5 19h-43l-19 -111c-4 -20.667 -6 -37.667 -6 -51
c0 -18 5.66699 -30.667 17 -38s33.333 -13.666 66 -18.999c2.66699 -10.667 4 -24 4 -40c0 -10 -0.333008 -17.333 -1 -22c-35.333 2 -89.666 3 -162.999 3c-75.333 0 -130 -1 -164 -3c2 23.333 6.66699 44 14 62c19.333 2.66699 33.666 7 42.999 13s16.666 16 21.999 30
s10.666 36 15.999 66l60 350c3.33301 21.333 5 37 5 47c0 18 -4.16699 30.333 -12.5 37s-23.5 11.667 -45.5 15c-2 10 -3 21.667 -3 35c0 6 0.666992 15 2 27c46 -2 121.667 -3 227 -3c108 0 200.333 1 277 3c-6.66699 -43.333 -10 -86 -10 -128z" />
    <glyph glyph-name="G" unicode="G" horiz-adv-x="675" 
d="M684 630c-14.667 -42.667 -25.333 -93.3389 -32 -152.006c-15.333 -6.66699 -32.666 -10 -51.999 -10c-10 0 -19.333 1 -28 3c1.33301 18.667 2 31.334 2 38.001c0 42.667 -9.33301 72.334 -28 89.001s-48 25 -88 25c-66.667 0 -121 -26.167 -163 -78.5
s-69 -120.166 -81 -203.499c-4 -26.667 -6 -53 -6 -79c0 -62 12.333 -111.667 37 -149s61.667 -56 111 -56c28.667 0 52.334 4 71.001 12c11.333 5.33301 19.5 13.333 24.5 24s9.83301 30.667 14.5 60s7 49.333 7 60c0 20 -4.83301 33.5 -14.5 40.5
s-27.167 11.833 -52.5 14.5c-2 10 -3 21.667 -3 35c0 7.33301 0.666992 16.333 2 27c31.333 -2 77.333 -3 138 -3c56 0 102.667 1 140 3c-1.33301 -24 -5.33301 -44.667 -12 -62c-14.667 -2 -25.334 -5.5 -32.001 -10.5s-12.667 -15.333 -18 -31s-11.333 -42.167 -18 -79.5
c-3.33301 -23.333 -5 -40 -5 -50c0 -12 2 -24.667 6 -38c-34.667 -20 -75.334 -36.333 -122.001 -49s-94.667 -19 -144 -19c-60.667 0 -112.667 11.833 -156 35.5s-76.333 57 -99 100s-34 92.833 -34 149.5c0 22.667 2 46.334 6 71.001c11.333 74.667 37 137.334 77 188.001
s88.333 88.334 145 113.001s116.667 37 180 37c94 0 169.667 -18.333 227 -55z" />
    <glyph glyph-name="H" unicode="H" horiz-adv-x="786" 
d="M811 679c-1.33301 -24 -5.33691 -44.6641 -12.0039 -61.9971c-18.667 -2.66699 -32.5 -7 -41.5 -13s-16.167 -15.833 -21.5 -29.5s-10.666 -34.834 -15.999 -63.501l-61 -355c-4 -20 -6 -36 -6 -48c0 -16.667 4 -28 12 -34s22.667 -11 44 -15c2.66699 -16 4 -28 4 -36
c0 -5.33301 -0.666992 -14 -2 -26c-32.667 2 -80.667 3 -144 3c-60.667 0 -111 -1 -151 -3c0.666992 21.333 5.33398 42 14.001 62c18 2.66699 31.5 6.66699 40.5 12s16 14.166 21 26.499s9.83301 31.5 14.5 57.5l26 154c-104 0 -185.667 -2 -245 -6l-25 -147
c-4 -20.667 -6 -37 -6 -49c0 -16 4 -27 12 -33s22.667 -11 44 -15c2 -12 3 -25 3 -39c0 -10 -0.333008 -17.667 -1 -23c-33.333 2 -81.666 3 -144.999 3c-59.333 0 -109.666 -1 -150.999 -3c2 24.667 7 45.334 15 62.001c18 2.66699 31.333 6.5 40 11.5s15.667 13.667 21 26
s10.333 31.833 15 58.5l63 367c3.33301 18.667 5 33 5 43c0 17.333 -4.33301 29.5 -13 36.5s-24 12.167 -46 15.5c-2 10 -3 21.667 -3 35c0 6 0.666992 15 2 27c29.333 -2 78.333 -3 147 -3c66 0 115.667 1 149 3c0 -22.667 -3.66699 -43.334 -11 -62.001
c-18.667 -2.66699 -32.667 -6.83398 -42 -12.501s-16.5 -15.167 -21.5 -28.5s-10.167 -35 -15.5 -65l-24 -138h244l26 149c3.33301 20 5 34.667 5 44c0 16.667 -4.33301 28.5 -13 35.5s-24 12.167 -46 15.5c-2 10 -3 21.667 -3 35c0 6 0.666992 15 2 27
c29.333 -2 78.333 -3 147 -3c66 0 116 1 150 3z" />
    <glyph glyph-name="I" unicode="I" horiz-adv-x="389" 
d="M177 565c0 17.333 -4.33496 29.501 -13.002 36.501s-24 12.167 -46 15.5c-2 10 -3 21.667 -3 35c0 6 0.666992 15 2 27c29.333 -2 78.333 -3 147 -3c66 0 115.667 1 149 3c0 -22.667 -3.66699 -43.334 -11 -62.001c-18.667 -2.66699 -32.667 -6.83398 -42 -12.501
s-16.5 -15.167 -21.5 -28.5s-10.167 -35 -15.5 -65l-61 -355c-4 -20.667 -6 -37 -6 -49c0 -16 4 -27 12 -33s22.667 -11 44 -15c2 -12 3 -25 3 -39c0 -10 -0.333008 -17.667 -1 -23c-33.333 2 -81.666 3 -144.999 3c-59.333 0 -109.666 -1 -150.999 -3
c2 24.667 7 45.334 15 62.001c18 2.66699 31.333 6.5 40 11.5s15.667 13.667 21 26s10.333 31.833 15 58.5l63 367c3.33301 18.667 5 33 5 43z" />
    <glyph glyph-name="J" unicode="J" horiz-adv-x="350" 
d="M255 676c55.333 0 105.332 1.00293 149.999 3.00293c-0.666992 -22 -4 -42.667 -10 -62c-19.333 -2.66699 -33.666 -6.83398 -42.999 -12.501s-16.833 -15.667 -22.5 -30s-11.167 -36.833 -16.5 -67.5l-67 -384c-12 -67.333 -27 -122.5 -45 -165.5
s-46.333 -81.167 -85 -114.5s-93 -63.333 -163 -90c-16 12.667 -24 33.667 -24 63c43.333 25.333 77 55.833 101 91.5s41.333 85.5 52 149.5l81 466c3.33301 21.333 5 36.666 5 45.999c0 16.667 -4.16699 28.167 -12.5 34.5s-23.5 10.833 -45.5 13.5
c-2.66699 10 -4 21.333 -4 34c0 5.33301 0.666992 14.666 2 27.999c26 -2 75 -3 147 -3z" />
    <glyph glyph-name="K" unicode="K" horiz-adv-x="720" 
d="M663.5 596c-19.667 -10 -48.168 -31.667 -85.501 -65l-169 -148c28.667 -28 54.5 -60 77.5 -96s45.167 -78.333 66.5 -127c10 -22 19.333 -37.333 28 -46s19 -13 31 -13c16.667 0 30.667 4.33301 42 13c6.66699 -5.33301 12.834 -12.666 18.501 -21.999
s9.83398 -19 12.501 -29c-42.667 -48 -93 -72 -151 -72c-33.333 0 -59.833 8.16699 -79.5 24.5s-36.167 43.833 -49.5 82.5c-16.667 47.333 -34 88.5 -52 123.5s-39 67.833 -63 98.5l-29 -165c-3.33301 -16.667 -5 -33 -5 -49s3.33301 -27.167 10 -33.5
s18.667 -10.833 36 -13.5c2 -12 3 -25 3 -39c0 -10 -0.333008 -17.667 -1 -23c-33.333 2 -78.333 3 -135 3c-59.333 0 -109.666 -1 -150.999 -3c2 24.667 7 45.334 15 62.001c18.667 2 32.667 6.16699 42 12.5s16.166 16.166 20.499 29.499s9.16602 35 14.499 65l62 356
c3.33301 18.667 5 33 5 43c0 17.333 -4.33301 29.5 -13 36.5s-24 12.167 -46 15.5c-2 10 -3 21.667 -3 35c0 6 0.666992 15 2 27c29.333 -2 78.333 -3 147 -3c66 0 115.667 1 149 3c0 -22.667 -3.66699 -43.334 -11 -62.001c-18.667 -2.66699 -32.667 -6.83398 -42 -12.501
s-16.5 -15.167 -21.5 -28.5s-10.167 -35 -15.5 -65l-24 -140l175 158c20.667 18 35.5 32.5 44.5 43.5s13.5 19.833 13.5 26.5c0 8 -7.33301 14 -22 18c-2.66699 10.667 -4 24.334 -4 41.001c0 9.33301 0.333008 16.333 1 21c26.667 -2 66.334 -3 119.001 -3
c49.333 0 89.333 1 120 3c0 -22 -3.33301 -43 -10 -63c-28.667 -3.33301 -52.834 -10 -72.501 -20z" />
    <glyph glyph-name="L" unicode="L" horiz-adv-x="598" 
d="M30 59c20 2 34.501 5.99902 43.501 11.999s15.833 16.167 20.5 30.5s10 38.166 16 71.499l62 352c3.33301 18.667 5 32.667 5 42c0 16.667 -4.33301 28.334 -13 35.001s-24 11.667 -46 15c-2 10 -3 20.667 -3 32c0 6.66699 0.666992 16.667 2 30
c29.333 -2 78.666 -3 147.999 -3c74.667 0 128.667 1 162 3c0 -22 -4 -42.667 -12 -62c-23.333 -2.66699 -40.5 -6.83398 -51.5 -12.501s-19.333 -15.5 -25 -29.5s-11.167 -36.333 -16.5 -67l-61 -348c-3.33301 -23.333 -5 -40 -5 -50
c0 -19.333 4.83301 -32.166 14.5 -38.499s27.5 -9.5 53.5 -9.5h12c42.667 0 75.667 10.5 99 31.5s45.333 56.833 66 107.5c31.333 -6 56.666 -17.667 75.999 -35c-9.33301 -21.333 -18.666 -47.333 -27.999 -78s-16.333 -61 -21 -91c-36 2 -112.667 3 -230 3
c-127.333 0 -221 -1 -281 -3c2 24.667 6.33301 45.334 13 62.001z" />
    <glyph glyph-name="M" unicode="M" horiz-adv-x="934" 
d="M829 184c-2 -22 -3.00391 -39.999 -3.00391 -53.999c0 -25.333 3.66699 -42.5 11 -51.5s20.666 -15.5 39.999 -19.5c2 -10.667 3 -22.334 3 -35.001c0 -12 -0.333008 -21 -1 -27c-27.333 2 -77.666 3 -150.999 3c-69.333 0 -119.666 -1 -150.999 -3
c0 23.333 3.66699 44 11 62c22.667 3.33301 39.5 8.66602 50.5 15.999s19 19.166 24 35.499s9.16699 42.166 12.5 77.499c8.66699 83.333 16.334 184 23.001 302c-79.333 -152.667 -172.666 -317 -279.999 -493c-15.333 -4 -35.666 -6 -60.999 -6
c-39.333 168 -85.333 337.667 -138 509c-12 -52 -36.333 -149 -73 -291c-12 -46 -18 -77.333 -18 -94s4.33301 -29.167 13 -37.5s23 -14.5 43 -18.5c2 -10.667 3 -22.667 3 -36c0 -11.333 -0.333008 -20 -1 -26c-22.667 2 -57 3 -103 3c-52 0 -90.333 -1 -115 -3
c0 22.667 4 43.334 12 62.001c14.667 4 27 10.5 37 19.5s19.667 23.167 29 42.5s19.333 47 30 83c16.667 55.333 33.5 114.666 50.5 177.999s29.167 112 36.5 146c4 19.333 6 34.666 6 45.999c0 14.667 -3.83301 24.834 -11.5 30.501s-21.834 9.83398 -42.501 12.501
c-2 10 -3 20.667 -3 32c0 6.66699 0.666992 16.667 2 30c22.667 -2 59 -3 109 -3c48 0 84.667 1 110 3c50 -161.333 92.667 -321.666 128 -480.999c84.667 140.667 173.334 301 266.001 481c29.333 -2 64.666 -3 105.999 -3c40.667 0 73.667 1 99 3
c0 -20 -3.33301 -40.667 -10 -62c-18 -3.33301 -31.667 -8.66602 -41 -15.999s-16.166 -18.833 -20.499 -34.5s-7.5 -38.167 -9.5 -67.5c-6.66699 -123.333 -14 -228.333 -22 -315z" />
    <glyph glyph-name="N" unicode="N" horiz-adv-x="696" 
d="M751 679c-1.33301 -23.333 -5.32617 -44.001 -11.9932 -62.001c-18 -5.33301 -31.833 -12.666 -41.5 -21.999s-17.5 -23 -23.5 -41s-12 -45.333 -18 -82l-82 -473c-18.667 -5.33301 -42 -8 -70 -8c-82.667 164 -172.334 331 -269.001 501l-50 -290
c-6 -32.667 -9 -58 -9 -76c0 -20.667 4.66699 -35.667 14 -45s26 -16.666 50 -21.999c2 -10 3 -20.667 3 -32c0 -6.66699 -0.666992 -16.667 -2 -30c-28 2 -66 3 -114 3c-46.667 0 -84.334 -1 -113.001 -3c1.33301 23.333 5 44 11 62
c19.333 4.66699 34.666 11.5 45.999 20.5s20.666 22.5 27.999 40.5s14 44 20 78l67 380c-1.33301 1.33301 -2.33301 2.66602 -3 3.99902l-2 4c-6.66699 11.333 -14 19 -22 23s-21.667 6.66699 -41 8c-2 10 -3 20.667 -3 32c0 5.33301 0.666992 15.333 2 30
c21.333 -2 53.666 -3 96.999 -3c45.333 0 77 1 95 3c87.333 -147.333 167.666 -295 240.999 -443l40 240c4.66699 27.333 7 50.666 7 69.999c0 22 -4.83301 37.833 -14.5 47.5s-26.834 17.5 -51.501 23.5c-1.33301 6.66699 -2 17.667 -2 33
c0 12.667 0.333008 22.334 1 29.001c25.333 -2 61 -3 107 -3c52 0 90 1 114 3z" />
    <glyph glyph-name="O" unicode="O" horiz-adv-x="742" 
d="M187 26c-44 23.333 -77.833 56.498 -101.5 99.498s-35.5 93.167 -35.5 150.5c0 30.667 2.66699 59.334 8 86.001c12 64 36.167 120.5 72.5 169.5s81.166 86.833 134.499 113.5s111.666 40 174.999 40c58.667 0 110.334 -11.167 155.001 -33.5
s79.334 -54.666 104.001 -96.999s37 -92.5 37 -150.5c0 -26.667 -3 -55.667 -9 -87c-12 -62.667 -35.667 -118.667 -71 -168s-80 -88 -134 -116s-113.667 -42 -179 -42c-60 0 -112 11.667 -156 35zM490 127.998c37.333 49.333 63.666 115.667 78.999 199
c5.33301 32 8 60.333 8 85c0 63.333 -13.5 114.5 -40.5 153.5s-63.833 58.5 -110.5 58.5c-49.333 0 -92.666 -23.667 -129.999 -71s-63.333 -109.333 -78 -186c-7.33301 -38.667 -11 -73.667 -11 -105c0 -62.667 12.667 -113 38 -151s62.333 -57 111 -57
c52 0 96.667 24.667 134 74z" />
    <glyph glyph-name="P" unicode="P" horiz-adv-x="620" 
d="M599.5 633c33 -30.667 49.4961 -74.3369 49.4961 -131.004c0 -19.333 -2 -40 -6 -62c-11.333 -63.333 -41.666 -114 -90.999 -152s-111 -57 -185 -57c-24 0 -42.667 3.33301 -56 10c-0.666992 7.33301 0.333008 17.333 3 30s5.66699 22.334 9 29.001
c6.66699 -3.33301 17.334 -5 32.001 -5c33.333 0 62.833 12.833 88.5 38.5s42.834 61.5 51.501 107.5c4 20 6 38.667 6 56c0 38 -9.33301 67.333 -28 88s-46.334 31 -83.001 31c-19.333 0 -36.333 -2.33301 -51 -7l-75 -442c-4 -20.667 -6 -37.667 -6 -51
c0 -18.667 5.66699 -31.667 17 -39s33.333 -13.333 66 -18c2 -10.667 3 -22.334 3 -35.001c0 -12 -0.333008 -21 -1 -27c-35.333 2 -87.666 3 -156.999 3c-77.333 0 -133 -1 -167 -3c2.66699 25.333 7.33398 46.333 14.001 63c18.667 2.66699 32.5 6.83398 41.5 12.501
s16 15.334 21 29.001s10.167 35.834 15.5 66.501l62 357c3.33301 18.667 5 32.667 5 42c0 16.667 -4.33301 28.334 -13 35.001s-24 11.667 -46 15c-2.66699 13.333 -4 25.333 -4 36c0 5.33301 0.666992 14 2 26c33.333 -2 86.333 -3 159 -3l72 1c44 1.33301 80.667 2 110 2
c61.333 0 108.5 -15.333 141.5 -46z" />
    <glyph glyph-name="Q" unicode="Q" horiz-adv-x="742" 
d="M737.5 -120c5.66699 -10 9.16504 -19.665 10.498 -28.998c-16.667 -20.667 -38 -37.5 -64 -50.5s-54 -19.5 -84 -19.5c-34 0 -62 7.66699 -84 23s-41 40.666 -57 75.999c-14.667 33.333 -31.834 59 -51.501 77s-45.167 29.333 -76.5 34
c-58 1.33301 -108.167 14.166 -150.5 38.499s-74.666 57.666 -96.999 99.999s-33.5 91.166 -33.5 146.499c0 30.667 2.66699 59.334 8 86.001c12 64 36.167 120.5 72.5 169.5s81.166 86.833 134.499 113.5s111.666 40 174.999 40c58.667 0 110.334 -11.167 155.001 -33.5
s79.334 -54.666 104.001 -96.999s37 -92.5 37 -150.5c0 -26.667 -3 -55.667 -9 -87c-14 -74 -44 -138.167 -90 -192.5s-102.667 -92.5 -170 -114.5c22.667 -6 44.834 -16 66.501 -30s47.5 -34.333 77.5 -61c15.333 -13.333 27.333 -22.333 36 -27s17.667 -7 27 -7
c16.667 0 31.334 6 44.001 18c7.33301 -5.33301 13.833 -13 19.5 -23zM206.998 262.002c0 -62.667 12.667 -112.999 38 -150.999s62.333 -57 111 -57c52 0 96.667 24.667 134 74s63.666 115.666 78.999 198.999c5.33301 32 8 60.333 8 85c0 63.333 -13.5 114.5 -40.5 153.5
s-63.833 58.5 -110.5 58.5c-49.333 0 -92.666 -23.667 -129.999 -71s-63.333 -109.333 -78 -186c-7.33301 -38.667 -11 -73.667 -11 -105z" />
    <glyph glyph-name="R" unicode="R" horiz-adv-x="704" 
d="M652.5 90c5.66699 -9.33301 9.83594 -18.668 12.5029 -28.001c-42 -47.333 -93.333 -71 -154 -71c-23.333 0 -42.5 4.5 -57.5 13.5s-28 23.333 -39 43s-22.167 47.167 -33.5 82.5c-11.333 34.667 -22.166 63.167 -32.499 85.5s-22.5 43.5 -36.5 63.5h-29l-22 -126
c-4 -20.667 -6 -37.334 -6 -50.001c0 -14.667 3.16699 -25 9.5 -31s17.833 -10.333 34.5 -13c2 -12 3 -24 3 -36c0 -11.333 -0.333008 -20 -1 -26c-36 2 -80.667 3 -134 3c-56 0 -105.667 -1 -149 -3c2 24 7 44.667 15 62c18 2 31.5 6 40.5 12s16.167 16.167 21.5 30.5
s10.666 36.5 15.999 66.5l61 357c3.33301 18.667 5 32.334 5 41.001c0 16.667 -4.33301 28.5 -13 35.5s-24 12.167 -46 15.5c-2 10 -3 20.667 -3 32c0 6.66699 0.666992 16.667 2 30c32.667 -2 84 -3 154 -3c12 0 37.333 0.666992 76 2c44 1.33301 77.333 2 100 2
c67.333 0 119.5 -14.5 156.5 -43.5s55.5 -68.167 55.5 -117.5c0 -11.333 -1 -23.666 -3 -36.999c-8.66699 -48 -30.834 -88 -66.501 -120s-81.5 -53.333 -137.5 -64c13.333 -12 27.666 -29.5 42.999 -52.5s29.666 -51.833 42.999 -86.5c8.66699 -22 17.5 -37.667 26.5 -47
s18.833 -14 29.5 -14c14 0 27 5 39 15c7.33301 -6 13.833 -13.667 19.5 -23zM295.002 349.998c7.33301 -0.666992 17.333 -1 30 -1c43.333 0 80.5 12.5 111.5 37.5s50.5 58.833 58.5 101.5c2.66699 17.333 4 29.333 4 36c0 30.667 -8.66699 54 -26 70s-41 24 -71 24
c-23.333 0 -44.333 -3.66699 -63 -11z" />
    <glyph glyph-name="S" unicode="S" horiz-adv-x="501" 
d="M90 7.5c-30.667 11 -61.6631 29.165 -92.9961 54.498c18 50.667 29.333 100.334 34 149.001c18 3.33301 34.667 5 50 5s28.666 -1.33301 39.999 -4c-1.33301 -16 -2 -27 -2 -33c0 -42 8.66699 -72.667 26 -92s44.666 -29 81.999 -29c28 0 51.833 8.83301 71.5 26.5
s29.5 39.834 29.5 66.501c0 23.333 -8.33301 43.5 -25 60.5s-42 36.167 -76 57.5c-31.333 20.667 -56.666 39.334 -75.999 56.001s-36 37.667 -50 63s-21 55.333 -21 90c0 12.667 1.66699 29 5 49c8.66699 50 34.667 88.833 78 116.5s96.666 41.5 159.999 41.5
c37.333 0 70.833 -4.5 100.5 -13.5s53.167 -20.5 70.5 -34.5c-8 -58 -11.667 -106 -11 -144c-18 -6 -37.667 -9 -59 -9c-6 0 -15 0.666992 -27 2c-2 89.333 -34.667 134 -98 134c-52.667 0 -83.334 -23.333 -92.001 -70c-0.666992 -4 -1 -9.33301 -1 -16
c0 -24.667 9.16699 -45.834 27.5 -63.501s46.166 -38.167 83.499 -61.5c32.667 -20.667 59.167 -39.167 79.5 -55.5s37.666 -36.5 51.999 -60.5s21.5 -52 21.5 -84c0 -7.33301 -1.33301 -20.333 -4 -39c-6 -36 -21 -67.5 -45 -94.5s-54.167 -47.833 -90.5 -62.5
s-76.166 -22 -119.499 -22c-50 0 -90.333 5.5 -121 16.5z" />
    <glyph glyph-name="T" unicode="T" horiz-adv-x="598" 
d="M641 550c0 -12 0.666992 -28.667 2 -50c-17.333 -6.66699 -36.666 -10 -57.999 -10l-19 1c-2.66699 46.667 -10.667 79.334 -24 98.001s-38 28 -74 28h-20l-80 -459c-3.33301 -18.667 -5 -32.667 -5 -42c0 -18 5.66699 -30.833 17 -38.5s32.333 -13.834 63 -18.501
c2.66699 -11.333 4 -25 4 -41c0 -9.33301 -0.333008 -16.333 -1 -21c-28.667 2 -84 3 -166 3c-90.667 0 -151.334 -1 -182.001 -3c0.666992 21.333 5 42.333 13 63c27.333 3.33301 47.5 8 60.5 14s22.667 15.833 29 29.5s11.833 35.167 16.5 64.5l78 449h-19
c-35.333 0 -63.5 -10 -84.5 -30s-39.5 -52.667 -55.5 -98c-32 0 -56.667 6 -74 18c8.66699 21.333 16.667 48.333 24 81s13 63 17 91c46 -2 136.333 -3 271 -3c130 0 222 1 276 3c-6 -44.667 -9 -87.667 -9 -129z" />
    <glyph glyph-name="U" unicode="U" horiz-adv-x="658" 
d="M98 182c0 25.333 2.33008 50.6699 6.99707 76.0029l47 267c3.33301 21.333 5 36.333 5 45c0 15.333 -3.66699 26.166 -11 32.499s-20.666 11.166 -39.999 14.499c-2 10 -3 21.333 -3 34c0 6.66699 0.666992 16 2 28c32 -2 79.667 -3 143 -3c62.667 0 112.334 1 149.001 3
c-1.33301 -23.333 -5.33301 -44 -12 -62c-20 -2 -34.833 -5.83301 -44.5 -11.5s-17.167 -15.334 -22.5 -29.001s-10.666 -36.167 -15.999 -67.5l-43 -246c-5.33301 -30.667 -8 -56.334 -8 -77.001c0 -84 35.333 -126 106 -126c44 0 80 17.333 108 52
s47.333 83.334 58 146.001l41 235c5.33301 32 8 55 8 69c0 16.667 -3.66699 28.5 -11 35.5s-21 13.5 -41 19.5c-2 10 -3 20.667 -3 32c0 5.33301 0.666992 15.333 2 30c28 -2 62.667 -3 104 -3s75.333 1 102 3c-1.33301 -23.333 -5.33301 -44 -12 -62
c-19.333 -4.66699 -33.5 -10.167 -42.5 -16.5s-16.5 -18 -22.5 -35s-12.333 -44.5 -19 -82.5l-37 -216c-16.667 -98 -46.5 -168.5 -89.5 -211.5s-103.5 -64.5 -181.5 -64.5c-148.667 0 -223 63.667 -223 191z" />
    <glyph glyph-name="V" unicode="V" horiz-adv-x="674" 
d="M748 679c-1.33301 -22.667 -5.33105 -43.3281 -11.998 -61.9951c-12 -4 -21.833 -9.5 -29.5 -16.5s-16 -18.167 -25 -33.5s-21.833 -39.666 -38.5 -72.999c-88.667 -175.333 -179.334 -340 -272.001 -494c-16 -6.66699 -39 -9.33398 -69 -8.00098
c-42.667 180 -87.667 353.667 -135 521c-8 28.667 -15 49.667 -21 63s-12.333 22.666 -19 27.999s-16.667 9.66602 -30 12.999c-2 9.33301 -3 20.666 -3 33.999c0 5.33301 0.666992 14.666 2 27.999c32.667 -2 79 -3 139 -3c65.333 0 116.666 1 153.999 3
c0 -22.667 -4 -43.667 -12 -63c-22 -2.66699 -37.667 -7.5 -47 -14.5s-14 -18.5 -14 -34.5c0 -14 3.66699 -34 11 -60c27.333 -98.667 52.333 -206.334 75 -323.001c34.667 58 67.5 116.5 98.5 175.5s54.5 106.167 70.5 141.5c15.333 34.667 23 59.667 23 75
c0 11.333 -4 20 -12 26s-20.667 11 -38 15c-2 10 -3 20.667 -3 32c0 6.66699 0.666992 16.667 2 30c20.667 -2 56 -3 106 -3c39.333 0 72.333 1 99 3z" />
    <glyph glyph-name="W" unicode="W" horiz-adv-x="970" 
d="M1045 679c-1.33301 -22.667 -5.33105 -43.3311 -11.998 -61.998c-18 -6 -34.333 -19.167 -49 -39.5s-33.667 -57.833 -57 -112.5c-70.667 -166 -142.334 -321.667 -215.001 -467c-7.33301 -2.66699 -17.666 -4 -30.999 -4c-16 0 -31.333 1.66699 -46 5
c-28 164.667 -60.333 316.334 -97 455.001c-69.333 -148 -146.333 -300 -231 -456c-7.33301 -2.66699 -18 -4 -32 -4c-14.667 0 -29.334 2 -44.001 6c-26.667 195.333 -53 363.666 -79 504.999c-6 33.333 -10.833 56.833 -14.5 70.5s-8.33398 23.167 -14.001 28.5
s-14.167 9.66602 -25.5 12.999c-2.66699 13.333 -4 25 -4 35c0 6 0.666992 15 2 27c34.667 -2 80.334 -3 137.001 -3c66 0 116 1 150 3c-1.33301 -26.667 -5 -47.667 -11 -63c-26 -4 -44.167 -11.5 -54.5 -22.5s-15.5 -27.5 -15.5 -49.5c0 -12.667 1.66699 -30 5 -52l4 -24
c18.667 -110.667 31.667 -194 39 -250c76.667 145.333 153 298.333 229 459c14 4 29.333 6 46 6c7.33301 0 13 -0.333008 17 -1c43.333 -153.333 78.333 -308.333 105 -465c44 89.333 83.667 177.666 119 264.999c16 40 24 69.333 24 88c0 14 -4 24.5 -12 31.5
s-20.333 12.167 -37 15.5c-2 10 -3 20.667 -3 32c0 6.66699 0.666992 16.667 2 30c20.667 -2 55.667 -3 105 -3c43.333 0 76.666 1 99.999 3z" />
    <glyph glyph-name="X" unicode="X" horiz-adv-x="654" 
d="M701 679c-1.33301 -22.667 -5.3291 -43.3301 -11.9961 -61.9971c-16 -2.66699 -29 -6.66699 -39 -12s-20.667 -14.333 -32 -27s-27 -32.334 -47 -59.001c-50 -67.333 -97 -127.333 -141 -180c27.333 -62.667 48.666 -113.667 63.999 -153c14 -34 25.833 -59.333 35.5 -76
s19.334 -28.167 29.001 -34.5s22.834 -11.833 39.501 -16.5c2 -8.66699 3 -19.667 3 -33c0 -6 -0.666992 -15.667 -2 -29c-36 2 -84.667 3 -146 3c-69.333 0 -120 -1 -152 -3c1.33301 25.333 5.33301 46.333 12 63c17.333 2 29.666 5.66699 36.999 11s11 14 11 26
c0 18.667 -10 52.334 -30 101.001l-28 70l-91 -113c-24 -28 -36 -50.333 -36 -67c0 -15.333 9.33301 -25 28 -29c2 -10.667 3 -21.334 3 -32.001c0 -6.66699 -0.666992 -16.667 -2 -30c-24.667 2 -61.667 3 -111 3c-52.667 0 -92.334 -1 -119.001 -3
c1.33301 22.667 5.33301 43.334 12 62.001c26 5.33301 48.5 14.333 67.5 27s42.167 34.334 69.5 65.001c56 62.667 105.667 123.667 149 183c-26.667 60 -55.334 120.333 -86.001 181c-14.667 28.667 -26 49.334 -34 62.001s-15.833 21.667 -23.5 27
s-17.834 9.66602 -30.501 12.999c-2 9.33301 -3 19.666 -3 30.999c0 6 0.666992 16.333 2 31c34.667 -2 82.667 -3 144 -3c64 0 115.333 1 154 3c-1.33301 -25.333 -5.33301 -46.333 -12 -63c-18.667 -2.66699 -32.334 -6.83398 -41.001 -12.501s-13 -13.834 -13 -24.501
c0 -14 7.66699 -37 23 -69l48 -105c16.667 20 43 54 79 102c28 38 42 65.333 42 82c0 7.33301 -2.66699 13.166 -8 17.499s-13.333 7.83301 -24 10.5c-2 10 -3 21 -3 33c0 6 0.666992 15.667 2 29c22 -2 56.333 -3 103 -3s83 1 109 3z" />
    <glyph glyph-name="Y" unicode="Y" horiz-adv-x="595" 
d="M669 679c0 -22 -3.99805 -42.6631 -11.998 -61.9961c-14.667 -4.66699 -27 -12.167 -37 -22.5s-25.333 -32.833 -46 -67.5c-58.667 -96 -115.667 -184 -171 -264l-18 -105c-3.33301 -18.667 -5 -32.667 -5 -42c0 -17.333 5.5 -29.833 16.5 -37.5
s32.167 -14.167 63.5 -19.5c2 -10.667 3 -22.667 3 -36c0 -12 -0.333008 -20.667 -1 -26c-28.667 2 -83.667 3 -165 3c-90.667 0 -151.334 -1 -182.001 -3c0.666992 21.333 5 42.333 13 63c27.333 4 47.333 8.83301 60 14.5s22.167 15.167 28.5 28.5s12.166 35 17.499 65
l17 96c-24.667 86 -53 172.333 -85 259c-9.33301 25.333 -17.333 44.166 -24 56.499s-13.167 21 -19.5 26s-14.833 8.83301 -25.5 11.5c-2 10 -3 21 -3 33c0 6 0.666992 15.667 2 29c30 -2 75.667 -3 137 -3c65.333 0 117 1 155 3c-0.666992 -22 -4.66699 -43 -12 -63
c-21.333 -2.66699 -36.833 -7.66699 -46.5 -15s-14.5 -17 -14.5 -29c0 -8.66699 2.66699 -20.334 8 -35.001c21.333 -60 40 -127.333 56 -202c32.667 48.667 69.667 113 111 193c12.667 25.333 19 43.666 19 54.999c0 9.33301 -3.33301 16.666 -10 21.999
s-17.667 9.33301 -33 12c-2 10 -3 20.667 -3 32c0 5.33301 0.666992 15.333 2 30c22 -2 57.667 -3 107 -3c40 0 72.333 1 97 3z" />
    <glyph glyph-name="Z" unicode="Z" horiz-adv-x="557" 
d="M597 617c-151.333 -212 -289.668 -397.001 -415.001 -555.001h81c36 0 64.667 3.83301 86 11.5s39.5 21 54.5 40s30.5 47.5 46.5 85.5c31.333 -4.66699 58 -15.667 80 -33c-10.667 -24 -20.667 -51.667 -30 -83s-16.333 -60 -21 -86c-57.333 2 -143 3 -257 3
c-103.333 0 -178 -1 -224 -3c-11.333 18.667 -16.666 39.667 -15.999 63c156.667 194 297 379 421 555h-84c-26 0 -47.667 -4 -65 -12s-32.833 -22 -46.5 -42s-27.834 -49 -42.501 -87c-35.333 2 -62.666 10.667 -81.999 26c10 23.333 19.667 51.833 29 85.5
s16.333 64.834 21 93.501c44 -2 121.333 -3 232 -3c98.667 0 171 1 217 3c12 -17.333 17 -38 15 -62z" />
    <glyph glyph-name="bracketleft" unicode="[" horiz-adv-x="301" 
d="M248 740c28.667 0 63.001 0.664062 103.001 1.99707c3.33301 -7.33301 5 -17.666 5 -30.999c0 -11.333 -1.33301 -22 -4 -32c-34.667 -2.66699 -60.167 -6.5 -76.5 -11.5s-28.5 -13 -36.5 -24s-14 -28.5 -18 -52.5l-125 -710c-2.66699 -16 -4 -26.667 -4 -32
c0 -19.333 6.66699 -32.666 20 -39.999s38 -11.666 74 -12.999c2 -8 3 -16.333 3 -25c0 -14 -2.33301 -27 -7 -39c-32 1.33301 -66.667 2 -104 2c-36.667 0 -73.667 -0.666992 -111 -2l178 1010c41.333 -1.33301 75.666 -2 102.999 -2z" />
    <glyph glyph-name="backslash" unicode="\" horiz-adv-x="299" 
d="M142 716c10 0 17.333 -0.666992 22 -2l90 -714c-12.667 -6.66699 -29.667 -10 -51 -10c-8.66699 0 -15 0.333008 -19 1c-25.333 244.667 -55.333 482.667 -90 714c12.667 7.33301 28.667 11 48 11z" />
    <glyph glyph-name="bracketright" unicode="]" horiz-adv-x="300" 
d="M49 -266c-42.667 0 -78.334 -0.998047 -107.001 -2.99805c-0.666992 10.667 0.333008 22.167 3 34.5s7 22.5 13 30.5c30.667 1.33301 54 4.33301 70 9s27.833 12.5 35.5 23.5s13.5 27.167 17.5 48.5l127 714c2.66699 17.333 4 28.666 4 33.999
c0 13.333 -3.16699 23.5 -9.5 30.5s-16.333 12.167 -30 15.5s-34.167 6 -61.5 8c0 12 1.5 23.667 4.5 35s7.5 20.666 13.5 27.999c20 -0.666992 53.667 -1 101 -1c48.667 0 84 0.333008 106 1l-178 -1011c-31.333 2 -67.666 3 -108.999 3z" />
    <glyph glyph-name="asciicircum" unicode="^" horiz-adv-x="477" 
d="M338 698c9.33301 0 17.3311 -0.999023 23.998 -2.99902c32.667 -86.667 72.667 -183 120 -289c-5.33301 -3.33301 -12.666 -6.33301 -21.999 -9s-18.666 -4 -27.999 -4c-5.33301 0 -9.33301 0.333008 -12 1l-98 236l-213 -247c-22 7.33301 -35.667 22.666 -41 45.999
l229 260c12 6 25.667 9 41 9z" />
    <glyph glyph-name="underscore" unicode="_" 
d="M-31 -81l491 -0.00195312c0 -29.333 -4.33301 -51.666 -13 -66.999c-50 0.666992 -94.5 1 -133.5 1h-118.5l-159 -1l-80 -1c0 28.667 4.33301 51.334 13 68.001z" />
    <glyph glyph-name="grave" unicode="`" horiz-adv-x="300" 
d="M314 539c-7.33301 -2.66699 -17 -4.00098 -29 -4.00098c-14.667 0 -27.667 2 -39 6c-31.333 57.333 -67.333 110.333 -108 159c25.333 7.33301 51.333 11 78 11c18.667 0 36.667 -2 54 -6c10 -57.333 24.667 -112.666 44 -165.999z" />
    <glyph glyph-name="a" unicode="a" horiz-adv-x="557" 
d="M522.5 82.5c5 -9.66699 8.16699 -18.835 9.5 -27.502c-41.333 -42.667 -87.333 -64 -138 -64c-29.333 0 -50.666 8.16699 -63.999 24.5s-20 36.833 -20 61.5c0 12.667 1.66699 25.667 5 39c4 16 12.333 41 25 75h-3c-22 -62.667 -50.5 -111.667 -85.5 -147
s-74.167 -53 -117.5 -53c-39.333 0 -68.166 13.167 -86.499 39.5s-27.5 61.5 -27.5 105.5c0 26.667 3 54.334 9 83.001c14.667 73.333 46.667 133 96 179s113.333 69 192 69c35.333 0 65 -4.66699 89 -14c34.667 3.33301 63 8 85 14
c7.33301 -4.66699 12.833 -10.5 16.5 -17.5s5.5 -16.167 5.5 -27.5c0 -12 -2 -27.667 -6 -47l-48 -207c-6.66699 -29.333 -10 -50.666 -10 -63.999c0 -8 1.16699 -13.333 3.5 -16s6.16602 -4 11.499 -4c6 0 12.167 1.66699 18.5 5s14.166 9 23.499 17
c6 -6 11.5 -13.833 16.5 -23.5zM255.5 124.499c16.333 15.667 32.832 41 49.499 76s31.334 80.167 44.001 135.5l13 56c-18 7.33301 -38 11 -60 11c-30.667 0 -55.167 -12.833 -73.5 -38.5s-32.5 -61.5 -42.5 -107.5c-7.33301 -36.667 -11 -66 -11 -88
c0 -45.333 12.333 -68 37 -68c12.667 0 27.167 7.83301 43.5 23.5z" />
    <glyph glyph-name="b" unicode="b" horiz-adv-x="542" 
d="M494.5 427.5c18.333 -26.333 27.5049 -61.501 27.5049 -105.501c0 -26 -3 -53.667 -9 -83c-14.667 -73.333 -46.667 -133 -96 -179s-113.333 -69 -192 -69h-1c-90.667 0 -159.334 24 -206.001 72c20.667 32 37 83.333 49 154l53 301c4.66699 29.333 7 48.333 7 57
c0 14 -4 23.333 -12 28s-23.667 7 -47 7c0 23.333 3.33301 43 10 59c32 2 64.667 6.66699 98 14s63 16.333 89 27c9.33301 -6 16.166 -12.833 20.499 -20.5s6.5 -17.167 6.5 -28.5c0 -7.33301 -1 -16.666 -3 -27.999c-18.667 -106.667 -33.334 -182 -44.001 -226
s-24.334 -90.667 -41.001 -140h1c22 62.667 50.5 111.667 85.5 147s74.167 53 117.5 53c39.333 0 68.166 -13.167 86.499 -39.5zM367.005 288.999c0 45.333 -12.332 68 -36.999 68c-12.667 0 -27.167 -7.83301 -43.5 -23.5s-32.833 -41 -49.5 -76
s-31.334 -80.167 -44.001 -135.5l-13 -56c18 -7.33301 38 -11 60 -11c30.667 0 55.167 12.833 73.5 38.5s32.5 61.5 42.5 107.5c7.33301 36.667 11 66 11 88z" />
    <glyph glyph-name="c" unicode="c" horiz-adv-x="425" 
d="M62 38c-26 31.333 -38.999 71.667 -38.999 121c0 20.667 3 46 9 76c14 66 42.667 121.167 86 165.5s104.666 66.5 183.999 66.5c23.333 0 45.5 -2.83301 66.5 -8.5s38.167 -13.167 51.5 -22.5c-12 -34.667 -19 -70.667 -21 -108c-14 -5.33301 -28 -8 -42 -8
c-8.66699 0 -18 1 -28 3l1 18c0 41.333 -15 62 -45 62c-24.667 0 -45.5 -12.5 -62.5 -37.5s-29.5 -59.5 -37.5 -103.5c-5.33301 -28.667 -8 -55 -8 -79c0 -68 25.667 -102 77 -102c38 0 75 14.333 111 43c12 -15.333 18.333 -34.666 19 -57.999
c-28.667 -26.667 -58.667 -45.834 -90 -57.501s-67 -17.5 -107 -17.5c-57.333 0 -99 15.667 -125 47z" />
    <glyph glyph-name="d" unicode="d" horiz-adv-x="559" 
d="M462 180c-6.66699 -38 -10 -63.668 -10 -77.001c0 -7.33301 1 -12.333 3 -15s5 -4 9 -4c6 0 12.167 1.66699 18.5 5s14.833 9 25.5 17c6 -6 11.333 -13.833 16 -23.5s7.66699 -18.834 9 -27.501c-18.667 -20 -39.667 -35.667 -63 -47s-47.333 -17 -72 -17
c-30.667 0 -52.667 7.83301 -66 23.5s-20 36.167 -20 61.5c0 8.66699 1.33301 21 4 37c4 20.667 12.333 46.667 25 78h-4c-22 -62.667 -50.5 -111.667 -85.5 -147s-74.167 -53 -117.5 -53c-39.333 0 -68.166 13.167 -86.499 39.5s-27.5 61.5 -27.5 105.5
c0 26.667 3 54.334 9 83.001c14.667 73.333 46.667 133 96 179s113.333 69 192 69c12.667 0 29.667 -1.33301 51 -4c1.33301 19.333 3.33301 37.666 6 54.999c4.66699 29.333 7 48.333 7 57c0 14.667 -4 24.167 -12 28.5s-23.667 6.5 -47 6.5
c-1.33301 22.667 2 42.334 10 59.001c29.333 0.666992 61.5 5 96.5 13s64.833 17.333 89.5 28c9.33301 -6 16.166 -12.833 20.499 -20.5s6.5 -17.167 6.5 -28.5c0 -7.33301 -1 -16.666 -3 -27.999zM255.5 124.499c16.333 15.667 32.832 41 49.499 76
s31.334 80.167 44.001 135.5l13 56c-18 7.33301 -38 11 -60 11c-30.667 0 -55.167 -12.833 -73.5 -38.5s-32.5 -61.5 -42.5 -107.5c-7.33301 -36.667 -11 -66 -11 -88c0 -45.333 12.333 -68 37 -68c12.667 0 27.167 7.83301 43.5 23.5z" />
    <glyph glyph-name="e" unicode="e" horiz-adv-x="451" 
d="M400.5 438.5c23.667 -19 35.502 -42.834 35.502 -71.501c0 -5.33301 -0.666992 -12.666 -2 -21.999c-4.66699 -25.333 -19.167 -49.666 -43.5 -72.999s-55.166 -42.833 -92.499 -58.5s-77.666 -24.5 -120.999 -26.5c-0.666992 -32.667 4.83301 -58.334 16.5 -77.001
s31.5 -28 59.5 -28c19.333 0 38.166 3.83301 56.499 11.5s35.166 18.167 50.499 31.5c12.667 -16.667 19 -36.334 19 -59.001c-27.333 -25.333 -56.333 -44.166 -87 -56.499s-66.334 -18.5 -107.001 -18.5c-56.667 0 -97.834 15.333 -123.501 46s-38.5 71 -38.5 121
c0 24 2.33301 47.333 7 70c10 50 27.833 93 53.5 129s57 63.333 94 82s76.833 28 119.5 28c45.333 0 79.833 -9.5 103.5 -28.5zM328.002 357.999c0 30.667 -14.333 46 -43 46c-22 0 -42 -12.333 -60 -37s-31.333 -61 -40 -109l-2 -12c38.667 3.33301 71 13 97 29
s41.333 36.667 46 62c1.33301 9.33301 2 16.333 2 21z" />
    <glyph glyph-name="f" unicode="f" horiz-adv-x="361" 
d="M465.5 708c21 -4 36.499 -9 46.499 -15c-6.66699 -17.333 -12.5 -39.5 -17.5 -66.5s-7.83301 -50.167 -8.5 -69.5c-7.33301 -3.33301 -18.333 -6 -33 -8s-28.667 -3 -42 -3c-1.33301 34 -5 60.167 -11 78.5s-17.333 27.5 -34 27.5c-14 0 -25.833 -5.66699 -35.5 -17
s-18.667 -31.333 -27 -60s-17.833 -71 -28.5 -127h95c0 -29.333 -2.66699 -50.333 -8 -63c-34 0 -67.667 -3.66699 -101 -11c-6.66699 -36.667 -16.334 -96 -29.001 -178l-8 -51c-12 -73.333 -30.667 -139.833 -56 -199.5s-56.666 -106.834 -93.999 -141.501
s-78.666 -52 -123.999 -52c-38.667 0 -72.334 14.333 -101.001 43c-0.666992 13.333 0.5 27.833 3.5 43.5s7.16699 29.5 12.5 41.5c30.667 -13.333 67 -20 109 -20c20.667 0 36.334 4.33301 47.001 13s19.667 25.834 27 51.501s14.333 66.167 21 121.5l6 50
c14 118.667 26.333 212 37 280c-29.333 7.33301 -55 11 -77 11c0 26 4.33301 46.333 13 61h75l1 6c15.333 88 44 153.333 86 196s104 64 186 64c25.333 0 48.5 -2 69.5 -6z" />
    <glyph glyph-name="g" unicode="g" horiz-adv-x="526" 
d="M506 422c0 -7.33301 -1.00391 -16.6709 -3.00391 -28.0039l-49 -275c-19.333 -109.333 -54.166 -197.833 -104.499 -265.5s-116.5 -101.5 -198.5 -101.5c-30.667 0 -57.667 4.33301 -81 13s-46 21.334 -68 38.001c-0.666992 12.667 0.5 26.834 3.5 42.501
s7.16699 29.167 12.5 40.5c25.333 -9.33301 54.333 -16.833 87 -22.5s62.667 -8.5 90 -8.5c22 0 37.833 3.33301 47.5 10s17.334 20 23.001 40s12.834 56 21.501 108c7.33301 45.333 22.333 98.333 45 159l7 19h-2c-22 -62.667 -50.5 -111.667 -85.5 -147
s-74.167 -53 -117.5 -53c-39.333 0 -68.166 13.167 -86.499 39.5s-27.5 61.5 -27.5 105.5c0 26.667 3 54.334 9 83.001c14.667 73.333 46.667 133 96 179s113.333 69 192 69c35.333 0 65 -4.66699 89 -14c31.333 2.66699 57 7.33398 77 14.001c15.333 -10 23 -25 23 -45z
M255.496 124.495c16.333 15.667 32.832 41 49.499 76s31.334 80.167 44.001 135.5l13 56c-18 7.33301 -38 11 -60 11c-30.667 0 -55.167 -12.833 -73.5 -38.5s-32.5 -61.5 -42.5 -107.5c-7.33301 -36.667 -11 -66 -11 -88c0 -45.333 12.333 -68 37 -68
c12.667 0 27.167 7.83301 43.5 23.5z" />
    <glyph glyph-name="h" unicode="h" horiz-adv-x="593" 
d="M558.5 82c5 -9.33301 8.16992 -18.333 9.50293 -27c-42.667 -42.667 -90 -64 -142 -64c-32.667 0 -55.834 7.16699 -69.501 21.5s-20.5 35.5 -20.5 63.5c0 20 4 49 12 87l20 89c5.33301 22 8 42 8 60c0 27.333 -8.66699 41 -26 41c-16 0 -34.333 -10.333 -55 -31
s-40.334 -51 -59.001 -91s-33 -87.333 -43 -142l-16 -89h-148l91 518c4.66699 29.333 7 48.333 7 57c0 14 -4 23.333 -12 28s-23.667 7 -47 7c0 23.333 3.33301 43 10 59c32 2 64.667 6.66699 98 14s63 16.333 89 27c9.33301 -6 16.166 -12.833 20.499 -20.5
s6.5 -17.5 6.5 -29.5c0 -8 -1 -17 -3 -27c-20 -110 -35.167 -187.667 -45.5 -233s-22.5 -90.666 -36.5 -135.999h2l22 47c12 25.333 28.833 50 50.5 74s46 43.667 73 59s54.167 23 81.5 23c28.667 0 52.167 -9.16699 70.5 -27.5s27.5 -47.5 27.5 -87.5
c0 -21.333 -3.66699 -48.333 -11 -81l-24 -101c-8.66699 -36.667 -13 -60.334 -13 -71.001c0 -6 1 -10 3 -12s5.33301 -3 10 -3c10.667 0 25 7.33301 43 22c6 -6.66699 11.5 -14.667 16.5 -24z" />
    <glyph glyph-name="i" unicode="i" horiz-adv-x="302" 
d="M140 557c-12 11.333 -18.001 26.666 -18.001 45.999c0 28 9 50 27 66s42 24 72 24c20.667 0 37.334 -5.83301 50.001 -17.5s19 -27.167 19 -46.5c0 -3.33301 -0.666992 -9 -2 -17c-4 -23.333 -14.5 -41.166 -31.5 -53.499s-39.5 -18.5 -67.5 -18.5
c-20.667 0 -37 5.66699 -49 17zM43.999 81c0 20.667 3.66797 45.668 11.001 75.001l29 114c8 33.333 12 54.666 12 63.999c0 13.333 -4.33301 22.166 -13 26.499s-24 6.5 -46 6.5c0 23.333 3.33301 43 10 59c29.333 1.33301 59.166 5.83301 89.499 13.5
s57.833 16.834 82.5 27.501c25.333 -11.333 38 -33.333 38 -66c0 -12.667 -2 -28.667 -6 -48l-45 -189c-6.66699 -27.333 -10 -47.333 -10 -60c0 -7.33301 1.16699 -12.333 3.5 -15s5.83301 -4 10.5 -4c11.333 0 25 7 41 21c6 -5.33301 11.5 -12.833 16.5 -22.5
s8.16699 -19.167 9.5 -28.5c-20.667 -21.333 -43.167 -37.333 -67.5 -48s-48.833 -16 -73.5 -16c-61.333 0 -92 30 -92 90z" />
    <glyph glyph-name="j" unicode="j" horiz-adv-x="275" 
d="M142 557c-12 11.333 -18.001 26.666 -18.001 45.999c0 28 9 50 27 66s42 24 72 24c20.667 0 37.334 -5.83301 50.001 -17.5s19 -27.167 19 -46.5c0 -3.33301 -0.666992 -9 -2 -17c-4 -23.333 -14.5 -41.166 -31.5 -53.499s-39.5 -18.5 -67.5 -18.5
c-20.667 0 -37 5.66699 -49 17zM-107.001 -189c41.333 25.333 74.668 57.3301 100.001 95.9971s43 87 53 145l42 234c4 25.333 6 40 6 44c0 14.667 -4.33301 24.5 -13 29.5s-24.334 7.5 -47.001 7.5c0 24.667 3.33301 44.334 10 59.001c29.333 0.666992 60.5 5 93.5 13
s61.833 17.333 86.5 28c11.333 -8 19.333 -15.833 24 -23.5s7 -18.834 7 -33.501c0 -15.333 -2.33301 -34.666 -7 -57.999l-46 -250c-12 -67.333 -29.5 -122.666 -52.5 -165.999s-53 -79.166 -90 -107.499s-84.5 -53.5 -142.5 -75.5c-16 12.667 -24 32 -24 58z" />
    <glyph glyph-name="k" unicode="k" horiz-adv-x="545" 
d="M470.5 272.5c-29 -23 -69.834 -43.8311 -122.501 -62.498c16 -16.667 34.667 -43 56 -79c10 -16.667 18 -27.834 24 -33.501s13.333 -8.5 22 -8.5c11.333 0 23 5.66699 35 17c6.66699 -5.33301 12.667 -12.833 18 -22.5s8.33301 -19.167 9 -28.5
c-42.667 -42.667 -88 -64 -136 -64c-30 0 -52.667 7 -68 21s-29.666 35.667 -42.999 65c-16 35.333 -34.667 68.333 -56 99l-6 -36l-26 -140h-148l91 518c4.66699 29.333 7 48 7 56c0 15.333 -4 25.166 -12 29.499s-23.667 6.5 -47 6.5c0 23.333 3.33301 43 10 59
c32 2 64.667 6.66699 98 14s63 16.333 89 27c10 -7.33301 17 -14.5 21 -21.5s6 -15.833 6 -26.5c0 -8 -1 -17.667 -3 -29c-16.667 -92 -29.167 -156.333 -37.5 -193s-20.833 -81 -37.5 -133h1c23.333 47.333 53.333 85.833 90 115.5s76.667 44.5 120 44.5
c30 0 54.167 -8 72.5 -24s27.5 -37.333 27.5 -64c0 -4 -0.666992 -11.333 -2 -22c-6 -33.333 -23.5 -61.5 -52.5 -84.5zM382.999 335.002c0 11.333 -3.16504 20.333 -9.49805 27s-15.5 10 -27.5 10c-14 0 -29.833 -6.66699 -47.5 -20s-34.334 -32 -50.001 -56
s-27.834 -51 -36.501 -81c54 10.667 94.333 24 121 40s42.667 37.667 48 65c1.33301 6.66699 2 11.667 2 15z" />
    <glyph glyph-name="l" unicode="l" horiz-adv-x="304" 
d="M66.5 15c-14.333 16 -21.499 38.998 -21.499 68.998c0 21.333 1.5 41.5 4.5 60.5s10.5 59.833 22.5 122.5c7.33301 34 23.666 117.667 48.999 251c4.66699 23.333 7 42 7 56c0 14.667 -4.16699 24.334 -12.5 29.001s-23.833 7 -46.5 7c0 25.333 3.33301 45 10 59
c29.333 0.666992 61.5 5 96.5 13s64.833 17.333 89.5 28c9.33301 -6 16.166 -12.833 20.499 -20.5s6.5 -17.167 6.5 -28.5c0 -7.33301 -1 -16.666 -3 -27.999c-18.667 -108 -44 -242.667 -76 -404c-0.666992 -6 -2.33398 -15 -5.00098 -27c-8 -39.333 -12 -69 -12 -89
c0 -10.667 1.33301 -18 4 -22s6.66699 -6 12 -6c10.667 0 24.334 7 41.001 21c6 -6 11.5 -13.667 16.5 -23s8.16699 -18.333 9.5 -27c-18.667 -20.667 -40.5 -36.667 -65.5 -48s-50.167 -17 -75.5 -17c-33.333 0 -57.166 8 -71.499 24z" />
    <glyph glyph-name="m" unicode="m" horiz-adv-x="886" 
d="M648.5 12c-13.667 14 -20.498 35.334 -20.498 64.001c0 24 4 53 12 87l13 57c11.333 50 17 82.667 17 98c0 23.333 -8.33301 35 -25 35c-15.333 0 -33.333 -10.333 -54 -31s-40.5 -51 -59.5 -91s-33.5 -88 -43.5 -144l-16 -87h-144l40 206c10.667 55.333 16 92 16 110
c0 13.333 -2 22.833 -6 28.5s-10.333 8.5 -19 8.5c-16 0 -34.333 -10.333 -55 -31s-40.167 -51.167 -58.5 -91.5s-32.833 -88.5 -43.5 -144.5l-16 -86h-148l52 275c4.66699 28 7 46.333 7 55c0 15.333 -4 25.333 -12 30s-23.667 7 -47 7c-1.33301 22 1.66699 41.667 9 59
c29.333 0.666992 61.333 5 96 13s65 17.333 91 28c9.33301 -4.66699 16.166 -10.667 20.499 -18s6.5 -17 6.5 -29c0 -7.33301 -0.333008 -13.333 -1 -18c-5.33301 -40 -18.666 -83.667 -39.999 -131h1l19 40c19.333 41.333 48.5 77.666 87.5 108.999s77.5 47 115.5 47
c28 0 49.667 -7.83301 65 -23.5s23 -38.5 23 -68.5s-7 -64.667 -21 -104h1l16 37c12 28 29.5 54.333 52.5 79s48.167 44.167 75.5 58.5s53.666 21.5 78.999 21.5c31.333 0 54.5 -9.5 69.5 -28.5s22.5 -46.167 22.5 -81.5c0 -24.667 -4.33301 -56 -13 -94l-22 -93
c-8.66699 -35.333 -13 -58.666 -13 -69.999c0 -6.66699 1 -11 3 -13s5.33301 -3 10 -3c6.66699 0 13.167 1.66699 19.5 5s14.5 9 24.5 17c6 -6 11.5 -13.833 16.5 -23.5s7.83301 -18.834 8.5 -27.501c-40.667 -42.667 -88.334 -64 -143.001 -64c-32 0 -54.833 7 -68.5 21z
" />
    <glyph glyph-name="n" unicode="n" horiz-adv-x="601" 
d="M567.5 82c5 -9.33301 8.16895 -18.332 9.50195 -26.999c-42.667 -42.667 -90 -64 -142 -64c-32.667 0 -55.834 7.16699 -69.501 21.5s-20.5 35.5 -20.5 63.5c0 20 4 49 12 87l20 89c5.33301 22 8 42 8 60c0 27.333 -8.66699 41 -26 41c-16 0 -34.5 -10.667 -55.5 -32
s-40.833 -52.333 -59.5 -93s-33 -88 -43 -142l-16 -86h-148l52 275c4.66699 23.333 7 42 7 56c0 14.667 -4.16699 24.334 -12.5 29.001s-23.833 7 -46.5 7c0 25.333 3.33301 45 10 59c29.333 0.666992 61.5 5 96.5 13s65.167 17.333 90.5 28
c19.333 -8.66699 29 -24.667 29 -48c0 -3.33301 -0.666992 -9 -2 -17c-4.66699 -24 -9.83398 -45.167 -15.501 -63.5s-13.167 -38.5 -22.5 -60.5v-3l17 36c20 41.333 49.333 77.666 88 108.999s77.667 47 117 47c28.667 0 52.167 -9.16699 70.5 -27.5s27.5 -47.5 27.5 -87.5
c0 -21.333 -3.66699 -48.333 -11 -81l-24 -101c-8.66699 -36.667 -13 -60.334 -13 -71.001c0 -6 1 -10 3 -12s5.33301 -3 10 -3c10.667 0 25 7.33301 43 22c6 -6.66699 11.5 -14.667 16.5 -24z" />
    <glyph glyph-name="o" unicode="o" horiz-adv-x="541" 
d="M79.5 42c-35 34 -52.502 79.666 -52.502 136.999c0 18 1.33301 35 4 51c12 73.333 42.833 131.166 92.5 173.499s111.834 63.5 186.501 63.5c66 0 116.5 -16.667 151.5 -50s52.5 -78.666 52.5 -135.999c0 -17.333 -1.33301 -33.666 -4 -48.999
c-11.333 -74 -42.166 -132.667 -92.499 -176s-112.5 -65 -186.5 -65c-66 0 -116.5 17 -151.5 51zM311.498 98.999c21 31.333 35.834 73.668 44.501 127.001c4 24 6 46 6 66c0 35.333 -5.66699 63.166 -17 83.499s-27.333 30.5 -48 30.5
c-25.333 0 -47.833 -15.167 -67.5 -45.5s-33.834 -70.833 -42.501 -121.5c-4.66699 -25.333 -7 -50 -7 -74c0 -35.333 5.5 -63 16.5 -83s26.167 -30 45.5 -30c25.333 0 48.5 15.667 69.5 47z" />
    <glyph glyph-name="p" unicode="p" horiz-adv-x="553" 
d="M505.5 427.5c18.333 -26.333 27.501 -61.501 27.501 -105.501c0 -26 -3 -53.667 -9 -83c-14.667 -73.333 -46.667 -133 -96 -179s-113.333 -69 -192 -69c-20 0 -39.333 1.66699 -58 5c1.33301 -25.333 -3.66699 -72.333 -15 -141l-17 -99h-148l91 519
c4.66699 28 7 46.667 7 56c0 14.667 -4 24.334 -12 29.001s-23.667 7 -47 7c0 24.667 3.33301 44 10 58c29.333 1.33301 60 5.83301 92 13.5s60.667 16.834 86 27.501c9.33301 -6 16 -12.833 20 -20.5s6 -16.834 6 -27.501c0 -12.667 -3.5 -33.667 -10.5 -63
s-14.5 -55 -22.5 -77l-4 -11h2c22 62.667 50.5 111.667 85.5 147s74.167 53 117.5 53c39.333 0 68.166 -13.167 86.499 -39.5zM378.001 288.999c0 45.333 -12.332 68 -36.999 68c-12.667 0 -27.167 -7.83301 -43.5 -23.5s-32.833 -41 -49.5 -76
s-31.334 -80.167 -44.001 -135.5l-13 -56c18 -7.33301 38 -11 60 -11c30.667 0 55.167 12.833 73.5 38.5s32.5 61.5 42.5 107.5c7.33301 36.667 11 66 11 88z" />
    <glyph glyph-name="q" unicode="q" horiz-adv-x="541" 
d="M524 395c-20.667 -32 -37 -83.334 -49 -154.001l-85 -483h-148l48 275c4 21.333 9.33301 42.5 16 63.5s17 50.833 31 89.5l1 5h-1c-22 -62.667 -50.5 -111.667 -85.5 -147s-74.167 -53 -117.5 -53c-38.667 0 -67.334 13.167 -86.001 39.5s-28 61.5 -28 105.5
c0 26.667 3 54.334 9 83.001c14.667 72 46.667 131.333 96 178s111.333 70 186 70h3h3c8.66699 0 15 -0.333008 19 -1c82.667 -4 145.334 -27.667 188.001 -71zM255.5 124.499c16.333 15.667 32.832 41 49.499 76s31.334 80.167 44.001 135.5l13 56
c-18 7.33301 -38 11 -60 11c-30.667 0 -55.167 -12.833 -73.5 -38.5s-32.5 -61.5 -42.5 -107.5c-7.33301 -36.667 -11 -66 -11 -88c0 -45.333 12.333 -68 37 -68c12.667 0 27.167 7.83301 43.5 23.5z" />
    <glyph glyph-name="r" unicode="r" horiz-adv-x="447" 
d="M250 420c0 -3.33301 -0.670898 -10.998 -2.00391 -22.998c-2.66699 -17.333 -8 -38.833 -16 -64.5s-17.667 -50.834 -29 -75.501h2l24 53c22 47.333 47.833 85.333 77.5 114s61.834 43 96.501 43c20.667 0 38.334 -5 53.001 -15c-8.66699 -24 -15.667 -51 -21 -81
s-8.66602 -58.333 -9.99902 -85c-24 -10.667 -51.333 -15 -82 -13c0.666992 3.33301 1 7.66602 1 12.999c0 11.333 -2.16699 20.333 -6.5 27s-9.83301 10 -16.5 10c-16.667 0 -36 -19 -58 -57c-12.667 -22 -25.167 -50.833 -37.5 -86.5s-22.166 -73.167 -29.499 -112.5
l-12 -67h-148l52 275c5.33301 26.667 8 45.667 8 57c0 14.667 -4.16699 24.167 -12.5 28.5s-23.833 6.5 -46.5 6.5c0 23.333 3.33301 43 10 59c28.667 1.33301 58.667 5.83301 90 13.5s60 16.834 86 27.501c18 -8.66699 27 -24.334 27 -47.001z" />
    <glyph glyph-name="s" unicode="s" horiz-adv-x="429" 
d="M347.5 457c29 -6.66699 52.8311 -14.9971 71.498 -24.9971c-11.333 -34.667 -17.666 -76.334 -18.999 -125.001c-16 -8 -36.333 -12 -61 -12l-18 1c-1.33301 73.333 -24 110 -68 110c-28.667 0 -45 -11 -49 -33c-0.666992 -2.66699 -1 -6.33398 -1 -11.001
c0 -14.667 5.83301 -28.167 17.5 -40.5s29.167 -27.5 52.5 -45.5c32.667 -25.333 57.834 -48.833 75.501 -70.5s26.5 -47.5 26.5 -77.5c0 -8.66699 -1 -17.667 -3 -27c-8 -40 -28.167 -68.333 -60.5 -85s-80.5 -25 -144.5 -25c-36 0 -68.333 3.66699 -97 11
s-52.334 17 -71.001 29c12.667 36.667 19.667 78 21 124c17.333 6.66699 37 10 59 10c9.33301 0 16.333 -0.333008 21 -1c-0.666992 -36 5 -63.167 17 -81.5s31 -27.5 57 -27.5c16.667 0 29.334 3.66699 38.001 11s13 16.666 13 27.999
c0 12.667 -5.16699 24.834 -15.5 36.501s-26.5 26.5 -48.5 44.5c-32.667 26.667 -57.667 51.167 -75 73.5s-26 48.833 -26 79.5c0 8.66699 1 18 3 28c7.33301 39.333 28 67.666 62 84.999s79.667 26 137 26c28 0 56.5 -3.33301 85.5 -10z" />
    <glyph glyph-name="t" unicode="t" horiz-adv-x="364" 
d="M225 225c-9.33301 -41.333 -14.001 -72 -14.001 -92c0 -34 11 -51 33 -51c9.33301 0 19.333 3 30 9s20.334 13.667 29.001 23c6 -6.66699 11.167 -15.167 15.5 -25.5s7.16602 -20.166 8.49902 -29.499c-15.333 -18.667 -37.666 -34.667 -66.999 -48
s-57.666 -20 -84.999 -20c-76 0 -114 41.333 -114 124c0 30 4.33301 63.333 13 100l38 163c-26.667 6 -50.334 9 -71.001 9c0 27.333 4 47.666 12 60.999h76l2 10c1.33301 7.33301 3.33301 16 6 26c1.33301 6 4.33301 20.5 9 43.5s7.66699 43.167 9 60.5
c21.333 2.66699 43 7 65 13s39.667 12.333 53 19c10 -2.66699 17 -7.66699 21 -15s6 -17.333 6 -30c0 -18 -5.66699 -51.333 -17 -100l-6 -27h99c0 -29.333 -2.66699 -50.333 -8 -63c-43.333 0 -79.333 -3.66699 -108 -11z" />
    <glyph glyph-name="u" unicode="u" horiz-adv-x="597" 
d="M57 99c0 28.667 5.33691 66.3281 16.0039 112.995c6.66699 27.333 12 51.666 16 72.999s6 37.333 6 48c0 14.667 -3.83301 24 -11.5 28s-22.834 6.66699 -45.501 8c-1.33301 22.667 1.66699 41.667 9 57c28 0.666992 59.667 5 95 13s64.666 17.333 87.999 28
c9.33301 -6 16 -12 20 -18s6 -14.667 6 -26c0 -13.333 -2.33301 -32.166 -7 -56.499s-12.667 -61.5 -24 -111.5c-9.33301 -39.333 -14 -71 -14 -95c0 -17.333 2.5 -29.666 7.5 -36.999s12.833 -11 23.5 -11c14.667 0 31.667 9.5 51 28.5s38.166 48.167 56.499 87.5
s33.166 88.333 44.499 147l16 83h145l-46 -251c-11.333 -60 -17 -95.333 -17 -106c0 -7.33301 1.16699 -12.166 3.5 -14.499s6.5 -3.5 12.5 -3.5c8.66699 0 21.334 7.33301 38.001 22c6 -5.33301 11.5 -12.666 16.5 -21.999s8.16699 -18.666 9.5 -27.999
c-18.667 -20 -40.5 -35.667 -65.5 -47s-49.833 -17 -74.5 -17c-32.667 0 -56.334 7.33301 -71.001 22s-22 34.334 -22 59.001c0 6.66699 1.33301 18 4 34c3.33301 16 8.66602 32 15.999 48h-2c-22 -46 -52.667 -84.667 -92 -116s-80.666 -47 -123.999 -47
c-56 0 -84 36 -84 108z" />
    <glyph glyph-name="v" unicode="v" horiz-adv-x="522" 
d="M506 366c0 -50.667 -21.168 -105.002 -63.501 -163.002s-115.833 -128.667 -220.5 -212c-33.333 0 -57.666 5 -72.999 15c-15.333 116.667 -34.666 217 -57.999 301c-6.66699 24.667 -15 41.167 -25 49.5s-27.667 11.833 -53 10.5c0 22.667 3 42.334 9 59.001
c21.333 2 47.166 7.33301 77.499 16s53.833 17 70.5 25c15.333 -4.66699 26 -12 32 -22s12.333 -29.333 19 -58c23.333 -96.667 40.333 -190 51 -280c64.667 71.333 97 133 97 185c0 24.667 -6 43 -18 55s-30 18.333 -54 19c-0.666992 4.66699 -1 11.334 -1 20.001
c0 12.667 1.66699 25.667 5 39c22 3.33301 48.333 9.33301 79 18s53.667 16.667 69 24c38 -12 57 -45.667 57 -101z" />
    <glyph glyph-name="w" unicode="w" horiz-adv-x="772" 
d="M738.5 431c10.333 -17.333 15.499 -42.334 15.499 -75.001c0 -46 -19.5 -98.167 -58.5 -156.5s-104.5 -127.833 -196.5 -208.5c-32 0 -55.667 5 -71 15c-10 80.667 -22 146.667 -36 198c-12 -37.333 -31.667 -72.666 -59 -105.999s-64.333 -69 -111 -107
c-33.333 0 -57.666 5 -72.999 15c-15.333 116.667 -34.666 217 -57.999 301c-6.66699 24.667 -15 41.167 -25 49.5s-27.667 11.833 -53 10.5c0 22.667 3 42.334 9 59.001c21.333 2 47.166 7.33301 77.499 16s53.833 17 70.5 25c15.333 -4.66699 26 -12 32 -22
s12.333 -29.333 19 -58c21.333 -86.667 38.333 -179.334 51 -278.001c26 32.667 45 63.5 57 92.5s18 60.167 18 93.5c0 39.333 -7.33301 84.333 -22 135c36 6.66699 67.333 19 94 37c14 -4 24 -10.667 30 -20s13.333 -29.333 22 -60c26 -92.667 47.333 -185.334 64 -278.001
c56.667 66.667 85 125 85 175c0 54.667 -25 82 -75 82c-1.33301 12 -2 21 -2 27c0 12.667 1.33301 23.334 4 32.001c22.667 3.33301 49 9.33301 79 18s52.333 16.667 67 24c20 -6.66699 35.167 -18.667 45.5 -36z" />
    <glyph glyph-name="x" unicode="x" horiz-adv-x="502" 
d="M397 284c0.666992 36 -8.32715 53.998 -26.9941 53.998c-10 0 -20.833 -8 -32.5 -24s-22.834 -37 -33.501 -63c14 -47.333 29.667 -89.333 47 -126c6.66699 -14.667 13.5 -24.5 20.5 -29.5s15.167 -7.5 24.5 -7.5c12 0 24.333 6 37 18
c13.333 -13.333 21.666 -30.333 24.999 -51c-16 -18.667 -36.333 -34 -61 -46s-47.667 -18 -69 -18c-47.333 0 -80 17 -98 51c-16 30.667 -28 61.334 -36 92.001c-23.333 -44 -49.333 -78.833 -78 -104.5s-58.667 -38.5 -90 -38.5c-11.333 0 -20.833 1 -28.5 3
s-14.834 5.33301 -21.501 10c6.66699 20 12.167 44.333 16.5 73s6.5 53.667 6.5 75c20.667 10.667 46.334 15 77.001 13c0 -31.333 8 -47 24 -47c9.33301 0 19.5 6.16699 30.5 18.5s21.5 29.5 31.5 51.5c-2.66699 12.667 -6.33398 27.5 -11.001 44.5s-8 29.5 -10 37.5
c-5.33301 17.333 -9 30.333 -11 39c-7.33301 24 -17 40 -29 48s-30.667 11.333 -56 10c-2 19.333 0.666992 39 8 59c22 1.33301 48.833 6.33301 80.5 15s55.5 17.334 71.5 26.001c11.333 -2 20.666 -6.83301 27.999 -14.5s13 -20.5 17 -38.5
c11.333 -50 18.666 -85.667 21.999 -107c24 48.667 51 87.5 81 116.5s61.667 43.5 95 43.5c21.333 0 39.666 -5 54.999 -15c-9.33301 -23.333 -17 -48.5 -23 -75.5s-9.33301 -53.5 -10 -79.5c-22 -10.667 -46.333 -15 -73 -13z" />
    <glyph glyph-name="y" unicode="y" horiz-adv-x="515" 
d="M503 381c0 -25.333 -5.49805 -52.0039 -16.498 -80.0039s-30.667 -63.167 -59 -105.5s-69.166 -97.166 -122.499 -164.499c-64.667 -82 -115.167 -142.333 -151.5 -181s-66.833 -64.667 -91.5 -78s-51.667 -20 -81 -20c-40.667 0 -75.334 14.333 -104.001 43
c0 14 1.5 28.667 4.5 44s6.83301 29 11.5 41c30.667 -13.333 65.667 -20 105 -20c30 0 56.167 5.66699 78.5 17s48.166 33.333 77.499 66c-8 84 -16.667 151.5 -26 202.5s-22 104.833 -38 161.5c-6.66699 24.667 -15 41.167 -25 49.5s-27.667 11.833 -53 10.5
c0 24.667 3 44.334 9 59.001c21.333 2 47.166 7.33301 77.499 16s53.833 17 70.5 25c14.667 -4.66699 25 -11.5 31 -20.5s12.333 -26.5 19 -52.5c24.667 -102.667 40.667 -204.667 48 -306c36 51.333 61.5 93.833 76.5 127.5s22.5 63.167 22.5 88.5
c0 40.667 -23.333 61.334 -70 62.001c-0.666992 4.66699 -1 11.334 -1 20.001c0 12.667 1.66699 25.667 5 39c22 3.33301 48.333 9.33301 79 18s53.667 16.667 69 24c36.667 -11.333 55 -40 55 -86z" />
    <glyph glyph-name="z" unicode="z" horiz-adv-x="432" 
d="M303.5 128c8.33301 7.33301 17.5 22.001 27.5 44.001c12.667 0 25.5 -1.5 38.5 -4.5s24.167 -7.16699 33.5 -12.5c-8 -18 -14.333 -39.333 -19 -64s-7.66699 -48.334 -9 -71.001c-5.33301 -10.667 -14.5 -18.167 -27.5 -22.5s-34.167 -6.5 -63.5 -6.5
c-20.667 0 -49.667 1.33301 -87 4c-31.333 3.33301 -61.333 5 -90 5c-34 0 -68.667 -3 -104 -9c-10 15.333 -15 32.666 -15 51.999c0 4.66699 0.333008 8.33398 1 11.001c130 102 229.333 196.667 298 284c-20 3.33301 -42.667 5 -68 5c-28.667 0 -49.667 -4.33301 -63 -13
s-27 -26.334 -41 -53.001c-14 0 -27.5 2.16699 -40.5 6.5s-23.5 10.166 -31.5 17.499c26.667 49.333 44 101.666 52 156.999c34 3.33301 87.667 5 161 5c68 0 119 -1.66699 153 -5c5.33301 -7.33301 9.66602 -16.166 12.999 -26.499s5 -20.166 5 -29.499
c-32.667 -48 -71.667 -97.167 -117 -147.5s-94.666 -98.166 -147.999 -143.499c17.333 6 34.333 9 51 9l26 -1c10.667 -1.33301 19 -2 25 -2c18 0 31.167 3.66699 39.5 11z" />
    <glyph glyph-name="braceleft" unicode="{" horiz-adv-x="377" 
d="M429 710c0 -7.33301 -0.333984 -12.6719 -1.00098 -16.0049c-36.667 -8 -63.667 -22 -81 -42s-28.166 -42.5 -32.499 -67.5s-6.83301 -57.833 -7.5 -98.5c-0.666992 -45.333 -3.83398 -81.833 -9.50098 -109.5s-19.834 -52.5 -42.501 -74.5s-57.667 -36.333 -105 -43
c38.667 -9.33301 66 -24.5 82 -45.5s24 -47.167 24 -78.5c0 -19.333 -2.33301 -39.666 -7 -60.999s-11.667 -47.666 -21 -78.999c-8.66699 -30 -15.167 -54.667 -19.5 -74s-6.5 -37.333 -6.5 -54c0 -46.667 21.333 -77 64 -91c1.33301 -22.667 -4.66699 -40.667 -18 -54
c-59.333 14.667 -100.666 36.167 -123.999 64.5s-35 62.833 -35 103.5c0 17.333 1.5 35.333 4.5 54s7.5 41.334 13.5 68.001c11.333 49.333 17 86.333 17 111c0 26.667 -5.66699 49.334 -17 68.001s-30.666 33.334 -57.999 44.001c-1.33301 19.333 3.33398 35.333 14.001 48
c34 9.33301 59.167 23.5 75.5 42.5s26.833 39.833 31.5 62.5s8 53 10 91c3.33301 50 9.66602 90.833 18.999 122.5s30.833 61.167 64.5 88.5s85.5 47 155.5 59c6.66699 -8.66699 10 -21.667 10 -39z" />
    <glyph glyph-name="bar" unicode="|" horiz-adv-x="163" 
d="M138 710c17.333 6 33.667 9 49 9c6 0 14.333 -0.666992 25 -2c-60 -288.667 -121.667 -606.667 -185 -954c-13.333 -6.66699 -29.333 -10 -48 -10c-6 0 -14.333 0.666992 -25 2z" />
    <glyph glyph-name="braceright" unicode="}" horiz-adv-x="376" 
d="M255.5 679c22.333 -27.333 33.499 -59 33.499 -95c0 -18.667 -2.33301 -38.667 -7 -60s-7.33398 -34 -8.00098 -38c-10 -40 -15 -70.667 -15 -92c0 -23.333 5.66699 -44.166 17 -62.499s30.333 -33.833 57 -46.5c2 -6.66699 3 -14 3 -22c0 -10 -1.33301 -18.667 -4 -26
c-33.333 -10.667 -58.666 -27.167 -75.999 -49.5s-29.333 -46.666 -36 -72.999s-12.667 -61.5 -18 -105.5c-6.66699 -56.667 -15.667 -102.834 -27 -138.501s-34.166 -67.334 -68.499 -95.001s-85.166 -45.5 -152.499 -53.5c-4.66699 9.33301 -7 19.333 -7 30
c0 8.66699 2 17.667 6 27c35.333 4.66699 61.5 16.667 78.5 36s27.667 41.833 32 67.5s7.16602 60.5 8.49902 104.5c1.33301 51.333 5 93.166 11 125.499s21 61.833 45 88.5s60.667 45.334 110 56.001c-41.333 10.667 -70.666 25.5 -87.999 44.5s-26 41.833 -26 68.5
c0 16 2.16699 32 6.5 48s11.166 38.667 20.499 68c8.66699 24.667 15.334 46.167 20.001 64.5s7 35.5 7 51.5c0 44 -22 76 -66 96c1.33301 10 4 19.5 8 28.5s9.33301 16.167 16 21.5c57.333 -18.667 97.166 -41.667 119.499 -69z" />
    <glyph glyph-name="asciitilde" unicode="~" 
d="M42 215c45.333 80 94.001 120.002 146.001 120.002c15.333 0 30.666 -2.83301 45.999 -8.5s33.333 -14.167 54 -25.5c20 -10.667 36.667 -18.667 50 -24s27 -8 41 -8c15.333 0 29.833 4.16699 43.5 12.5s28.167 22.5 43.5 42.5c8 -2 15.833 -5.83301 23.5 -11.5
s13.834 -11.834 18.501 -18.501c-42.667 -75.333 -88.334 -113 -137.001 -113c-16 0 -30.833 3 -44.5 9s-31.167 15 -52.5 27c-19.333 11.333 -35.666 19.833 -48.999 25.5s-27.333 8.5 -42 8.5c-36.667 0 -71 -24.333 -103 -73
c-20.667 9.33301 -33.334 21.666 -38.001 36.999z" />
    <glyph glyph-name="uni00A0" unicode="&#xa0;" horiz-adv-x="191" 
 />
    <glyph glyph-name="exclamdown" unicode="&#xa1;" horiz-adv-x="421" 
d="M296 447.5c14.667 -13 21.999 -31.167 21.999 -54.5c0 -28 -7.83301 -50 -23.5 -66s-38.167 -24 -67.5 -24c-21.333 0 -39.333 6.66699 -54 20s-22 31.333 -22 54c0 4.66699 0.666992 11.667 2 21c4 22 13 39 27 51s33 18 57 18c24.667 0 44.334 -6.5 59.001 -19.5z
M111.499 3c20.333 76.667 38.499 149.668 54.499 219.001l18 1c24 0 43.333 -3.66699 58 -11c-15.333 -138 -24.666 -282 -27.999 -432c-22.667 -3.33301 -46.667 -8.33301 -72 -15s-47 -14.334 -65 -23.001c-17.333 5.33301 -26 17.333 -26 36
c0 9.33301 2.66699 22.666 8 39.999c14.667 46.667 32.167 108.334 52.5 185.001z" />
    <glyph glyph-name="cent" unicode="&#xa2;" horiz-adv-x="425" 
d="M357 320c-8.66699 0 -18 1.00195 -28 3.00195c0.666992 4.66699 1 11 1 19c0 27.333 -6.33301 45.333 -19 54c-20 -97.333 -39.667 -202.333 -59 -315h2c38 0 75 14.333 111 43c12 -15.333 18.333 -34.666 19 -57.999c-42.667 -40 -91.667 -64 -147 -72l-21 -129
c-30.667 0 -54 6.33301 -70 19l20 108c-49.333 3.33301 -85.333 20.166 -108 50.499s-34 69.166 -34 116.499c0 22.667 2.66699 48 8 76c12.667 58.667 37 109.167 73 151.5s86 68.166 150 77.499l28 147c28 0 51 -5.66699 69 -17l-27 -128
c40 -3.33301 71.667 -13.333 95 -30c-12 -34.667 -19 -70.667 -21 -108c-14 -5.33301 -28 -8 -42 -8zM177 182.002c0 -28.667 4.33398 -50.665 13.001 -65.998l51 270c-13.333 -10.667 -24.833 -27.334 -34.5 -50.001s-16.834 -47.334 -21.501 -74.001
c-5.33301 -30 -8 -56.667 -8 -80z" />
    <glyph glyph-name="sterling" unicode="&#xa3;" horiz-adv-x="573" 
d="M469 495c-8 0 -18.0039 0.668945 -30.0039 2.00195c5.33301 82 -24.334 123 -89.001 123c-20.667 0 -39 -7 -55 -21s-26.333 -34.333 -31 -61c-2 -12 -3 -22.667 -3 -32c0 -12 1 -23 3 -33s4.33301 -19.167 7 -27.5s4.33398 -13.833 5.00098 -16.5l8 -25
c4.66699 -14.667 7.33398 -30.334 8.00098 -47.001h126c0.666992 -12.667 -0.666016 -25.334 -3.99902 -38.001s-8 -23.667 -14 -33h-117c-6.66699 -26 -17.667 -50.167 -33 -72.5s-39 -48.833 -71 -79.5c24 14 45 23.667 63 29s37 8 57 8c14 0 26.667 -1.83301 38 -5.5
s23.666 -8.83398 36.999 -15.501c7.33301 -3.33301 14.833 -6.5 22.5 -9.5s14.5 -4.5 20.5 -4.5c20.667 0 36 11 46 33c10.667 -2 21.334 -6 32.001 -12s18.334 -12.333 23.001 -19c-10 -43.333 -27.5 -78.666 -52.5 -105.999s-55.5 -41 -91.5 -41c-20 0 -37 2 -51 6
s-31 10.333 -51 19c-17.333 8.66699 -33.833 15.334 -49.5 20.001s-34.834 7 -57.501 7c-24.667 0 -47.667 -3.83301 -69 -11.5s-44.333 -20.834 -69 -39.501c-10 6 -18.333 14.5 -25 25.5s-11 23.167 -13 36.5c40.667 27.333 72.334 55 95.001 83s37.334 61 44.001 99
c2.66699 16.667 3.66699 33 3 49l-98 -3c-1.33301 30 4.66699 55 18 75h68c-5.33301 21.333 -9.33301 39.5 -12 54.5s-4 31.5 -4 49.5c0 16.667 1.33301 33 4 49c6 32.667 20.333 62.167 43 88.5s53.167 47.333 91.5 63s82.5 23.5 132.5 23.5
c34.667 0 66.667 -3.83301 96 -11.5s54 -18.5 74 -32.5c-12.667 -41.333 -20 -87.333 -22 -138c-13.333 -5.33301 -31 -8 -53 -8z" />
    <glyph glyph-name="currency" unicode="&#xa4;" horiz-adv-x="500" 
d="M385 143l64.001 -67.999c-5.33301 -6 -13.666 -11.167 -24.999 -15.5s-22.666 -7.16602 -33.999 -8.49902l-48 55c-31.333 -18.667 -66 -28 -104 -28c-40.667 0 -75.334 10.667 -104.001 32l-59 -56c-10 0.666992 -20.167 3.66699 -30.5 9s-18.833 11.666 -25.5 18.999
l79 68c-16 28 -24 59.667 -24 95c0 9.33301 1.33301 22.666 4 39.999c6 31.333 18.667 58.666 38 81.999l-58 61c6 6 14.833 11 26.5 15s23.167 6.33301 34.5 7l40 -45c33.333 19.333 69.666 29 108.999 29c46.667 0 84.667 -12 114 -36l60 53c10 -2 19.667 -6 29 -12
s16.666 -12.667 21.999 -20l-77 -61c12.667 -21.333 19 -47 19 -77c0 -11.333 -1 -23.666 -3 -36.999c-7.33301 -40 -23 -73.667 -47 -101zM144.001 246.001c0 -32.667 9.33203 -59.3311 27.999 -79.998s43.667 -31 75 -31c33.333 0 61.5 12.667 84.5 38
s34.5 56.666 34.5 93.999c0 32.667 -9.66699 59 -29 79s-45.333 30 -78 30c-28.667 0 -53.167 -9.33301 -73.5 -28s-33.166 -42.334 -38.499 -71.001c-2 -10.667 -3 -21 -3 -31z" />
    <glyph glyph-name="yen" unicode="&#xa5;" horiz-adv-x="595" 
d="M669 679c0 -22 -3.99805 -42.6611 -11.998 -61.9941c-14.667 -4.66699 -27 -12.334 -37 -23.001s-25.333 -33 -46 -67l-85 -136h84c1.33301 -29.333 -4.33398 -53 -17.001 -71h-114l-39 -57l-2 -11h154c1.33301 -26.667 -5.33398 -50.334 -20.001 -71.001h-146l-4 -23
c-3.33301 -18.667 -5 -32.667 -5 -42c0 -17.333 5.5 -29.833 16.5 -37.5s32.167 -14.167 63.5 -19.5c2 -10.667 3 -22.667 3 -36c0 -12 -0.333008 -20.667 -1 -26c-28.667 2 -83.667 3 -165 3c-90.667 0 -151.334 -1 -182.001 -3c0.666992 21.333 5 42.333 13 63
c26.667 3.33301 46.334 8 59.001 14s22.5 15.833 29.5 29.5s12.833 35.167 17.5 64.5l2 12l-145 -3c-1.33301 13.333 -0.5 26.833 2.5 40.5s7.83301 25.167 14.5 34.5h141l2 12l-16 56c-49.333 -0.666992 -92 -2 -128 -4c0 30.667 7.33301 55.667 22 75h83
c-16 48.667 -31.333 92.667 -46 132c-9.33301 25.333 -17.333 44.166 -24 56.499s-13.167 21 -19.5 26s-14.833 8.83301 -25.5 11.5c-2 10 -3 21 -3 33c0 6 0.666992 15.667 2 29c30 -2 75.667 -3 137 -3c65.333 0 117 1 155 3c-0.666992 -22 -4.66699 -43 -12 -63
c-21.333 -2.66699 -36.833 -7.66699 -46.5 -15s-14.5 -17 -14.5 -29c0 -8.66699 2.66699 -20.334 8 -35.001c21.333 -60 40 -127.333 56 -202c32.667 48.667 69.667 113 111 193c12.667 25.333 19 43.666 19 54.999c0 9.33301 -3.33301 16.666 -10 21.999
s-17.667 9.33301 -33 12c-2 10 -3 20.667 -3 32c0 5.33301 0.666992 15.333 2 30c22 -2 57.667 -3 107 -3c40 0 72.333 1 97 3z" />
    <glyph glyph-name="brokenbar" unicode="&#xa6;" horiz-adv-x="164" 
d="M138 710c17.333 6 33.666 9 48.999 9c6 0 14.333 -0.666992 25 -2c-31.333 -145.333 -56.666 -277 -75.999 -395c-14.667 -5.33301 -29 -8 -43 -8c-11.333 0 -21.333 1.33301 -30 4zM34 166c12 4.66699 24.999 7 38.999 7c12 0 23 -1.33301 33 -4
c-21.333 -99.333 -46.333 -228 -75 -386c-1.33301 -5.33301 -2.66602 -12 -3.99902 -20c-13.333 -6.66699 -29.333 -10 -48 -10c-6 0 -14.333 0.666992 -25 2z" />
    <glyph glyph-name="section" unicode="&#xa7;" horiz-adv-x="524" 
d="M274 527c17.333 -16.667 43.667 -36.335 79 -59.002c32.667 -21.333 59 -40.333 79 -57s37.333 -37.167 52 -61.5s22 -51.833 22 -82.5c0 -13.333 -1.33301 -26.333 -4 -39c-7.33301 -39.333 -25.5 -72.666 -54.5 -99.999s-65.5 -48.333 -109.5 -63
c40 -40 60 -85 60 -135c0 -14 -1.33301 -27.667 -4 -41c-8 -41.333 -31.5 -74.5 -70.5 -99.5s-83.833 -37.5 -134.5 -37.5c-32 0 -60.5 3 -85.5 9s-48.167 15.667 -69.5 29c11.333 45.333 16.333 89.333 15 132c22 7.33301 45.667 10.333 71 9
c0 -42 7.16699 -71.667 21.5 -89s36.166 -26 65.499 -26c20 0 36.667 6 50 18s20 28.333 20 49c0 21.333 -8.66699 40.333 -26 57s-43.666 36.334 -78.999 59.001c-32.667 21.333 -59 40.333 -79 57s-37.167 37 -51.5 61s-21.5 51.333 -21.5 82c0 14 1.33301 27.333 4 40
c7.33301 39.333 25.5 72.666 54.5 99.999s65.167 48.333 108.5 63c-40 40 -60 85 -60 135c0 14.667 1.33301 28.334 4 41.001c8 41.333 31.5 74.333 70.5 99s83.833 37 134.5 37c32 0 60.5 -3 85.5 -9s48.167 -15.333 69.5 -28c-11.333 -45.333 -16.333 -89.333 -15 -132
c-22 -7.33301 -45.667 -10.333 -71 -9c0 42 -7.16699 71.667 -21.5 89s-35.833 26 -64.5 26c-20.667 0 -37.667 -6 -51 -18s-20 -28.333 -20 -49c0 -21.333 8.66699 -40.333 26 -57zM342.001 273.499c-16 17.667 -41.3311 39.166 -75.998 64.499l-26 19
c-24.667 -9.33301 -44.334 -22.666 -59.001 -39.999s-22 -38 -22 -62c0 -23.333 8 -43.833 24 -61.5s41.333 -39.167 76 -64.5l26 -19c23.333 9.33301 42.666 22.333 57.999 39s23 37.667 23 63c0 23.333 -8 43.833 -24 61.5z" />
    <glyph glyph-name="dieresis" unicode="&#xa8;" horiz-adv-x="300" 
d="M65.5 530.5c-11.667 11.667 -17.499 27.167 -17.499 46.5c0 7.33301 1 15 3 23c9.33301 41.333 34 62 74 62c21.333 0 38 -5.33301 50 -16s18 -25.667 18 -45c0 -6.66699 -1 -14.667 -3 -24c-4.66699 -20 -13.5 -35.667 -26.5 -47s-29.5 -17 -49.5 -17
c-20.667 0 -36.834 5.83301 -48.501 17.5zM259.501 529.5c-11 11 -16.501 26.167 -16.501 45.5c0 3.33301 0.666992 10.333 2 21c7.33301 44 33.333 66 78 66c20.667 0 36.834 -5 48.501 -15s17.5 -24.667 17.5 -44c0 -10 -0.666992 -17.667 -2 -23
c-9.33301 -44.667 -35 -67 -77 -67c-22.667 0 -39.5 5.5 -50.5 16.5z" />
    <glyph glyph-name="copyright" unicode="&#xa9;" horiz-adv-x="743" 
d="M175.5 -77c-47 24.667 -83.002 59.3359 -108.002 104.003s-37.5 95.667 -37.5 153c0 31.333 3.33301 61.666 10 90.999c20 95.333 62.5 169.666 127.5 222.999s143.833 80 236.5 80c62.667 0 117.334 -12.5 164.001 -37.5s82.334 -59.833 107.001 -104.5
s37 -96.334 37 -155.001c0 -28 -3 -57.667 -9 -89c-19.333 -94.667 -61 -168.667 -125 -222s-142.667 -80 -236 -80c-64 0 -119.5 12.333 -166.5 37zM541.998 9.50195c51.333 43 85.333 103.167 102 180.5c6 28 9 55.333 9 82c0 48 -10 90.333 -30 127
s-49.167 65.334 -87.5 86.001s-84.5 31 -138.5 31c-78 0 -143 -21.5 -195 -64.5s-86.667 -103.5 -104 -181.5c-6 -28 -9 -55 -9 -81c0 -48 10 -90.333 30 -127s49.5 -65.334 88.5 -86.001s85.5 -31 139.5 -31c78.667 0 143.667 21.5 195 64.5zM205.998 58.502
c-24.667 28.333 -37.002 65.1689 -37.002 110.502c0 21.333 2.66699 44.333 8 69c13.333 59.333 40.5 109.166 81.5 149.499s98.833 60.5 173.5 60.5c22.667 0 43.834 -2.5 63.501 -7.5s35.834 -11.833 48.501 -20.5c-11.333 -29.333 -18 -62 -20 -98
c-14 -4.66699 -27 -7 -39 -7c-8.66699 0 -17.667 1 -27 3c1.33301 24 -1.16699 42 -7.5 54s-17.833 18 -34.5 18c-23.333 0 -42.833 -11.333 -58.5 -34s-27.5 -54 -35.5 -94c-5.33301 -26.667 -8 -50.667 -8 -72c0 -61.333 24.333 -92 73 -92c36 0 71 13 105 39
c11.333 -14.667 17.333 -32.334 18 -53.001c-26.667 -24 -55 -41.333 -85 -52s-63.667 -16 -101 -16c-54 0 -93.333 14.167 -118 42.5z" />
    <glyph glyph-name="ordfeminine" unicode="&#xaa;" horiz-adv-x="513" 
d="M489 436.5c3.33301 -11 4.66699 -20.833 4 -29.5c-14.667 -14.667 -30.834 -26.167 -48.501 -34.5s-35.5 -12.5 -53.5 -12.5c-22 0 -38.167 5.83301 -48.5 17.5s-15.5 26.5 -15.5 44.5c0 13.333 2 26 6 38h-2c-19.333 -30.667 -41.333 -55 -66 -73s-50 -27 -76 -27
c-27.333 0 -47.666 10.167 -60.999 30.5s-20 46.833 -20 79.5c0 20 2 40 6 60c10.667 54.667 34.667 99.5 72 134.5s85.333 52.5 144 52.5c20.667 0 43 -3.33301 67 -10c23.333 0.666992 46.333 4 69 10c6 -4.66699 10.5 -9.66699 13.5 -15s4.5 -12 4.5 -20
c0 -9.33301 -1.33301 -20.333 -4 -33l-34 -149c-4 -20 -6 -33.667 -6 -41c0 -4.66699 0.833008 -8 2.5 -10s4.16699 -3 7.5 -3c7.33301 0 16.333 4.66699 27 14c4.66699 -4.66699 8.66699 -12.5 12 -23.5zM283.001 478.5c11.333 12.333 22.832 30.668 34.499 55.001
s21.5 53.166 29.5 86.499l8 33c-11.333 3.33301 -22.333 5 -33 5c-19.333 0 -36.166 -9.5 -50.499 -28.5s-24.833 -46.167 -31.5 -81.5c-4 -20 -6 -37 -6 -51c0 -24.667 6.33301 -37 19 -37c8.66699 0 18.667 6.16699 30 18.5z" />
    <glyph glyph-name="guillemotleft" unicode="&#xab;" horiz-adv-x="469" 
d="M246 408.5c10 -5 17.667 -10.8311 23 -17.498c-52 -56.667 -89 -101 -111 -133c5.33301 -19.333 14 -42.833 26 -70.5s23.333 -52.167 34 -73.5c-12 -20 -27.333 -34.667 -46 -44c-42.667 56.667 -85 107 -127 151c0.666992 12.667 3 25.167 7 37.5
s9.33301 22.166 16 29.499c62 49.333 111 91.666 147 126.999c10.667 0.666992 21 -1.5 31 -6.5zM432 400.502c10 -5 17.667 -11.1689 23 -18.502c-40 -45.333 -73 -86.666 -99 -123.999c12.667 -49.333 28.667 -94.666 48 -135.999c-10.667 -19.333 -26 -34.333 -46 -45
c-45.333 62 -84 110 -116 144c1.33301 12.667 4 25.167 8 37.5s9 22.166 15 29.499c54.667 42.667 100 82.334 136 119.001c10.667 0.666992 21 -1.5 31 -6.5z" />
    <glyph glyph-name="logicalnot" unicode="&#xac;" 
d="M516 359l-46.001 -232c-15.333 -10 -31.666 -15 -48.999 -15c-6.66699 0 -13.667 1 -21 3l37 175c-159.333 0 -283 -1 -371 -3c0 11.333 1 23.833 3 37.5s4.66699 25.167 8 34.5h439z" />
    <glyph glyph-name="uni00AD" unicode="&#xad;" horiz-adv-x="369" 
d="M66 304l269.002 0.000976562c-0.666992 -17.333 -2.33398 -32.333 -5.00098 -45s-7 -25.334 -13 -38.001c-104.667 0 -195.334 -1 -272.001 -3c3.33301 36 10.333 64.667 21 86z" />
    <glyph glyph-name="registered" unicode="&#xae;" horiz-adv-x="536" 
d="M442.5 766c31.667 -18.667 56.666 -44 74.999 -76s27.5 -67.333 27.5 -106s-9.16699 -73.834 -27.5 -105.501s-43.333 -56.667 -75 -75s-66.5 -27.5 -104.5 -27.5c-38.667 0 -74 9.16699 -106 27.5s-57.333 43.333 -76 75s-28 66.834 -28 105.501s9.16699 74 27.5 106
s43.5 57.333 75.5 76s67.333 28 106 28s73.834 -9.33301 105.501 -28zM418.499 446c24.333 14 43.5 33.167 57.5 57.5s21 51.166 21 80.499c0 30 -7 57.333 -21 82s-33.167 44 -57.5 58s-51.5 21 -81.5 21s-57.333 -7 -82 -21s-44 -33.333 -58 -58s-21 -52 -21 -82
c0 -29.333 7 -56.166 21 -80.499s33.333 -43.5 58 -57.5s52 -21 82 -21s57.167 7 81.5 21zM427.999 642c0 -18.667 -4.66699 -35.001 -14 -49.001s-22.666 -24.333 -39.999 -31c16.667 -15.333 30 -39.666 40 -72.999c-15.333 -4.66699 -28.666 -7 -39.999 -7l-14 1
c-4 26.667 -12.333 49 -25 67l-25 1l-10 -67c-12 -1.33301 -20.333 -2 -25 -2s-12.334 0.666992 -23.001 2l31 198c23.333 6.66699 47.666 10 72.999 10c48 0 72 -16.667 72 -50zM375.999 632.999c0 18 -8.66797 27 -26.001 27c-4.66699 0 -12.334 -1.33301 -23.001 -4
l-11 -72c6.66699 -2 13.334 -3 20.001 -3c10 0 18.333 2.83301 25 8.5s11.334 15.834 14.001 30.501c0.666992 3.33301 1 7.66602 1 12.999z" />
    <glyph glyph-name="macron" unicode="&#xaf;" horiz-adv-x="300" 
d="M49 631h356c0 -19.333 -3 -36.333 -9 -51c-141.333 0 -260 -2 -356 -6c0 24 3 43 9 57z" />
    <glyph glyph-name="degree" unicode="&#xb0;" horiz-adv-x="403" 
d="M378 667.5c24 -21 36 -49.501 36 -85.501c0 -8.66699 -1 -18.667 -3 -30c-6.66699 -37.333 -24 -66.666 -52 -87.999s-63.333 -32 -106 -32c-41.333 0 -73.5 11.167 -96.5 33.5s-34.5 52.166 -34.5 89.499c0 10.667 1 21.334 3 32.001c6 36 22.667 63.667 50 83
s62 29 104 29s75 -10.5 99 -31.5zM237 633.999c-10 -10.667 -16.333 -24.998 -19 -42.998c-2.66699 -12.667 -4 -25.334 -4 -38.001c0 -21.333 4 -38.333 12 -51s19.333 -19 34 -19c14 0 26.5 6.33301 37.5 19s18.167 29 21.5 49c2 11.333 3 21.666 3 30.999
c0 21.333 -4.33301 38 -13 50s-20.667 18 -36 18c-14 0 -26 -5.33301 -36 -16z" />
    <glyph glyph-name="plusminus" unicode="&#xb1;" 
d="M478 332c0 -20 -3.66699 -36.333 -11 -49h-50h-98l-24 -136c-8.66699 -4 -19.334 -6 -32.001 -6c-12 0 -25 2 -39 6l25 136l-111 -1c-7.33301 -0.666992 -19 -1 -35 -1c-1.33301 28.667 2 51.667 10 69h148l24 147c12 3.33301 26.333 5 43 5
c8.66699 0 18.334 -0.666992 29.001 -2l-26 -150h146c0.666992 -4 1 -10 1 -18zM463 107c1.33301 -9.33301 2 -16.332 2 -20.999c0 -14.667 -4 -29.667 -12 -45c-54.667 0.666992 -121.334 1 -200.001 1c-95.333 0 -171.666 -0.666992 -228.999 -2
c-1.33301 11.333 -1 23.666 1 36.999s4.66699 23.333 8 30h430z" />
    <glyph glyph-name="uni00B2" unicode="&#xb2;" horiz-adv-x="359" 
d="M375.5 620.5c-15.667 -14.333 -45.834 -35.501 -90.501 -63.501l-77 -50h60c16.667 0 29 0.833008 37 2.5s14 5.16699 18 10.5s7.66699 13.666 11 24.999c26 0 43.333 -2 52 -6c-8.66699 -43.333 -13 -78 -13 -104c-4 -8.66699 -9.66699 -15.167 -17 -19.5
s-15.666 -6.5 -24.999 -6.5l-132 1l-121 -1c-4.66699 8.66699 -7 19 -7 31c0 8.66699 1 17.334 3 26.001c20 16.667 60 47 120 91c33.333 24 56.166 43.333 68.499 58s20.5 30.667 24.5 48c0.666992 3.33301 1 8 1 14c0 24.667 -13 37 -39 37
c-15.333 0 -28.166 -6.33301 -38.499 -19s-20.5 -35.667 -30.5 -69c-24 0 -43.333 3 -58 9c4 14.667 7.83301 31 11.5 49s5.16699 32.667 4.5 44c22 11.333 45.167 19.833 69.5 25.5s52.833 8.5 85.5 8.5c76 0 114 -22.667 114 -68c0 -3.33301 -0.666992 -9 -2 -17
c-4 -23.333 -13.833 -42.166 -29.5 -56.499z" />
    <glyph glyph-name="uni00B3" unicode="&#xb3;" horiz-adv-x="352" 
d="M277 553c61.333 -10 91.999 -40.998 91.999 -92.998c0 -10.667 -1.33301 -21.334 -4 -32.001c-9.33301 -42 -31.833 -75.333 -67.5 -100s-81.5 -37 -137.5 -37s-94.333 14.333 -115 43c0.666992 5.33301 2.83398 10.833 6.50098 16.5s8.5 10.5 14.5 14.5
c13.333 -15.333 35 -23 65 -23c32 0 59 8.66699 81 26s35.333 41 40 71c0.666992 4 1 9.66699 1 17c0 21.333 -7.5 36.5 -22.5 45.5s-36.5 14.833 -64.5 17.5c-1.33301 5.33301 -2 9.33301 -2 12c0 9.33301 2.66699 20.666 8 33.999
c28.667 -0.666992 53.167 8.33301 73.5 27s33.166 43 38.499 73c1.33301 9.33301 2 15.333 2 18c0 12 -3.16699 20.333 -9.5 25s-16.166 7 -29.499 7c-20.667 0 -36 -6.33301 -46 -19s-20 -36 -30 -70c-27.333 0 -47 4.66699 -59 14c10.667 39.333 16 72 16 98
c40 16 83.333 24 130 24c44.667 0 78.667 -7.16699 102 -21.5s35 -35.833 35 -64.5c0 -8.66699 -1 -18 -3 -28c-12.667 -55.333 -51 -87 -115 -95z" />
    <glyph glyph-name="acute" unicode="&#xb4;" horiz-adv-x="300" 
d="M253 722c38 0 67.001 -6 87.001 -18c-61.333 -58 -114 -118 -158 -180c-24.667 2 -47.334 10 -68.001 24c19.333 30 36.833 60.667 52.5 92s27.167 57.333 34.5 78c16 2.66699 33.333 4 52 4z" />
    <glyph glyph-name="uni00B5" unicode="&#xb5;" horiz-adv-x="602" 
d="M567.5 84.5c5 -9.66699 8.16895 -19.5 9.50195 -29.5c-20 -20 -42.333 -35.667 -67 -47s-49.334 -17 -74.001 -17c-54 0 -81 25 -81 75c0 11.333 1.66699 24.666 5 39.999c0.666992 2.66699 1.66699 7 3 13s3 11.667 5 17c-17.333 -42.667 -39.5 -77.5 -66.5 -104.5
s-53.833 -40.5 -80.5 -40.5c-18.667 0 -32.667 6.83301 -42 20.5s-14.666 31.834 -15.999 54.501l-22 -112c-6 -33.333 -9 -63.333 -9 -90c0 -20.667 1.33301 -38 4 -52c-23.333 -4.66699 -44.333 -11.667 -63 -21s-40.334 -22.333 -65.001 -39
c-14.667 9.33301 -23 25.333 -25 48c8 16 14 31.167 18 45.5s10.667 45.166 20 92.499l60 299c9.33301 45.333 14 76 14 92c0 15.333 -4 25.333 -12 30s-23 7.33398 -45 8.00098c-1.33301 24 1.66699 43.667 9 59c29.333 0.666992 61.666 5 96.999 13s65 17.333 89 28
c9.33301 -6 16 -12 20 -18s6 -15.333 6 -28s-2.16699 -30.5 -6.5 -53.5s-12.166 -59.833 -23.499 -110.5c-9.33301 -40 -14 -72.333 -14 -97c0 -16 2.16699 -27.667 6.5 -35s11.166 -11 20.499 -11c16 0 34 9.5 54 28.5s39.167 48.333 57.5 88s32.833 88.167 43.5 145.5
l15 82h148l-46 -251c-10.667 -56 -16 -91 -16 -105c0 -7.33301 1 -12.166 3 -14.499s5.33301 -3.5 10 -3.5c5.33301 0 10.833 1.66699 16.5 5s13.167 9 22.5 17c6.66699 -4.66699 12.5 -11.834 17.5 -21.501z" />
    <glyph glyph-name="paragraph" unicode="&#xb6;" horiz-adv-x="572" 
d="M627 679c-1.33301 -23.333 -5.33594 -44.001 -12.0029 -62.001c-18.667 -2 -32.5 -5.66699 -41.5 -11s-15.833 -13.833 -20.5 -25.5s-9.33398 -30.167 -14.001 -55.5c-27.333 -145.333 -49.166 -265.833 -65.499 -361.5l-67.5 -411.5
c-4.66699 -0.666992 -11.667 -1 -21 -1c-20 0 -36.667 2.66699 -50 8l149 853c-15.333 3.33301 -30.333 5.33301 -45 6c-54.667 -286.667 -105 -575.667 -151 -867c-29.333 -1.33301 -52.666 3.33398 -69.999 14.001l94 532c-17.333 -1.33301 -31.666 -2 -42.999 -2
c-64 0 -112.667 13.667 -146 41s-50 66 -50 116c0 16.667 1.33301 32 4 46c10 58 41.833 102.833 95.5 134.5s128.167 47.5 223.5 47.5c20 0 46.667 -0.666992 80 -2l68 -1c34.667 0 62.334 0.666992 83.001 2zM321.997 353.999l46.001 265.999
c-44 -2 -76.5 -11.667 -97.5 -29s-35.167 -45.666 -42.5 -84.999c-2.66699 -13.333 -4 -27.333 -4 -42c0 -36.667 9.16699 -64.167 27.5 -82.5s41.166 -27.5 68.499 -27.5h2z" />
    <glyph glyph-name="periodcentered" unicode="&#xb7;" horiz-adv-x="259" 
d="M77 214.5c-14.667 13 -21.999 31.167 -21.999 54.5c0 28 7.83301 50 23.5 66s38.167 24 67.5 24c21.333 0 39.333 -6.66699 54 -20s22 -31.333 22 -54c0 -4.66699 -0.666992 -11.667 -2 -21c-4 -22 -13 -39 -27 -51s-33 -18 -57 -18c-24.667 0 -44.334 6.5 -59.001 19.5z
" />
    <glyph glyph-name="cedilla" unicode="&#xb8;" horiz-adv-x="300" 
d="M-18 -224c0 6 1.33203 14.335 3.99902 25.002c24 -0.666992 44 2.66602 60 9.99902s25.333 18 28 32c0.666992 2.66699 1 6 1 10c0 13.333 -5 23.5 -15 30.5s-23 10.5 -39 10.5c-6.66699 10 -10 20.667 -10 32c0 4.66699 0.333008 8.33398 1 11.001l73 79h74l-58 -66
c40.667 -10.667 61 -36 61 -76c0 -8.66699 -1 -17.334 -3 -26.001c-6 -30 -24.167 -52.833 -54.5 -68.5s-70.166 -22.834 -119.499 -21.501c-2 4.66699 -3 10.667 -3 18z" />
    <glyph glyph-name="uni00B9" unicode="&#xb9;" horiz-adv-x="284" 
d="M81 455c14.667 2 25.667 4.83301 33 8.5s13.166 10.167 17.499 19.5s8.5 24.333 12.5 45l22 113c3.33301 18 5 30.667 5 38c0 12 -3 20.333 -9 25s-16.333 7.33398 -31 8.00098c-1.33301 8 -2 14 -2 18c0 5.33301 1.33301 15.333 4 30c14.667 -1.33301 51 -2 109 -2
s94.667 0.666992 110 2c-0.666992 -17.333 -4.66699 -33.333 -12 -48c-14 -0.666992 -24.5 -2.83398 -31.5 -6.50098s-12.667 -10.334 -17 -20.001s-8.5 -24.5 -12.5 -44.5l-22 -112c-4 -18 -6 -32.333 -6 -43c0 -11.333 3 -19.166 9 -23.499s16 -6.83301 30 -7.5
c0.666992 -4.66699 1 -11.334 1 -20.001c0 -12 -0.666992 -21 -2 -27l-110 2c-39.333 0 -75.666 -0.666992 -108.999 -2c0 16.667 3.66699 32.334 11 47.001z" />
    <glyph glyph-name="ordmasculine" unicode="&#xba;" horiz-adv-x="470" 
d="M436.5 680c27 -24.667 40.5 -59.668 40.5 -105.001c0 -15.333 -1.33301 -29.666 -4 -42.999c-9.33301 -56 -32.666 -99.167 -69.999 -129.5s-85.333 -45.5 -144 -45.5c-46 0 -82 12.667 -108 38s-39 60 -39 104c0 13.333 1.66699 29.333 5 48
c10.667 54.667 33.667 96.667 69 126s81.666 44 138.999 44c47.333 0 84.5 -12.333 111.5 -37zM268 628.999c-12.667 -20 -21.999 -47.333 -27.999 -82c-3.33301 -22 -5 -40 -5 -54c0 -22.667 3.16699 -40.834 9.5 -54.501s15.5 -20.5 27.5 -20.5
c17.333 0 32.666 10.333 45.999 31s23 48.334 29 83.001c3.33301 21.333 5 38.333 5 51c0 23.333 -3.5 41.833 -10.5 55.5s-16.5 20.5 -28.5 20.5c-17.333 0 -32.333 -10 -45 -30z" />
    <glyph glyph-name="guillemotright" unicode="&#xbb;" horiz-adv-x="476" 
d="M428 290c4 -10 6.00098 -21.333 6.00098 -34c0 -10.667 -1.66699 -22 -5 -34c-58 -44.667 -118.333 -95.667 -181 -153c-18.667 13.333 -30.334 30.333 -35.001 51c40 35.333 78.667 75 116 119c-20 54.667 -43.667 107 -71 157c18 13.333 37 19.333 57 18
c28 -36.667 65.667 -78 113 -124zM230.001 290c3.33301 -8 5 -19.335 5 -34.002c0 -13.333 -1.66699 -24.666 -5 -33.999c-58.667 -46.667 -113.667 -95 -165 -145c-17.333 12.667 -29 29.334 -35 50.001c40 38 74.333 75.333 103 112c-14 47.333 -33.667 97.333 -59 150
c18 12 37 17.667 57 17c27.333 -37.333 60.333 -76 99 -116z" />
    <glyph glyph-name="onequarter" unicode="&#xbc;" horiz-adv-x="903" 
d="M346.5 721c3 -4 4.49609 -9.66699 4.49609 -17c0 -2.66699 -0.666992 -9.33398 -2 -20.001l-53 -272c-3.33301 -20 -5 -34 -5 -42c0 -14.667 4 -24.167 12 -28.5s25 -7.83301 51 -10.5c1.33301 -16.667 0 -34 -4 -52c-54.667 1.33301 -104 2 -148 2
c-41.333 0 -88.666 -0.666992 -141.999 -2c2.66699 20 7.33398 37.333 14.001 52c25.333 2 43.833 4.66699 55.5 8s20.834 10.333 27.501 21s12.334 28 17.001 52l31 161c2.66699 17.333 4 28 4 32c0 10 -2.5 17.167 -7.5 21.5s-13.5 7.33301 -25.5 9s-30.333 2.5 -55 2.5
c4.66699 24.667 10.334 43.667 17.001 57c39.333 1.33301 74.166 4.83301 104.499 10.5s59.833 13.834 88.5 24.501c7.33301 -2 12.5 -5 15.5 -9zM167.496 3.5c-12.333 6.33301 -20.5 12.833 -24.5 19.5l644 692c10.667 -0.666992 21.667 -4.16699 33 -10.5
s20.333 -13.166 27 -20.499l-643 -692c-12 1.33301 -24.167 5.16602 -36.5 11.499zM776.996 106c-2 -8.66699 -3.00098 -16.333 -3.00098 -23c0 -11.333 3.16699 -18.5 9.5 -21.5s17.833 -5.16699 34.5 -6.5c0.666992 -12 -1 -31 -5 -57c-42.667 1.33301 -83.667 2 -123 2
c-41.333 -0 -80.666 -0.666992 -117.999 -2c4 27.333 9.33301 46.333 16 57c26 1.33301 44.333 5 55 11s18 19.333 22 40l1 7c-57.333 -0.666992 -109.666 -2.33398 -156.999 -5.00098c-8.66699 13.333 -13 29 -13 47c0 8.66699 1 17.334 3 26.001
c108 106 195 195.667 261 269c4.66699 0.666992 12 1 22 1c25.333 0 45.333 -2.66699 60 -8l-47 -244h36c10.667 0 18.5 -1.16699 23.5 -3.5s8.83301 -6.83301 11.5 -13.5c-10.667 -14 -21.334 -36.667 -32.001 -68h-55zM682.995 199.001l26 131l-121 -131h95z" />
    <glyph glyph-name="onehalf" unicode="&#xbd;" horiz-adv-x="993" 
d="M346.5 721c3 -4 4.49609 -9.66699 4.49609 -17c0 -2.66699 -0.666992 -9.33398 -2 -20.001l-53 -272c-3.33301 -20 -5 -34 -5 -42c0 -14.667 4 -24.167 12 -28.5s25 -7.83301 51 -10.5c1.33301 -16.667 0 -34 -4 -52c-54.667 1.33301 -104 2 -148 2
c-41.333 0 -88.666 -0.666992 -141.999 -2c2.66699 20 7.33398 37.333 14.001 52c25.333 2 43.833 4.66699 55.5 8s20.834 10.333 27.501 21s12.334 28 17.001 52l31 161c2.66699 17.333 4 28 4 32c0 10 -2.5 17.167 -7.5 21.5s-13.5 7.33301 -25.5 9s-30.333 2.5 -55 2.5
c4.66699 24.667 10.334 43.667 17.001 57c39.333 1.33301 74.166 4.83301 104.499 10.5s59.833 13.834 88.5 24.501c7.33301 -2 12.5 -5 15.5 -9zM167.496 3.5c-12.333 6.33301 -20.5 12.833 -24.5 19.5l644 692c10.667 -0.666992 21.667 -4.16699 33 -10.5
s20.333 -13.166 27 -20.499l-643 -692c-12 1.33301 -24.167 5.16602 -36.5 11.499zM925.996 269.5c-20 -22.333 -49.9971 -47.165 -89.9971 -74.498c-10 -6.66699 -15.667 -10.334 -17 -11.001c-38 -25.333 -67.667 -47 -89 -65h62c20 0 35 1.33301 45 4s18 7.5 24 14.5
s12 18.5 18 34.5c12 0.666992 24.333 0.333984 37 -0.999023s22.667 -3.33301 30 -6c-14.667 -62.667 -21 -108.334 -19 -137.001c-7.33301 -11.333 -15.333 -19.166 -24 -23.499s-20.667 -6.5 -36 -6.5c-10 0 -19.333 0.333008 -28 1l-101 1l-98 -1l-53 -1
c-6 11.333 -9 25 -9 41c0 10 1 20.333 3 31c46.667 45.333 96 89 148 131c28.667 22.667 49.667 43 63 61s22.333 38.667 27 62c1.33301 5.33301 2 12.666 2 21.999c0 26.667 -12.333 40 -37 40c-16.667 0 -30.834 -7.83301 -42.501 -23.5s-22.834 -43.834 -33.501 -84.501
c-28.667 -0.666992 -55.334 3.33301 -80.001 12c15.333 39.333 25.666 83 30.999 131c48.667 18.667 104.334 28 167.001 28c44.667 0 79.167 -6 103.5 -18s36.5 -32.667 36.5 -62c0 -10 -0.666992 -18 -2 -24c-5.33301 -28 -18 -53.167 -38 -75.5z" />
    <glyph glyph-name="threequarters" unicode="&#xbe;" horiz-adv-x="917" 
d="M400.5 557c-24.333 -19.333 -58.1709 -31.333 -101.504 -36c36.667 -5.33301 64.834 -16.333 84.501 -33s29.5 -38.334 29.5 -65.001c0 -9.33301 -0.666992 -16.666 -2 -21.999c-8 -40.667 -31.667 -71.834 -71 -93.501s-91.666 -32.5 -156.999 -32.5
c-57.333 0 -104.666 13 -141.999 39c10.667 32 16 62 16 90c6.66699 2 15.667 3 27 3c16 0 30.667 -2.33301 44 -7c-1.33301 -26.667 1.5 -45 8.5 -55s21.5 -15 43.5 -15c22.667 0 41.834 6.33301 57.501 19s25.5 29.667 29.5 51c0.666992 2.66699 1 7 1 13
c0 18.667 -8.83301 33.167 -26.5 43.5s-43.5 16.5 -77.5 18.5c-1.33301 6.66699 -2 11.667 -2 15c0 14.667 4.33301 29 13 43c35.333 0.666992 63.333 8.83398 84 24.501s33.667 37.5 39 65.5c1.33301 8 2 13.667 2 17c0 23.333 -13.333 35 -40 35
c-17.333 0 -31.333 -6.5 -42 -19.5s-20.667 -34.5 -30 -64.5c-13.333 2 -26.333 5.5 -39 10.5s-22 11.5 -28 19.5c10 30.667 14 59.667 12 87c43.333 14.667 94.333 22 153 22c48 0 85.167 -8.5 111.5 -25.5s39.5 -40.5 39.5 -70.5c0 -32 -12.167 -57.667 -36.5 -77z
M181.495 3.5c-12.333 6.33301 -20.5 12.833 -24.5 19.5l644 692c10.667 -0.666992 21.667 -4.16699 33 -10.5s20.333 -13.166 27 -20.499l-643 -692c-12 1.33301 -24.167 5.16602 -36.5 11.499zM790.995 106c-2 -8.66699 -3.00098 -16.333 -3.00098 -23
c0 -11.333 3.16699 -18.5 9.5 -21.5s17.833 -5.16699 34.5 -6.5c0.666992 -12 -1 -31 -5 -57c-42.667 1.33301 -83.667 2 -123 2c-41.333 -0 -80.666 -0.666992 -117.999 -2c4 27.333 9.33301 46.333 16 57c26 1.33301 44.333 5 55 11s18 19.333 22 40l1 7
c-57.333 -0.666992 -109.666 -2.33398 -156.999 -5.00098c-8.66699 13.333 -13 29 -13 47c0 8.66699 1 17.334 3 26.001c108 106 195 195.667 261 269c4.66699 0.666992 12 1 22 1c25.333 0 45.333 -2.66699 60 -8l-47 -244h36c10.667 0 18.5 -1.16699 23.5 -3.5
s8.83301 -6.83301 11.5 -13.5c-10.667 -14 -21.334 -36.667 -32.001 -68h-55zM696.994 199.001l26 131l-121 -131h95z" />
    <glyph glyph-name="questiondown" unicode="&#xbf;" horiz-adv-x="534" 
d="M343 447.5c14.667 -13 21.999 -31.167 21.999 -54.5c0 -28 -7.83301 -50 -23.5 -66s-38.167 -24 -67.5 -24c-21.333 0 -39.333 6.66699 -54 20s-22 31.333 -22 54c0 4.66699 0.666992 11.667 2 21c4 22 13 39 27 51s33 18 57 18c24.667 0 44.334 -6.5 59.001 -19.5z
M259.499 -247c-29 -8 -58.165 -11.9971 -87.498 -11.9971c-54.667 0 -97.834 10.333 -129.501 31s-47.5 49.667 -47.5 87c0 8.66699 1 18 3 28c6 28.667 17.5 52.834 34.5 72.501s40.833 41.167 71.5 64.5c32 25.333 56.833 48.333 74.5 69s29.167 46.667 34.5 78
c2 10 3 21.667 3 35c0 7.33301 -0.666992 16.333 -2 27c18 10.667 39.667 15.334 65 14.001c9.33301 -6 16.833 -17.333 22.5 -34s8.5 -35.334 8.5 -56.001c0 -11.333 -1 -23 -3 -35c-6 -30.667 -16.167 -55.834 -30.5 -75.501s-33.833 -40.834 -58.5 -63.501
c-24 -22.667 -41.833 -42.834 -53.5 -60.501s-17.5 -40.167 -17.5 -67.5c0 -16.667 4 -29.667 12 -39s19.667 -14 35 -14c18 0 34.167 9.66699 48.5 29s29.166 53.666 44.499 102.999c16 0 29.667 -1.33301 41 -4s22 -7 32 -13c-8 -26 -13.833 -48.5 -17.5 -67.5
s-6.16699 -40.5 -7.5 -64.5c-21.333 -13.333 -46.5 -24 -75.5 -32z" />
    <glyph glyph-name="Agrave" unicode="&#xc0;" horiz-adv-x="700" 
d="M646 24c0 -6 -0.663086 -15.0039 -1.99609 -27.0039c-24.667 2 -70.334 3 -137.001 3c-73.333 0 -123 -1 -149 -3c0 24.667 3.66699 45.334 11 62.001c21.333 3.33301 36.333 8.16602 45 14.499s13 16.5 13 30.5c0 7.33301 -1.66699 18.666 -5 33.999l-12 52
c-88.667 0 -170.667 -2.33301 -246 -7c-1.33301 -3.33301 -8 -15 -20 -35c-13.333 -22.667 -20 -40.334 -20 -53.001c0 -18.667 14 -30.667 42 -36c2 -10 3 -20.667 3 -32c0 -10 -1 -20 -3 -30c-26 2 -62.333 3 -109 3c-34.667 0 -64.334 -1 -89.001 -3
c1.33301 24.667 5.33301 45.334 12 62.001c17.333 4.66699 32.666 13.834 45.999 27.501s31.666 39.834 54.999 78.501l299 511c9.33301 2.66699 19.166 4.33398 29.499 5.00098s20.833 1 31.5 1c24 -79.333 49.667 -169.666 77 -270.999s48.333 -182.666 63 -243.999
c6.66699 -30 12.834 -52.333 18.501 -67s11.667 -24.667 18 -30s14.5 -9 24.5 -11c2.66699 -13.333 4 -25 4 -35zM396.004 245.996l-7.99902 29.999l-32 118c-8.66699 28.667 -15.334 64.334 -20.001 107.001c-10 -22 -28 -58.333 -54 -109l-81 -146h195zM444.005 734.995
c-14 0 -26.332 1.99902 -36.999 5.99902c-10.667 14.667 -23.834 30.334 -39.501 47.001s-32.167 33 -49.5 49l-25 24c28.667 8 57.334 12 86.001 12c17.333 0 32.666 -1.33301 45.999 -4c12 -47.333 28.667 -90.333 50 -129c-10 -3.33301 -20.333 -5 -31 -5z" />
    <glyph glyph-name="Aacute" unicode="&#xc1;" horiz-adv-x="700" 
d="M646 24c0 -6 -0.663086 -15.0039 -1.99609 -27.0039c-24.667 2 -70.334 3 -137.001 3c-73.333 0 -123 -1 -149 -3c0 24.667 3.66699 45.334 11 62.001c21.333 3.33301 36.333 8.16602 45 14.499s13 16.5 13 30.5c0 7.33301 -1.66699 18.666 -5 33.999l-12 52
c-88.667 0 -170.667 -2.33301 -246 -7c-1.33301 -3.33301 -8 -15 -20 -35c-13.333 -22.667 -20 -40.334 -20 -53.001c0 -18.667 14 -30.667 42 -36c2 -10 3 -20.667 3 -32c0 -10 -1 -20 -3 -30c-26 2 -62.333 3 -109 3c-34.667 0 -64.334 -1 -89.001 -3
c1.33301 24.667 5.33301 45.334 12 62.001c17.333 4.66699 32.666 13.834 45.999 27.501s31.666 39.834 54.999 78.501l299 511c9.33301 2.66699 19.166 4.33398 29.499 5.00098s20.833 1 31.5 1c24 -79.333 49.667 -169.666 77 -270.999s48.333 -182.666 63 -243.999
c6.66699 -30 12.834 -52.333 18.501 -67s11.667 -24.667 18 -30s14.5 -9 24.5 -11c2.66699 -13.333 4 -25 4 -35zM396.004 245.996l-7.99902 29.999l-32 118c-8.66699 28.667 -15.334 64.334 -20.001 107.001c-10 -22 -28 -58.333 -54 -109l-81 -146h195zM350.005 756.995
c16 18.667 31.333 39.667 46 63s25.667 43.333 33 60c10 1.33301 25 2 45 2c41.333 0 73 -5 95 -15l-149 -136c-24.667 2 -48 10.667 -70 26z" />
    <glyph glyph-name="Acircumflex" unicode="&#xc2;" horiz-adv-x="700" 
d="M646 24c0 -6 -0.663086 -15.0039 -1.99609 -27.0039c-24.667 2 -70.334 3 -137.001 3c-73.333 0 -123 -1 -149 -3c0 24.667 3.66699 45.334 11 62.001c21.333 3.33301 36.333 8.16602 45 14.499s13 16.5 13 30.5c0 7.33301 -1.66699 18.666 -5 33.999l-12 52
c-88.667 0 -170.667 -2.33301 -246 -7c-1.33301 -3.33301 -8 -15 -20 -35c-13.333 -22.667 -20 -40.334 -20 -53.001c0 -18.667 14 -30.667 42 -36c2 -10 3 -20.667 3 -32c0 -10 -1 -20 -3 -30c-26 2 -62.333 3 -109 3c-34.667 0 -64.334 -1 -89.001 -3
c1.33301 24.667 5.33301 45.334 12 62.001c17.333 4.66699 32.666 13.834 45.999 27.501s31.666 39.834 54.999 78.501l299 511c9.33301 2.66699 19.166 4.33398 29.499 5.00098s20.833 1 31.5 1c24 -79.333 49.667 -169.666 77 -270.999s48.333 -182.666 63 -243.999
c6.66699 -30 12.834 -52.333 18.501 -67s11.667 -24.667 18 -30s14.5 -9 24.5 -11c2.66699 -13.333 4 -25 4 -35zM396.004 245.996l-7.99902 29.999l-32 118c-8.66699 28.667 -15.334 64.334 -20.001 107.001c-10 -22 -28 -58.333 -54 -109l-81 -146h195zM268.505 747.495
c-7 11 -11.166 21.499 -12.499 31.499c42.667 19.333 99 55 169 107c9.33301 1.33301 16.666 2 21.999 2c16.667 0 31 -2.33301 43 -7c24.667 -27.333 66.667 -69 126 -125c-6 -6.66699 -14.333 -12.167 -25 -16.5s-22.667 -7.16602 -36 -8.49902
c-45.333 28.667 -86 48.667 -122 60c-18 -6.66699 -37.833 -15.5 -59.5 -26.5l-40.5 -20.5c-8 -4.66699 -15.167 -8.5 -21.5 -11.5s-11.833 -5.83301 -16.5 -8.5c-10.667 4.66699 -19.5 12.5 -26.5 23.5z" />
    <glyph glyph-name="Atilde" unicode="&#xc3;" horiz-adv-x="700" 
d="M646 24c0 -6 -0.663086 -15.0039 -1.99609 -27.0039c-24.667 2 -70.334 3 -137.001 3c-73.333 0 -123 -1 -149 -3c0 24.667 3.66699 45.334 11 62.001c21.333 3.33301 36.333 8.16602 45 14.499s13 16.5 13 30.5c0 7.33301 -1.66699 18.666 -5 33.999l-12 52
c-88.667 0 -170.667 -2.33301 -246 -7c-1.33301 -3.33301 -8 -15 -20 -35c-13.333 -22.667 -20 -40.334 -20 -53.001c0 -18.667 14 -30.667 42 -36c2 -10 3 -20.667 3 -32c0 -10 -1 -20 -3 -30c-26 2 -62.333 3 -109 3c-34.667 0 -64.334 -1 -89.001 -3
c1.33301 24.667 5.33301 45.334 12 62.001c17.333 4.66699 32.666 13.834 45.999 27.501s31.666 39.834 54.999 78.501l299 511c9.33301 2.66699 19.166 4.33398 29.499 5.00098s20.833 1 31.5 1c24 -79.333 49.667 -169.666 77 -270.999s48.333 -182.666 63 -243.999
c6.66699 -30 12.834 -52.333 18.501 -67s11.667 -24.667 18 -30s14.5 -9 24.5 -11c2.66699 -13.333 4 -25 4 -35zM396.004 245.996l-7.99902 29.999l-32 118c-8.66699 28.667 -15.334 64.334 -20.001 107.001c-10 -22 -28 -58.333 -54 -109l-81 -146h195zM439.505 746.995
c-11 4 -23.165 10.001 -36.498 18.001c-10.667 6.66699 -20 11.5 -28 14.5s-17 4.5 -27 4.5c-14 0 -27.667 -3.66699 -41 -11s-27.666 -17.333 -42.999 -30c-12 17.333 -18 35 -18 53c0 6 0.333008 10.667 1 14c21.333 21.333 44.166 36.666 68.499 45.999s47.5 14 69.5 14
c15.333 0 28.666 -2 39.999 -6s24 -9.66699 38 -17c20.667 -12 38.334 -18 53.001 -18c23.333 0 45.666 12.667 66.999 38c21.333 -10 35.666 -23 42.999 -39c-42 -58 -91 -87 -147 -87c-15.333 0 -28.5 2 -39.5 6z" />
    <glyph glyph-name="Adieresis" unicode="&#xc4;" horiz-adv-x="700" 
d="M646 24c0 -6 -0.663086 -15.0039 -1.99609 -27.0039c-24.667 2 -70.334 3 -137.001 3c-73.333 0 -123 -1 -149 -3c0 24.667 3.66699 45.334 11 62.001c21.333 3.33301 36.333 8.16602 45 14.499s13 16.5 13 30.5c0 7.33301 -1.66699 18.666 -5 33.999l-12 52
c-88.667 0 -170.667 -2.33301 -246 -7c-1.33301 -3.33301 -8 -15 -20 -35c-13.333 -22.667 -20 -40.334 -20 -53.001c0 -18.667 14 -30.667 42 -36c2 -10 3 -20.667 3 -32c0 -10 -1 -20 -3 -30c-26 2 -62.333 3 -109 3c-34.667 0 -64.334 -1 -89.001 -3
c1.33301 24.667 5.33301 45.334 12 62.001c17.333 4.66699 32.666 13.834 45.999 27.501s31.666 39.834 54.999 78.501l299 511c9.33301 2.66699 19.166 4.33398 29.499 5.00098s20.833 1 31.5 1c24 -79.333 49.667 -169.666 77 -270.999s48.333 -182.666 63 -243.999
c6.66699 -30 12.834 -52.333 18.501 -67s11.667 -24.667 18 -30s14.5 -9 24.5 -11c2.66699 -13.333 4 -25 4 -35zM396.004 245.996l-7.99902 29.999l-32 118c-8.66699 28.667 -15.334 64.334 -20.001 107.001c-10 -22 -28 -58.333 -54 -109l-81 -146h195zM270.505 744.995
c-13 13.333 -19.5 30.334 -19.5 51.001c0 23.333 6.16699 41.166 18.5 53.499s30.5 18.5 54.5 18.5c21.333 0 38.5 -5.83301 51.5 -17.5s19.5 -27.834 19.5 -48.501c0 -7.33301 -0.333008 -13 -1 -17c-3.33301 -19.333 -11 -34.166 -23 -44.499s-28 -15.5 -48 -15.5
c-22 0 -39.5 6.66699 -52.5 20zM487.505 744.496c-12.333 13 -18.501 29.833 -18.501 50.5c0 23.333 6.5 41.333 19.5 54s31.833 19 56.5 19c22 0 39.167 -6 51.5 -18s18.5 -28.667 18.5 -50c0 -24 -6.33301 -42.5 -19 -55.5s-31 -19.5 -55 -19.5
c-23.333 0 -41.166 6.5 -53.499 19.5z" />
    <glyph glyph-name="Aring" unicode="&#xc5;" horiz-adv-x="700" 
d="M646 24c0 -6 -0.663086 -15.0039 -1.99609 -27.0039c-24.667 2 -70.334 3 -137.001 3c-73.333 0 -123 -1 -149 -3c0 24.667 3.66699 45.334 11 62.001c21.333 3.33301 36.333 8.16602 45 14.499s13 16.5 13 30.5c0 7.33301 -1.66699 18.666 -5 33.999l-12 52
c-88.667 0 -170.667 -2.33301 -246 -7c-1.33301 -3.33301 -8 -15 -20 -35c-13.333 -22.667 -20 -40.334 -20 -53.001c0 -18.667 14 -30.667 42 -36c2 -10 3 -20.667 3 -32c0 -10 -1 -20 -3 -30c-26 2 -62.333 3 -109 3c-34.667 0 -64.334 -1 -89.001 -3
c1.33301 24.667 5.33301 45.334 12 62.001c17.333 4.66699 32.666 13.834 45.999 27.501s31.666 39.834 54.999 78.501l299 511c9.33301 2.66699 19.166 4.33398 29.499 5.00098s20.833 1 31.5 1c24 -79.333 49.667 -169.666 77 -270.999s48.333 -182.666 63 -243.999
c6.66699 -30 12.834 -52.333 18.501 -67s11.667 -24.667 18 -30s14.5 -9 24.5 -11c2.66699 -13.333 4 -25 4 -35zM396.004 245.996l-7.99902 29.999l-32 118c-8.66699 28.667 -15.334 64.334 -20.001 107.001c-10 -22 -28 -58.333 -54 -109l-81 -146h195zM343.005 737.995
c-20 14 -30 32.667 -30 56c0 30 11.667 52.833 35 68.5s54.666 23.5 93.999 23.5c38.667 0 67.334 -7 86.001 -21s28 -32 28 -54c0 -30 -11.5 -53.167 -34.5 -69.5s-54.167 -24.5 -93.5 -24.5c-36.667 0 -65 7 -85 21zM458.005 773.495
c7.33301 6.33301 12.335 14.834 15.002 25.501c0.666992 2 1 5 1 9c0 9.33301 -3 17.5 -9 24.5s-14.667 10.5 -26 10.5c-10.667 0 -19.834 -3.33301 -27.501 -10s-12.834 -16.667 -15.501 -30c-2 -10.667 0 -19.834 6 -27.501s15.667 -11.5 29 -11.5
c10.667 0 19.667 3.16699 27 9.5z" />
    <glyph glyph-name="AE" unicode="&#xc6;" horiz-adv-x="890" 
d="M623 614l-44.999 -266.998h23c35.333 0 60.166 5.5 74.499 16.5s23.833 31.5 28.5 61.5c13.333 2.66699 29 4 47 4c10.667 0 19 -0.333008 25 -1c-8 -32.667 -15.667 -73 -23 -121c-4.66699 -34 -8.33398 -71.333 -11.001 -112c-26.667 1.33301 -49.334 6 -68.001 14
c1.33301 28 -3.5 48.667 -14.5 62s-32.833 20 -65.5 20h-26l-21 -126c-4 -22 -6 -40 -6 -54c0 -20 5 -33.167 15 -39.5s28.667 -9.5 56 -9.5h9c30.667 0 56 4.66699 76 14s36.667 23.5 50 42.5s26.666 45.5 39.999 79.5c15.333 -2.66699 28.833 -6.33398 40.5 -11.001
s22.834 -11.334 33.501 -20.001c-24 -56 -40 -112.667 -48 -170c-40 2 -117.667 3 -233 3c-138.667 0 -231.667 -1 -279 -3c1.33301 24 6 45 14 63c20.667 2.66699 35.5 7 44.5 13s15.667 15.667 20 29s9.5 37 15.5 71l21 118c-59.333 -0.666992 -110 -2.66699 -152 -6
l-101 -140c-19.333 -26 -29 -45.667 -29 -59c0 -7.33301 2.5 -13 7.5 -17s13.167 -7.33301 24.5 -10c2 -10 3 -20.667 3 -32c0 -10 -1 -20 -3 -30c-26 2 -62.333 3 -109 3c-34.667 0 -64.334 -1 -89.001 -3c1.33301 24.667 5.33301 45.334 12 62.001
c18.667 4.66699 35.667 13.167 51 25.5s36 35.166 62 68.499l134.5 181l138.5 191c13.333 18.667 20 35.334 20 50.001c0 11.333 -4.66699 20.666 -14 27.999s-23.333 12 -42 14c-2.66699 8.66699 -4 19.334 -4 32.001c0 11.333 1 21.333 3 30c60 -2 123.333 -3 190 -3h2
h106c104.667 0 196 1 274 3c-6.66699 -44.667 -10 -89 -10 -133c0 -18.667 0.333008 -32.334 1 -41.001c-25.333 -6.66699 -50.666 -9.66699 -75.999 -9c-1.33301 28.667 -5.16602 51.167 -11.499 67.5s-18.666 28.833 -36.999 37.5s-45.833 13 -82.5 13h-62z
M426.001 347.002l23 132c8.66699 49.333 17.667 88.333 27 117c-44 -70.667 -100 -153.667 -168 -249h118z" />
    <glyph glyph-name="Ccedilla" unicode="&#xc7;" horiz-adv-x="623" 
d="M562 672c34.667 -8.66699 68.333 -22.999 101 -42.999c-16 -42.667 -27 -93.667 -33 -153c-14.667 -5.33301 -30.334 -8 -47.001 -8c-10 0 -20 1 -30 3c2 16 3 30.667 3 44c0 41.333 -8.66699 69.833 -26 85.5s-43.333 23.5 -78 23.5
c-62.667 0 -114.834 -26.5 -156.501 -79.5s-68.5 -120.833 -80.5 -203.5c-3.33301 -25.333 -5 -47.666 -5 -66.999c0 -62 14.667 -111.5 44 -148.5s73.333 -55.5 132 -55.5c55.333 0 112.333 15.667 171 47c12 -12.667 19 -31 21 -55
c-64 -44.667 -136.333 -68.334 -217 -71.001l-36 -41c40.667 -10.667 61 -36 61 -76c0 -8.66699 -1 -17.334 -3 -26.001c-6 -30 -24.167 -52.833 -54.5 -68.5s-70.166 -22.834 -119.499 -21.501c-2 4.66699 -3 10.667 -3 18c0 6 1.33301 14.333 4 25
c24 -0.666992 44 2.66602 60 9.99902s25.333 18 28 32c0.666992 2.66699 1 6 1 10c0 13.333 -5 23.5 -15 30.5s-23 10.5 -39 10.5c-6.66699 10 -10 20.667 -10 32c0 4.66699 0.333008 8.33398 1 11.001l53 57c-76 10.667 -134.833 41.334 -176.5 92.001s-62.5 115 -62.5 193
c0 26 1.66699 48.667 5 68c11.333 73.333 36.833 135.5 76.5 186.5s87.334 89 143.001 114s113.167 37.5 172.5 37.5c42 0 80.333 -4.33301 115 -13z" />
    <glyph glyph-name="Egrave" unicode="&#xc8;" horiz-adv-x="614" 
d="M340 614l-40.999 -239.998h28c36 0 61 4.83301 75 14.5s23.333 29.5 28 59.5c13.333 2.66699 29 4 47 4c10.667 0 19 -0.333008 25 -1c-10.667 -46.667 -18.334 -87 -23.001 -121c-6 -48 -9.33301 -85.333 -10 -112c-27.333 1.33301 -50.333 6 -69 14
c1.33301 27.333 -3.5 47.5 -14.5 60.5s-32.833 19.5 -65.5 19.5h-31l-25 -147c-4 -22 -6 -39.667 -6 -53c0 -20.667 5.16699 -34.167 15.5 -40.5s28.833 -9.5 55.5 -9.5h16c44.667 0 78.667 10.167 102 30.5s44.333 55.5 63 105.5c16 -2.66699 29.833 -6.33398 41.5 -11.001
s22.5 -11.334 32.5 -20.001c-22.667 -57.333 -38.667 -114 -48 -170c-39.333 2 -119 3 -239 3c-138.667 0 -231.667 -1 -279 -3c0.666992 21.333 5.33398 42.333 14.001 63c19.333 2 33.666 6 42.999 12s16.5 16.167 21.5 30.5s10.167 37.833 15.5 70.5l60 345
c3.33301 20 5 35 5 45c0 18.667 -4.33301 31.5 -13 38.5s-24.334 12.167 -47.001 15.5c-2 10 -3 20.333 -3 31c0 10 1 20.333 3 31c45.333 -2 121.666 -3 228.999 -3c108 0 200.667 1 278 3c-6 -48 -9 -92 -9 -132c0 -18.667 0.333008 -32.667 1 -42
c-25.333 -6.66699 -51 -9.66699 -77 -9c-1.33301 28.667 -5.16602 51.167 -11.499 67.5s-18.666 28.833 -36.999 37.5s-45.5 13 -81.5 13h-69zM409.001 735.002c-14 0 -26.332 1.99902 -36.999 5.99902c-10.667 14.667 -23.834 30.334 -39.501 47.001s-32.167 33 -49.5 49
l-25 24c28.667 8 57.334 12 86.001 12c17.333 0 32.666 -1.33301 45.999 -4c12 -47.333 28.667 -90.333 50 -129c-10 -3.33301 -20.333 -5 -31 -5z" />
    <glyph glyph-name="Eacute" unicode="&#xc9;" horiz-adv-x="614" 
d="M340 614l-40.999 -239.998h28c36 0 61 4.83301 75 14.5s23.333 29.5 28 59.5c13.333 2.66699 29 4 47 4c10.667 0 19 -0.333008 25 -1c-10.667 -46.667 -18.334 -87 -23.001 -121c-6 -48 -9.33301 -85.333 -10 -112c-27.333 1.33301 -50.333 6 -69 14
c1.33301 27.333 -3.5 47.5 -14.5 60.5s-32.833 19.5 -65.5 19.5h-31l-25 -147c-4 -22 -6 -39.667 -6 -53c0 -20.667 5.16699 -34.167 15.5 -40.5s28.833 -9.5 55.5 -9.5h16c44.667 0 78.667 10.167 102 30.5s44.333 55.5 63 105.5c16 -2.66699 29.833 -6.33398 41.5 -11.001
s22.5 -11.334 32.5 -20.001c-22.667 -57.333 -38.667 -114 -48 -170c-39.333 2 -119 3 -239 3c-138.667 0 -231.667 -1 -279 -3c0.666992 21.333 5.33398 42.333 14.001 63c19.333 2 33.666 6 42.999 12s16.5 16.167 21.5 30.5s10.167 37.833 15.5 70.5l60 345
c3.33301 20 5 35 5 45c0 18.667 -4.33301 31.5 -13 38.5s-24.334 12.167 -47.001 15.5c-2 10 -3 20.333 -3 31c0 10 1 20.333 3 31c45.333 -2 121.666 -3 228.999 -3c108 0 200.667 1 278 3c-6 -48 -9 -92 -9 -132c0 -18.667 0.333008 -32.667 1 -42
c-25.333 -6.66699 -51 -9.66699 -77 -9c-1.33301 28.667 -5.16602 51.167 -11.499 67.5s-18.666 28.833 -36.999 37.5s-45.5 13 -81.5 13h-69zM315.001 757.002c16 18.667 31.333 39.667 46 63s25.667 43.333 33 60c10 1.33301 25 2 45 2c41.333 0 73 -5 95 -15l-149 -136
c-24.667 2 -48 10.667 -70 26z" />
    <glyph glyph-name="Ecircumflex" unicode="&#xca;" horiz-adv-x="614" 
d="M340 614l-40.999 -239.998h28c36 0 61 4.83301 75 14.5s23.333 29.5 28 59.5c13.333 2.66699 29 4 47 4c10.667 0 19 -0.333008 25 -1c-10.667 -46.667 -18.334 -87 -23.001 -121c-6 -48 -9.33301 -85.333 -10 -112c-27.333 1.33301 -50.333 6 -69 14
c1.33301 27.333 -3.5 47.5 -14.5 60.5s-32.833 19.5 -65.5 19.5h-31l-25 -147c-4 -22 -6 -39.667 -6 -53c0 -20.667 5.16699 -34.167 15.5 -40.5s28.833 -9.5 55.5 -9.5h16c44.667 0 78.667 10.167 102 30.5s44.333 55.5 63 105.5c16 -2.66699 29.833 -6.33398 41.5 -11.001
s22.5 -11.334 32.5 -20.001c-22.667 -57.333 -38.667 -114 -48 -170c-39.333 2 -119 3 -239 3c-138.667 0 -231.667 -1 -279 -3c0.666992 21.333 5.33398 42.333 14.001 63c19.333 2 33.666 6 42.999 12s16.5 16.167 21.5 30.5s10.167 37.833 15.5 70.5l60 345
c3.33301 20 5 35 5 45c0 18.667 -4.33301 31.5 -13 38.5s-24.334 12.167 -47.001 15.5c-2 10 -3 20.333 -3 31c0 10 1 20.333 3 31c45.333 -2 121.666 -3 228.999 -3c108 0 200.667 1 278 3c-6 -48 -9 -92 -9 -132c0 -18.667 0.333008 -32.667 1 -42
c-25.333 -6.66699 -51 -9.66699 -77 -9c-1.33301 28.667 -5.16602 51.167 -11.499 67.5s-18.666 28.833 -36.999 37.5s-45.5 13 -81.5 13h-69zM233.501 747.502c-7 11 -11.166 21.499 -12.499 31.499c42.667 19.333 99 55 169 107c9.33301 1.33301 16.666 2 21.999 2
c16.667 0 31 -2.33301 43 -7c24.667 -27.333 66.667 -69 126 -125c-6 -6.66699 -14.333 -12.167 -25 -16.5s-22.667 -7.16602 -36 -8.49902c-45.333 28.667 -86 48.667 -122 60c-18 -6.66699 -37.833 -15.5 -59.5 -26.5l-40.5 -20.5c-8 -4.66699 -15.167 -8.5 -21.5 -11.5
s-11.833 -5.83301 -16.5 -8.5c-10.667 4.66699 -19.5 12.5 -26.5 23.5z" />
    <glyph glyph-name="Edieresis" unicode="&#xcb;" horiz-adv-x="614" 
d="M340 614l-40.999 -239.998h28c36 0 61 4.83301 75 14.5s23.333 29.5 28 59.5c13.333 2.66699 29 4 47 4c10.667 0 19 -0.333008 25 -1c-10.667 -46.667 -18.334 -87 -23.001 -121c-6 -48 -9.33301 -85.333 -10 -112c-27.333 1.33301 -50.333 6 -69 14
c1.33301 27.333 -3.5 47.5 -14.5 60.5s-32.833 19.5 -65.5 19.5h-31l-25 -147c-4 -22 -6 -39.667 -6 -53c0 -20.667 5.16699 -34.167 15.5 -40.5s28.833 -9.5 55.5 -9.5h16c44.667 0 78.667 10.167 102 30.5s44.333 55.5 63 105.5c16 -2.66699 29.833 -6.33398 41.5 -11.001
s22.5 -11.334 32.5 -20.001c-22.667 -57.333 -38.667 -114 -48 -170c-39.333 2 -119 3 -239 3c-138.667 0 -231.667 -1 -279 -3c0.666992 21.333 5.33398 42.333 14.001 63c19.333 2 33.666 6 42.999 12s16.5 16.167 21.5 30.5s10.167 37.833 15.5 70.5l60 345
c3.33301 20 5 35 5 45c0 18.667 -4.33301 31.5 -13 38.5s-24.334 12.167 -47.001 15.5c-2 10 -3 20.333 -3 31c0 10 1 20.333 3 31c45.333 -2 121.666 -3 228.999 -3c108 0 200.667 1 278 3c-6 -48 -9 -92 -9 -132c0 -18.667 0.333008 -32.667 1 -42
c-25.333 -6.66699 -51 -9.66699 -77 -9c-1.33301 28.667 -5.16602 51.167 -11.499 67.5s-18.666 28.833 -36.999 37.5s-45.5 13 -81.5 13h-69zM235.501 745.002c-13 13.333 -19.5 30.334 -19.5 51.001c0 23.333 6.16699 41.166 18.5 53.499s30.5 18.5 54.5 18.5
c21.333 0 38.5 -5.83301 51.5 -17.5s19.5 -27.834 19.5 -48.501c0 -7.33301 -0.333008 -13 -1 -17c-3.33301 -19.333 -11 -34.166 -23 -44.499s-28 -15.5 -48 -15.5c-22 0 -39.5 6.66699 -52.5 20zM452.501 744.503c-12.333 13 -18.501 29.833 -18.501 50.5
c0 23.333 6.5 41.333 19.5 54s31.833 19 56.5 19c22 0 39.167 -6 51.5 -18s18.5 -28.667 18.5 -50c0 -24 -6.33301 -42.5 -19 -55.5s-31 -19.5 -55 -19.5c-23.333 0 -41.166 6.5 -53.499 19.5z" />
    <glyph glyph-name="Igrave" unicode="&#xcc;" horiz-adv-x="389" 
d="M177 565c0 17.333 -4.33496 29.501 -13.002 36.501s-24 12.167 -46 15.5c-2 10 -3 21.667 -3 35c0 6 0.666992 15 2 27c29.333 -2 78.333 -3 147 -3c66 0 115.667 1 149 3c0 -22.667 -3.66699 -43.334 -11 -62.001c-18.667 -2.66699 -32.667 -6.83398 -42 -12.501
s-16.5 -15.167 -21.5 -28.5s-10.167 -35 -15.5 -65l-61 -355c-4 -20.667 -6 -37 -6 -49c0 -16 4 -27 12 -33s22.667 -11 44 -15c2 -12 3 -25 3 -39c0 -10 -0.333008 -17.667 -1 -23c-33.333 2 -81.666 3 -144.999 3c-59.333 0 -109.666 -1 -150.999 -3
c2 24.667 7 45.334 15 62.001c18 2.66699 31.333 6.5 40 11.5s15.667 13.667 21 26s10.333 31.833 15 58.5l63 367c3.33301 18.667 5 33 5 43zM297.998 735.001c-14 0 -26.332 1.99902 -36.999 5.99902c-10.667 14.667 -23.834 30.334 -39.501 47.001s-32.167 33 -49.5 49
l-25 24c28.667 8 57.334 12 86.001 12c17.333 0 32.666 -1.33301 45.999 -4c12 -47.333 28.667 -90.333 50 -129c-10 -3.33301 -20.333 -5 -31 -5z" />
    <glyph glyph-name="Iacute" unicode="&#xcd;" horiz-adv-x="389" 
d="M177 565c0 17.333 -4.33496 29.501 -13.002 36.501s-24 12.167 -46 15.5c-2 10 -3 21.667 -3 35c0 6 0.666992 15 2 27c29.333 -2 78.333 -3 147 -3c66 0 115.667 1 149 3c0 -22.667 -3.66699 -43.334 -11 -62.001c-18.667 -2.66699 -32.667 -6.83398 -42 -12.501
s-16.5 -15.167 -21.5 -28.5s-10.167 -35 -15.5 -65l-61 -355c-4 -20.667 -6 -37 -6 -49c0 -16 4 -27 12 -33s22.667 -11 44 -15c2 -12 3 -25 3 -39c0 -10 -0.333008 -17.667 -1 -23c-33.333 2 -81.666 3 -144.999 3c-59.333 0 -109.666 -1 -150.999 -3
c2 24.667 7 45.334 15 62.001c18 2.66699 31.333 6.5 40 11.5s15.667 13.667 21 26s10.333 31.833 15 58.5l63 367c3.33301 18.667 5 33 5 43zM203.998 757.001c16 18.667 31.333 39.667 46 63s25.667 43.333 33 60c10 1.33301 25 2 45 2c41.333 0 73 -5 95 -15l-149 -136
c-24.667 2 -48 10.667 -70 26z" />
    <glyph glyph-name="Icircumflex" unicode="&#xce;" horiz-adv-x="389" 
d="M134 762c30 19.333 77.666 56.667 142.999 112c14.667 1.33301 26 2 34 2c13.333 0 23.666 -1.33301 30.999 -4l30 -42l67 -92c-9.33301 -8 -21 -14.167 -35 -18.5s-27.333 -6.5 -40 -6.5c-25.333 22.667 -53.666 43.667 -84.999 63c-37.333 -22 -70.333 -45.333 -99 -70
c-25.333 13.333 -40.666 32 -45.999 56zM176.999 565.001c0 17.333 -4.33496 29.501 -13.002 36.501s-24 12.167 -46 15.5c-2 10 -3 21.667 -3 35c0 6 0.666992 15 2 27c29.333 -2 78.333 -3 147 -3c66 0 115.667 1 149 3c0 -22.667 -3.66699 -43.334 -11 -62.001
c-18.667 -2.66699 -32.667 -6.83398 -42 -12.501s-16.5 -15.167 -21.5 -28.5s-10.167 -35 -15.5 -65l-61 -355c-4 -20.667 -6 -37 -6 -49c0 -16 4 -27 12 -33s22.667 -11 44 -15c2 -12 3 -25 3 -39c0 -10 -0.333008 -17.667 -1 -23c-33.333 2 -81.666 3 -144.999 3
c-59.333 0 -109.666 -1 -150.999 -3c2 24.667 7 45.334 15 62.001c18 2.66699 31.333 6.5 40 11.5s15.667 13.667 21 26s10.333 31.833 15 58.5l63 367c3.33301 18.667 5 33 5 43z" />
    <glyph glyph-name="Idieresis" unicode="&#xcf;" horiz-adv-x="389" 
d="M133 739.5c-12.667 11.667 -18.998 26.166 -18.998 43.499c0 20 7.16699 37.333 21.5 52s35.166 22 62.499 22c23.333 0 40.666 -5.5 51.999 -16.5s17 -25.833 17 -44.5c0 -4 -0.666992 -10.667 -2 -20c-3.33301 -15.333 -12.666 -28.166 -27.999 -38.499
s-33.333 -15.5 -54 -15.5s-37.334 5.83301 -50.001 17.5zM324.002 738.499c-12 11 -17.999 26.167 -17.999 45.5c0 4.66699 0.666992 11.667 2 21c2.66699 16.667 11.5 29.5 26.5 38.5s33.5 13.5 55.5 13.5c21.333 0 38.166 -5.83301 50.499 -17.5s18.5 -26.167 18.5 -43.5
c0 -20 -6.66699 -37.333 -20 -52s-34 -22 -62 -22c-23.333 0 -41 5.5 -53 16.5zM177.003 564.999c0 17.333 -4.33496 29.501 -13.002 36.501s-24 12.167 -46 15.5c-2 10 -3 21.667 -3 35c0 6 0.666992 15 2 27c29.333 -2 78.333 -3 147 -3c66 0 115.667 1 149 3
c0 -22.667 -3.66699 -43.334 -11 -62.001c-18.667 -2.66699 -32.667 -6.83398 -42 -12.501s-16.5 -15.167 -21.5 -28.5s-10.167 -35 -15.5 -65l-61 -355c-4 -20.667 -6 -37 -6 -49c0 -16 4 -27 12 -33s22.667 -11 44 -15c2 -12 3 -25 3 -39c0 -10 -0.333008 -17.667 -1 -23
c-33.333 2 -81.666 3 -144.999 3c-59.333 0 -109.666 -1 -150.999 -3c2 24.667 7 45.334 15 62.001c18 2.66699 31.333 6.5 40 11.5s15.667 13.667 21 26s10.333 31.833 15 58.5l63 367c3.33301 18.667 5 33 5 43z" />
    <glyph glyph-name="Eth" unicode="&#xd0;" horiz-adv-x="734" 
d="M642.5 622c59 -37.333 88.5029 -103.334 88.5029 -198.001c0 -27.333 -3 -58.666 -9 -93.999c-22 -122.667 -73.833 -208.334 -155.5 -257.001s-171.834 -73 -270.501 -73h-3c-141.333 0 -233.333 -1 -276 -3c1.33301 24 6 44.667 14 62c18.667 2 32.667 6.16699 42 12.5
s16.666 16.833 21.999 31.5s10.666 38 15.999 70l23 133c-32 -1.33301 -55.667 -2 -71 -2c0 30.667 3.33301 55 10 73h73l26 148c2.66699 15.333 4 29 4 41c0 18 -4.33301 30.333 -13 37s-23.667 11.334 -45 14.001c-2 11.333 -3 23 -3 35c0 7.33301 0.666992 16.333 2 27
c45.333 -2 103.666 -3 174.999 -3c22.667 0 40.334 0.333008 53.001 1l63 1c97.333 0 175.5 -18.667 234.5 -56zM575.003 432.999c0 123.333 -58.666 185 -175.999 185c-21.333 0 -42 -3.33301 -62 -10l-39 -231h106c0 -26.667 -3.66699 -50.334 -11 -71.001
c-22.667 0.666992 -58.334 1 -107.001 1l-24 -147c-4 -22 -6 -39.333 -6 -52c0 -18.667 4.83301 -31 14.5 -37s27.834 -9 54.501 -9c53.333 0 102.166 20.333 146.499 61s75.833 112.334 94.5 215.001c6 36 9 67.667 9 95z" />
    <glyph glyph-name="Ntilde" unicode="&#xd1;" horiz-adv-x="696" 
d="M751 679c-1.33301 -23.333 -5.32617 -44.001 -11.9932 -62.001c-18 -5.33301 -31.833 -12.666 -41.5 -21.999s-17.5 -23 -23.5 -41s-12 -45.333 -18 -82l-82 -473c-18.667 -5.33301 -42 -8 -70 -8c-82.667 164 -172.334 331 -269.001 501l-50 -290
c-6 -32.667 -9 -58 -9 -76c0 -20.667 4.66699 -35.667 14 -45s26 -16.666 50 -21.999c2 -10 3 -20.667 3 -32c0 -6.66699 -0.666992 -16.667 -2 -30c-28 2 -66 3 -114 3c-46.667 0 -84.334 -1 -113.001 -3c1.33301 23.333 5 44 11 62
c19.333 4.66699 34.666 11.5 45.999 20.5s20.666 22.5 27.999 40.5s14 44 20 78l67 380c-1.33301 1.33301 -2.33301 2.66602 -3 3.99902l-2 4c-6.66699 11.333 -14 19 -22 23s-21.667 6.66699 -41 8c-2 10 -3 20.667 -3 32c0 5.33301 0.666992 15.333 2 30
c21.333 -2 53.666 -3 96.999 -3c45.333 0 77 1 95 3c87.333 -147.333 167.666 -295 240.999 -443l40 240c4.66699 27.333 7 50.666 7 69.999c0 22 -4.83301 37.833 -14.5 47.5s-26.834 17.5 -51.501 23.5c-1.33301 6.66699 -2 17.667 -2 33
c0 12.667 0.333008 22.334 1 29.001c25.333 -2 61 -3 107 -3c52 0 90 1 114 3zM471.507 746.999c-11 4 -23.165 10.001 -36.498 18.001c-10.667 6.66699 -20 11.5 -28 14.5s-17 4.5 -27 4.5c-14 0 -27.667 -3.66699 -41 -11s-27.666 -17.333 -42.999 -30
c-12 17.333 -18 35 -18 53c0 6 0.333008 10.667 1 14c21.333 21.333 44.166 36.666 68.499 45.999s47.5 14 69.5 14c15.333 0 28.666 -2 39.999 -6s24 -9.66699 38 -17c20.667 -12 38.334 -18 53.001 -18c23.333 0 45.666 12.667 66.999 38
c21.333 -10 35.666 -23 42.999 -39c-42 -58 -91 -87 -147 -87c-15.333 0 -28.5 2 -39.5 6z" />
    <glyph glyph-name="Ograve" unicode="&#xd2;" horiz-adv-x="742" 
d="M187 26c-44 23.333 -77.833 56.498 -101.5 99.498s-35.5 93.167 -35.5 150.5c0 30.667 2.66699 59.334 8 86.001c12 64 36.167 120.5 72.5 169.5s81.166 86.833 134.499 113.5s111.666 40 174.999 40c58.667 0 110.334 -11.167 155.001 -33.5
s79.334 -54.666 104.001 -96.999s37 -92.5 37 -150.5c0 -26.667 -3 -55.667 -9 -87c-12 -62.667 -35.667 -118.667 -71 -168s-80 -88 -134 -116s-113.667 -42 -179 -42c-60 0 -112 11.667 -156 35zM490 127.998c37.333 49.333 63.666 115.667 78.999 199
c5.33301 32 8 60.333 8 85c0 63.333 -13.5 114.5 -40.5 153.5s-63.833 58.5 -110.5 58.5c-49.333 0 -92.666 -23.667 -129.999 -71s-63.333 -109.333 -78 -186c-7.33301 -38.667 -11 -73.667 -11 -105c0 -62.667 12.667 -113 38 -151s62.333 -57 111 -57
c52 0 96.667 24.667 134 74zM472 734.999c-14 0 -26.332 1.99902 -36.999 5.99902c-10.667 14.667 -23.834 30.334 -39.501 47.001s-32.167 33 -49.5 49l-25 24c28.667 8 57.334 12 86.001 12c17.333 0 32.666 -1.33301 45.999 -4c12 -47.333 28.667 -90.333 50 -129
c-10 -3.33301 -20.333 -5 -31 -5z" />
    <glyph glyph-name="Oacute" unicode="&#xd3;" horiz-adv-x="742" 
d="M187 26c-44 23.333 -77.833 56.498 -101.5 99.498s-35.5 93.167 -35.5 150.5c0 30.667 2.66699 59.334 8 86.001c12 64 36.167 120.5 72.5 169.5s81.166 86.833 134.499 113.5s111.666 40 174.999 40c58.667 0 110.334 -11.167 155.001 -33.5
s79.334 -54.666 104.001 -96.999s37 -92.5 37 -150.5c0 -26.667 -3 -55.667 -9 -87c-12 -62.667 -35.667 -118.667 -71 -168s-80 -88 -134 -116s-113.667 -42 -179 -42c-60 0 -112 11.667 -156 35zM490 127.998c37.333 49.333 63.666 115.667 78.999 199
c5.33301 32 8 60.333 8 85c0 63.333 -13.5 114.5 -40.5 153.5s-63.833 58.5 -110.5 58.5c-49.333 0 -92.666 -23.667 -129.999 -71s-63.333 -109.333 -78 -186c-7.33301 -38.667 -11 -73.667 -11 -105c0 -62.667 12.667 -113 38 -151s62.333 -57 111 -57
c52 0 96.667 24.667 134 74zM378 756.999c16 18.667 31.333 39.667 46 63s25.667 43.333 33 60c10 1.33301 25 2 45 2c41.333 0 73 -5 95 -15l-149 -136c-24.667 2 -48 10.667 -70 26z" />
    <glyph glyph-name="Ocircumflex" unicode="&#xd4;" horiz-adv-x="742" 
d="M187 26c-44 23.333 -77.833 56.498 -101.5 99.498s-35.5 93.167 -35.5 150.5c0 30.667 2.66699 59.334 8 86.001c12 64 36.167 120.5 72.5 169.5s81.166 86.833 134.499 113.5s111.666 40 174.999 40c58.667 0 110.334 -11.167 155.001 -33.5
s79.334 -54.666 104.001 -96.999s37 -92.5 37 -150.5c0 -26.667 -3 -55.667 -9 -87c-12 -62.667 -35.667 -118.667 -71 -168s-80 -88 -134 -116s-113.667 -42 -179 -42c-60 0 -112 11.667 -156 35zM490 127.998c37.333 49.333 63.666 115.667 78.999 199
c5.33301 32 8 60.333 8 85c0 63.333 -13.5 114.5 -40.5 153.5s-63.833 58.5 -110.5 58.5c-49.333 0 -92.666 -23.667 -129.999 -71s-63.333 -109.333 -78 -186c-7.33301 -38.667 -11 -73.667 -11 -105c0 -62.667 12.667 -113 38 -151s62.333 -57 111 -57
c52 0 96.667 24.667 134 74zM296.5 747.499c-7 11 -11.166 21.499 -12.499 31.499c42.667 19.333 99 55 169 107c9.33301 1.33301 16.666 2 21.999 2c16.667 0 31 -2.33301 43 -7c24.667 -27.333 66.667 -69 126 -125c-6 -6.66699 -14.333 -12.167 -25 -16.5
s-22.667 -7.16602 -36 -8.49902c-45.333 28.667 -86 48.667 -122 60c-18 -6.66699 -37.833 -15.5 -59.5 -26.5l-40.5 -20.5c-8 -4.66699 -15.167 -8.5 -21.5 -11.5s-11.833 -5.83301 -16.5 -8.5c-10.667 4.66699 -19.5 12.5 -26.5 23.5z" />
    <glyph glyph-name="Otilde" unicode="&#xd5;" horiz-adv-x="742" 
d="M187 26c-44 23.333 -77.833 56.498 -101.5 99.498s-35.5 93.167 -35.5 150.5c0 30.667 2.66699 59.334 8 86.001c12 64 36.167 120.5 72.5 169.5s81.166 86.833 134.499 113.5s111.666 40 174.999 40c58.667 0 110.334 -11.167 155.001 -33.5
s79.334 -54.666 104.001 -96.999s37 -92.5 37 -150.5c0 -26.667 -3 -55.667 -9 -87c-12 -62.667 -35.667 -118.667 -71 -168s-80 -88 -134 -116s-113.667 -42 -179 -42c-60 0 -112 11.667 -156 35zM490 127.998c37.333 49.333 63.666 115.667 78.999 199
c5.33301 32 8 60.333 8 85c0 63.333 -13.5 114.5 -40.5 153.5s-63.833 58.5 -110.5 58.5c-49.333 0 -92.666 -23.667 -129.999 -71s-63.333 -109.333 -78 -186c-7.33301 -38.667 -11 -73.667 -11 -105c0 -62.667 12.667 -113 38 -151s62.333 -57 111 -57
c52 0 96.667 24.667 134 74zM467.5 746.999c-11 4 -23.165 10.001 -36.498 18.001c-10.667 6.66699 -20 11.5 -28 14.5s-17 4.5 -27 4.5c-14 0 -27.667 -3.66699 -41 -11s-27.666 -17.333 -42.999 -30c-12 17.333 -18 35 -18 53c0 6 0.333008 10.667 1 14
c21.333 21.333 44.166 36.666 68.499 45.999s47.5 14 69.5 14c15.333 0 28.666 -2 39.999 -6s24 -9.66699 38 -17c20.667 -12 38.334 -18 53.001 -18c23.333 0 45.666 12.667 66.999 38c21.333 -10 35.666 -23 42.999 -39c-42 -58 -91 -87 -147 -87
c-15.333 0 -28.5 2 -39.5 6z" />
    <glyph glyph-name="Odieresis" unicode="&#xd6;" horiz-adv-x="742" 
d="M187 26c-44 23.333 -77.833 56.498 -101.5 99.498s-35.5 93.167 -35.5 150.5c0 30.667 2.66699 59.334 8 86.001c12 64 36.167 120.5 72.5 169.5s81.166 86.833 134.499 113.5s111.666 40 174.999 40c58.667 0 110.334 -11.167 155.001 -33.5
s79.334 -54.666 104.001 -96.999s37 -92.5 37 -150.5c0 -26.667 -3 -55.667 -9 -87c-12 -62.667 -35.667 -118.667 -71 -168s-80 -88 -134 -116s-113.667 -42 -179 -42c-60 0 -112 11.667 -156 35zM490 127.998c37.333 49.333 63.666 115.667 78.999 199
c5.33301 32 8 60.333 8 85c0 63.333 -13.5 114.5 -40.5 153.5s-63.833 58.5 -110.5 58.5c-49.333 0 -92.666 -23.667 -129.999 -71s-63.333 -109.333 -78 -186c-7.33301 -38.667 -11 -73.667 -11 -105c0 -62.667 12.667 -113 38 -151s62.333 -57 111 -57
c52 0 96.667 24.667 134 74zM298.5 744.999c-13 13.333 -19.5 30.334 -19.5 51.001c0 23.333 6.16699 41.166 18.5 53.499s30.5 18.5 54.5 18.5c21.333 0 38.5 -5.83301 51.5 -17.5s19.5 -27.834 19.5 -48.501c0 -7.33301 -0.333008 -13 -1 -17
c-3.33301 -19.333 -11 -34.166 -23 -44.499s-28 -15.5 -48 -15.5c-22 0 -39.5 6.66699 -52.5 20zM515.5 744.5c-12.333 13 -18.501 29.833 -18.501 50.5c0 23.333 6.5 41.333 19.5 54s31.833 19 56.5 19c22 0 39.167 -6 51.5 -18s18.5 -28.667 18.5 -50
c0 -24 -6.33301 -42.5 -19 -55.5s-31 -19.5 -55 -19.5c-23.333 0 -41.166 6.5 -53.499 19.5z" />
    <glyph glyph-name="multiply" unicode="&#xd7;" 
d="M324 258l160 -206c-8.66699 -9.33301 -19.5 -17 -32.5 -23s-25.833 -9 -38.5 -9l-142 188l-195 -188c-14.667 -0.666992 -28.667 1.5 -42 6.5s-22.666 12.167 -27.999 21.5l225 212l-157 200c10 9.33301 21.167 16.833 33.5 22.5s24.166 8.5 35.499 8.5l141 -181l198 186
c14.667 -1.33301 28.667 -4.83301 42 -10.5s22 -12.5 26 -20.5z" />
    <glyph glyph-name="Oslash" unicode="&#xd8;" horiz-adv-x="742" 
d="M736 404c0 -26.667 -2.99902 -55.666 -8.99902 -86.999c-12 -62.667 -35.667 -118.667 -71 -168s-80 -88 -134 -116s-113.667 -42 -179 -42c-72.667 0 -133.667 17 -183 51l-45 -51c-14.667 0 -28.167 3.16699 -40.5 9.5s-20.5 14.833 -24.5 25.5l59 63
c-40 49.333 -60 111 -60 185c0 28 3 57.333 9 88c12 64 36.167 120.5 72.5 169.5s81.166 86.833 134.499 113.5s111.666 40 174.999 40c71.333 0 132 -16.333 182 -49l45 49c32.667 0 55.334 -10 68.001 -30l-21 -21l-42 -42c42.667 -48.667 64 -111.334 64 -188.001z
M207.001 261.001c0 -19.333 1.66602 -40 4.99902 -62l332 355c-13.333 22 -30 39.167 -50 51.5s-42.667 18.5 -68 18.5c-49.333 0 -92.666 -23.667 -129.999 -71s-63.333 -109.333 -78 -186c-7.33301 -38.667 -11 -74 -11 -106zM577 413.001
c0 30 -2.66602 54.665 -7.99902 73.998l-334 -360c27.333 -48.667 67.666 -73 120.999 -73c51.333 0 95.833 24.333 133.5 73s64.167 115.334 79.5 200.001c5.33301 26.667 8 55.334 8 86.001z" />
    <glyph glyph-name="Ugrave" unicode="&#xd9;" horiz-adv-x="658" 
d="M98 182c0 25.333 2.33008 50.6699 6.99707 76.0029l47 267c3.33301 21.333 5 36.333 5 45c0 15.333 -3.66699 26.166 -11 32.499s-20.666 11.166 -39.999 14.499c-2 10 -3 21.333 -3 34c0 6.66699 0.666992 16 2 28c32 -2 79.667 -3 143 -3c62.667 0 112.334 1 149.001 3
c-1.33301 -23.333 -5.33301 -44 -12 -62c-20 -2 -34.833 -5.83301 -44.5 -11.5s-17.167 -15.334 -22.5 -29.001s-10.666 -36.167 -15.999 -67.5l-43 -246c-5.33301 -30.667 -8 -56.334 -8 -77.001c0 -84 35.333 -126 106 -126c44 0 80 17.333 108 52
s47.333 83.334 58 146.001l41 235c5.33301 32 8 55 8 69c0 16.667 -3.66699 28.5 -11 35.5s-21 13.5 -41 19.5c-2 10 -3 20.667 -3 32c0 5.33301 0.666992 15.333 2 30c28 -2 62.667 -3 104 -3s75.333 1 102 3c-1.33301 -23.333 -5.33301 -44 -12 -62
c-19.333 -4.66699 -33.5 -10.167 -42.5 -16.5s-16.5 -18 -22.5 -35s-12.333 -44.5 -19 -82.5l-37 -216c-16.667 -98 -46.5 -168.5 -89.5 -211.5s-103.5 -64.5 -181.5 -64.5c-148.667 0 -223 63.667 -223 191zM484.997 735.004c-14 0 -26.332 1.99902 -36.999 5.99902
c-10.667 14.667 -23.834 30.334 -39.501 47.001s-32.167 33 -49.5 49l-25 24c28.667 8 57.334 12 86.001 12c17.333 0 32.666 -1.33301 45.999 -4c12 -47.333 28.667 -90.333 50 -129c-10 -3.33301 -20.333 -5 -31 -5z" />
    <glyph glyph-name="Uacute" unicode="&#xda;" horiz-adv-x="658" 
d="M98 182c0 25.333 2.33008 50.6699 6.99707 76.0029l47 267c3.33301 21.333 5 36.333 5 45c0 15.333 -3.66699 26.166 -11 32.499s-20.666 11.166 -39.999 14.499c-2 10 -3 21.333 -3 34c0 6.66699 0.666992 16 2 28c32 -2 79.667 -3 143 -3c62.667 0 112.334 1 149.001 3
c-1.33301 -23.333 -5.33301 -44 -12 -62c-20 -2 -34.833 -5.83301 -44.5 -11.5s-17.167 -15.334 -22.5 -29.001s-10.666 -36.167 -15.999 -67.5l-43 -246c-5.33301 -30.667 -8 -56.334 -8 -77.001c0 -84 35.333 -126 106 -126c44 0 80 17.333 108 52
s47.333 83.334 58 146.001l41 235c5.33301 32 8 55 8 69c0 16.667 -3.66699 28.5 -11 35.5s-21 13.5 -41 19.5c-2 10 -3 20.667 -3 32c0 5.33301 0.666992 15.333 2 30c28 -2 62.667 -3 104 -3s75.333 1 102 3c-1.33301 -23.333 -5.33301 -44 -12 -62
c-19.333 -4.66699 -33.5 -10.167 -42.5 -16.5s-16.5 -18 -22.5 -35s-12.333 -44.5 -19 -82.5l-37 -216c-16.667 -98 -46.5 -168.5 -89.5 -211.5s-103.5 -64.5 -181.5 -64.5c-148.667 0 -223 63.667 -223 191zM390.997 757.004c16 18.667 31.333 39.667 46 63
s25.667 43.333 33 60c10 1.33301 25 2 45 2c41.333 0 73 -5 95 -15l-149 -136c-24.667 2 -48 10.667 -70 26z" />
    <glyph glyph-name="Ucircumflex" unicode="&#xdb;" horiz-adv-x="658" 
d="M98 182c0 25.333 2.33008 50.6699 6.99707 76.0029l47 267c3.33301 21.333 5 36.333 5 45c0 15.333 -3.66699 26.166 -11 32.499s-20.666 11.166 -39.999 14.499c-2 10 -3 21.333 -3 34c0 6.66699 0.666992 16 2 28c32 -2 79.667 -3 143 -3c62.667 0 112.334 1 149.001 3
c-1.33301 -23.333 -5.33301 -44 -12 -62c-20 -2 -34.833 -5.83301 -44.5 -11.5s-17.167 -15.334 -22.5 -29.001s-10.666 -36.167 -15.999 -67.5l-43 -246c-5.33301 -30.667 -8 -56.334 -8 -77.001c0 -84 35.333 -126 106 -126c44 0 80 17.333 108 52
s47.333 83.334 58 146.001l41 235c5.33301 32 8 55 8 69c0 16.667 -3.66699 28.5 -11 35.5s-21 13.5 -41 19.5c-2 10 -3 20.667 -3 32c0 5.33301 0.666992 15.333 2 30c28 -2 62.667 -3 104 -3s75.333 1 102 3c-1.33301 -23.333 -5.33301 -44 -12 -62
c-19.333 -4.66699 -33.5 -10.167 -42.5 -16.5s-16.5 -18 -22.5 -35s-12.333 -44.5 -19 -82.5l-37 -216c-16.667 -98 -46.5 -168.5 -89.5 -211.5s-103.5 -64.5 -181.5 -64.5c-148.667 0 -223 63.667 -223 191zM309.497 747.504c-7 11 -11.166 21.499 -12.499 31.499
c42.667 19.333 99 55 169 107c9.33301 1.33301 16.666 2 21.999 2c16.667 0 31 -2.33301 43 -7c24.667 -27.333 66.667 -69 126 -125c-6 -6.66699 -14.333 -12.167 -25 -16.5s-22.667 -7.16602 -36 -8.49902c-45.333 28.667 -86 48.667 -122 60
c-18 -6.66699 -37.833 -15.5 -59.5 -26.5l-40.5 -20.5c-8 -4.66699 -15.167 -8.5 -21.5 -11.5s-11.833 -5.83301 -16.5 -8.5c-10.667 4.66699 -19.5 12.5 -26.5 23.5z" />
    <glyph glyph-name="Udieresis" unicode="&#xdc;" horiz-adv-x="658" 
d="M98 182c0 25.333 2.33008 50.6699 6.99707 76.0029l47 267c3.33301 21.333 5 36.333 5 45c0 15.333 -3.66699 26.166 -11 32.499s-20.666 11.166 -39.999 14.499c-2 10 -3 21.333 -3 34c0 6.66699 0.666992 16 2 28c32 -2 79.667 -3 143 -3c62.667 0 112.334 1 149.001 3
c-1.33301 -23.333 -5.33301 -44 -12 -62c-20 -2 -34.833 -5.83301 -44.5 -11.5s-17.167 -15.334 -22.5 -29.001s-10.666 -36.167 -15.999 -67.5l-43 -246c-5.33301 -30.667 -8 -56.334 -8 -77.001c0 -84 35.333 -126 106 -126c44 0 80 17.333 108 52
s47.333 83.334 58 146.001l41 235c5.33301 32 8 55 8 69c0 16.667 -3.66699 28.5 -11 35.5s-21 13.5 -41 19.5c-2 10 -3 20.667 -3 32c0 5.33301 0.666992 15.333 2 30c28 -2 62.667 -3 104 -3s75.333 1 102 3c-1.33301 -23.333 -5.33301 -44 -12 -62
c-19.333 -4.66699 -33.5 -10.167 -42.5 -16.5s-16.5 -18 -22.5 -35s-12.333 -44.5 -19 -82.5l-37 -216c-16.667 -98 -46.5 -168.5 -89.5 -211.5s-103.5 -64.5 -181.5 -64.5c-148.667 0 -223 63.667 -223 191zM311.497 745.004c-13 13.333 -19.5 30.334 -19.5 51.001
c0 23.333 6.16699 41.166 18.5 53.499s30.5 18.5 54.5 18.5c21.333 0 38.5 -5.83301 51.5 -17.5s19.5 -27.834 19.5 -48.501c0 -7.33301 -0.333008 -13 -1 -17c-3.33301 -19.333 -11 -34.166 -23 -44.499s-28 -15.5 -48 -15.5c-22 0 -39.5 6.66699 -52.5 20z
M528.497 744.505c-12.333 13 -18.501 29.833 -18.501 50.5c0 23.333 6.5 41.333 19.5 54s31.833 19 56.5 19c22 0 39.167 -6 51.5 -18s18.5 -28.667 18.5 -50c0 -24 -6.33301 -42.5 -19 -55.5s-31 -19.5 -55 -19.5c-23.333 0 -41.166 6.5 -53.499 19.5z" />
    <glyph glyph-name="Yacute" unicode="&#xdd;" horiz-adv-x="595" 
d="M669 679c0 -22 -3.99805 -42.6631 -11.998 -61.9961c-14.667 -4.66699 -27 -12.167 -37 -22.5s-25.333 -32.833 -46 -67.5c-58.667 -96 -115.667 -184 -171 -264l-18 -105c-3.33301 -18.667 -5 -32.667 -5 -42c0 -17.333 5.5 -29.833 16.5 -37.5
s32.167 -14.167 63.5 -19.5c2 -10.667 3 -22.667 3 -36c0 -12 -0.333008 -20.667 -1 -26c-28.667 2 -83.667 3 -165 3c-90.667 0 -151.334 -1 -182.001 -3c0.666992 21.333 5 42.333 13 63c27.333 4 47.333 8.83301 60 14.5s22.167 15.167 28.5 28.5s12.166 35 17.499 65
l17 96c-24.667 86 -53 172.333 -85 259c-9.33301 25.333 -17.333 44.166 -24 56.499s-13.167 21 -19.5 26s-14.833 8.83301 -25.5 11.5c-2 10 -3 21 -3 33c0 6 0.666992 15.667 2 29c30 -2 75.667 -3 137 -3c65.333 0 117 1 155 3c-0.666992 -22 -4.66699 -43 -12 -63
c-21.333 -2.66699 -36.833 -7.66699 -46.5 -15s-14.5 -17 -14.5 -29c0 -8.66699 2.66699 -20.334 8 -35.001c21.333 -60 40 -127.333 56 -202c32.667 48.667 69.667 113 111 193c12.667 25.333 19 43.666 19 54.999c0 9.33301 -3.33301 16.666 -10 21.999
s-17.667 9.33301 -33 12c-2 10 -3 20.667 -3 32c0 5.33301 0.666992 15.333 2 30c22 -2 57.667 -3 107 -3c40 0 72.333 1 97 3zM344.002 757.004c16 18.667 31.333 39.667 46 63s25.667 43.333 33 60c10 1.33301 25 2 45 2c41.333 0 73 -5 95 -15l-149 -136
c-24.667 2 -48 10.667 -70 26z" />
    <glyph glyph-name="Thorn" unicode="&#xde;" horiz-adv-x="634" 
d="M580 501c32.667 -28 48.999 -65.334 48.999 -112.001c0 -9.33301 -1.33301 -23.333 -4 -42c-6.66699 -37.333 -21.667 -71 -45 -101s-53.666 -53.5 -90.999 -70.5s-79.333 -25.5 -126 -25.5c-30.667 0 -53 4.33301 -67 13c0 22.667 4 41.334 12 56.001
c8.66699 -2.66699 20 -4 34 -4c32.667 0 61.334 11 86.001 33s41 54.333 49 97c2.66699 11.333 4 24 4 38c0 31.333 -9.16699 55.666 -27.5 72.999s-45.5 26 -81.5 26c-18.667 0 -37.334 -3 -56.001 -9l-54 -317c-2.66699 -20 -4 -32.333 -4 -37
c0 -20.667 5.83301 -35 17.5 -43s33.167 -13.667 64.5 -17c2.66699 -16 4 -28 4 -36c0 -5.33301 -0.666992 -14 -2 -26c-36.667 2 -91 3 -163 3c-63.333 0 -117 -1 -161 -3c2 24.667 7 45.334 15 62.001c18 2.66699 31.333 6.5 40 11.5s15.667 13.667 21 26
s10.333 31.833 15 58.5l63 367c3.33301 18.667 5 33 5 43c0 17.333 -4.33301 29.5 -13 36.5s-24 12.167 -46 15.5c-2 10 -3 21.667 -3 35c0 6 0.666992 15 2 27c29.333 -2 78.333 -3 147 -3c66 0 115.667 1 149 3c0 -22.667 -3.66699 -43.334 -11 -62.001
c-24 -3.33301 -40.667 -9.66602 -50 -18.999s-17 -28 -23 -56l94 1c72 0 124.333 -14 157 -42z" />
    <glyph glyph-name="germandbls" unicode="&#xdf;" horiz-adv-x="659" 
d="M577 497c-15.333 -16.667 -35.9971 -33.6699 -61.9971 -51.0029c-17.333 -11.333 -30.666 -21.5 -39.999 -30.5s-15.333 -20.167 -18 -33.5c-0.666992 -2 -1 -5.33301 -1 -10c0 -14 4.83301 -26.833 14.5 -38.5s25.167 -26.834 46.5 -45.501
c29.333 -24.667 51.666 -47.5 66.999 -68.5s23 -46.5 23 -76.5c0 -8.66699 -1 -18 -3 -28c-7.33301 -41.333 -27.5 -72.166 -60.5 -92.499s-80.167 -30.5 -141.5 -30.5c-64.667 0 -115.667 13 -153 39c12.667 36.667 19.667 78 21 124c17.333 6.66699 37 10 59 10
c9.33301 0 16.333 -0.333008 21 -1c0 -37.333 4.5 -65.166 13.5 -83.499s24.5 -27.5 46.5 -27.5c13.333 0 24.833 4 34.5 12s15.5 18.333 17.5 31c0.666992 2.66699 1 6.33398 1 11.001c0 14.667 -5.33301 28.667 -16 42s-26.667 29 -48 47
c-28.667 26 -50.334 48.833 -65.001 68.5s-22 43.167 -22 70.5c0 8.66699 1 17.334 3 26.001c4 19.333 12.667 35 26 47s32 25 56 39c20 12 36 22.5 48 31.5s22.167 21 30.5 36s12.5 33.5 12.5 55.5c0 25.333 -8.16699 45.333 -24.5 60s-39.5 22 -69.5 22
c-20.667 0 -37.834 -6 -51.501 -18s-25.834 -32.5 -36.501 -61.5s-21 -70.5 -31 -124.5c-16 -83.333 -32.667 -182.666 -50 -297.999c-11.333 -74.667 -29.833 -142 -55.5 -202s-57.334 -107.667 -95.001 -143s-79.5 -53 -125.5 -53c-38 0 -71.333 14.333 -100 43
c0 14 1.5 28.833 4.5 44.5s6.83301 29.167 11.5 40.5c32.667 -13.333 69 -20 109 -20c20.667 0 36.5 4.5 47.5 13.5s20 26.5 27 52.5s13.833 66 20.5 120c16 132.667 30.333 243 43 331c-27.333 6.66699 -53 10 -77 10c0 26 4.33301 46.333 13 61h75l1 5
c10 56.667 25 103.667 45 141s50.167 66.666 90.5 87.999s93.833 32 160.5 32c64.667 0 112.834 -11 144.501 -33s47.5 -51 47.5 -87c0 -8.66699 -1 -17.667 -3 -27c-6 -30 -16.667 -53.333 -32 -70z" />
    <glyph glyph-name="agrave" unicode="&#xe0;" horiz-adv-x="557" 
d="M522.5 82.5c5 -9.66699 8.16699 -18.835 9.5 -27.502c-41.333 -42.667 -87.333 -64 -138 -64c-29.333 0 -50.666 8.16699 -63.999 24.5s-20 36.833 -20 61.5c0 12.667 1.66699 25.667 5 39c4 16 12.333 41 25 75h-3c-22 -62.667 -50.5 -111.667 -85.5 -147
s-74.167 -53 -117.5 -53c-39.333 0 -68.166 13.167 -86.499 39.5s-27.5 61.5 -27.5 105.5c0 26.667 3 54.334 9 83.001c14.667 73.333 46.667 133 96 179s113.333 69 192 69c35.333 0 65 -4.66699 89 -14c34.667 3.33301 63 8 85 14
c7.33301 -4.66699 12.833 -10.5 16.5 -17.5s5.5 -16.167 5.5 -27.5c0 -12 -2 -27.667 -6 -47l-48 -207c-6.66699 -29.333 -10 -50.666 -10 -63.999c0 -8 1.16699 -13.333 3.5 -16s6.16602 -4 11.499 -4c6 0 12.167 1.66699 18.5 5s14.166 9 23.499 17
c6 -6 11.5 -13.833 16.5 -23.5zM255.5 124.499c16.333 15.667 32.832 41 49.499 76s31.334 80.167 44.001 135.5l13 56c-18 7.33301 -38 11 -60 11c-30.667 0 -55.167 -12.833 -73.5 -38.5s-32.5 -61.5 -42.5 -107.5c-7.33301 -36.667 -11 -66 -11 -88
c0 -45.333 12.333 -68 37 -68c12.667 0 27.167 7.83301 43.5 23.5zM378.999 538.999c-7.33301 -2.66699 -17 -4.00098 -29 -4.00098c-14.667 0 -27.667 2 -39 6c-31.333 57.333 -67.333 110.333 -108 159c25.333 7.33301 51.333 11 78 11c18.667 0 36.667 -2 54 -6
c10 -57.333 24.667 -112.666 44 -165.999z" />
    <glyph glyph-name="aacute" unicode="&#xe1;" horiz-adv-x="557" 
d="M522.5 82.5c5 -9.66699 8.16699 -18.835 9.5 -27.502c-41.333 -42.667 -87.333 -64 -138 -64c-29.333 0 -50.666 8.16699 -63.999 24.5s-20 36.833 -20 61.5c0 12.667 1.66699 25.667 5 39c4 16 12.333 41 25 75h-3c-22 -62.667 -50.5 -111.667 -85.5 -147
s-74.167 -53 -117.5 -53c-39.333 0 -68.166 13.167 -86.499 39.5s-27.5 61.5 -27.5 105.5c0 26.667 3 54.334 9 83.001c14.667 73.333 46.667 133 96 179s113.333 69 192 69c35.333 0 65 -4.66699 89 -14c34.667 3.33301 63 8 85 14
c7.33301 -4.66699 12.833 -10.5 16.5 -17.5s5.5 -16.167 5.5 -27.5c0 -12 -2 -27.667 -6 -47l-48 -207c-6.66699 -29.333 -10 -50.666 -10 -63.999c0 -8 1.16699 -13.333 3.5 -16s6.16602 -4 11.499 -4c6 0 12.167 1.66699 18.5 5s14.166 9 23.499 17
c6 -6 11.5 -13.833 16.5 -23.5zM255.5 124.499c16.333 15.667 32.832 41 49.499 76s31.334 80.167 44.001 135.5l13 56c-18 7.33301 -38 11 -60 11c-30.667 0 -55.167 -12.833 -73.5 -38.5s-32.5 -61.5 -42.5 -107.5c-7.33301 -36.667 -11 -66 -11 -88
c0 -45.333 12.333 -68 37 -68c12.667 0 27.167 7.83301 43.5 23.5zM418.999 721.999c38 0 67.001 -6 87.001 -18c-61.333 -58 -114 -118 -158 -180c-24.667 2 -47.334 10 -68.001 24c19.333 30 36.833 60.667 52.5 92s27.167 57.333 34.5 78c16 2.66699 33.333 4 52 4z" />
    <glyph glyph-name="acircumflex" unicode="&#xe2;" horiz-adv-x="557" 
d="M522.5 82.5c5 -9.66699 8.16699 -18.835 9.5 -27.502c-41.333 -42.667 -87.333 -64 -138 -64c-29.333 0 -50.666 8.16699 -63.999 24.5s-20 36.833 -20 61.5c0 12.667 1.66699 25.667 5 39c4 16 12.333 41 25 75h-3c-22 -62.667 -50.5 -111.667 -85.5 -147
s-74.167 -53 -117.5 -53c-39.333 0 -68.166 13.167 -86.499 39.5s-27.5 61.5 -27.5 105.5c0 26.667 3 54.334 9 83.001c14.667 73.333 46.667 133 96 179s113.333 69 192 69c35.333 0 65 -4.66699 89 -14c34.667 3.33301 63 8 85 14
c7.33301 -4.66699 12.833 -10.5 16.5 -17.5s5.5 -16.167 5.5 -27.5c0 -12 -2 -27.667 -6 -47l-48 -207c-6.66699 -29.333 -10 -50.666 -10 -63.999c0 -8 1.16699 -13.333 3.5 -16s6.16602 -4 11.499 -4c6 0 12.167 1.66699 18.5 5s14.166 9 23.499 17
c6 -6 11.5 -13.833 16.5 -23.5zM255.5 124.499c16.333 15.667 32.832 41 49.499 76s31.334 80.167 44.001 135.5l13 56c-18 7.33301 -38 11 -60 11c-30.667 0 -55.167 -12.833 -73.5 -38.5s-32.5 -61.5 -42.5 -107.5c-7.33301 -36.667 -11 -66 -11 -88
c0 -45.333 12.333 -68 37 -68c12.667 0 27.167 7.83301 43.5 23.5zM184.499 545.499c-6.33301 11.667 -9.49805 22.5 -9.49805 32.5c30.667 19.333 61.667 41 93 65s58.666 47.333 81.999 70c3.33301 0.666992 9 1 17 1c15.333 0 31 -2.66699 47 -8
c30 -44.667 69.667 -94.667 119 -150c-6 -8 -14.5 -14.667 -25.5 -20s-23.167 -8.66602 -36.5 -9.99902c-38.667 31.333 -78.334 57.666 -119.001 78.999c-23.333 -11.333 -48 -25 -74 -41s-48.667 -31 -68 -45c-10.667 6 -19.167 14.833 -25.5 26.5z" />
    <glyph glyph-name="atilde" unicode="&#xe3;" horiz-adv-x="557" 
d="M522.5 82.5c5 -9.66699 8.16699 -18.835 9.5 -27.502c-41.333 -42.667 -87.333 -64 -138 -64c-29.333 0 -50.666 8.16699 -63.999 24.5s-20 36.833 -20 61.5c0 12.667 1.66699 25.667 5 39c4 16 12.333 41 25 75h-3c-22 -62.667 -50.5 -111.667 -85.5 -147
s-74.167 -53 -117.5 -53c-39.333 0 -68.166 13.167 -86.499 39.5s-27.5 61.5 -27.5 105.5c0 26.667 3 54.334 9 83.001c14.667 73.333 46.667 133 96 179s113.333 69 192 69c35.333 0 65 -4.66699 89 -14c34.667 3.33301 63 8 85 14
c7.33301 -4.66699 12.833 -10.5 16.5 -17.5s5.5 -16.167 5.5 -27.5c0 -12 -2 -27.667 -6 -47l-48 -207c-6.66699 -29.333 -10 -50.666 -10 -63.999c0 -8 1.16699 -13.333 3.5 -16s6.16602 -4 11.499 -4c6 0 12.167 1.66699 18.5 5s14.166 9 23.499 17
c6 -6 11.5 -13.833 16.5 -23.5zM255.5 124.499c16.333 15.667 32.832 41 49.499 76s31.334 80.167 44.001 135.5l13 56c-18 7.33301 -38 11 -60 11c-30.667 0 -55.167 -12.833 -73.5 -38.5s-32.5 -61.5 -42.5 -107.5c-7.33301 -36.667 -11 -66 -11 -88
c0 -45.333 12.333 -68 37 -68c12.667 0 27.167 7.83301 43.5 23.5zM373.999 551.499c-10.667 4.33301 -22.999 10.834 -36.999 19.501c-11.333 8 -21.333 13.833 -30 17.5s-18.334 5.5 -29.001 5.5c-28.667 0 -60.667 -15.333 -96 -46c-12.667 14.667 -19 30.667 -19 48
l1 11c50 51.333 97 77 141 77c15.333 0 28.333 -2.33301 39 -7s23.334 -11.334 38.001 -20.001c12 -6.66699 21.667 -11.667 29 -15s15.333 -5 24 -5c27.333 0 53.333 14 78 42c19.333 -8 32.666 -20 39.999 -36c-24.667 -34.667 -48.5 -59.667 -71.5 -75
s-46.5 -23 -70.5 -23c-14 0 -26.333 2.16699 -37 6.5z" />
    <glyph glyph-name="adieresis" unicode="&#xe4;" horiz-adv-x="557" 
d="M522.5 82.5c5 -9.66699 8.16699 -18.835 9.5 -27.502c-41.333 -42.667 -87.333 -64 -138 -64c-29.333 0 -50.666 8.16699 -63.999 24.5s-20 36.833 -20 61.5c0 12.667 1.66699 25.667 5 39c4 16 12.333 41 25 75h-3c-22 -62.667 -50.5 -111.667 -85.5 -147
s-74.167 -53 -117.5 -53c-39.333 0 -68.166 13.167 -86.499 39.5s-27.5 61.5 -27.5 105.5c0 26.667 3 54.334 9 83.001c14.667 73.333 46.667 133 96 179s113.333 69 192 69c35.333 0 65 -4.66699 89 -14c34.667 3.33301 63 8 85 14
c7.33301 -4.66699 12.833 -10.5 16.5 -17.5s5.5 -16.167 5.5 -27.5c0 -12 -2 -27.667 -6 -47l-48 -207c-6.66699 -29.333 -10 -50.666 -10 -63.999c0 -8 1.16699 -13.333 3.5 -16s6.16602 -4 11.499 -4c6 0 12.167 1.66699 18.5 5s14.166 9 23.499 17
c6 -6 11.5 -13.833 16.5 -23.5zM255.5 124.499c16.333 15.667 32.832 41 49.499 76s31.334 80.167 44.001 135.5l13 56c-18 7.33301 -38 11 -60 11c-30.667 0 -55.167 -12.833 -73.5 -38.5s-32.5 -61.5 -42.5 -107.5c-7.33301 -36.667 -11 -66 -11 -88
c0 -45.333 12.333 -68 37 -68c12.667 0 27.167 7.83301 43.5 23.5zM199.499 530.499c-11.667 11.667 -17.499 27.167 -17.499 46.5c0 7.33301 1 15 3 23c9.33301 41.333 34 62 74 62c21.333 0 38 -5.33301 50 -16s18 -25.667 18 -45c0 -6.66699 -1 -14.667 -3 -24
c-4.66699 -20 -13.5 -35.667 -26.5 -47s-29.5 -17 -49.5 -17c-20.667 0 -36.834 5.83301 -48.501 17.5zM393.5 529.499c-11 11 -16.501 26.167 -16.501 45.5c0 3.33301 0.666992 10.333 2 21c7.33301 44 33.333 66 78 66c20.667 0 36.834 -5 48.501 -15
s17.5 -24.667 17.5 -44c0 -10 -0.666992 -17.667 -2 -23c-9.33301 -44.667 -35 -67 -77 -67c-22.667 0 -39.5 5.5 -50.5 16.5z" />
    <glyph glyph-name="aring" unicode="&#xe5;" horiz-adv-x="557" 
d="M522.5 82.5c5 -9.66699 8.16699 -18.835 9.5 -27.502c-41.333 -42.667 -87.333 -64 -138 -64c-29.333 0 -50.666 8.16699 -63.999 24.5s-20 36.833 -20 61.5c0 12.667 1.66699 25.667 5 39c4 16 12.333 41 25 75h-3c-22 -62.667 -50.5 -111.667 -85.5 -147
s-74.167 -53 -117.5 -53c-39.333 0 -68.166 13.167 -86.499 39.5s-27.5 61.5 -27.5 105.5c0 26.667 3 54.334 9 83.001c14.667 73.333 46.667 133 96 179s113.333 69 192 69c35.333 0 65 -4.66699 89 -14c34.667 3.33301 63 8 85 14
c7.33301 -4.66699 12.833 -10.5 16.5 -17.5s5.5 -16.167 5.5 -27.5c0 -12 -2 -27.667 -6 -47l-48 -207c-6.66699 -29.333 -10 -50.666 -10 -63.999c0 -8 1.16699 -13.333 3.5 -16s6.16602 -4 11.499 -4c6 0 12.167 1.66699 18.5 5s14.166 9 23.499 17
c6 -6 11.5 -13.833 16.5 -23.5zM255.5 124.499c16.333 15.667 32.832 41 49.499 76s31.334 80.167 44.001 135.5l13 56c-18 7.33301 -38 11 -60 11c-30.667 0 -55.167 -12.833 -73.5 -38.5s-32.5 -61.5 -42.5 -107.5c-7.33301 -36.667 -11 -66 -11 -88
c0 -45.333 12.333 -68 37 -68c12.667 0 27.167 7.83301 43.5 23.5zM265.499 543.999c-19 16 -28.498 36.666 -28.498 61.999c0 8 1 16 3 24c6.66699 28.667 21.5 50.834 44.5 66.501s51.833 23.5 86.5 23.5c35.333 0 62.666 -8.33301 81.999 -25s29 -37.667 29 -63
c0 -7.33301 -1 -15 -3 -23c-6.66699 -28 -21.334 -49.833 -44.001 -65.5s-51.667 -23.5 -87 -23.5c-36 0 -63.5 8 -82.5 24zM386.501 585.498c8.33301 10.333 12.502 24.5 12.502 42.5c0 13.333 -2.83301 24.333 -8.5 33s-13.834 13 -24.501 13
c-14 0 -25.167 -6.33301 -33.5 -19s-12.5 -27.667 -12.5 -45c0 -12.667 2.83301 -22.5 8.5 -29.5s14.167 -10.5 25.5 -10.5c13.333 0 24.166 5.16699 32.499 15.5z" />
    <glyph glyph-name="ae" unicode="&#xe6;" horiz-adv-x="706" 
d="M626 232.5c-44.667 -45 -103.332 -83.833 -175.999 -116.5c13.333 -21.333 33.333 -32 60 -32c17.333 0 35.666 3.83301 54.999 11.5s36 17.5 50 29.5c11.333 -15.333 17.666 -35 18.999 -59c-26 -23.333 -54.833 -41.666 -86.5 -54.999s-64.167 -20 -97.5 -20
c-64.667 0 -110 19.667 -136 59c-53.333 -39.333 -106.666 -59 -159.999 -59c-46 0 -79.667 14 -101 42s-32 65 -32 111c0 22 2.66699 47 8 75c16 76 48.667 136.333 98 181s112 67 188 67c46 0 88 -9 126 -27c34 18 72.333 27 115 27c43.333 0 77 -9.33301 101 -28
s36 -43.334 36 -74.001c0 -43.333 -22.333 -87.5 -67 -132.5zM292.002 114c-1.33301 13.333 -1.99902 24 -1.99902 32c0 23.333 3.33301 50.666 10 81.999c14.667 66.667 40 120.334 76 161.001c-21.333 9.33301 -42.333 14 -63 14c-35.333 0 -63.333 -12.167 -84 -36.5
s-36.334 -60.833 -47.001 -109.5c-6.66699 -28.667 -10 -54.667 -10 -78c0 -52.667 20.667 -79 62 -79c18 0 37.333 4.66699 58 14zM584.003 355c0 32 -13.668 48 -41.001 48c-25.333 0 -46.166 -12.5 -62.499 -37.5s-28.5 -56.5 -36.5 -94.5c-8 -36 -11 -69 -9 -99
c87.333 39.333 136.333 93 147 161c1.33301 10.667 2 18 2 22z" />
    <glyph glyph-name="ccedilla" unicode="&#xe7;" horiz-adv-x="425" 
d="M357 320c-8.66699 0 -17.999 1.00098 -27.999 3.00098l1 18c0 41.333 -15 62 -45 62c-24.667 0 -45.5 -12.5 -62.5 -37.5s-29.5 -59.5 -37.5 -103.5c-5.33301 -28.667 -8 -55 -8 -79c0 -68 25.667 -102 77 -102c38 0 75 14.333 111 43
c12 -15.333 18.333 -34.666 19 -57.999c-40.667 -38 -86.334 -61.333 -137.001 -70l-40 -46c40.667 -10.667 61 -36 61 -76c0 -8.66699 -1 -17.334 -3 -26.001c-6 -30 -24.167 -52.833 -54.5 -68.5s-70.166 -22.834 -119.499 -21.501c-2 4.66699 -3 10.667 -3 18
c0 6 1.33301 14.333 4 25c24 -0.666992 44 2.66602 60 9.99902s25.333 18 28 32c0.666992 2.66699 1 6 1 10c0 13.333 -5 23.5 -15 30.5s-23 10.5 -39 10.5c-6.66699 10 -10 20.667 -10 32c0 4.66699 0.333008 8.33398 1 11.001l50 55c-50 2.66699 -86.5 19.167 -109.5 49.5
s-34.5 69.5 -34.5 117.5c0 22.667 2.66699 48 8 76c14 66 42.667 121.167 86 165.5s104.666 66.5 183.999 66.5c23.333 0 45.5 -2.83301 66.5 -8.5s38.167 -13.167 51.5 -22.5c-12 -34.667 -19 -70.667 -21 -108c-14 -5.33301 -28 -8 -42 -8z" />
    <glyph glyph-name="egrave" unicode="&#xe8;" horiz-adv-x="451" 
d="M400.5 438.5c23.667 -19 35.502 -42.834 35.502 -71.501c0 -5.33301 -0.666992 -12.666 -2 -21.999c-4.66699 -25.333 -19.167 -49.666 -43.5 -72.999s-55.166 -42.833 -92.499 -58.5s-77.666 -24.5 -120.999 -26.5c-0.666992 -32.667 4.83301 -58.334 16.5 -77.001
s31.5 -28 59.5 -28c19.333 0 38.166 3.83301 56.499 11.5s35.166 18.167 50.499 31.5c12.667 -16.667 19 -36.334 19 -59.001c-27.333 -25.333 -56.333 -44.166 -87 -56.499s-66.334 -18.5 -107.001 -18.5c-56.667 0 -97.834 15.333 -123.501 46s-38.5 71 -38.5 121
c0 24 2.33301 47.333 7 70c10 50 27.833 93 53.5 129s57 63.333 94 82s76.833 28 119.5 28c45.333 0 79.833 -9.5 103.5 -28.5zM328.002 357.999c0 30.667 -14.333 46 -43 46c-22 0 -42 -12.333 -60 -37s-31.333 -61 -40 -109l-2 -12c38.667 3.33301 71 13 97 29
s41.333 36.667 46 62c1.33301 9.33301 2 16.333 2 21zM335.002 538.999c-7.33301 -2.66699 -17 -4.00098 -29 -4.00098c-14.667 0 -27.667 2 -39 6c-31.333 57.333 -67.333 110.333 -108 159c25.333 7.33301 51.333 11 78 11c18.667 0 36.667 -2 54 -6
c10 -57.333 24.667 -112.666 44 -165.999z" />
    <glyph glyph-name="eacute" unicode="&#xe9;" horiz-adv-x="451" 
d="M400.5 438.5c23.667 -19 35.502 -42.834 35.502 -71.501c0 -5.33301 -0.666992 -12.666 -2 -21.999c-4.66699 -25.333 -19.167 -49.666 -43.5 -72.999s-55.166 -42.833 -92.499 -58.5s-77.666 -24.5 -120.999 -26.5c-0.666992 -32.667 4.83301 -58.334 16.5 -77.001
s31.5 -28 59.5 -28c19.333 0 38.166 3.83301 56.499 11.5s35.166 18.167 50.499 31.5c12.667 -16.667 19 -36.334 19 -59.001c-27.333 -25.333 -56.333 -44.166 -87 -56.499s-66.334 -18.5 -107.001 -18.5c-56.667 0 -97.834 15.333 -123.501 46s-38.5 71 -38.5 121
c0 24 2.33301 47.333 7 70c10 50 27.833 93 53.5 129s57 63.333 94 82s76.833 28 119.5 28c45.333 0 79.833 -9.5 103.5 -28.5zM328.002 357.999c0 30.667 -14.333 46 -43 46c-22 0 -42 -12.333 -60 -37s-31.333 -61 -40 -109l-2 -12c38.667 3.33301 71 13 97 29
s41.333 36.667 46 62c1.33301 9.33301 2 16.333 2 21zM375.002 721.999c38 0 67.001 -6 87.001 -18c-61.333 -58 -114 -118 -158 -180c-24.667 2 -47.334 10 -68.001 24c19.333 30 36.833 60.667 52.5 92s27.167 57.333 34.5 78c16 2.66699 33.333 4 52 4z" />
    <glyph glyph-name="ecircumflex" unicode="&#xea;" horiz-adv-x="451" 
d="M400.5 438.5c23.667 -19 35.502 -42.834 35.502 -71.501c0 -5.33301 -0.666992 -12.666 -2 -21.999c-4.66699 -25.333 -19.167 -49.666 -43.5 -72.999s-55.166 -42.833 -92.499 -58.5s-77.666 -24.5 -120.999 -26.5c-0.666992 -32.667 4.83301 -58.334 16.5 -77.001
s31.5 -28 59.5 -28c19.333 0 38.166 3.83301 56.499 11.5s35.166 18.167 50.499 31.5c12.667 -16.667 19 -36.334 19 -59.001c-27.333 -25.333 -56.333 -44.166 -87 -56.499s-66.334 -18.5 -107.001 -18.5c-56.667 0 -97.834 15.333 -123.501 46s-38.5 71 -38.5 121
c0 24 2.33301 47.333 7 70c10 50 27.833 93 53.5 129s57 63.333 94 82s76.833 28 119.5 28c45.333 0 79.833 -9.5 103.5 -28.5zM328.002 357.999c0 30.667 -14.333 46 -43 46c-22 0 -42 -12.333 -60 -37s-31.333 -61 -40 -109l-2 -12c38.667 3.33301 71 13 97 29
s41.333 36.667 46 62c1.33301 9.33301 2 16.333 2 21zM140.502 545.499c-6.33301 11.667 -9.49805 22.5 -9.49805 32.5c30.667 19.333 61.667 41 93 65s58.666 47.333 81.999 70c3.33301 0.666992 9 1 17 1c15.333 0 31 -2.66699 47 -8c30 -44.667 69.667 -94.667 119 -150
c-6 -8 -14.5 -14.667 -25.5 -20s-23.167 -8.66602 -36.5 -9.99902c-38.667 31.333 -78.334 57.666 -119.001 78.999c-23.333 -11.333 -48 -25 -74 -41s-48.667 -31 -68 -45c-10.667 6 -19.167 14.833 -25.5 26.5z" />
    <glyph glyph-name="edieresis" unicode="&#xeb;" horiz-adv-x="451" 
d="M400.5 438.5c23.667 -19 35.502 -42.834 35.502 -71.501c0 -5.33301 -0.666992 -12.666 -2 -21.999c-4.66699 -25.333 -19.167 -49.666 -43.5 -72.999s-55.166 -42.833 -92.499 -58.5s-77.666 -24.5 -120.999 -26.5c-0.666992 -32.667 4.83301 -58.334 16.5 -77.001
s31.5 -28 59.5 -28c19.333 0 38.166 3.83301 56.499 11.5s35.166 18.167 50.499 31.5c12.667 -16.667 19 -36.334 19 -59.001c-27.333 -25.333 -56.333 -44.166 -87 -56.499s-66.334 -18.5 -107.001 -18.5c-56.667 0 -97.834 15.333 -123.501 46s-38.5 71 -38.5 121
c0 24 2.33301 47.333 7 70c10 50 27.833 93 53.5 129s57 63.333 94 82s76.833 28 119.5 28c45.333 0 79.833 -9.5 103.5 -28.5zM328.002 357.999c0 30.667 -14.333 46 -43 46c-22 0 -42 -12.333 -60 -37s-31.333 -61 -40 -109l-2 -12c38.667 3.33301 71 13 97 29
s41.333 36.667 46 62c1.33301 9.33301 2 16.333 2 21zM155.502 530.499c-11.667 11.667 -17.499 27.167 -17.499 46.5c0 7.33301 1 15 3 23c9.33301 41.333 34 62 74 62c21.333 0 38 -5.33301 50 -16s18 -25.667 18 -45c0 -6.66699 -1 -14.667 -3 -24
c-4.66699 -20 -13.5 -35.667 -26.5 -47s-29.5 -17 -49.5 -17c-20.667 0 -36.834 5.83301 -48.501 17.5zM349.503 529.499c-11 11 -16.501 26.167 -16.501 45.5c0 3.33301 0.666992 10.333 2 21c7.33301 44 33.333 66 78 66c20.667 0 36.834 -5 48.501 -15
s17.5 -24.667 17.5 -44c0 -10 -0.666992 -17.667 -2 -23c-9.33301 -44.667 -35 -67 -77 -67c-22.667 0 -39.5 5.5 -50.5 16.5z" />
    <glyph glyph-name="igrave" unicode="&#xec;" horiz-adv-x="302" 
d="M44 81c0 20.667 3.66797 45.668 11.001 75.001l29 114c8 33.333 12 54.666 12 63.999c0 13.333 -4.33301 22.166 -13 26.499s-24 6.5 -46 6.5c0 23.333 3.33301 43 10 59c29.333 1.33301 59.166 5.83301 89.499 13.5s57.833 16.834 82.5 27.501
c25.333 -11.333 38 -33.333 38 -66c0 -12.667 -2 -28.667 -6 -48l-45 -189c-6.66699 -27.333 -10 -47.333 -10 -60c0 -7.33301 1.16699 -12.333 3.5 -15s5.83301 -4 10.5 -4c11.333 0 25 7 41 21c6 -5.33301 11.5 -12.833 16.5 -22.5s8.16699 -19.167 9.5 -28.5
c-20.667 -21.333 -43.167 -37.333 -67.5 -48s-48.833 -16 -73.5 -16c-61.333 0 -92 30 -92 90zM227.001 539.001c-7.33301 -2.66699 -17 -4.00098 -29 -4.00098c-14.667 0 -27.667 2 -39 6c-31.333 57.333 -67.333 110.333 -108 159c25.333 7.33301 51.333 11 78 11
c18.667 0 36.667 -2 54 -6c10 -57.333 24.667 -112.666 44 -165.999z" />
    <glyph glyph-name="iacute" unicode="&#xed;" horiz-adv-x="302" 
d="M44 81c0 20.667 3.66797 45.668 11.001 75.001l29 114c8 33.333 12 54.666 12 63.999c0 13.333 -4.33301 22.166 -13 26.499s-24 6.5 -46 6.5c0 23.333 3.33301 43 10 59c29.333 1.33301 59.166 5.83301 89.499 13.5s57.833 16.834 82.5 27.501
c25.333 -11.333 38 -33.333 38 -66c0 -12.667 -2 -28.667 -6 -48l-45 -189c-6.66699 -27.333 -10 -47.333 -10 -60c0 -7.33301 1.16699 -12.333 3.5 -15s5.83301 -4 10.5 -4c11.333 0 25 7 41 21c6 -5.33301 11.5 -12.833 16.5 -22.5s8.16699 -19.167 9.5 -28.5
c-20.667 -21.333 -43.167 -37.333 -67.5 -48s-48.833 -16 -73.5 -16c-61.333 0 -92 30 -92 90zM267.001 722.001c38 0 67.001 -6 87.001 -18c-61.333 -58 -114 -118 -158 -180c-24.667 2 -47.334 10 -68.001 24c19.333 30 36.833 60.667 52.5 92s27.167 57.333 34.5 78
c16 2.66699 33.333 4 52 4z" />
    <glyph glyph-name="icircumflex" unicode="&#xee;" horiz-adv-x="302" 
d="M54 573c34.667 27.333 84.334 74.001 149.001 140.001c31.333 1.33301 53 0 65 -4c18 -35.333 48 -90.333 90 -165c-8.66699 -6.66699 -20.167 -11.834 -34.5 -15.501s-27.5 -5.16699 -39.5 -4.5l-41 45.5c-14 15 -27.333 27.5 -40 37.5
c-40.667 -32 -75.334 -63 -104.001 -93c-23.333 14 -38.333 33.667 -45 59zM44 81.001c0 20.667 3.66797 45.668 11.001 75.001l29 114c8 33.333 12 54.666 12 63.999c0 13.333 -4.33301 22.166 -13 26.499s-24 6.5 -46 6.5c0 23.333 3.33301 43 10 59
c29.333 1.33301 59.166 5.83301 89.499 13.5s57.833 16.834 82.5 27.501c25.333 -11.333 38 -33.333 38 -66c0 -12.667 -2 -28.667 -6 -48l-45 -189c-6.66699 -27.333 -10 -47.333 -10 -60c0 -7.33301 1.16699 -12.333 3.5 -15s5.83301 -4 10.5 -4c11.333 0 25 7 41 21
c6 -5.33301 11.5 -12.833 16.5 -22.5s8.16699 -19.167 9.5 -28.5c-20.667 -21.333 -43.167 -37.333 -67.5 -48s-48.833 -16 -73.5 -16c-61.333 0 -92 30 -92 90z" />
    <glyph glyph-name="idieresis" unicode="&#xef;" horiz-adv-x="302" 
d="M45.5 535.5c-12.333 11.667 -18.501 26.832 -18.501 45.499c0 21.333 7.33301 39.833 22 55.5s35.667 23.5 63 23.5c22.667 0 40 -5.66699 52 -17s18 -26.666 18 -45.999c0 -9.33301 -0.666992 -16.666 -2 -21.999c-3.33301 -16.667 -13 -30.334 -29 -41.001
s-34.333 -16 -55 -16c-21.333 0 -38.166 5.83301 -50.499 17.5zM238.999 534.998c-12.667 11.333 -18.999 27.334 -18.999 48.001c0 4.66699 0.666992 11.667 2 21c3.33301 18 12.5 31.833 27.5 41.5s33.833 14.5 56.5 14.5c20.667 0 37.667 -5.83301 51 -17.5
s20 -26.834 20 -45.501c0 -21.333 -7 -39.833 -21 -55.5s-35.333 -23.5 -64 -23.5c-22.667 0 -40.334 5.66699 -53.001 17zM44 80.999c0 20.667 3.66797 45.668 11.001 75.001l29 114c8 33.333 12 54.666 12 63.999c0 13.333 -4.33301 22.166 -13 26.499s-24 6.5 -46 6.5
c0 23.333 3.33301 43 10 59c29.333 1.33301 59.166 5.83301 89.499 13.5s57.833 16.834 82.5 27.501c25.333 -11.333 38 -33.333 38 -66c0 -12.667 -2 -28.667 -6 -48l-45 -189c-6.66699 -27.333 -10 -47.333 -10 -60c0 -7.33301 1.16699 -12.333 3.5 -15
s5.83301 -4 10.5 -4c11.333 0 25 7 41 21c6 -5.33301 11.5 -12.833 16.5 -22.5s8.16699 -19.167 9.5 -28.5c-20.667 -21.333 -43.167 -37.333 -67.5 -48s-48.833 -16 -73.5 -16c-61.333 0 -92 30 -92 90z" />
    </font>
</defs>
</svg>
