<svg xmlns="http://www.w3.org/2000/svg">
<defs>
<font id="Vollkorn-Italic" horiz-adv-x="550" >
  <font-face 
    font-family="Vollkorn"
    font-weight="400"
    font-style="italic"
    font-stretch="normal"
    units-per-em="1000"
    panose-1="0 0 5 0 0 0 0 0 0 0"
    ascent="800"
    descent="-200"
    x-height="462"
    cap-height="679.004"
    bbox="-637 -455.001 1397 1077"
    underline-thickness="40"
    underline-position="-300"
    slope="-11"
    unicode-range="U+000D-U+1D550"
  />
<missing-glyph horiz-adv-x="453" 
d="M138 677h352l-132 -677h-352zM405 319v270h-270v-270h270zM145 579h70v-70h-70v70zM325 349h20v10h-10v10h-10v-20h-10v10h-20v20h-10v10h-10v-20h-10v10h-10v-10h-20v10h10v10h-10v10h10v20h-20v20h10v30h10v-40h10v20h10v10h-10v20h-20v10h-10v50h20v20h-20v20h10v-10
h10v10h30v-20h-10v10h-10v-20h10v-10h-10v-10h-20v-30h10v20h10v-30h10v50h10v20h10v-10h10v-10h-10v-10h-10v-50h-10v-10h10v-30h-10v-20h10v-20h20v-10h10v10h-10v50h10v10h-20v10h10v20h10v-10h10v-50h-10v-10h30v20h-10v20h10v10h20v20h10v-10h10v-10h-10v-10h-20v-40
h10v-20h10v-10h-10v-10h10v-10h20v-10h10v-10h-20v10h-20v-20h-30v10zM325 579h70v-70h-70v70zM205 519v50h-50v-50h50zM385 519v50h-50v-50h50zM165 559h30v-30h-30v30zM295 559h10v-10h-10v10zM345 559h30v-30h-30v30zM305 549h10v-10h-10v10zM325 489h-20v40h10v-30h40
v-10h-10v-10h-20v10zM285 519h10v-10h-10v10zM145 499h30v-10h20v10h20v-10h-10v-10h20v-10h-30v10h-40v-10h10v-10h-20v40zM385 479h-10v20h20v-30h-10v10zM275 479h10v-10h-10v10zM175 469h10v-10h-10v10zM175 449h20v10h30v-20h-10v10h-10v-10h-20v-10h-10v20zM385 439
h-10v10h10v10h10v-30h-10v10zM145 439h10v10h10v-20h-20v10zM205 439h10v-10h-10v10zM355 439h20v-10h-20v10zM185 429h20v-10h20v-10h-40v20zM145 419h30v-10h-30v10zM375 419h10v-10h-10v10zM225 409h10v-10h-10v10zM345 379v30h-30v-30h30zM365 409h10v-10h-10v10z
M385 409h10v-20h-10v20zM145 399h70v-70h-70v70zM325 399h10v-10h-10v10zM205 339v50h-50v-50h50zM225 389h10v-10h-10v10zM375 389h10v-10h-10v10zM165 379h30v-30h-30v30zM225 359h10v-20h10v20h10v10h10v-20h-10v-10h10v10h10v-20h-50v30zM285 359h10v-20h-10v20z

<glyph glyph-name="f_f" unicode="ff" horiz-adv-x="586" 
d="M183 577c26 35.333 56.1689 62.0039 90.502 80.0039s69.833 27 106.5 27c44.667 0 85.667 -12.333 123 -37c20.667 22 43.834 38.667 69.501 50s52.167 17 79.5 17c23.333 0 44.166 -2.33301 62.499 -7s32.166 -10.667 41.499 -18
c-15.333 -32.667 -24 -68.334 -26 -107.001c-11.333 -6.66699 -25.333 -9.33398 -42 -8.00098c-1.33301 33.333 -7.5 57.333 -18.5 72s-26.833 22 -47.5 22c-16.667 0 -30.667 -6 -42 -18s-22.166 -33.667 -32.499 -65s-21.166 -77 -32.499 -137h99
c0 -16 -2.33301 -29 -7 -39c-31.333 0 -65 -2.66699 -101 -8c-15.333 -96.667 -27.833 -168.667 -37.5 -216s-21.167 -92 -34.5 -134c-14 -46 -34.333 -88.833 -61 -128.5s-58.167 -71.667 -94.5 -96s-74.833 -36.5 -115.5 -36.5c-21.333 0 -39.333 3.16699 -54 9.5
s-29.334 15.166 -44.001 26.499c-34.667 -49.333 -74.334 -74 -119.001 -74c-31.333 0 -61 12 -89 36c-2 20 0.333008 40 7 60c33.333 -10.667 70.333 -16 111 -16c17.333 0 30.5 4.33301 39.5 13s17.667 28.667 26 60s17.833 82.666 28.5 153.999l53 344
c-30.667 4 -54.334 6 -71.001 6c0 15.333 3.66699 28.333 11 39h67c10 50.667 28 93.667 54 129zM456.002 579.004c-22 39.333 -53 58.999 -93 58.999c-33.333 0 -61.333 -16.167 -84 -48.5s-39.667 -79.5 -51 -141.5h188l1 6c7.33301 44.667 20.333 86.334 39 125.001z
M370.002 153.003c10 54.667 22.998 138 38.998 250c-33.333 4 -62.666 6 -87.999 6c-29.333 0 -63.333 -2.66699 -102 -8l-13 -70c-22.667 -122.667 -35.667 -193.667 -39 -213c-16 -96 -40 -176.333 -72 -241c20.667 -9.33301 47.334 -14 80.001 -14
c32 0 58 3.83301 78 11.5s36.5 21 49.5 40s23.833 45.5 32.5 79.5c13.333 51.333 25 104.333 35 159z" />
    <glyph glyph-name="f_f_i" unicode="ffi" horiz-adv-x="819" 
d="M505 646c42.667 45.333 97.0068 68.002 163.007 68.002c37.333 0 69 -3.16699 95 -9.5s49 -15.833 69 -28.5c-11.333 -30 -18 -61.333 -20 -94c-12.667 -7.33301 -32.334 -11 -59.001 -11c-13.333 0 -22.666 0.666992 -27.999 2c-1.33301 34 -7.83301 59 -19.5 75
s-29.5 24 -53.5 24c-24.667 0 -44.334 -6.16699 -59.001 -18.5s-27.667 -33.833 -39 -64.5s-24.333 -77.667 -39 -141h52c52 0 90.333 1.5 115 4.5s43.667 7.83301 57 14.5c13.333 -5.33301 23.166 -13.166 29.499 -23.499s9.5 -23.833 9.5 -40.5
c0 -18.667 -4 -42.667 -12 -72l-55 -193c-8 -28 -12 -47.333 -12 -58c0 -7.33301 1.33301 -12.333 4 -15s7 -4 13 -4c15.333 0 32.666 9.66699 51.999 29c10 -6.66699 16 -17.334 18 -32.001c-41.333 -44.667 -79.333 -67 -114 -67c-44 0 -66 24.333 -66 73
c0 19.333 3.66699 43 11 71l41 144c11.333 39.333 17 68 17 86c0 16.667 -5.16699 28.167 -15.5 34.5s-27.833 9.5 -52.5 9.5c-28.667 0 -62.334 -2.66699 -101.001 -8c-15.333 -96.667 -27.833 -168.667 -37.5 -216s-21.167 -92 -34.5 -134
c-14 -46 -34.333 -88.833 -61 -128.5s-58.167 -71.667 -94.5 -96s-74.833 -36.5 -115.5 -36.5c-21.333 0 -39.333 3.16699 -54 9.5s-29.334 15.166 -44.001 26.499c-34.667 -49.333 -74.334 -74 -119.001 -74c-31.333 0 -61 12 -89 36c-2 20 0.333008 40 7 60
c33.333 -10.667 70.333 -16 111 -16c17.333 0 30.5 4.33301 39.5 13s17.667 28.667 26 60s17.833 82.666 28.5 153.999l53 344c-30.667 4 -54.334 6 -71.001 6c0 15.333 3.66699 28.333 11 39h67c10 50.667 28 93.667 54 129s56.167 62 90.5 80s69.833 27 106.5 27
c45.333 0 87 -12.667 125 -38zM279.007 589.502c-22.667 -32.333 -39.667 -79.501 -51 -141.501h188c10 50.667 23.667 93.334 41 128.001c-22 41.333 -53.333 62 -94 62c-33.333 0 -61.333 -16.167 -84 -48.5zM219.007 401.001l-13.002 -70
c-22.667 -122.667 -35.667 -193.667 -39 -213c-16 -96 -40 -176.333 -72 -241c20.667 -9.33301 47.334 -14 80.001 -14c32 0 58 3.83301 78 11.5s36.5 21 49.5 40s23.833 45.5 32.5 79.5c13.333 51.333 25 104.333 35 159s23 138 39 250c-33.333 4 -62.666 6 -87.999 6
c-29.333 0 -63.333 -2.66699 -102 -8z" />
    <glyph glyph-name="f_f_l" unicode="ffl" horiz-adv-x="836" 
d="M183 577c26 35.333 56.1689 62.0039 90.502 80.0039s69.833 27 106.5 27c47.333 0 89.333 -13 126 -39c42 46 95 69 159 69c39.333 0 70.666 -6.33301 93.999 -19c14.667 4 26.334 9 35.001 15c15.333 -4.66699 23 -18 23 -40c0 -4 -0.666992 -12 -2 -24
c-19.333 -106.667 -46.333 -247.334 -81 -422.001c-12 -60.667 -18 -104 -18 -130c0 -12.667 1.5 -21.334 4.5 -26.001s7.5 -7 13.5 -7c14 0 31 9.66699 51 29c8.66699 -8 14.667 -18 18 -30c-16.667 -20 -35.167 -36.5 -55.5 -49.5s-39.5 -19.5 -57.5 -19.5
c-45.333 0 -68 25 -68 75c0 26 4.33301 64.167 13 114.5s32.334 171.166 71.001 362.499c4.66699 23.333 7 41.666 7 54.999c0 48.667 -22.667 73 -68 73c-20.667 0 -38.5 -6.16699 -53.5 -18.5s-28.667 -34.666 -41 -66.999s-23.833 -78.166 -34.5 -137.499h99
c0 -16 -2.33301 -29 -7 -39c-33.333 0 -67.333 -2.66699 -102 -8c-15.333 -96.667 -27.833 -168.667 -37.5 -216s-21.167 -92 -34.5 -134c-14 -46 -34.333 -88.833 -61 -128.5s-58.167 -71.667 -94.5 -96s-74.833 -36.5 -115.5 -36.5c-21.333 0 -39.333 3.16699 -54 9.5
s-29.334 15.166 -44.001 26.499c-34.667 -49.333 -74.334 -74 -119.001 -74c-31.333 0 -61 12 -89 36c-2 20 0.333008 40 7 60c33.333 -10.667 70.333 -16 111 -16c17.333 0 30.5 4.33301 39.5 13s17.667 28.667 26 60s17.833 82.666 28.5 153.999l53 344
c-30.667 4 -54.334 6 -71.001 6c0 15.333 3.66699 28.333 11 39h67c10 50.667 28 93.667 54 129zM458.002 575.004c-10.667 20 -24 35.5 -40 46.5s-34.333 16.5 -55 16.5c-33.333 0 -61.333 -16.167 -84 -48.5s-39.667 -79.5 -51 -141.5h189c9.33301 48 23 90.333 41 127z
M370.002 153.004c10 54.667 22.998 138 38.998 250c-33.333 4 -62.666 6 -87.999 6c-29.333 0 -63.333 -2.66699 -102 -8l-13 -70c-22.667 -122.667 -35.667 -193.667 -39 -213c-16 -96 -40 -176.333 -72 -241c20.667 -9.33301 47.334 -14 80.001 -14
c32 0 58 3.83301 78 11.5s36.5 21 49.5 40s23.833 45.5 32.5 79.5c13.333 51.333 25 104.333 35 159z" />
    <glyph glyph-name="f_f_t.liga" unicode="fft" horiz-adv-x="878" 
d="M711 113c0 -40 11.667 -59.9951 35 -59.9951c11.333 0 23.833 4.16699 37.5 12.5s25.834 19.166 36.501 32.499c4.66699 -2.66699 9 -7.16699 13 -13.5s6.66699 -12.5 8 -18.5c-15.333 -20 -35.166 -37.5 -59.499 -52.5s-48.833 -22.5 -73.5 -22.5
c-30.667 0 -53.5 8.33301 -68.5 25s-22.5 42.667 -22.5 78c0 26.667 4.66699 60.667 14 102l47 207c-18.667 4 -40 6 -64 6c0 15.333 3.66699 28.333 11 39h65c7.33301 33.333 12.333 58 15 74s4 31.333 4 46c0 43.333 -22.667 65 -68 65c-20.667 0 -38.667 -5 -54 -15
s-29 -28.5 -41 -55.5s-22.333 -65.167 -31 -114.5h79c0 -15.333 -3.33301 -28.333 -10 -39c-27.333 0 -53.333 -2.66699 -78 -8c-15.333 -96.667 -27.833 -168.667 -37.5 -216s-21.167 -92 -34.5 -134c-14 -46 -34.333 -88.833 -61 -128.5s-58.167 -71.667 -94.5 -96
s-74.833 -36.5 -115.5 -36.5c-21.333 0 -39.333 3.16699 -54 9.5s-29.334 15.166 -44.001 26.499c-34.667 -49.333 -74.334 -74 -119.001 -74c-31.333 0 -61 12 -89 36c-2 20 0.333008 40 7 60c33.333 -10.667 70.333 -16 111 -16c17.333 0 30.5 4.33301 39.5 13
s17.667 28.667 26 60s17.833 82.666 28.5 153.999l53 344c-30.667 4 -54.334 6 -71.001 6c0 15.333 3.66699 28.333 11 39h67c11.333 52.667 30.666 96 57.999 130s57.833 58.667 91.5 74s66.834 23 99.501 23c57.333 0 105.333 -13.667 144 -41c38.667 28 85 42 139 42
c34.667 0 66 -7.66699 94 -23c14.667 4 26.334 9 35.001 15c15.333 -4.66699 23 -18.334 23 -41.001c0 -4.66699 -0.666992 -12.334 -2 -23.001c-4.66699 -34.667 -14.667 -86.667 -30 -156h93c0 -16 -2.33301 -29 -7 -39c-34.667 0 -67 -2.33301 -97 -7l-47 -199
c-8 -34 -12 -64 -12 -90zM466 576.005c-23.333 35.333 -56.667 52.999 -100 52.999c-70 0 -116 -60.333 -138 -181h188c10 50.667 26.667 93.334 50 128.001zM369.999 153.004c10 54.667 22.998 138 38.998 250c-33.333 4 -62.666 6 -87.999 6
c-29.333 0 -63.333 -2.66699 -102 -8l-13 -70c-22.667 -122.667 -35.667 -193.667 -39 -213c-16 -96 -40 -176.333 -72 -241c20.667 -9.33301 47.334 -14 80.001 -14c32 0 58 3.83301 78 11.5s36.5 21 49.5 40s23.833 45.5 32.5 79.5c13.333 51.333 25 104.333 35 159z" />
    <glyph glyph-name="f_i.liga" unicode="fi" horiz-adv-x="527" 
d="M-143 -212c-2 20 0.338867 40.001 7.00586 60.001c33.333 -10.667 70.333 -16 111 -16c17.333 0 30.5 4.33301 39.5 13s17.667 28.667 26 60s17.833 82.666 28.5 153.999l18 131c10 82 20 153 30 213c-30.667 4 -54.334 6 -71.001 6c0 15.333 3.66699 28.333 11 39h67
c18 93.333 49.5 161 94.5 203s97.5 63 157.5 63c37.333 0 69 -3.16699 95 -9.5s49 -15.833 69 -28.5c-11.333 -30 -18 -61.333 -20 -94c-12.667 -7.33301 -32.334 -11 -59.001 -11c-13.333 0 -22.666 0.666992 -27.999 2c-1.33301 34 -7.83301 59 -19.5 75
s-29.5 24 -53.5 24c-24.667 0 -44.334 -6.16699 -59.001 -18.5s-27.667 -33.833 -39 -64.5s-24.333 -77.667 -39 -141h52c52 0 90.333 1.5 115 4.5s43.667 7.83301 57 14.5c13.333 -5.33301 23.166 -13.166 29.499 -23.499s9.5 -23.833 9.5 -40.5
c0 -18.667 -4 -42.667 -12 -72l-55 -193c-8 -28 -12 -47.333 -12 -58c0 -7.33301 1.33301 -12.333 4 -15s7 -4 13 -4c15.333 0 32.666 9.66699 51.999 29c10 -6.66699 16 -17.334 18 -32.001c-41.333 -44.667 -79.333 -67 -114 -67c-44 0 -66 24.333 -66 73
c0 19.333 3.66699 43 11 71l41 144c11.333 39.333 17 68 17 86c0 16.667 -5.16699 28.167 -15.5 34.5s-27.833 9.5 -52.5 9.5c-28.667 0 -62.334 -2.66699 -101.001 -8c-15.333 -83.333 -27.333 -156 -36 -218c-2.66699 -15.333 -4.83398 -28.333 -6.50098 -39
s-3.16699 -19.334 -4.5 -26.001c-18.667 -111.333 -47 -200.166 -85 -266.499s-83.333 -99.5 -136 -99.5c-31.333 0 -61 12 -89 36z" />
    <glyph glyph-name="f_j.liga" unicode="fj" horiz-adv-x="516" 
d="M426 74c-16 -82.667 -43.1641 -149.166 -81.4971 -199.499s-93.5 -91.5 -165.5 -123.5c-9.33301 8 -14.333 19 -15 33c47.333 33.333 84.333 71.833 111 115.5s45.334 94.167 56.001 151.5l49 263c4 18 6 33.333 6 46c0 18 -5.16699 30.667 -15.5 38s-28.833 11 -55.5 11
c-28.667 0 -62.334 -2.66699 -101.001 -8c-15.333 -83.333 -27.333 -156 -36 -218c-2.66699 -15.333 -4.83398 -28.333 -6.50098 -39s-3.16699 -19.334 -4.5 -26.001c-18.667 -111.333 -47 -200.166 -85 -266.499s-83.333 -99.5 -136 -99.5c-31.333 0 -61 12 -89 36
c-2 20 0.333008 40 7 60c33.333 -10.667 70.333 -16 111 -16c17.333 0 30.5 4.33301 39.5 13s17.667 28.667 26 60s17.833 82.666 28.5 153.999l18 131c10 82 20 153 30 213c-30.667 4 -54.334 6 -71.001 6c0 15.333 3.66699 28.333 11 39h67c18 93.333 49.5 161 94.5 203
s97.5 63 157.5 63c37.333 0 69 -3.16699 95 -9.5s49 -15.833 69 -28.5c-11.333 -30 -18 -61.333 -20 -94c-12.667 -7.33301 -32.334 -11 -59.001 -11c-13.333 0 -22.666 0.666992 -27.999 2c-1.33301 34 -7.83301 59 -19.5 75s-29.5 24 -53.5 24
c-24.667 0 -44.334 -6.16699 -59.001 -18.5s-27.667 -33.833 -39 -64.5s-24.333 -77.667 -39 -141h52c52 0 90.333 1.5 115 4.5s43.667 7.83301 57 14.5c26 -10.667 39 -32.667 39 -66c0 -6 -1.33301 -17.667 -4 -35z" />
    <glyph glyph-name="f_l.liga" unicode="fl" horiz-adv-x="543" 
d="M216.5 648.5c44.333 43.667 96.1689 65.5029 155.502 65.5029c39.333 0 70.666 -6.33301 93.999 -19c14.667 4 26.334 9 35.001 15c15.333 -4.66699 23 -18 23 -40c0 -4 -0.666992 -12 -2 -24c-19.333 -106.667 -46.333 -247.334 -81 -422.001
c-12 -60.667 -18 -104 -18 -130c0 -12.667 1.5 -21.334 4.5 -26.001s7.5 -7 13.5 -7c14 0 31 9.66699 51 29c8.66699 -8 14.667 -18 18 -30c-16.667 -20 -35.167 -36.5 -55.5 -49.5s-39.5 -19.5 -57.5 -19.5c-45.333 0 -68 25 -68 75c0 26 4.33301 64.167 13 114.5
s32.334 171.166 71.001 362.499c4.66699 23.333 7 41.666 7 54.999c0 48.667 -22.667 73 -68 73c-20.667 0 -38.5 -6.16699 -53.5 -18.5s-28.667 -34.666 -41 -66.999s-23.833 -78.166 -34.5 -137.499h99c0 -16 -2.33301 -29 -7 -39c-31.333 0 -65 -2.66699 -101 -8
c-15.333 -83.333 -27.333 -156 -36 -218c-2.66699 -15.333 -4.83398 -28.333 -6.50098 -39s-3.16699 -19.334 -4.5 -26.001c-18.667 -111.333 -47 -200.166 -85 -266.499s-83.333 -99.5 -136 -99.5c-31.333 0 -61 12 -89 36c-2 20 0.333008 40 7 60
c33.333 -10.667 70.333 -16 111 -16c17.333 0 30.5 4.33301 39.5 13s17.667 28.667 26 60s17.833 82.666 28.5 153.999l18 131c10 82 20 153 30 213c-30.667 4 -54.334 6 -71.001 6c0 15.333 3.66699 28.333 11 39h67c17.333 90 48.166 156.833 92.499 200.5z" />
    <glyph glyph-name="f_t.liga" unicode="ft" horiz-adv-x="586" 
d="M463 653c14.667 4 26.333 9.00488 35 15.0049c15.333 -4.66699 23 -18.334 23 -41.001c0 -4.66699 -0.666992 -12.334 -2 -23.001c-4.66699 -34.667 -14.667 -86.667 -30 -156h93c0 -16 -2.33301 -29 -7 -39c-34 0 -66.333 -2.33301 -97 -7l-47 -199
c-8 -34 -12 -64 -12 -90c0 -40 11.667 -60 35 -60c11.333 0 23.833 4.16699 37.5 12.5s25.834 19.166 36.501 32.499c4.66699 -2.66699 9 -7.16699 13 -13.5s6.66699 -12.5 8 -18.5c-15.333 -20 -35.166 -37.5 -59.499 -52.5s-48.833 -22.5 -73.5 -22.5
c-30.667 0 -53.5 8.33301 -68.5 25s-22.5 42.667 -22.5 78c0 26.667 4.66699 60.667 14 102l47 207c-18.667 4 -40 6 -64 6c0 15.333 3.66699 28.333 11 39h65c7.33301 33.333 12.333 58 15 74s4 31.333 4 46c0 43.333 -22.667 65 -68 65c-20.667 0 -38.667 -5 -54 -15
s-29 -28.5 -41 -55.5s-22.333 -65.167 -31 -114.5h79c0 -15.333 -3.33301 -28.333 -10 -39c-27.333 0 -53.333 -2.66699 -78 -8c-15.333 -83.333 -27.333 -156 -36 -218c-2.66699 -15.333 -4.83398 -28.333 -6.50098 -39s-3.16699 -19.334 -4.5 -26.001
c-18.667 -111.333 -47 -200.166 -85 -266.499s-83.333 -99.5 -136 -99.5c-31.333 0 -61 12 -89 36c-2 20 0.333008 40 7 60c33.333 -10.667 70.333 -16 111 -16c17.333 0 30.5 4.33301 39.5 13s17.667 28.667 26 60s17.833 82.666 28.5 153.999l18 131c10 82 20 153 30 213
c-30.667 4 -54.334 6 -71.001 6c0 15.333 3.66699 28.333 11 39h67c14.667 77.333 44.167 134.666 88.5 171.999s96.5 56 156.5 56c34.667 0 66 -7.66699 94 -23z" />
    <glyph glyph-name="longs_t.liga" unicode="&#x17f;t" horiz-adv-x="586" 
d="M463 653c14.667 4 26.332 9.00391 34.999 15.0039c15.333 -4.66699 23 -18.334 23 -41.001c0 -4.66699 -0.666992 -12.334 -2 -23.001c-4.66699 -34.667 -14.667 -86.667 -30 -156h93c0 -16 -2.33301 -29 -7 -39c-34 0 -66.333 -2.33301 -97 -7l-47 -199
c-8 -34 -12 -64 -12 -90c0 -40 11.667 -60 35 -60c11.333 0 23.833 4.16699 37.5 12.5s25.834 19.166 36.501 32.499c4.66699 -2.66699 9 -7.16699 13 -13.5s6.66699 -12.5 8 -18.5c-15.333 -20 -35.166 -37.5 -59.499 -52.5s-48.833 -22.5 -73.5 -22.5
c-30.667 0 -53.5 8.33301 -68.5 25s-22.5 42.667 -22.5 78c0 26.667 4.66699 60.667 14 102l47 207c-18.667 4 -40 6 -64 6c0 15.333 3.66699 28.333 11 39h65c7.33301 33.333 12.333 58 15 74s4 31.333 4 46c0 43.333 -22.667 65 -68 65c-20.667 0 -38.667 -5 -54 -15
s-29 -28.5 -41 -55.5s-22.333 -65.167 -31 -114.5c-16.667 -86 -32 -176 -46 -270l-10 -60c-18.667 -111.333 -47 -200.166 -85 -266.499s-83.333 -99.5 -136 -99.5c-31.333 0 -61 12 -89 36c-2 20 0.333008 40 7 60c33.333 -10.667 70.333 -16 111 -16
c17.333 0 30.5 4.33301 39.5 13s17.667 28.667 26 60s17.833 82.666 28.5 153.999l18 131c10 82 20 153 30 213c-30.667 4 -54.334 6 -71.001 6c0 15.333 3.66699 28.333 11 39h67c14.667 77.333 44.167 134.666 88.5 171.999s96.5 56 156.5 56c34.667 0 66 -7.66699 94 -23
z" />
    <glyph glyph-name="longs_h.liga" unicode="&#x17f;h" horiz-adv-x="791" 
d="M758 58c-22.667 -22.667 -43.166 -39.502 -61.499 -50.502s-36.166 -16.5 -53.499 -16.5c-22.667 0 -38.834 5 -48.501 15s-14.5 25.333 -14.5 46c0 19.333 5.33301 52.666 16 99.999l27 119c7.33301 32 11 58.333 11 79c0 29.333 -8.66699 44 -26 44
s-38.166 -11.5 -62.499 -34.5s-47.166 -54.667 -68.499 -95s-36.666 -85.166 -45.999 -134.499l-23 -130h-91l96 543c4 20 6 38 6 54c0 24 -5.33301 42.333 -16 55s-27.667 19 -51 19c-20.667 0 -38.5 -6.16699 -53.5 -18.5s-28.667 -34.666 -41 -66.999
s-23.833 -78.166 -34.5 -137.499l-27 -160l-12 -73c-4.66699 -28 -10.334 -60.333 -17.001 -97c-18.667 -111.333 -47 -200.166 -85 -266.499s-83.333 -99.5 -136 -99.5c-31.333 0 -61 12 -89 36c-2 20 0.333008 40 7 60c33.333 -10.667 70.333 -16 111 -16
c17.333 0 30.5 4.33301 39.5 13s17.667 28.667 26 60s17.833 82.666 28.5 153.999l18 131c10 82 20 153 30 213c-30.667 4 -54.334 6 -71.001 6c0 15.333 3.66699 28.333 11 39h67c17.333 90 48.166 156.833 92.499 200.5s96.166 65.5 155.499 65.5
c39.333 0 70.666 -6.33301 93.999 -19c14.667 4 26.334 9 35.001 15c15.333 -4.66699 23 -18 23 -40c0 -4 -0.666992 -12 -2 -24c-20 -113.333 -34.667 -191 -44 -233s-23.333 -92.333 -42 -151v-3l25 52c10.667 22.667 26.5 46.167 47.5 70.5s43.833 44.666 68.5 60.999
s48 24.5 70 24.5c21.333 0 40.166 -8.16699 56.499 -24.5s24.5 -44.166 24.5 -83.499c0 -26 -3.66699 -54 -11 -84l-29 -122c-10.667 -45.333 -16 -73 -16 -83c0 -4.66699 0.833008 -7.66699 2.5 -9s4.83398 -2 9.50098 -2c6.66699 0 15.667 3.16699 27 9.5s21 13.5 29 21.5
c9.33301 -9.33301 15.333 -20 18 -32z" />
    <glyph glyph-name="longs_i.liga" unicode="&#x17f;i" horiz-adv-x="533" 
d="M471 704.5c26 -6.33301 49 -15.832 69 -28.499c-11.333 -30 -18 -61.333 -20 -94c-12.667 -7.33301 -32.334 -11 -59.001 -11c-13.333 0 -22.666 0.666992 -27.999 2c-1.33301 34 -7.83301 59 -19.5 75s-29.5 24 -53.5 24c-24.667 0 -44.5 -6.16699 -59.5 -18.5
s-28.167 -34 -39.5 -65s-23.666 -77.833 -36.999 -140.5c-8 -36.667 -20 -103.334 -36 -200.001l-21 -130c-18.667 -111.333 -47 -200.166 -85 -266.499s-83.333 -99.5 -136 -99.5c-31.333 0 -61 12 -89 36c-2 20 0.333008 40 7 60c33.333 -10.667 70.333 -16 111 -16
c17.333 0 30.5 4.33301 39.5 13s17.667 28.667 26 60s17.833 82.666 28.5 153.999l18 131c10 82 20 153 30 213c-30.667 4 -54.334 6 -71.001 6c0 15.333 3.66699 28.333 11 39h67c18 93.333 49.5 161 94.5 203s97.5 63 157.5 63c37.333 0 69 -3.16699 95 -9.5zM320 64.001
c0 19.333 3.66992 42.999 11.0029 70.999l41 144c11.333 40 17 66.667 17 80c0 12 -4 19.833 -12 23.5s-23 5.5 -45 5.5c-0.666992 14.667 1.33301 27.334 6 38.001c15.333 2 35.166 7.33301 59.499 16s42.833 17 55.5 25c13.333 -5.33301 23.166 -13.166 29.499 -23.499
s9.5 -23.833 9.5 -40.5c0 -18.667 -4 -42.667 -12 -72l-55 -193c-8 -28 -12 -47.333 -12 -58c0 -7.33301 1.33301 -12.333 4 -15s7 -4 13 -4c15.333 0 32.666 9.66699 51.999 29c10 -6.66699 16 -17.334 18 -32.001c-41.333 -44.667 -79.333 -67 -114 -67
c-44 0 -66 24.333 -66 73z" />
    <glyph glyph-name="longs_longs.liga" unicode="&#x17f;&#x17f;" horiz-adv-x="576" 
d="M714.5 706.5c18.333 -5 32.1699 -10.832 41.5029 -17.499c-15.333 -32.667 -24 -68.334 -26 -107.001c-11.333 -6.66699 -25.333 -9.33398 -42 -8.00098c-1.33301 33.333 -7.33301 57.333 -18 72s-26.334 22 -47.001 22c-18 0 -32.667 -6.16699 -44 -18.5
s-21.666 -33.666 -30.999 -63.999s-20.333 -76.166 -33 -137.499c-8 -38.667 -19 -96.667 -33 -174c-8.66699 -52.667 -16.5 -95.167 -23.5 -127.5s-15.5 -63.833 -25.5 -94.5c-25.333 -76.667 -61 -139.5 -107 -188.5s-100 -73.5 -162 -73.5c-22 0 -40.333 3.16699 -55 9.5
s-29.334 15.166 -44.001 26.499c-34.667 -49.333 -74 -74 -118 -74c-32 0 -62 12 -90 36c-2 20 0.333008 40 7 60c33.333 -10.667 68.666 -16 105.999 -16c19.333 0 33.833 4.33301 43.5 13s18.5 28.5 26.5 59.5s17.667 82.5 29 154.5l15 98l38 246
c-30.667 4 -54.334 6 -71.001 6c0 15.333 3.66699 28.333 11 39h67c10 49.333 27.667 91.833 53 127.5s55.333 62.667 90 81s71 27.5 109 27.5c44 0 84.667 -12.333 122 -37c42 44.667 93 67 153 67c20.667 0 40.167 -2.5 58.5 -7.5zM278.004 589.001
c-22 -32.667 -38.668 -79.668 -50.001 -141.001l-17 -93c-23.333 -122.667 -38 -201.667 -44 -237c-8.66699 -50.667 -18.667 -94.834 -30 -132.501s-25.333 -73.834 -42 -108.501c20.667 -9.33301 48 -14 82 -14c32.667 0 58.5 3.83301 77.5 11.5s34.667 20.834 47 39.501
s23.5 45.334 33.5 80.001c20.667 72.667 45.334 209 74.001 409c-32 4 -55.667 6 -71 6c1.33301 15.333 5 28.333 11 39h67l1 6c7.33301 44.667 20.333 86.334 39 125.001c-22 39.333 -52.667 59 -92 59c-35.333 0 -64 -16.333 -86 -49z" />
    <glyph glyph-name="uni04070407.rlig" unicode="&#x407;&#x407;" horiz-adv-x="714" 
d="M150 750c-9.33301 8.66699 -14.001 19.667 -14.001 33c0 15.333 5.5 28.5 16.5 39.5s26.167 16.5 45.5 16.5c17.333 0 30 -4 38 -12s12 -19 12 -33c0 -6 -0.333008 -10.667 -1 -14c-2.66699 -12.667 -9.5 -23 -20.5 -31s-24.167 -12 -39.5 -12
s-27.666 4.33301 -36.999 13zM319.999 750.5c-8.66699 8.33301 -12.998 19.833 -12.998 34.5c0 17.333 5.5 30.666 16.5 39.999s25.833 14 44.5 14c15.333 0 27.666 -4.16699 36.999 -12.5s14 -19.166 14 -32.499c0 -4 -0.333008 -7.33301 -1 -10
c-6.66699 -30.667 -26.667 -46 -60 -46c-16.667 0 -29.334 4.16699 -38.001 12.5zM492.001 750c-9.33301 8.66699 -14.001 19.333 -14.001 32c0 16 5.33301 29.5 16 40.5s26 16.5 46 16.5c17.333 0 30 -4 38 -12s12 -19 12 -33c0 -6 -0.333008 -10.667 -1 -14
c-2.66699 -12.667 -9.5 -23 -20.5 -31s-24.167 -12 -39.5 -12s-27.666 4.33301 -36.999 13zM661.5 750.499c-9 8.33301 -13.499 19.499 -13.499 33.499c0 17.333 5.66699 30.833 17 40.5s26.333 14.5 45 14.5c15.333 0 27.666 -4.16699 36.999 -12.5s14 -19.166 14 -32.499
c0 -4 -0.333008 -7.33301 -1 -10c-6.66699 -30.667 -26.667 -46 -60 -46c-16.667 0 -29.5 4.16699 -38.5 12.5zM193.001 582.998c0 18 -4.83398 30.5029 -14.501 37.5029s-26.167 12.167 -49.5 15.5c-1.33301 10.667 -2 19 -2 25c0 8 0.333008 14 1 18
c37.333 -2 77.333 -3 120 -3c41.333 0 82 1 122 3c-1.33301 -18 -4.33301 -32.333 -9 -43c-18 -3.33301 -31.667 -7.5 -41 -12.5s-16.833 -13.167 -22.5 -24.5s-10.5 -28 -14.5 -50l-73 -422c-2.66699 -13.333 -4 -26 -4 -38c0 -16.667 4.5 -28.334 13.5 -35.001
s25.5 -11.334 49.5 -14.001c2 -8 3 -17 3 -27c0 -7.33301 -0.333008 -12.666 -1 -15.999c-40 2 -80.333 3 -121 3c-46.667 0 -87 -1 -121 -3c0 16.667 2.66699 31 8 43c18.667 2 32.834 5.5 42.501 10.5s17.167 13.167 22.5 24.5s10 28.666 14 51.999l73 422
c2.66699 17.333 4 28.666 4 33.999zM550 583.001c0 18 -4.83398 30.5029 -14.501 37.5029s-26.167 12.167 -49.5 15.5c-1.33301 10.667 -2 19 -2 25c0 8 0.333008 14 1 18c37.333 -2 77.333 -3 120 -3c41.333 0 82 1 122 3c-1.33301 -18 -4.33301 -32.333 -9 -43
c-18 -3.33301 -31.667 -7.5 -41 -12.5s-16.833 -13.167 -22.5 -24.5s-10.5 -28 -14.5 -50l-73 -422c-2.66699 -13.333 -4 -26 -4 -38c0 -16.667 4.5 -28.334 13.5 -35.001s25.5 -11.334 49.5 -14.001c2 -8 3 -17 3 -27c0 -7.33301 -0.333008 -12.666 -1 -15.999
c-40 2 -80.333 3 -121 3c-46.667 0 -87 -1 -121 -3c0 16.667 2.66699 31 8 43c18.667 2 32.834 5.5 42.501 10.5s17.167 13.167 22.5 24.5s10 28.666 14 51.999l73 422c2.66699 17.333 4 28.666 4 33.999z" />
    <glyph glyph-name="uni04570457.rlig" unicode="&#x457;&#x457;" horiz-adv-x="494" 
d="M75 545.5c-8 9 -12 20.167 -12 33.5c0 3.33301 0.666992 9 2 17c6.66699 29.333 24.334 44 53.001 44c15.333 0 27.166 -4 35.499 -12s12.5 -18.667 12.5 -32c0 -18 -5.5 -33.167 -16.5 -45.5s-24.833 -18.5 -41.5 -18.5c-14 0 -25 4.5 -33 13.5zM208.5 545
c-8.33301 8 -12.501 19.001 -12.501 33.001c0 3.33301 0.666992 8.33301 2 15c6.66699 31.333 25.334 47 56.001 47c14 0 25.167 -3.5 33.5 -10.5s12.5 -17.5 12.5 -31.5c0 -6 -0.333008 -10.667 -1 -14c-2.66699 -16.667 -9 -29.334 -19 -38.001s-22.333 -13 -37 -13
s-26.167 4 -34.5 12zM342.999 545.501c-8 9 -12 20.167 -12 33.5c0 3.33301 0.666992 9 2 17c6.66699 29.333 24.334 44 53.001 44c15.333 0 27.166 -4 35.499 -12s12.5 -18.667 12.5 -32c0 -18 -5.5 -33.167 -16.5 -45.5s-24.833 -18.5 -41.5 -18.5c-14 0 -25 4.5 -33 13.5
zM476.499 545.001c-8.33301 8 -12.501 19.001 -12.501 33.001c0 3.33301 0.666992 8.33301 2 15c6.66699 31.333 25.334 47 56.001 47c14 0 25.167 -3.5 33.5 -10.5s12.5 -17.5 12.5 -31.5c0 -6 -0.333008 -10.667 -1 -14c-2.66699 -16.667 -9 -29.334 -19 -38.001
s-22.333 -13 -37 -13s-26.167 4 -34.5 12zM33.998 64.002c0 19.333 3.66992 42.999 11.0029 70.999l41 144c11.333 40 17 66.667 17 80c0 12 -4 19.833 -12 23.5s-23 5.5 -45 5.5c-0.666992 14.667 1.33301 27.334 6 38.001c15.333 2 35.166 7.33301 59.499 16
s42.833 17 55.5 25c13.333 -5.33301 23.166 -13.166 29.499 -23.499s9.5 -23.833 9.5 -40.5c0 -18.667 -4 -42.667 -12 -72l-55 -193c-8 -28 -12 -47.333 -12 -58c0 -7.33301 1.33301 -12.333 4 -15s7 -4 13 -4c15.333 0 32.666 9.66699 51.999 29
c10 -6.66699 16 -17.334 18 -32.001c-41.333 -44.667 -79.333 -67 -114 -67c-44 0 -66 24.333 -66 73zM281.001 64.001c0 19.333 3.66992 42.999 11.0029 70.999l41 144c11.333 40 17 66.667 17 80c0 12 -4 19.833 -12 23.5s-23 5.5 -45 5.5
c-0.666992 14.667 1.33301 27.334 6 38.001c15.333 2 35.166 7.33301 59.499 16s42.833 17 55.5 25c13.333 -5.33301 23.166 -13.166 29.499 -23.499s9.5 -23.833 9.5 -40.5c0 -18.667 -4 -42.667 -12 -72l-55 -193c-8 -28 -12 -47.333 -12 -58
c0 -7.33301 1.33301 -12.333 4 -15s7 -4 13 -4c15.333 0 32.666 9.66699 51.999 29c10 -6.66699 16 -17.334 18 -32.001c-41.333 -44.667 -79.333 -67 -114 -67c-44 0 -66 24.333 -66 73z" />
    <glyph glyph-name=".notdef" horiz-adv-x="453" 
d="M138 677h352l-132 -677h-352zM405 319v270h-270v-270h270zM145 579h70v-70h-70v70zM325 349h20v10h-10v10h-10v-20h-10v10h-20v20h-10v10h-10v-20h-10v10h-10v-10h-20v10h10v10h-10v10h10v20h-20v20h10v30h10v-40h10v20h10v10h-10v20h-20v10h-10v50h20v20h-20v20h10v-10
h10v10h30v-20h-10v10h-10v-20h10v-10h-10v-10h-20v-30h10v20h10v-30h10v50h10v20h10v-10h10v-10h-10v-10h-10v-50h-10v-10h10v-30h-10v-20h10v-20h20v-10h10v10h-10v50h10v10h-20v10h10v20h10v-10h10v-50h-10v-10h30v20h-10v20h10v10h20v20h10v-10h10v-10h-10v-10h-20v-40
h10v-20h10v-10h-10v-10h10v-10h20v-10h10v-10h-20v10h-20v-20h-30v10zM325 579h70v-70h-70v70zM205 519v50h-50v-50h50zM385 519v50h-50v-50h50zM165 559h30v-30h-30v30zM295 559h10v-10h-10v10zM345 559h30v-30h-30v30zM305 549h10v-10h-10v10zM325 489h-20v40h10v-30h40
v-10h-10v-10h-20v10zM285 519h10v-10h-10v10zM145 499h30v-10h20v10h20v-10h-10v-10h20v-10h-30v10h-40v-10h10v-10h-20v40zM385 479h-10v20h20v-30h-10v10zM275 479h10v-10h-10v10zM175 469h10v-10h-10v10zM175 449h20v10h30v-20h-10v10h-10v-10h-20v-10h-10v20zM385 439
h-10v10h10v10h10v-30h-10v10zM145 439h10v10h10v-20h-20v10zM205 439h10v-10h-10v10zM355 439h20v-10h-20v10zM185 429h20v-10h20v-10h-40v20zM145 419h30v-10h-30v10zM375 419h10v-10h-10v10zM225 409h10v-10h-10v10zM345 379v30h-30v-30h30zM365 409h10v-10h-10v10z
M385 409h10v-20h-10v20zM145 399h70v-70h-70v70zM325 399h10v-10h-10v10zM205 339v50h-50v-50h50zM225 389h10v-10h-10v10zM375 389h10v-10h-10v10zM165 379h30v-30h-30v30zM225 359h10v-20h10v20h10v10h10v-20h-10v-10h10v10h10v-20h-50v30zM285 359h10v-20h-10v20z
M305 349h10v-20h-10v20zM355 339h10v-10h-10v10zM385 339h10v-10h-10v10zM184 227v3c-2.66699 0 -4 2 -4 6v32c0 2 -0.666992 3 -2 3c-2.66699 -1.33301 -6 -2 -10 -2v-3c3.33301 0 5 -1.33301 5 -4v-26c0 -2 -0.333008 -3.5 -1 -4.5s-2 -1.5 -4 -1.5v-3h16zM203 227v3
c-2.66699 0 -4 2 -4 6v32c0 2 -0.666992 3 -2 3c-2.66699 -1.33301 -6 -2 -10 -2v-3c3.33301 0 5 -1.33301 5 -4v-26c0 -4 -1.33301 -6 -4 -6v-3h15zM223 227v3c-2.66699 0 -4 2 -4 6v5l11 -14h9v3c-2 0 -4.5 2 -7.5 6s-5.16699 6.66699 -6.5 8c6 6 10.333 9 13 9v3h-14v-3
c2 0 3 -0.333008 3 -1c0 -1.33301 -2.66699 -4.33301 -8 -9v25c0 2 -0.666992 3 -2 3c-2.66699 -1.33301 -6 -2 -10 -2v-3c3.33301 0 5 -1.33301 5 -4v-26c0 -4 -1.33301 -6 -4 -6v-3h15zM119 227l8.99902 20.999c0.666992 0.666992 1.33398 1.83398 2.00098 3.50098
s1.66699 2.5 3 2.5v3h-12v-3c4 0 5 -2 3 -6l-5 -13l-4 10c-1.33301 4 -1.83301 6.5 -1.5 7.5s1.5 1.5 3.5 1.5v3h-16v-3c2 0 3.66699 -2 5 -6l9 -21h4zM160.999 230.999c2.66699 2.66699 4 6.33398 4 11.001s-1.33301 8.33398 -4 11.001s-6.33398 4 -11.001 4
s-8.33398 -1.33301 -11.001 -4s-4 -6.33398 -4 -11.001s1.33301 -8.33398 4 -11.001s6.33398 -4 11.001 -4s8.33398 1.33301 11.001 4zM266.999 230.999c2.66699 2.66699 4 6.33398 4 11.001s-1.33301 8.33398 -4 11.001s-6.33398 4 -11.001 4s-8.33398 -1.33301 -11.001 -4
s-4 -6.33398 -4 -11.001s1.33301 -8.33398 4 -11.001s6.33398 -4 11.001 -4s8.33398 1.33301 11.001 4zM292.999 226.999l0.000976562 2.99902c-2.66699 0 -4.33398 0.333008 -5.00098 1s-1 2.33398 -1 5.00098v5c0 2.66699 0.5 5 1.5 7s2.16699 3 3.5 3
c2 0 3 -1.33301 3 -4h4v9c-0.666992 0.666992 -2 1 -4 1c-3.33301 0 -6 -2.33301 -8 -7v3c0 2 -0.666992 3.33301 -2 4c-2.66699 -1.33301 -6 -2 -10 -2v-3c3.33301 0 5 -1.66699 5 -5v-11c0 -2 -0.333008 -3.5 -1 -4.5s-2 -1.5 -4 -1.5v-3h18zM318 226.998l-0.000976562 3
c-2.66699 0 -4 2 -4 6v6c0 7.33301 2.33301 11 7 11c3.33301 0 5 -2.66699 5 -8v-9c0 -4 -1.33301 -6 -4 -6v-3h15v3c-2.66699 0 -4 2 -4 6v10c0 7.33301 -3 11 -9 11c-5.33301 0 -8.66602 -2.33301 -9.99902 -7v3c0 2 -0.666992 3.33301 -2 4
c-2.66699 -1.33301 -5.66699 -2 -9 -2v-3c2.66699 0 4 -1.66699 4 -5v-11c0 -4 -1.33301 -6 -4 -6v-3h15zM142.999 241.998c0 7.33301 2.33301 11 7 11s7 -3.66699 7 -11s-2.33301 -11 -7 -11s-7 3.66699 -7 11zM248.999 241.998c0 7.33301 2.33301 11 7 11
s7 -3.66699 7 -11s-2.33301 -11 -7 -11s-7 3.66699 -7 11zM359.999 239.998v6h-18v-6h18zM230.999 162.998l0.000976562 2.99902c-2.66699 0 -4.33398 0.333008 -5.00098 1s-1 2.33398 -1 5.00098v17h7v3h-7c0 7.33301 1.33301 11 4 11c3.33301 0 5 -2 5 -6h4v8
c-1.33301 1.33301 -3.33301 2 -6 2c-4 0 -7.33301 -1.16699 -10 -3.5s-4 -5.83301 -4 -10.5v-1h-5v-3h5v-17c0 -4 -1.33301 -6 -4 -6v-3h17zM109 164.997l-0.999023 3l-4 -1c-2 0 -3 2 -3 6v16h7v3h-7v7c0 2 -0.666992 3 -2 3l-5 -3v-7h-5v-3h5v-18
c0 -5.33301 2.66699 -8 8 -8c3.33301 0 5.66602 0.666992 6.99902 2zM164.001 147.997l0.00195312 2.99902c-2.66699 0 -4.33398 0.333008 -5.00098 1s-1 2.33398 -1 5.00098v6h5c4.66699 0 8.5 1.5 11.5 4.5s4.5 6.83301 4.5 11.5c0 9.33301 -3.66699 14 -11 14
c-4.66699 0 -8 -2 -10 -6v3c0 1.33301 -0.333008 2.33301 -1 3c-2.66699 -1.33301 -6.33398 -2 -11.001 -2v-3c3.33301 0 5 -1.66699 5 -5v-26c0 -2 -0.333008 -3.5 -1 -4.5s-2 -1.5 -4 -1.5v-3h18zM209.003 166.996l-2.00195 3c-2 -2 -4.66699 -3 -8 -3
c-2 0 -3.83301 1 -5.5 3s-2.5 4.33301 -2.5 7h17l1 3c0 3.33301 -1.16699 6.33301 -3.5 9s-5.16602 4 -8.49902 4c-4 0 -7.33301 -1.5 -10 -4.5s-4 -6.5 -4 -10.5c0 -10 5 -15 15 -15c4.66699 0 8.33398 1.33301 11.001 4zM254.001 167.996
c0 -3.33301 0.666992 -4.99902 2 -4.99902l7 2v3c-1.33301 0 -2.16602 0.5 -2.49902 1.5s-0.5 2.16699 -0.5 3.5v7c0 8.66699 -3.66699 13 -11 13c-4 0 -7.66699 -1 -11 -3l1 -7h4c0 4 1.66699 6 5 6c2 0 3.33301 -0.833008 4 -2.5s1 -3.83398 1 -6.50098
c-11.333 -2 -17 -5.66699 -17 -11c0 -4 2.66699 -6 8 -6s8.66602 1.66699 9.99902 5zM291.001 166.997l-2 3c-2 -2 -4.33301 -3 -7 -3s-4.66699 1 -6 3s-2 4.66699 -2 8c0 7.33301 2 11 6 11c3.33301 0 5.33301 -2.33301 6 -7h4v8c-2 2 -5 3 -9 3s-7.33301 -1.5 -10 -4.5
s-4 -6.5 -4 -10.5c0 -10 4.66699 -15 14 -15c4 0 7.33301 1.33301 10 4zM321.001 166.997l-2.00195 3c-2 -2 -4.66699 -3 -8 -3c-2 0 -3.83301 1 -5.5 3s-2.5 4.33301 -2.5 7h17l1 3c0 3.33301 -1.16699 6.33301 -3.5 9s-5.16602 4 -8.49902 4c-4 0 -7.33301 -1.5 -10 -4.5
s-4 -6.5 -4 -10.5c0 -10 5 -15 15 -15c4.66699 0 8.33398 1.33301 11.001 4zM128.999 160.997l9 22c2 4 3.66699 6 5 6v3h-12v-3c4 0 5 -2.33301 3 -7l-4 -11l-5 12c-2 4 -1 6 3 6v3h-17v-3c2.66699 0 4.66699 -2 6 -6l9 -21c0 -0.666992 -0.666992 -2.16699 -2 -4.5
s-3.33301 -3.5 -6 -3.5l-5 1v-5c1.33301 -1.33301 3 -2 5 -2c4 0 7.66699 4.33301 11 13zM195.999 188.997c4 0 6 -2.66699 6 -8h-11c0 5.33301 1.66699 8 5 8zM307.999 188.997c4 0 6 -2.66699 6 -8h-11c0 5.33301 1.66699 8 5 8zM157.999 166.997v9c0 8 2.33301 12 7 12
c4 0 6 -3.33301 6 -10c0 -7.33301 -2.66699 -11 -8 -11h-5zM243.999 170.997c0 2.66699 3 4.66699 9 6c0 -6.66699 -2 -10 -6 -10c-2 0 -3 1.33301 -3 4zM114.999 102.997l-2 3c-2 -2 -4.33301 -3 -7 -3s-4.66699 1 -6 3s-2 4.66699 -2 8c0 7.33301 2 11 6 11
c3.33301 0 5.33301 -2.33301 6 -7h4v8c-2 2 -5 3 -9 3s-7.33301 -1.5 -10 -4.5s-4 -6.5 -4 -10.5c0 -10 4.66699 -15 14 -15c4 0 7.33301 1.33301 10 4zM144.999 102.997c2.66699 2.66699 4 6.33398 4 11.001s-1.33301 8.33398 -4 11.001s-6.33398 4 -11.001 4
s-8.33398 -1.33301 -11.001 -4s-4 -6.33398 -4 -11.001s1.33301 -8.33398 4 -11.001s6.33398 -4 11.001 -4s8.33398 1.33301 11.001 4zM188.999 124.997c3.33301 0 4.99805 -2.66699 4.99805 -8v-9c0 -4 -1.33301 -6 -4 -6v-3h15v3c-2.66699 0 -4 2 -4 6v10
c0 7.33301 -3 11 -9 11c-5.33301 0 -8.66602 -2 -9.99902 -6c-1.33301 4 -4.33301 6 -9 6c-5.33301 0 -8.66602 -2.33301 -9.99902 -7v3c0 2 -0.666992 3.33301 -2 4c-2.66699 -1.33301 -5.66699 -2 -9 -2v-3c2.66699 0 4 -1.66699 4 -5v-11c0 -4 -1.33301 -6 -4 -6v-3h15v3
c-2.66699 0 -4 2 -4 6v6c0 7.33301 2.33301 11 7 11c3.33301 0 5 -2.66699 5 -8v-9c0 -4 -1.33301 -6 -4 -6v-3h15v3c-2.66699 0 -4 2 -4 6v6c0 7.33301 2.33301 11 7 11zM126.997 113.997c0 7.33301 2.33301 11 7 11s7 -3.66699 7 -11s-2.33301 -11 -7 -11
s-7 3.66699 -7 11zM83.9971 103.997c0 3.33301 -1.66699 5 -5 5s-5 -1.66699 -5 -5s1.66699 -5 5 -5s5 1.66699 5 5z" />
    <glyph glyph-name="NULL" horiz-adv-x="0" 
 />
    <glyph glyph-name="nonmarkingreturn" unicode="&#xd;" horiz-adv-x="180" 
 />
    <glyph glyph-name="space" unicode=" " horiz-adv-x="180" 
 />
    <glyph glyph-name="exclam" unicode="!" horiz-adv-x="414" 
d="M291.5 457.5c-20.333 -81.667 -38.498 -159.165 -54.498 -232.498l-12 -1c-10.667 0 -21.334 2.33301 -32.001 7c19.333 158.667 32.666 308.667 39.999 450c15.333 3.33301 33 8.16602 53 14.499s35.667 12.5 47 18.5c12 -4.66699 18 -13 18 -25
c0 -6 -1.66699 -15 -5 -27c-16 -54.667 -34.167 -122.834 -54.5 -204.501zM141.002 5.00195c-9.33301 8.66699 -14.002 20.334 -14.002 35.001c0 17.333 5.5 32.166 16.5 44.499s24.833 18.5 41.5 18.5c14 0 25.5 -4.5 34.5 -13.5s13.5 -20.833 13.5 -35.5
c0 -6 -0.333008 -10.333 -1 -13c-3.33301 -15.333 -9.66602 -27.333 -18.999 -36s-21 -13 -35 -13c-15.333 0 -27.666 4.33301 -36.999 13z" />
    <glyph glyph-name="quotedbl" unicode="&#x22;" horiz-adv-x="333" 
d="M225 686c0 -5.33301 -1 -11 -3 -17c-17.333 -52.667 -35 -116.667 -53 -192c-17.333 0 -31 3.33301 -41 10c12 75.333 19.333 144 22 206c8.66699 1.33301 18.667 4 30 8s20.333 8.33301 27 13c12 -4.66699 18 -14 18 -28zM361 686c0 -5.33301 -1 -11 -3 -17
c-17.333 -52.667 -35 -116.667 -53 -192c-17.333 0 -31 3.33301 -41 10c12 75.333 19.333 144 22 206c8.66699 1.33301 18.667 4 30 8s20.333 8.33301 27 13c12 -4.66699 18 -14 18 -28z" />
    <glyph glyph-name="numbersign" unicode="#" horiz-adv-x="592" 
d="M468 443l-38 -180h109c0 -10.667 -0.833008 -19.334 -2.5 -26.001s-4.83398 -14.334 -9.50098 -23.001h-97h-10l-47 -222c-11.333 2 -20.166 4.66699 -26.499 8s-12.166 8 -17.499 14l43 200c-78 0 -131.333 -0.333008 -160 -1l-47 -221
c-20.667 2.66699 -35 11.334 -43 26.001l41 195l-114 -1c0 17.333 4 34.333 12 51h113l38 179c-50 0 -86.667 -0.333008 -110 -1c0 18.667 4 35.667 12 51h109l47 222c20 -3.33301 34.333 -10.666 43 -21.999l-42 -200h160l47 222c20 -4 34.333 -10.667 43 -20l-43 -202h103
c0 -10.667 -0.833008 -19.5 -2.5 -26.5s-4.83398 -14.5 -9.50098 -22.5h-66h-35zM420 443h-160l-38 -180h160z" />
    <glyph glyph-name="dollar" unicode="$" horiz-adv-x="460" 
d="M371.5 593c-10.333 20.667 -24.835 34.334 -43.502 41.001c-18 -85.333 -34.667 -168.333 -50 -249c34.667 -24.667 61.334 -44.834 80.001 -60.501s35 -35.167 49 -58.5s21 -49.666 21 -78.999c0 -10.667 -1 -22 -3 -34c-8.66699 -48 -33.167 -87 -73.5 -117
s-87.833 -45 -142.5 -45h-11l-15 -84c-22.667 1.33301 -38.334 7.66602 -47.001 18.999l13 69c-31.333 4 -58.5 11.667 -81.5 23s-44.833 26.333 -65.5 45c16.667 52 26.334 98.333 29.001 139c10 3.33301 20.333 5 31 5c8 0 15.667 -1 23 -3
c-0.666992 -7.33301 -1 -17.333 -1 -30c0 -38 6 -67.333 18 -88s31 -34.334 57 -41.001l50 264c-40.667 28.667 -72.167 56.5 -94.5 83.5s-33.5 61.167 -33.5 102.5c0 8 1.33301 21.333 4 40c8 45.333 29.833 81.333 65.5 108s81.5 40.667 137.5 42l12 63
c21.333 0 37.333 -6.33301 48 -19l-10 -46c48.667 -6 87.334 -21 116.001 -45c-7.33301 -47.333 -11 -90.333 -11 -129c-10 -4 -22.333 -6 -37 -6c-8 0 -14 0.333008 -18 1c-0.666992 38.667 -6.16699 68.334 -16.5 89.001zM171.998 523c0 -20.667 5.5 -39.5 16.5 -56.5
s26.833 -33.833 47.5 -50.5l43 223c-30 -2 -54 -10.833 -72 -26.5s-29.333 -39.5 -34 -71.5c-0.666992 -4 -1 -10 -1 -18zM309.498 223.5c-13.667 18.333 -33.167 36.833 -58.5 55.5c-12 -62 -26.667 -142 -44 -240h4c34 0 62.333 11.333 85 34s34 51.667 34 87
c0 24 -6.83301 45.167 -20.5 63.5z" />
    <glyph glyph-name="percent" unicode="%" horiz-adv-x="745" 
d="M132.5 7.5c-5.66699 7 -8.83105 14.5 -9.49805 22.5l519 655c19.333 -10 30.666 -23.667 33.999 -41l-265 -324.5l-257 -328.5c-8.66699 4 -15.834 9.5 -21.501 16.5zM126.003 395.5c-23.333 24.333 -35 57.498 -35 99.498c0 12.667 1.66699 28.334 5 47.001
c8 40.667 26.167 73.334 54.5 98.001s61.833 37 100.5 37s69 -11.833 91 -35.5s33 -56.167 33 -97.5c0 -13.333 -1.66699 -29.333 -5 -48c-8.66699 -41.333 -26.5 -74.5 -53.5 -99.5s-58.5 -37.5 -94.5 -37.5c-40.667 0 -72.667 12.167 -96 36.5zM272.503 425.998
c13.667 16.667 22.8311 38.666 27.498 65.999c3.33301 15.333 5 32.333 5 51c0 28.667 -5.5 51.167 -16.5 67.5s-26.833 24.5 -47.5 24.5c-17.333 0 -32.833 -8.16699 -46.5 -24.5s-23.167 -38.166 -28.5 -65.499c-3.33301 -20 -5 -36.333 -5 -49
c0 -29.333 5.83301 -52.5 17.5 -69.5s27.834 -25.5 48.501 -25.5c16.667 0 31.834 8.33301 45.501 25zM446 27.4971c-23.333 24.333 -35 57.498 -35 99.498c0 12.667 1.66699 28.334 5 47.001c8 40.667 26.167 73.334 54.5 98.001s61.833 37 100.5 37s69 -11.833 91 -35.5
s33 -56.167 33 -97.5c0 -13.333 -1.66699 -29.333 -5 -48c-8.66699 -41.333 -26.5 -74.5 -53.5 -99.5s-58.5 -37.5 -94.5 -37.5c-40.667 0 -72.667 12.167 -96 36.5zM592.5 57.9951c13.667 16.667 22.8311 38.666 27.498 65.999c3.33301 15.333 5 32.333 5 51
c0 28.667 -5.5 51.167 -16.5 67.5s-26.833 24.5 -47.5 24.5c-17.333 0 -32.833 -8.16699 -46.5 -24.5s-23.167 -38.166 -28.5 -65.499c-3.33301 -20 -5 -36.333 -5 -49c0 -29.333 5.83301 -52.5 17.5 -69.5s27.834 -25.5 48.501 -25.5c16.667 0 31.834 8.33301 45.501 25z
" />
    <glyph glyph-name="ampersand" unicode="&#x26;" horiz-adv-x="709" 
d="M645 58c-26 -44.667 -60.6689 -66.9951 -104.002 -66.9951c-19.333 0 -36.833 3.66699 -52.5 11s-34.5 23 -56.5 47c-66 -38.667 -132.667 -58 -200 -58c-71.333 0 -123.5 15.333 -156.5 46s-49.5 70.334 -49.5 119.001c0 16 1.33301 30.667 4 44
c8.66699 49.333 27.334 89.166 56.001 119.499s66 58.166 112 83.499c-20 46.667 -30 90.334 -30 131.001c0 16 1.66699 34 5 54c6 36 24.333 66.5 55 91.5s73.334 37.5 128.001 37.5c44.667 0 78.834 -10 102.501 -30s35.5 -45 35.5 -75
c0 -4.66699 -0.666992 -12.334 -2 -23.001c-6.66699 -33.333 -19.167 -61.333 -37.5 -84s-38.5 -40.5 -60.5 -53.5s-52.667 -28.833 -92 -47.5c17.333 -32.667 44.666 -77 81.999 -133c35.333 -53.333 67 -98.333 95 -135c33.333 36.667 54.333 77 63 121c4 20 6 37 6 51
c0 27.333 -6.33301 47 -19 59s-31 18.667 -55 20c-5.33301 11.333 -7.33301 23.666 -6 36.999c18 3.33301 37.5 9.16602 58.5 17.499s36.833 17.166 47.5 26.499c38.667 -14.667 58 -47 58 -97c0 -14 -2.33301 -34 -7 -60c-8 -39.333 -22.333 -76.5 -43 -111.5
s-46 -66.5 -76 -94.5c14.667 -16 26.834 -26.833 36.501 -32.5s19.167 -8.5 28.5 -8.5c8.66699 0 16.667 1.66699 24 5s14.666 9.66602 21.999 18.999c12 -6.66699 21.333 -16.667 28 -30zM249.998 559.005c0 -30.667 10.334 -68 31.001 -112
c35.333 19.333 63.666 39.5 84.999 60.5s35 46.833 41 77.5c2 9.33301 3 17.666 3 24.999c0 20.667 -6 36.334 -18 47.001s-28.333 16 -49 16c-24 0 -44 -7.66699 -60 -23s-26 -35.333 -30 -60c-2 -10 -3 -20.333 -3 -31zM404.999 80.0049
c-25.333 30.667 -58.999 76.667 -100.999 138c-34 50 -62.667 97 -86 141c-27.333 -18 -49.833 -39.167 -67.5 -63.5s-29.5 -54.166 -35.5 -89.499c-2 -10.667 -3 -21.667 -3 -33c0 -38.667 12.167 -70.334 36.5 -95.001s58.166 -37 101.499 -37c55.333 0 107 13 155 39z
" />
    <glyph glyph-name="quotesingle" unicode="'" horiz-adv-x="197" 
d="M225 686c0 -5.33301 -1 -11 -3 -17c-17.333 -52.667 -35 -116.667 -53 -192c-17.333 0 -31 3.33301 -41 10c12 75.333 19.333 144 22 206c8.66699 1.33301 18.667 4 30 8s20.333 8.33301 27 13c12 -4.66699 18 -14 18 -28z" />
    <glyph glyph-name="parenleft" unicode="(" horiz-adv-x="298" 
d="M219 531.5c-32.667 -70.333 -57.333 -154.168 -74 -251.501c-14.667 -88 -22 -166 -22 -234c0 -118 19.667 -221.333 59 -310c-6.66699 -5.33301 -14.667 -8 -24 -8l-10 1c-34 58.667 -59.833 121.5 -77.5 188.5s-26.5 134.833 -26.5 203.5c0 42.667 4.33301 89 13 139
c15.333 90 43 171.833 83 245.5s99.333 152.167 178 235.5c16 2 28 -2 36 -12c-57.333 -61.333 -102.333 -127.166 -135 -197.499z" />
    <glyph glyph-name="parenright" unicode=")" horiz-adv-x="295" 
d="M156.5 -33c-41 -76.667 -101.166 -155.999 -180.499 -237.999c-2.66699 -0.666992 -6.33398 -1 -11.001 -1c-10.667 0 -19 3 -25 9c61.333 75.333 108.833 150.833 142.5 226.5s59.167 164.5 76.5 266.5c12.667 70 19 137 19 201c0 108.667 -20.333 208.334 -61 299.001
c9.33301 8 20.333 11.667 33 11c70 -137.333 105 -267 105 -389c0 -38.667 -3.66699 -79.334 -11 -122.001c-17.333 -98.667 -46.5 -186.334 -87.5 -263.001z" />
    <glyph glyph-name="asterisk" unicode="*" horiz-adv-x="456" 
d="M296 678c-6 0 -10.332 -0.330078 -12.999 -0.99707c-2 -53.333 -6 -100.333 -12 -141c-43.333 31.333 -80.666 60.666 -111.999 87.999c-16.667 -12 -27.667 -31.333 -33 -58c50 -18.667 93.333 -37 130 -55c-46 -33.333 -85.667 -60 -119 -80
c6.66699 -21.333 21.667 -38 45 -50c30.667 39.333 61.667 74.666 93 105.999c18.667 -58 31.667 -103.667 39 -137c10.667 0.666992 21.667 3.5 33 8.5s20.666 11.167 27.999 18.5c-28 42.667 -52.333 83.667 -73 123c55.333 -1.33301 103.666 -3.33301 144.999 -6
c1.33301 8 2 14 2 18c0 19.333 -3.33301 35.666 -10 48.999c-45.333 -13.333 -92 -24 -140 -32c17.333 53.333 34.333 98.333 51 135c-15.333 9.33301 -33.333 14 -54 14z" />
    <glyph glyph-name="plus" unicode="+" 
d="M509 242l-208 -0.000976562l-42 -234c-6 -2 -12.333 -3 -19 -3c-14 0 -24.667 3.33301 -32 10l43 226c-57.333 0 -126 -0.666992 -206 -2c-1.33301 21.333 3 38.666 13 51.999h203l40 211c7.33301 3.33301 16 5 26 5c10.667 0 19.334 -1.66699 26.001 -5
c-15.333 -73.333 -29.333 -143.666 -42 -210.999h209c1.33301 -19.333 -2.33398 -35.666 -11.001 -48.999z" />
    <glyph glyph-name="comma" unicode="," horiz-adv-x="211" 
d="M133 49c0 -9.33301 -1.66895 -23.0029 -5.00195 -41.0029c-6 -31.333 -20.667 -64 -44 -98s-51.666 -64.333 -84.999 -91c-8 0 -14.833 2 -20.5 6s-10.167 9 -13.5 15c24.667 22.667 44.667 45.5 60 68.5s23 42.833 23 59.5c0 22.667 -14 37.334 -42 44.001
c0 10.667 1.33301 22.167 4 34.5s6.33398 21.833 11.001 28.5c14 0.666992 29.5 3.83398 46.5 9.50098s30.5 11.834 40.5 18.501c16.667 -9.33301 25 -27.333 25 -54z" />
    <glyph glyph-name="hyphen" unicode="-" horiz-adv-x="372" 
d="M63 293h272.999c-0.666992 -26 -5 -47.667 -13 -65c-108 0 -200.333 -1 -277 -3c2.66699 29.333 8.33398 52 17.001 68z" />
    <glyph glyph-name="period" unicode="." horiz-adv-x="187" 
d="M12.5 6.5c-11 11 -16.5029 25.167 -16.5029 42.5c0 21.333 6.66699 39.166 20 53.499s30 21.5 50 21.5c16.667 0 30.334 -5.66699 41.001 -17s16 -25.666 16 -42.999c0 -6.66699 -0.333008 -11.667 -1 -15c-3.33301 -18 -10.666 -32.333 -21.999 -43
s-25.666 -16 -42.999 -16c-18.667 0 -33.5 5.5 -44.5 16.5z" />
    <glyph glyph-name="slash" unicode="/" horiz-adv-x="288" 
d="M356 705c6 -4.66699 11.332 -10.667 15.999 -18c-133.333 -240.667 -255.666 -472.667 -366.999 -696c-10 2.66699 -18 6.16699 -24 10.5s-11.333 10.833 -16 19.5l367 696c10 -3.33301 18 -7.33301 24 -12z" />
    <glyph glyph-name="zero" unicode="0" horiz-adv-x="620" 
d="M163.5 18c-35.667 18 -63.165 43.6689 -82.498 77.002s-29 72 -29 116c0 17.333 2.33301 38.666 7 63.999c8.66699 46 26.667 86.5 54 121.5s61.333 62 102 81s84.667 28.5 132 28.5c70.667 0 126.5 -19 167.5 -57s61.5 -89.333 61.5 -154c0 -20 -2 -41 -6 -63
c-8.66699 -46.667 -26.334 -88.334 -53.001 -125.001s-59.667 -65.167 -99 -85.5s-82 -30.5 -128 -30.5c-48.667 0 -90.834 9 -126.501 27zM410.002 83.002c30 30 50.667 74.001 62 132.001c4.66699 23.333 7 46.666 7 69.999c0 53.333 -13.5 95.5 -40.5 126.5
s-63.833 46.5 -110.5 46.5c-44.667 0 -82.334 -14.833 -113.001 -44.5s-51 -71.167 -61 -124.5c-4 -24 -6 -46.333 -6 -67c0 -56 13.833 -100.667 41.5 -134s65.834 -50 114.501 -50c40.667 0 76 15 106 45z" />
    <glyph glyph-name="one" unicode="1" horiz-adv-x="377" 
d="M44 40c18.667 2 32.668 5.49902 42.001 10.499s16.666 13.167 21.999 24.5s10.333 28.666 15 51.999l47 246c2.66699 12.667 4 24.334 4 35.001c0 17.333 -4.83301 29.5 -14.5 36.5s-26.167 12.167 -49.5 15.5c-1.33301 10.667 -2 19 -2 25c0 8 0.333008 14 1 18
c36.667 -2 76 -3 118 -3c41.333 0 82 1 122 3c-1.33301 -18 -4.33301 -32.333 -9 -43c-18 -3.33301 -31.667 -7.66602 -41 -12.999s-16.833 -13.5 -22.5 -24.5s-10.5 -27.5 -14.5 -49.5l-47 -246c-3.33301 -18 -5 -31 -5 -39c0 -16 4.66699 -27.333 14 -34
s26 -11.334 50 -14.001c2 -8 3 -17 3 -27c0 -7.33301 -0.333008 -12.666 -1 -15.999c-40 2 -80.333 3 -121 3c-45.333 0 -85 -1 -119 -3c0 16.667 2.66699 31 8 43z" />
    <glyph glyph-name="two" unicode="2" horiz-adv-x="485" 
d="M117 460c-2 -44.667 -9.66992 -88.001 -23.0029 -130.001c12 -6 29.667 -9 53 -9c19.333 92.667 58.666 139 117.999 139c23.333 0 41.5 -6.5 54.5 -19.5s19.5 -31.167 19.5 -54.5c0 -30.667 -9.16699 -61.167 -27.5 -91.5s-45.5 -58.833 -81.5 -85.5l-221 -170
c-0.666992 -3.33301 -1 -8 -1 -14c0 -10.667 2.66699 -20 8 -28c45.333 2 105.333 3 180 3c34 0 69 -0.666992 105 -2c11.333 -0.666992 24.333 -1 39 -1s25.334 1.5 32.001 4.5s12.334 9.5 17.001 19.5c0 34.667 4.33301 75.667 13 123c-12 5.33301 -29.333 8 -52 8
c-6 -26 -12.667 -43.333 -20 -52s-18.333 -13 -33 -13c-9.33301 0 -17.333 0.333008 -24 1c-20 1.33301 -38.667 2 -56 2c-31.333 0 -55 -0.666992 -71 -2l43 34c24.667 20 42.334 34 53.001 42l63 48c43.333 33.333 74.833 62 94.5 86s31.834 50.333 36.501 79
c1.33301 10.667 2 18.334 2 23.001c0 34 -13.167 60.167 -39.5 78.5s-63.833 27.5 -112.5 27.5c-60.667 0 -117 -15.333 -169 -46z" />
    <glyph glyph-name="three" unicode="3" horiz-adv-x="482" 
d="M82 330c14 -7.33301 32.002 -10.335 54.002 -9.00195c19.333 92.667 59.333 139 120 139c22 0 39.333 -6.16699 52 -18.5s19 -30.166 19 -53.499c0 -4.66699 -0.666992 -13 -2 -25c-6.66699 -38.667 -25.334 -72.167 -56.001 -100.5s-72 -50.5 -124 -66.5
c-0.666992 -2.66699 -1 -6.33398 -1 -11.001c0 -13.333 3.66699 -23 11 -29c48 0 84 -9.5 108 -28.5s36 -45.167 36 -78.5c0 -6 -1.33301 -17 -4 -33c-8.66699 -42 -29.834 -75.667 -63.501 -101s-75.834 -38 -126.501 -38c-36 0 -64.333 5.66699 -85 17
c-13.333 -7.33301 -20.333 -19.666 -21 -36.999c22.667 -18.667 59.334 -28 110.001 -28c71.333 0 132.5 17.667 183.5 53s83.833 82.333 98.5 141c4.66699 16.667 7 34 7 52c0 37.333 -10.333 69 -31 95s-49 42 -85 48c44 23.333 76.833 47.333 98.5 72
s35.834 50.334 42.501 77.001c2.66699 10 4 21 4 33c0 32.667 -13.167 58.5 -39.5 77.5s-64.5 28.5 -114.5 28.5c-62.667 0 -118.334 -15.333 -167.001 -46c-2 -50 -10 -93.333 -24 -130z" />
    <glyph glyph-name="four" unicode="4" horiz-adv-x="529" 
d="M430 0l-79.999 -0.00195312l-28 -153c-28.667 -2 -55 -8 -79 -18c-7.33301 4.66699 -11 12.334 -11 23.001c0 4.66699 0.333008 8.66699 1 12l25 135l-198 -3c-8.66699 -0.666992 -20.334 -1 -35.001 -1c-11.333 14 -16.333 32.333 -15 55l385 456c18 0 33 -3 45 -9
l-75 -412h56c13.333 0 24 -5 32 -15c-11.333 -23.333 -19 -46.666 -23 -69.999zM274.001 77.998l24 137l16 83.5c4.66699 24.333 9.66699 44.833 15 61.5c-28 -38 -65.333 -84.5 -112 -139.5s-89 -102.5 -127 -142.5h184z" />
    <glyph glyph-name="five" unicode="5" horiz-adv-x="464" 
d="M88 218c60.667 -2.66699 108.83 -18.667 144.497 -48s53.5 -66.333 53.5 -111c0 -33.333 -8.5 -63.833 -25.5 -91.5s-40.333 -49.667 -70 -66s-63.167 -24.5 -100.5 -24.5c-34.667 0 -63.667 5.66699 -87 17c-11.333 -8.66699 -18 -21 -20 -37
c28 -18.667 64.333 -28 109 -28c46 0 89.333 8.83301 130 26.5s74.834 42.834 102.501 75.501s45.5 70.667 53.5 114c2.66699 12.667 4 26.667 4 42c0 58.667 -22.5 107.167 -67.5 145.5s-104.167 61.833 -177.5 70.5l31 102c46 3.33301 118.333 5 217 5
c17.333 0 29.333 6 36 18c2 45.333 8 84.666 18 117.999c-12 6 -29.667 9 -53 9c-3.33301 -16.667 -9.66602 -30 -18.999 -40s-25.666 -15 -48.999 -15c-74 0 -129.333 1 -166 3l-82 -257c0.666992 -12.667 6.66699 -22 18 -28z" />
    <glyph glyph-name="six" unicode="6" horiz-adv-x="537" 
d="M294 517c-54 -41.333 -92.3311 -94.668 -114.998 -160.001c20.667 14 40.667 23.833 60 29.5s40.666 8.5 63.999 8.5c52 0 93 -14.5 123 -43.5s45 -68.167 45 -117.5c0 -19.333 -1.66699 -36.666 -5 -51.999c-11.333 -57.333 -37 -103.5 -77 -138.5
s-87.333 -52.5 -142 -52.5c-58.667 0 -104.334 18.167 -137.001 54.5s-49 86.5 -49 150.5c0 27.333 3 56.333 9 87c13.333 68 40.833 128.167 82.5 180.5s93.5 93.5 155.5 123.5s128.667 47 200 51c3.33301 -5.33301 5 -12.333 5 -21c0 -6 -0.333008 -10.333 -1 -13
c-91.333 -16.667 -164 -45.667 -218 -87zM216.002 329.498c-16.667 -4.33301 -33.333 -11.168 -50 -20.501c-1.33301 -5.33301 -2.66602 -12 -3.99902 -20c-5.33301 -28.667 -8 -58 -8 -88c0 -51.333 9.16699 -91.5 27.5 -120.5s44.5 -43.5 78.5 -43.5
c27.333 0 51.5 11.667 72.5 35s34.833 54.333 41.5 93c3.33301 18.667 5 34.334 5 47.001c0 38 -9.33301 68.167 -28 90.5s-44.334 33.5 -77.001 33.5c-22 0 -41.333 -2.16699 -58 -6.5z" />
    <glyph glyph-name="seven" unicode="7" horiz-adv-x="464" 
d="M461 471c-72.667 -104.667 -123.667 -179.665 -153 -224.998s-51.333 -82 -66 -110c-18 -34.667 -30.833 -69.334 -38.5 -104.001s-13.5 -81.334 -17.5 -140.001c-13.333 -6.66699 -27.5 -16 -42.5 -28s-26.5 -23.333 -34.5 -34
c-10 1.33301 -17.167 6.16602 -21.5 14.499s-6.5 22.833 -6.5 43.5c0 34.667 7.83301 71.667 23.5 111s43.667 90.5 84 153.5s100.5 149.167 180.5 258.5h-132c-28.667 0 -49.667 -6.16699 -63 -18.5s-25.666 -36.166 -36.999 -71.499
c-22.667 -1.33301 -40.334 1.66699 -53.001 9c17.333 58 28.333 115.667 33 173c38 -2 98 -3 180 -3c51.333 0 101.333 1 150 3c8 -6 12.667 -16.667 14 -32z" />
    <glyph glyph-name="eight" unicode="8" horiz-adv-x="511" 
d="M443 421c-24.667 -25.333 -58 -48.667 -100 -70c30 -25.333 54.167 -52 72.5 -80s27.5 -59.667 27.5 -95c0 -12.667 -2.33301 -29 -7 -49c-12 -45.333 -36.5 -79.333 -73.5 -102s-82.833 -34 -137.5 -34c-58 0 -103.333 11.833 -136 35.5s-49 57.5 -49 101.5
c0 14.667 1.33301 28.334 4 41.001c8 36.667 24.333 67.667 49 93s63.667 51 117 77c-24.667 20 -44.5 40.833 -59.5 62.5s-22.5 46.834 -22.5 75.501c0 10 1.66699 22.333 5 37c9.33301 37.333 31.333 67.166 66 89.499s76.667 33.5 126 33.5
c50.667 0 89.167 -11.333 115.5 -34s39.5 -51.334 39.5 -86.001c0 -38.667 -12.333 -70.667 -37 -96zM393 512.999c0 26 -7.33203 45.5 -21.999 58.5s-33.334 19.5 -56.001 19.5c-22 0 -40.667 -5.66699 -56 -17s-26 -28.333 -32 -51c-2.66699 -8.66699 -4 -18 -4 -28
c0 -23.333 7.16699 -43.666 21.5 -60.999s34.5 -35.333 60.5 -54l2 -2c24 14 42.667 29 56 45s22.333 35.667 27 59c2 11.333 3 21.666 3 30.999zM346.001 157.999c0 29.333 -8.66602 55.668 -25.999 79.001s-42.666 48.333 -75.999 75
c-34.667 -18 -60.834 -38.167 -78.501 -60.5s-29.167 -48.833 -34.5 -79.5c-2 -12.667 -3 -24.334 -3 -35.001c0 -32.667 9.16699 -57.5 27.5 -74.5s44.166 -25.5 77.499 -25.5c58.667 0 94.667 28 108 84c3.33301 14.667 5 27 5 37z" />
    <glyph glyph-name="nine" unicode="9" horiz-adv-x="534" 
d="M432.5 452.5c32.333 -35.667 48.499 -84.833 48.499 -147.5c0 -23.333 -3.33301 -52.666 -10 -87.999c-14.667 -72.667 -42.834 -137.5 -84.501 -194.5s-93.667 -102.333 -156 -136s-131.166 -52.5 -206.499 -56.5c-4.66699 7.33301 -7 18.666 -7 33.999
c171.333 30 283.666 115 336.999 255c-19.333 -12 -38 -20.667 -56 -26s-37.667 -8 -59 -8c-55.333 0 -97.166 15.5 -125.499 46.5s-42.5 71.833 -42.5 122.5c0 22 2.33301 43.333 7 64c12.667 58.667 37.834 104.667 75.501 138s85.167 50 142.5 50
c58.667 0 104.167 -17.833 136.5 -53.5zM386.999 299.001c0 50.667 -9.33301 90.166 -28 118.499s-44 42.5 -76 42.5c-28.667 0 -53 -11.5 -73 -34.5s-33.667 -55.167 -41 -96.5c-3.33301 -20 -5 -37.667 -5 -53c0 -39.333 9 -71.166 27 -95.499s46 -36.5 84 -36.5
c32 0 63.667 8.33301 95 25l9 42c5.33301 28.667 8 58 8 88z" />
    <glyph glyph-name="colon" unicode=":" horiz-adv-x="189" 
d="M85 333c-9.33301 8.66699 -14.002 20.334 -14.002 35.001c0 17.333 5.5 32.166 16.5 44.499s24.833 18.5 41.5 18.5c14 0 25.5 -4.5 34.5 -13.5s13.5 -20.833 13.5 -35.5c0 -6 -0.333008 -10.333 -1 -13c-3.33301 -15.333 -9.66602 -27.333 -18.999 -36s-21 -13 -35 -13
c-15.333 0 -27.666 4.33301 -36.999 13zM25.998 37c-9.33301 8.66699 -14.002 20.334 -14.002 35.001c0 17.333 5.5 32.166 16.5 44.499s24.833 18.5 41.5 18.5c14 0 25.5 -4.5 34.5 -13.5s13.5 -20.833 13.5 -35.5c0 -6 -0.333008 -10.333 -1 -13
c-3.33301 -15.333 -9.66602 -27.333 -18.999 -36s-21 -13 -35 -13c-15.333 0 -27.666 4.33301 -36.999 13z" />
    <glyph glyph-name="semicolon" unicode=";" horiz-adv-x="211" 
d="M98 333c-9.33301 8.66699 -14.002 20.334 -14.002 35.001c0 17.333 5.5 32.166 16.5 44.499s24.833 18.5 41.5 18.5c14 0 25.5 -4.5 34.5 -13.5s13.5 -20.833 13.5 -35.5c0 -6 -0.333008 -10.333 -1 -13c-3.33301 -15.333 -9.66602 -27.333 -18.999 -36s-21 -13 -35 -13
c-15.333 0 -27.666 4.33301 -36.999 13zM132.998 49c0 -9.33301 -1.66895 -23.0029 -5.00195 -41.0029c-6 -31.333 -20.667 -64 -44 -98s-51.666 -64.333 -84.999 -91c-8 0 -14.833 2 -20.5 6s-10.167 9 -13.5 15c24.667 22.667 44.667 45.5 60 68.5s23 42.833 23 59.5
c0 22.667 -14 37.334 -42 44.001c0 10.667 1.33301 22.167 4 34.5s6.33398 21.833 11.001 28.5c14 0.666992 29.5 3.83398 46.5 9.50098s30.5 11.834 40.5 18.501c16.667 -9.33301 25 -27.333 25 -54z" />
    <glyph glyph-name="less" unicode="&#x3c;" 
d="M67 234c-1.33301 20.667 4 38.335 16 53.002l396 218c8 -3.33301 14.333 -8 19 -14s9 -14.667 13 -26l-389 -205l319 -193c0.666992 -8.66699 -0.833008 -17.834 -4.5 -27.501s-8.16699 -16.834 -13.5 -21.501c-121.333 79.333 -240 151.333 -356 216z" />
    <glyph glyph-name="equal" unicode="=" 
d="M80.5 340c2.33301 10 4.83203 17.333 7.49902 22h425c0 -20 -3.33301 -36 -10 -48c-52 0.666992 -118.667 1 -200 1c-91.333 0 -166.666 -0.666992 -225.999 -2c0 8 1.16699 17 3.5 27zM47.999 175c2 10.667 4.33301 18 7 22h427c0 -20.667 -3.33301 -37 -10 -49
c-52 0.666992 -119 1 -201 1c-92 0 -167.333 -0.666992 -226 -2c0 8 1 17.333 3 28z" />
    <glyph glyph-name="greater" unicode="&#x3e;" 
d="M494 277c0 -17.333 -5.66699 -33.667 -17 -49c-72.667 -34 -136.667 -65.5 -192 -94.5l-223 -119.5c-4.66699 8 -7 17.667 -7 29c0 8.66699 1.66699 18 5 28l380 188l-327 217c14.667 16 30.667 26 48 30z" />
    <glyph glyph-name="question" unicode="?" horiz-adv-x="521" 
d="M264.5 701c26.333 8.66699 54.1699 13 83.5029 13c43.333 0 77.5 -10.333 102.5 -31s37.5 -48.334 37.5 -83.001c0 -9.33301 -1 -19.666 -3 -30.999c-6 -27.333 -16.667 -51.166 -32 -71.499s-37 -43.833 -65 -70.5c-30.667 -28.667 -54.334 -54.167 -71.001 -76.5
s-28 -49.5 -34 -81.5c-3.33301 -13.333 -5 -30 -5 -50c0 -8.66699 0.333008 -14.667 1 -18c-9.33301 -5.33301 -20.333 -8 -33 -8c-6.66699 5.33301 -12.167 15.333 -16.5 30s-6.5 31.334 -6.5 50.001c0 14.667 1.33301 28.667 4 42c6 32 16.5 58.833 31.5 80.5
s35.833 46.5 62.5 74.5c20.667 20.667 36.667 38.667 48 54s18.666 32.666 21.999 51.999c2 10 3 19.667 3 29c0 20.667 -5.16699 37.167 -15.5 49.5s-25.5 18.5 -45.5 18.5c-22.667 0 -42.334 -10 -59.001 -30s-32 -53 -46 -99c-10.667 0 -19.167 0.666992 -25.5 2
s-12.5 4 -18.5 8c7.33301 25.333 12.5 45.666 15.5 60.999s5.16699 34 6.5 56c12.667 11.333 32.167 21.333 58.5 30zM184.004 5c-9.33301 8.66699 -14.002 20.334 -14.002 35.001c0 17.333 5.5 32.166 16.5 44.499s24.833 18.5 41.5 18.5c14 0 25.5 -4.5 34.5 -13.5
s13.5 -20.833 13.5 -35.5c0 -6 -0.333008 -10.333 -1 -13c-3.33301 -15.333 -9.66602 -27.333 -18.999 -36s-21 -13 -35 -13c-15.333 0 -27.666 4.33301 -36.999 13z" />
    <glyph glyph-name="at" unicode="@" horiz-adv-x="809" 
d="M456 63c0 26.667 6.33008 54.6748 18.9971 84.0078h-2c-23.333 -44.667 -51.166 -81.834 -83.499 -111.501s-65.166 -44.5 -98.499 -44.5c-26 0 -46 9.5 -60 28.5s-21 47.833 -21 86.5c0 25.333 3.66699 57.333 11 96c10 51.333 28 97 54 137s57.667 71.333 95 94
s77.333 34 120 34c19.333 0 38 -3 56 -9c24 0 43 3 57 9c4 -2 7.16699 -4.83301 9.5 -8.5s3.5 -9.83398 3.5 -18.501c0 -14.667 -3.66699 -37.667 -11 -69l-50 -224c-5.33301 -24.667 -8 -44.334 -8 -59.001c0 -10 1.66699 -16.5 5 -19.5s9 -4.5 17 -4.5
c40 0 75.667 20.5 107 61.5s52.333 94.833 63 161.5c4.66699 25.333 7 50.666 7 75.999c0 80.667 -24.833 143.5 -74.5 188.5s-117.834 67.5 -204.501 67.5c-60.667 0 -116.5 -14.5 -167.5 -43.5s-93.833 -69.833 -128.5 -122.5s-58 -113.334 -70 -182.001
c-6.66699 -35.333 -10 -70 -10 -104c0 -66 12.333 -123.333 37 -172s60.167 -86.167 106.5 -112.5s101.166 -39.5 164.499 -39.5c104 0 199 34.667 285 104c14.667 -2.66699 23.334 -11 26.001 -25c-39.333 -38.667 -86.166 -69 -140.499 -91s-116.166 -33 -185.499 -33
c-73.333 0 -136.833 14.5 -190.5 43.5s-94.834 70.333 -123.501 124s-43 116.5 -43 188.5c0 35.333 3.33301 70.666 10 105.999c13.333 79.333 40.833 149.166 82.5 209.499s93.667 107.166 156 140.499s130.5 50 204.5 50c65.333 0 121.833 -11.333 169.5 -34
s84.334 -55.5 110.001 -98.5s38.5 -94.167 38.5 -153.5c0 -24.667 -2.66699 -52.334 -8 -83.001c-10 -56.667 -28 -107.667 -54 -153s-57.5 -81.166 -94.5 -107.499s-76.167 -39.5 -117.5 -39.5c-45.333 0 -68 24 -68 72zM397.497 105.508
c21 22.333 41.832 53.501 62.499 93.501s37 85.667 49 137l17 70c-17.333 6.66699 -37.666 10 -60.999 10c-39.333 0 -71 -14.833 -95 -44.5s-41.333 -70.834 -52 -123.501c-8 -38 -12 -70.333 -12 -97c0 -26 3.5 -45.667 10.5 -59s17.167 -20 30.5 -20
c12.667 0 29.5 11.167 50.5 33.5z" />
    <glyph glyph-name="A" unicode="A" horiz-adv-x="687" 
d="M626 -3c-22 2 -59.001 3.00195 -111.001 3.00195c-49.333 0 -87.333 -1 -114 -3c0 17.333 2.66699 31.666 8 42.999c22.667 2.66699 38.5 7 47.5 13s13.5 16.333 13.5 31c0 9.33301 -2 22 -6 38c-9.33301 38 -17 70.333 -23 97c-106.667 0 -195.667 -1.33301 -267 -4
c-12 -21.333 -21.333 -37.333 -28 -48l-14 -24c-20 -34 -30 -58 -30 -72c0 -9.33301 3.5 -16.166 10.5 -20.499s18.5 -7.83301 34.5 -10.5c2.66699 -14 3.66699 -28.333 3 -43c-21.333 2 -52 3 -92 3c-37.333 0 -65.666 -1 -84.999 -3c0 17.333 2.66699 31.666 8 42.999
c18 5.33301 33.5 15.166 46.5 29.499s31.167 41.5 54.5 81.5l299 525c9.33301 4 22.333 6 39 6c51.333 -178.667 99.333 -362 144 -550c6 -24.667 11.667 -43 17 -55s11 -20.333 17 -25s14.333 -8.66699 25 -12c3.33301 -12 4.33301 -26.333 3 -43zM428.999 265.002
c-15.333 63.333 -31.334 123.998 -48.001 181.998c-10 34 -18 69 -24 105c-13.333 -27.333 -32.666 -64.666 -57.999 -111.999c-36.667 -69.333 -68.667 -127.666 -96 -174.999h226z" />
    <glyph glyph-name="B" unicode="B" horiz-adv-x="601" 
d="M510.5 415.5c-31 -27 -68.834 -43.5029 -113.501 -49.5029c112 -6 168 -54 168 -144c0 -15.333 -2 -32.666 -6 -51.999c-10.667 -52 -39.5 -93.333 -86.5 -124s-106.833 -46 -179.5 -46c-126 0 -215.333 -1 -268 -3c0.666992 16.667 3.33398 31 8.00098 43
c20.667 3.33301 36.167 8 46.5 14s18 15.333 23 28s9.83301 33 14.5 61l72 411c2 13.333 3 24 3 32c0 18.667 -4.83301 31.334 -14.5 38.001s-25.5 10.667 -47.5 12c-2 9.33301 -3 18.333 -3 27c0 6.66699 0.333008 12 1 16c30.667 -2 67.334 -3 110.001 -3
c16.667 0 41 0.666992 73 2l69 1c63.333 0 111.166 -10.167 143.499 -30.5s48.5 -52.5 48.5 -96.5c0 -13.333 -1.33301 -26.666 -4 -39.999c-7.33301 -37.333 -26.5 -69.5 -57.5 -96.5zM467.999 535.997c0 33.333 -11.1689 58.334 -33.502 75.001s-53.166 25 -92.499 25
c-16 0 -31.333 -2 -46 -6l-44 -254h29c52.667 0 94.334 11.167 125.001 33.5s50 53.166 58 92.499c2.66699 16 4 27.333 4 34zM455.997 215.998c0 40.667 -14.834 69.999 -44.501 87.999s-77.167 27 -142.5 27h-25l-34 -198c-3.33301 -21.333 -5 -36.333 -5 -45
c0 -19.333 5.5 -31.833 16.5 -37.5s31.5 -8.5 61.5 -8.5c42.667 0 79.334 11.333 110.001 34s49.667 52.334 57 89.001c4 19.333 6 36.333 6 51z" />
    <glyph glyph-name="C" unicode="C" horiz-adv-x="635" 
d="M633 475c-10 -3.33301 -19.9971 -4.99805 -29.9971 -4.99805c-8 0 -16 1 -24 3c2.66699 25.333 4 42.666 4 51.999c0 45.333 -10.167 76.5 -30.5 93.5s-50.833 25.5 -91.5 25.5c-55.333 0 -104 -13.667 -146 -41s-75.5 -64.5 -100.5 -111.5s-40.833 -99.833 -47.5 -158.5
c-2 -16 -3 -31.333 -3 -46c0 -68.667 17.167 -125 51.5 -169s85.166 -66 152.499 -66c70 0 136.667 19.333 200 58c9.33301 -9.33301 14.666 -22 15.999 -38c-75.333 -54 -156.333 -81 -243 -81c-60.667 0 -112.334 12.167 -155.001 36.5s-74.834 57.666 -96.501 99.999
s-32.5 90.833 -32.5 145.5c0 11.333 1.33301 29.666 4 54.999c10 79.333 35 145.833 75 199.5s88 93.334 144 119.001s114 38.5 174 38.5c41.333 0 78.333 -4.66699 111 -14s66.334 -24.333 101.001 -45c-14 -38 -25 -88.333 -33 -151z" />
    <glyph glyph-name="D" unicode="D" horiz-adv-x="735" 
d="M628 620.5c62.667 -39 93.999 -107.168 93.999 -204.501c0 -28 -3 -59 -9 -93c-20 -107.333 -67.833 -188 -143.5 -242s-172.5 -81 -290.5 -81h-3c-115.333 0 -199 -1 -251 -3c1.33301 16.667 4 31 8 43c20.667 2.66699 36.167 7 46.5 13s18.166 15.667 23.499 29
s10.333 33.666 15 60.999l72 411c2 12 3 22.333 3 31c0 18.667 -4.66699 31.334 -14 38.001s-25.666 11.334 -48.999 14.001c-2 8 -3 16.333 -3 25c0 8 0.333008 13.667 1 17c43.333 -2 89.333 -3 138 -3c14 0 35.667 0.666992 65 2l61 1
c94.667 0 173.334 -19.5 236.001 -58.5zM618.999 409.999c0 80 -23.167 137.668 -69.5 173.001s-107.166 53 -182.499 53c-22.667 0 -46.334 -2.66699 -71.001 -8l-85 -495c-3.33301 -20 -5 -34.333 -5 -43c0 -18 5.33301 -30 16 -36s31 -9 61 -9
c86 0 157.333 21.667 214 65s94 111.666 112 204.999c6.66699 33.333 10 65 10 95z" />
    <glyph glyph-name="E" unicode="E" horiz-adv-x="583" 
d="M296 631l-45.001 -267.003h56c42 0 72.167 5.66699 90.5 17s30.166 33 35.499 65c10 2 19 3 27 3c3.33301 0 10.333 -0.666992 21 -2c-9.33301 -37.333 -16.333 -74.333 -21 -111c-6 -39.333 -10 -77.666 -12 -114.999c-20.667 2 -36 6.33301 -46 13l1 17
c0 26 -7.16699 43.833 -21.5 53.5s-40.5 14.5 -78.5 14.5h-60l-30 -176c-3.33301 -21.333 -5 -37.333 -5 -48c0 -20.667 5.5 -34.167 16.5 -40.5s31.5 -9.5 61.5 -9.5h19c39.333 0 70.5 4.66699 93.5 14s41.167 22.5 54.5 39.5s28 41.5 44 73.5
c19.333 -3.33301 34.333 -10.666 45 -21.999c-24.667 -47.333 -42.667 -98.333 -54 -153c-39.333 2 -108.666 3 -207.999 3c-115.333 0 -199 -1 -251 -3c0 15.333 2.33301 29.666 7 42.999c20.667 2.66699 36 7 46 13s17.5 15.5 22.5 28.5s9.83301 33.5 14.5 61.5l69 397
c2.66699 14 4 27.333 4 40c0 19.333 -4.66699 32.833 -14 40.5s-25.666 12.834 -48.999 15.501c-1.33301 10.667 -2 19 -2 25c0 8 0.333008 14 1 18c52 -2 110.667 -3 176 -3c116.667 0 209.334 1 278.001 3c-5.33301 -40.667 -8 -83 -8 -127
c0 -16.667 0.333008 -28.667 1 -36c-12.667 -5.33301 -29.334 -7.66602 -50.001 -6.99902c-1.33301 32.667 -5 57.167 -11 73.5s-18.833 28.5 -38.5 36.5s-50.5 12 -92.5 12h-87z" />
    <glyph glyph-name="F" unicode="F" horiz-adv-x="539" 
d="M568 552c0 -16.667 0.332031 -28.667 0.999023 -36c-12.667 -5.33301 -29.334 -7.66602 -50.001 -6.99902c-1.33301 32.667 -5 57.167 -11 73.5s-18.833 28.5 -38.5 36.5s-50.5 12 -92.5 12h-82l-49 -289h58c42 0 72.167 5.83301 90.5 17.5s30.166 33.834 35.499 66.501
c10 2 19 3 27 3c3.33301 0 10.333 -0.666992 21 -2c-9.33301 -37.333 -16.333 -74.333 -21 -111c-6 -39.333 -10 -77.666 -12 -114.999c-20.667 2 -36 6.33301 -46 13l1 17c0 26 -7.16699 43.833 -21.5 53.5s-40.5 14.5 -78.5 14.5h-61l-27 -157c-4 -20 -6 -36.333 -6 -49
c0 -17.333 5.16699 -29.333 15.5 -36s30.833 -12.334 61.5 -17.001c3.33301 -10 4.33301 -24.333 3 -43c-33.333 2 -75.666 3 -126.999 3c-57.333 0 -101 -1 -131 -3c0.666992 16.667 3.33398 31 8.00098 43c20.667 3.33301 35.834 7.83301 45.501 13.5s17 14.167 22 25.5
s9.5 29 13.5 53l70 407c3.33301 18.667 5 32.667 5 42c0 17.333 -4.66699 30.166 -14 38.499s-25.333 13.833 -48 16.5c-2 8 -3 17 -3 27c0 7.33301 0.333008 12.666 1 15.999c30.667 -2 89 -3 175 -3c113.333 0 204.333 1 273 3c-5.33301 -40.667 -8 -83 -8 -127z" />
    <glyph glyph-name="G" unicode="G" horiz-adv-x="693" 
d="M594 671c36.667 -9.33301 70.999 -24.334 102.999 -45.001c-14.667 -41.333 -25.667 -91.333 -33 -150c-8.66699 -4 -18 -6 -28 -6c-5.33301 0 -14 1.33301 -26 4c2 17.333 3 32.333 3 45c0 34.667 -5.5 61 -16.5 79s-26.5 30.167 -46.5 36.5s-46.333 9.5 -79 9.5
c-86.667 0 -156.334 -28.167 -209.001 -84.5s-84 -131.833 -94 -226.5c-2 -18 -3 -36.333 -3 -55c0 -69.333 15.667 -126.333 47 -171s80.333 -67 147 -67c21.333 0 40 1.16699 56 3.5s32 6.5 48 12.5c10.667 4 18.667 8.83301 24 14.5s9.66602 14.334 12.999 26.001
s7.33301 29.834 12 54.501c6.66699 40 10 67 10 81c0 20 -4.83301 33.333 -14.5 40s-28.167 10.667 -55.5 12c-1.33301 5.33301 -2 13.333 -2 24c0 8.66699 0.333008 15 1 19c29.333 -2 70.333 -3 123 -3c44 0 83 1 117 3c-0.666992 -16.667 -3.66699 -31 -9 -43
c-15.333 -2 -26.833 -5.66699 -34.5 -11s-14.167 -16.166 -19.5 -32.499s-11.333 -42.833 -18 -79.5c-6 -30.667 -9 -53 -9 -67c0 -10 1.66699 -19.333 5 -28c-34 -22.667 -74.833 -40.834 -122.5 -54.501s-98.5 -20.5 -152.5 -20.5c-57.333 0 -106.666 11.5 -147.999 34.5
s-72.666 55.5 -93.999 97.5s-32 90.333 -32 145c0 21.333 1.33301 41.333 4 60c10.667 80.667 36 147.667 76 201s88.5 92.666 145.5 117.999s117.167 38 180.5 38c50.667 0 94.334 -4.66699 131.001 -14z" />
    <glyph glyph-name="H" unicode="H" horiz-adv-x="756" 
d="M769 679c-1.33301 -18 -4.33496 -32.3271 -9.00195 -42.9941c-18 -3.33301 -31.667 -7.5 -41 -12.5s-16.833 -13.167 -22.5 -24.5s-10.5 -28 -14.5 -50l-73 -422c-2.66699 -13.333 -4 -26 -4 -38c0 -16.667 4.5 -28.334 13.5 -35.001s25.5 -11.334 49.5 -14.001
c2 -8 3 -17 3 -27c0 -7.33301 -0.333008 -12.666 -1 -15.999c-40 2 -80.333 3 -121 3c-46.667 0 -87 -1 -121 -3c0 16.667 2.66699 31 8 43c18.667 2 32.834 5.5 42.501 10.5s17.167 13.167 22.5 24.5s10 28.666 14 51.999l34 198c-150.667 0 -252.667 -1.66699 -306 -5
l-33 -193c-2.66699 -13.333 -4 -26 -4 -38c0 -16.667 4.5 -28.334 13.5 -35.001s25.5 -11.334 49.5 -14.001c2 -8 3 -17 3 -27c0 -7.33301 -0.333008 -12.666 -1 -15.999c-40 2 -80.333 3 -121 3c-46.667 0 -87 -1 -121 -3c0 16.667 2.66699 31 8 43
c18.667 2 32.834 5.5 42.501 10.5s17.167 13.167 22.5 24.5s10 28.666 14 51.999l73 422c2.66699 17.333 4 28.666 4 33.999c0 18 -4.83301 30.5 -14.5 37.5s-26.167 12.167 -49.5 15.5c-1.33301 10.667 -2 19 -2 25c0 8 0.333008 14 1 18c37.333 -2 77.333 -3 120 -3
c41.333 0 82 1 122 3c-1.33301 -18 -4.33301 -32.333 -9 -43c-18 -3.33301 -31.667 -7.5 -41 -12.5s-16.833 -13.167 -22.5 -24.5s-10.5 -28 -14.5 -50l-31 -181h305l31 181c2.66699 17.333 4 28.666 4 33.999c0 18 -4.83301 30.5 -14.5 37.5s-26.167 12.167 -49.5 15.5
c-1.33301 10.667 -2 19 -2 25c0 8 0.333008 14 1 18c36.667 -2 76.667 -3 120 -3c41.333 0 82 1 122 3z" />
    <glyph glyph-name="I" unicode="I" horiz-adv-x="357" 
d="M193 583c0 18 -4.83398 30.5029 -14.501 37.5029s-26.167 12.167 -49.5 15.5c-1.33301 10.667 -2 19 -2 25c0 8 0.333008 14 1 18c37.333 -2 77.333 -3 120 -3c41.333 0 82 1 122 3c-1.33301 -18 -4.33301 -32.333 -9 -43c-18 -3.33301 -31.667 -7.5 -41 -12.5
s-16.833 -13.167 -22.5 -24.5s-10.5 -28 -14.5 -50l-73 -422c-2.66699 -13.333 -4 -26 -4 -38c0 -16.667 4.5 -28.334 13.5 -35.001s25.5 -11.334 49.5 -14.001c2 -8 3 -17 3 -27c0 -7.33301 -0.333008 -12.666 -1 -15.999c-40 2 -80.333 3 -121 3c-46.667 0 -87 -1 -121 -3
c0 16.667 2.66699 31 8 43c18.667 2 32.834 5.5 42.501 10.5s17.167 13.167 22.5 24.5s10 28.666 14 51.999l73 422c2.66699 17.333 4 28.666 4 33.999z" />
    <glyph glyph-name="J" unicode="J" horiz-adv-x="306" 
d="M224 676c53.333 0 95.6689 0.999023 127.002 2.99902c-0.666992 -16.667 -3.33398 -31 -8.00098 -43c-18.667 -2.66699 -33 -7 -43 -13s-17.833 -14.833 -23.5 -26.5s-10.5 -29.167 -14.5 -52.5l-74 -424c-12 -68 -25.833 -122.667 -41.5 -164
s-39.834 -78.333 -72.501 -111s-79.334 -64 -140.001 -94c-8 6 -13.333 17.333 -16 34c44.667 31.333 80.167 66.333 106.5 105s44.833 88.334 55.5 149.001l90 515c2 13.333 3 24 3 32c0 16 -4.5 27.667 -13.5 35s-25.5 12.333 -49.5 15c-2 8 -3 16 -3 24
s0.333008 14.333 1 19c18.667 -2 57.334 -3 116.001 -3z" />
    <glyph glyph-name="K" unicode="K" horiz-adv-x="640" 
d="M600.5 613c-20.333 -11.333 -48.1709 -33.3311 -83.5039 -65.998l-187 -176c28 -29.333 53.833 -62.833 77.5 -100.5s47.834 -83.5 72.501 -137.5c10 -22.667 19.333 -38.167 28 -46.5s18.334 -12.5 29.001 -12.5c6.66699 0 12.334 1 17.001 3s10.334 6.33301 17.001 13
c12.667 -6.66699 22.667 -17.334 30 -32.001c-18.667 -22.667 -36.834 -39.5 -54.501 -50.5s-38.167 -16.5 -61.5 -16.5c-20.667 1.33301 -37.834 8.5 -51.501 21.5s-26.167 34.5 -37.5 64.5c-22.667 59.333 -45.834 109.833 -69.501 151.5s-50.167 78.5 -79.5 110.5
l-37 -212c-3.33301 -18.667 -5 -32.334 -5 -41.001c0 -15.333 4 -26.166 12 -32.499s22 -10.833 42 -13.5c2 -8 3 -17 3 -27c0 -7.33301 -0.333008 -12.666 -1 -15.999c-40 2 -77 3 -111 3c-46.667 0 -87 -1 -121 -3c0 16.667 2.66699 31 8 43
c18.667 2 32.834 5.5 42.501 10.5s17.167 13.167 22.5 24.5s10 28.666 14 51.999l73 422c2.66699 17.333 4 28.666 4 33.999c0 18 -4.83301 30.5 -14.5 37.5s-26.167 12.167 -49.5 15.5c-1.33301 10.667 -2 19 -2 25c0 8 0.333008 14 1 18c37.333 -2 77.333 -3 120 -3
c41.333 0 82 1 122 3c-1.33301 -18 -4.33301 -32.333 -9 -43c-18 -3.33301 -31.667 -7.5 -41 -12.5s-16.833 -13.167 -22.5 -24.5s-10.5 -28 -14.5 -50l-33 -192l199 189c36 35.333 54 59.333 54 72c0 8.66699 -8.66699 14.667 -26 18l-3 15.5c-1.33301 7 -2 13.167 -2 18.5
l1 9c26.667 -2 63 -3 109 -3c38.667 0 71.334 1 98.001 3c0 -20.667 -1.66699 -35 -5 -43c-29.333 -4 -54.166 -11.667 -74.499 -23z" />
    <glyph glyph-name="L" unicode="L" horiz-adv-x="545" 
d="M32 40c20.667 2 36.0029 6.00195 46.0029 12.002s17.667 15.667 23 29s10.333 34 15 62l72 411c2 12 3 22 3 30c0 17.333 -4.66699 29.5 -14 36.5s-25 12.167 -47 15.5c-2.66699 11.333 -3.33398 25.666 -2.00098 42.999c24.667 -2 64 -3 118 -3c60 0 103 0.666992 129 2
c0 -16 -2.66699 -30 -8 -42c-20.667 -2.66699 -36.5 -6.83398 -47.5 -12.501s-19.333 -14.667 -25 -27s-10.5 -30.833 -14.5 -55.5l-71 -408c-3.33301 -18.667 -5 -33 -5 -43c0 -18 5.33301 -30 16 -36s31 -9 61 -9h6c36.667 0 66.167 4 88.5 12s41.166 20.833 56.499 38.5
s31.333 43.167 48 76.5c18.667 -3.33301 33.334 -10.666 44.001 -21.999c-22 -42.667 -39.667 -93.667 -53 -153c-25.333 2 -89.333 3 -192 3c-116.667 0 -201.334 -1 -254.001 -3c1.33301 19.333 3.66602 33.666 6.99902 42.999z" />
    <glyph glyph-name="M" unicode="M" horiz-adv-x="883" 
d="M770 163c-2 -20 -2.99902 -36.6729 -2.99902 -50.0059c0 -25.333 3.83301 -42.666 11.5 -51.999s21.5 -16.333 41.5 -21c2.66699 -10.667 3.33398 -25 2.00098 -43c-20 2 -60.667 3 -122 3c-58 0 -98 -1 -120 -3c0 14.667 2.66699 29 8 43
c22 3.33301 38.5 8.83301 49.5 16.5s19.167 19.167 24.5 34.5s9.33301 38.333 12 69c12.667 135.333 21.334 251.666 26.001 348.999c-98.667 -182.667 -197 -353.667 -295 -513c-8.66699 -3.33301 -22.334 -5 -41.001 -5c-40.667 170 -89.334 346 -146.001 528
c-20 -85.333 -47.667 -192.333 -83 -321c-12.667 -44.667 -19 -78 -19 -100c0 -18 4.66699 -31.167 14 -39.5s25 -14.5 47 -18.5c2.66699 -12 3.33398 -26.333 2.00098 -43c-27.333 2 -61.666 3 -102.999 3c-38 0 -72.333 -1 -103 -3c0 16 2.66699 30.333 8 43
c18.667 4.66699 33.167 11.5 43.5 20.5s19.666 23 27.999 42s18.166 48.167 29.499 87.5c38 130.667 69.333 249.334 94 356.001c4 19.333 6 34.333 6 45c0 16 -4.16699 27 -12.5 33s-22.833 10 -43.5 12c-1.33301 6 -2 14 -2 24c0 8 0.333008 14.333 1 19
c20 -2 45.667 -3 77 -3s55.333 1 72 3c56.667 -183.333 108 -369.666 154 -558.999c105.333 176 209 362.333 311 559c19.333 -2 41 -3 65 -3c32 0 56.333 1 73 3c0 -15.333 -2.33301 -29.666 -7 -42.999c-18 -2 -31.833 -6.16699 -41.5 -12.5
s-16.834 -16.666 -21.501 -30.999s-8 -35.166 -10 -62.499c-8 -143.333 -17 -265.666 -27 -366.999z" />
    <glyph glyph-name="N" unicode="N" horiz-adv-x="675" 
d="M720 679c0 -14.667 -2.66309 -29.001 -7.99609 -43.001c-15.333 -4 -27.333 -10.667 -36 -20s-16 -23.666 -22 -42.999s-12 -47.333 -18 -84l-85 -493c-9.33301 -3.33301 -23 -5 -41 -5l-278 532l-60 -341c-5.33301 -33.333 -8 -57.666 -8 -72.999
c0 -22.667 4.66699 -38.834 14 -48.501s25.333 -16.5 48 -20.5c2 -8 3 -16 3 -24s-0.333008 -14.333 -1 -19c-26.667 2 -63 3 -109 3c-34 0 -65.667 -1 -95 -3c0.666992 16 3 30.333 7 43c25.333 3.33301 44.166 14.333 56.499 33s22.833 51.667 31.5 99l74 422l-5 9
c-6.66699 12.667 -13.834 21 -21.501 25s-19.834 6.66699 -36.501 8c-2 8 -3 16.333 -3 25c0 8 0.333008 14 1 18c20 -2 40 -3 60 -3c29.333 0 52.333 1 69 3c84 -149.333 174.333 -321 271 -515l59 335c5.33301 30.667 8 53.667 8 69c0 22.667 -4.66699 38.667 -14 48
s-25.333 16 -48 20c-1.33301 10.667 -2 19 -2 25c0 8 0.333008 14 1 18c19.333 -2 49.666 -3 90.999 -3c46.667 0 79 1 97 3z" />
    <glyph glyph-name="O" unicode="O" horiz-adv-x="741" 
d="M197 27c-43.333 24 -77 58.332 -101 102.999s-36 96.334 -36 155.001c0 29.333 3 59.333 9 90c10.667 58 33.5 110.5 68.5 157.5s78.5 84.167 130.5 111.5s108 41 168 41c56 0 105.667 -11.167 149 -33.5s77.333 -55.333 102 -99s37 -96.167 37 -157.5
c0 -32.667 -3.33301 -65.667 -10 -99c-10.667 -56.667 -33 -108.167 -67 -154.5s-77 -83 -129 -110s-109 -40.5 -171 -40.5c-56.667 0 -106.667 12 -150 36zM526 106.999c43.333 48 72 110.334 86 187.001c5.33301 27.333 8 56.666 8 87.999c0 51.333 -8.5 96.5 -25.5 135.5
s-41 69.333 -72 91s-66.167 32.5 -105.5 32.5c-38.667 0 -75 -11.5 -109 -34.5s-62.667 -54.333 -86 -94s-39.666 -83.167 -48.999 -130.5c-6 -32 -9 -63.333 -9 -94c0 -74.667 17.667 -135.5 53 -182.5s84.666 -70.5 147.999 -70.5c64 0 117.667 24 161 72z" />
    <glyph glyph-name="P" unicode="P" horiz-adv-x="566" 
d="M546.5 635.5c32.333 -29 48.498 -69.8311 48.498 -122.498c0 -17.333 -2 -36.666 -6 -57.999c-11.333 -62 -40.833 -111.5 -88.5 -148.5s-105.167 -55.5 -172.5 -55.5c-28 0 -49.667 4 -65 12c-0.666992 4.66699 0 11.5 2 20.5s4.33301 15.5 7 19.5
c15.333 -4.66699 32.333 -7 51 -7c45.333 0 82.5 13.167 111.5 39.5s48.5 65.166 58.5 116.499c4 20 6 39 6 57c0 84 -46.667 126 -140 126c-24 0 -45.333 -2.33301 -64 -7l-83 -486c-4 -20 -6 -36.333 -6 -49c0 -17.333 5.16699 -29.333 15.5 -36
s30.833 -12.334 61.5 -17.001c3.33301 -10 4.33301 -24.333 3 -43c-33.333 2 -75.666 3 -126.999 3c-57.333 0 -101 -1 -131 -3c0.666992 16.667 3.33398 31 8.00098 43c20.667 3.33301 35.834 7.83301 45.501 13.5s17 14.167 22 25.5s9.5 29 13.5 53l73 422
c2 12 3 22.333 3 31c0 16.667 -4.66699 28.5 -14 35.5s-25.666 12.167 -48.999 15.5c-2 8 -3 17 -3 27c0 7.33301 0.333008 12.666 1 15.999c24.667 -2 71.667 -3 141 -3l49 1c37.333 1.33301 66.666 2 87.999 2c61.333 0 108.166 -14.5 140.499 -43.5z" />
    <glyph glyph-name="Q" unicode="Q" horiz-adv-x="741" 
d="M738.5 -133c5 -6 8.50098 -12.668 10.501 -20.001c-8.66699 -16 -23.834 -31 -45.501 -45s-45.167 -21 -70.5 -21c-28.667 0 -53.334 6.16699 -74.001 18.5s-41 34.5 -61 66.5c-23.333 38 -46.833 67.167 -70.5 87.5s-53.834 32.833 -90.501 37.5
c-55.333 1.33301 -103.833 14.333 -145.5 39s-74 58.834 -97 102.501s-34.5 94.5 -34.5 152.5c0 29.333 3 59.333 9 90c10.667 58 33.5 110.5 68.5 157.5s78.5 84.167 130.5 111.5s108 41 168 41c56 0 105.667 -11.167 149 -33.5s77.333 -55.333 102 -99
s37 -96.167 37 -157.5c0 -32.667 -3.33301 -65.667 -10 -99c-13.333 -68.667 -43.166 -129.167 -89.499 -181.5s-103.166 -88.5 -170.499 -108.5c49.333 -17.333 101.333 -50.333 156 -99c18.667 -17.333 33.167 -28.833 43.5 -34.5s20.5 -8.5 30.5 -8.5
c7.33301 0 14.333 1.5 21 4.5s12 6.83301 16 11.5c6.66699 -2.66699 12.5 -7 17.5 -13zM164.001 287.999c0 -74.667 17.667 -135.499 53 -182.499s84.666 -70.5 147.999 -70.5c64 0 117.667 24 161 72s72 110.333 86 187c5.33301 27.333 8 56.666 8 87.999
c0 51.333 -8.5 96.5 -25.5 135.5s-41 69.333 -72 91s-66.167 32.5 -105.5 32.5c-38.667 0 -75 -11.5 -109 -34.5s-62.667 -54.333 -86 -94s-39.666 -83.167 -48.999 -130.5c-6 -32 -9 -63.333 -9 -94z" />
    <glyph glyph-name="R" unicode="R" horiz-adv-x="640" 
d="M591 58c-18.667 -22.667 -36.8379 -39.498 -54.5049 -50.498s-38.167 -16.5 -61.5 -16.5c-26 0 -46 9.83301 -60 29.5s-27.333 51.5 -40 95.5c-12 40 -24.833 74.833 -38.5 104.5s-29.167 57.834 -46.5 84.501c-14 -0.666992 -30.667 -0.333984 -50 0.999023l-31 -184
c-2.66699 -13.333 -4 -26 -4 -38c0 -15.333 3.66699 -25.833 11 -31.5s21.333 -9.83398 42 -12.501c2.66699 -12 3.33398 -26.333 2.00098 -43c-34 2 -72.667 3 -116 3c-50.667 0 -89 -1 -115 -3c0 17.333 2.66699 31.666 8 42.999c19.333 2 34 5.83301 44 11.5
s17.5 14.5 22.5 26.5s9.5 30 13.5 54l73 422c2 11.333 3 20.666 3 27.999c0 17.333 -4.83301 30 -14.5 38s-26.167 13.333 -49.5 16c-1.33301 5.33301 -2 13 -2 23c0 8.66699 0.333008 15.334 1 20.001c32.667 -2 75.334 -3 128.001 -3c22.667 0 52 0.666992 88 2l53 1
c58 0 104.833 -12.833 140.5 -38.5s53.5 -62.167 53.5 -109.5c0 -8 -1.33301 -20.667 -4 -38c-8.66699 -45.333 -29.834 -82.666 -63.501 -111.999s-82.167 -50 -145.5 -62c16 -21.333 30.333 -44 43 -68s27.334 -57 44.001 -99c20.667 -52 41.334 -78 62.001 -78
c6.66699 0 12.334 1 17.001 3s10.334 6.33301 17.001 13c12.667 -6.66699 22.667 -17.334 30 -32.001zM247.996 353.002c10.667 -1.33301 24.333 -2 41 -2c56.667 0 101.834 12 135.501 36s54.5 57.333 62.5 100c2.66699 12.667 4 26 4 40c0 36 -10.833 63.167 -32.5 81.5
s-50.834 27.5 -87.501 27.5c-26.667 0 -52 -3 -76 -9z" />
    <glyph glyph-name="S" unicode="S" horiz-adv-x="460" 
d="M90 9c-31.333 12 -60.665 30.001 -87.998 54.001c16.667 52 26.334 98.333 29.001 139c10 3.33301 20.333 5 31 5c8 0 15.667 -1 23 -3c-0.666992 -6.66699 -1 -16.334 -1 -29.001c0 -48 9.66699 -82.667 29 -104s52 -32 98 -32c34 0 62.333 11.333 85 34
s34 51.667 34 87c0 28.667 -9.16699 53 -27.5 73s-46.5 43 -84.5 69c-29.333 20.667 -53.166 39 -71.499 55s-33.833 35.5 -46.5 58.5s-19 49.5 -19 79.5c0 14 1.33301 27.333 4 40c8 46.667 30.667 83.334 68 110.001s85.666 40 144.999 40
c33.333 0 63.333 -4.33301 90 -13s48.667 -20 66 -34c-7.33301 -47.333 -11 -90.333 -11 -129c-10 -4 -22.333 -6 -37 -6c-8 0 -14 0.333008 -18 1c-0.666992 49.333 -9.33398 84.166 -26.001 104.499s-40.334 30.5 -71.001 30.5c-33.333 0 -60 -7.83301 -80 -23.5
s-32.667 -40.5 -38 -74.5c-0.666992 -4 -1 -10 -1 -18c0 -20 5.16699 -38.333 15.5 -55s23.166 -31.334 38.499 -44.001s36.333 -28.667 63 -48c30 -20.667 54.167 -39.167 72.5 -55.5s34 -35.666 47 -57.999s19.5 -47.5 19.5 -75.5c0 -10.667 -1 -22 -3 -34
c-8.66699 -48 -33.167 -87 -73.5 -117s-87.833 -45 -142.5 -45c-48 0 -87.667 6 -119 18z" />
    <glyph glyph-name="T" unicode="T" horiz-adv-x="545" 
d="M609 679c-8.66699 -50.667 -13.002 -103.336 -13.002 -158.003c-12 -6.66699 -28 -9.33398 -48 -8.00098c-0.666992 32 -3.83398 56.833 -9.50098 74.5s-15.667 30.334 -30 38.001s-35.5 11.5 -63.5 11.5h-50l-90 -515c-2.66699 -17.333 -4 -28.333 -4 -33
c0 -15.333 5 -26.5 15 -33.5s28.667 -12.167 56 -15.5c2 -8 3 -17 3 -27c0 -6.66699 -0.333008 -12 -1 -16c-28 2 -70.667 3 -128 3c-63.333 0 -107 -1 -131 -3c0 16.667 2.33301 31.334 7 44.001c22 2.66699 38.667 6.83398 50 12.501s20 14.334 26 26.001
s11 29.167 15 52.5l88 505h-59c-35.333 0 -62.333 -9.5 -81 -28.5s-35.667 -51.833 -51 -98.5c-11.333 0 -20.666 1 -27.999 3s-13.666 5.66699 -18.999 11c6.66699 20.667 13.5 45.667 20.5 75s12.167 56 15.5 80c36.667 -2 120.334 -3 251.001 -3c136 0 222.333 1 259 3z
" />
    <glyph glyph-name="U" unicode="U" horiz-adv-x="635" 
d="M144 40.5c-34.667 33 -51.998 80.167 -51.998 141.5c0 25.333 2.33301 50 7 74l51 298c2.66699 14 4 27 4 39c0 14 -3.33301 24.167 -10 30.5s-18.334 10.5 -35.001 12.5c-1.33301 4.66699 -2 12 -2 22c0 9.33301 0.333008 16.333 1 21c31.333 -2 68.333 -3 111 -3
c47.333 0 87.333 1 120 3c-1.33301 -17.333 -4.33301 -31.666 -9 -42.999c-21.333 -2 -37.333 -5.5 -48 -10.5s-18.834 -13.5 -24.501 -25.5s-10.834 -30.667 -15.501 -56l-49 -284c-4.66699 -24 -7 -47.333 -7 -70c0 -50 11.833 -86.833 35.5 -110.5
s56.834 -35.5 99.501 -35.5c48.667 0 89.334 17.5 122.001 52.5s54.667 84.833 66 149.5l47 268c4 22 6 40 6 54c0 19.333 -4.33301 33.666 -13 42.999s-24.334 17.666 -47.001 24.999c-1.33301 5.33301 -2 13 -2 23c0 8.66699 0.333008 15.334 1 20.001c28 -2 61 -3 99 -3
c36 0 69.333 1 100 3c0 -14.667 -3 -29 -9 -43c-20 -6.66699 -35 -14 -45 -22s-17.833 -20 -23.5 -36s-11.5 -40.667 -17.5 -74l-44 -249c-16 -90 -45.167 -156.5 -87.5 -199.5s-99.833 -64.5 -172.5 -64.5c-70 0 -122.333 16.5 -157 49.5z" />
    <glyph glyph-name="V" unicode="V" horiz-adv-x="655" 
d="M724 679c0 -14.667 -2.99707 -29.0049 -8.99707 -43.0049c-16 -8 -29.833 -19.667 -41.5 -35s-29.167 -45.666 -52.5 -90.999c-94 -184 -187 -354 -279 -510c-6.66699 -4.66699 -16 -7 -28 -7c-6 0 -10.333 0.333008 -13 1c-52.667 226.667 -96.334 405 -131.001 535
c-8 29.333 -14.833 51 -20.5 65s-11.834 23.833 -18.501 29.5s-16 10.167 -28 13.5c-1.33301 4.66699 -2 12 -2 22c0 8.66699 0.333008 15.334 1 20.001c30 -2 68.333 -3 115 -3c52 0 93.667 1 125 3c0 -15.333 -3 -30 -9 -44c-27.333 -3.33301 -46 -8 -56 -14
s-15 -17.333 -15 -34c0 -13.333 3.66699 -34.666 11 -63.999c35.333 -129.333 66.333 -256.666 93 -381.999c76 130 144 257 204 381c9.33301 19.333 16 34.5 20 45.5s6 20.167 6 27.5c0 10.667 -4.33301 19 -13 25s-23 11.333 -43 16c-1.33301 5.33301 -2 13 -2 23
c0 8.66699 0.333008 15.334 1 20.001c18.667 -2 49 -3 91 -3c37.333 0 68.666 1 93.999 3z" />
    <glyph glyph-name="W" unicode="W" horiz-adv-x="962" 
d="M1032 679c0 -14.667 -2.99316 -29.001 -8.99316 -43.001c-16.667 -7.33301 -31.5 -20.5 -44.5 -39.5s-31.167 -55.833 -54.5 -110.5c-78.667 -182.667 -154.334 -344.667 -227.001 -486c-8 -4 -17.667 -6 -29 -6c-5.33301 0 -9.33301 0.333008 -12 1
c-12.667 86 -28.334 176.667 -47.001 272s-38.334 182.333 -59.001 261c-74 -162 -162 -338 -264 -528c-6.66699 -4.66699 -17.334 -7 -32.001 -7c-4.66699 0 -8.33398 0.333008 -11.001 1c-27.333 190.667 -56.333 369 -87 535c-6 32 -10.833 54.5 -14.5 67.5
s-8 22.167 -13 27.5s-12.833 9.66602 -23.5 12.999c-2.66699 8 -4 17 -4 27c0 6.66699 0.333008 11.667 1 15c34.667 -2 71.667 -3 111 -3c52.667 0 91 1 115 3c0 -17.333 -2.33301 -32 -7 -44c-28.667 -5.33301 -48 -11.833 -58 -19.5s-15 -20.834 -15 -39.501
c0 -12.667 2 -29.667 6 -51c21.333 -122 41.333 -247.667 60 -377c77.333 149.333 163 326 257 530c8 4 18 6 30 6c5.33301 0 9.66602 -0.333008 12.999 -1c22 -82.667 42.667 -170.167 62 -262.5s35.333 -179.833 48 -262.5c54 106.667 106 220.334 156 341.001
c9.33301 24 16.166 42.833 20.499 56.5s6.5 25.167 6.5 34.5c0 12.667 -4.5 22.334 -13.5 29.001s-24.167 12.334 -45.5 17.001c-1.33301 5.33301 -2 13.333 -2 24c0 8.66699 0.333008 15 1 19c18 -2 48 -3 90 -3c46 0 77.667 1 95 3z" />
    <glyph glyph-name="X" unicode="X" horiz-adv-x="617" 
d="M647 679c0 -14.667 -2.99707 -28.999 -8.99707 -42.999c-12.667 -1.33301 -23.834 -5.16602 -33.501 -11.499s-20.167 -17 -31.5 -32s-29.333 -40.167 -54 -75.5c-47.333 -67.333 -92.666 -128 -135.999 -182l79 -186c12 -30 22.5 -52 31.5 -66s17.667 -23.667 26 -29
s20.166 -10.333 35.499 -15c1.33301 -4.66699 2 -12 2 -22c0 -8 -0.333008 -14.667 -1 -20c-38.667 2 -78.667 3 -120 3c-60.667 0 -100.667 -1 -120 -3c0 14.667 3 29.334 9 44.001c20 2.66699 34.333 6.66699 43 12s13 13.666 13 24.999
c0 12.667 -7.33301 37.334 -22 74.001c-13.333 34.667 -31.666 78.334 -54.999 131.001l-77 -99l-33 -41c-22.667 -28 -34 -50.667 -34 -68c0 -16.667 12.333 -28.334 37 -35.001c1.33301 -12 2 -20.333 2 -25l-1 -18c-28.667 2 -63.667 3 -105 3
c-44.667 0 -79.334 -1 -104.001 -3c0 14.667 3 29 9 43c18.667 5.33301 36.667 14.666 54 27.999s42 38 74 74c60.667 68 113 131.333 157 190c-30.667 67.333 -61.334 131.333 -92.001 192c-17.333 34.667 -29.833 58.667 -37.5 72s-14.834 22.666 -21.501 27.999
s-16 9.66602 -28 12.999c-1.33301 5.33301 -2 13 -2 23c0 8.66699 0.333008 15 1 19c36 -2 74.667 -3 116 -3c48.667 0 90 1 124 3c0 -15.333 -3 -30 -9 -44c-21.333 -4 -36.833 -9 -46.5 -15s-14.5 -15 -14.5 -27c0 -14.667 7.66699 -37.334 23 -68.001l66 -141
c42.667 52.667 76.334 97.334 101.001 134.001c26 38.667 39 66.667 39 84c0 9.33301 -3.16699 16.5 -9.5 21.5s-16.166 9.16699 -29.499 12.5c-1.33301 5.33301 -2 13.333 -2 24c0 8.66699 0.333008 15 1 19c21.333 -2 49.666 -3 84.999 -3c43.333 0 76.666 1 99.999 3z
" />
    <glyph glyph-name="Y" unicode="Y" horiz-adv-x="582" 
d="M652 679c0 -14.667 -2.99707 -28.9971 -8.99707 -42.9971c-14.667 -6 -27.834 -14.333 -39.501 -25s-28.5 -33.334 -50.5 -68.001c-58 -91.333 -120.333 -182.666 -187 -273.999l-26 -147c-2.66699 -17.333 -4 -28.333 -4 -33c0 -14.667 4.83301 -25.334 14.5 -32.001
s28.5 -12.334 56.5 -17.001c2 -8 3 -17 3 -27c0 -6.66699 -0.333008 -12 -1 -16c-28 2 -70.667 3 -128 3c-63.333 0 -107 -1 -131 -3c0 16.667 2.33301 31.334 7 44.001c22.667 4 39.667 8.66699 51 14s19.833 13.666 25.5 24.999s10.5 28.666 14.5 51.999l24 136
c-28 90.667 -60.667 181.667 -98 273c-10.667 26 -19.334 45.167 -26.001 57.5s-13.167 20.833 -19.5 25.5s-14.833 9 -25.5 13c-1.33301 5.33301 -2 12.666 -2 21.999c0 8.66699 0.333008 15.334 1 20.001c24.667 -2 61.667 -3 111 -3c50.667 0 92.667 1 126 3
c0 -12.667 -3 -27.334 -9 -44.001c-24.667 -3.33301 -42.167 -8.16602 -52.5 -14.499s-15.5 -15.5 -15.5 -27.5c0 -9.33301 3 -21.666 9 -36.999c29.333 -75.333 55 -154.333 77 -237c49.333 68 95.666 138.667 138.999 212c18.667 32 28 55.333 28 70
c0 9.33301 -3.66699 16.666 -11 21.999s-19.333 9.66602 -36 12.999c-1.33301 5.33301 -2 13 -2 23c0 8.66699 0.333008 15.334 1 20.001c22 -2 54 -3 96 -3c38 0 67.667 1 89 3z" />
    <glyph glyph-name="Z" unicode="Z" horiz-adv-x="540" 
d="M357.5 54c22.333 6 40.834 17.668 55.501 35.001s30 45 46 83c20.667 -4 37.334 -12 50.001 -24c-20.667 -50 -35.334 -100.333 -44.001 -151c-64 2 -149.667 3 -257 3c-94.667 0 -168.334 -1 -221.001 -3c-6.66699 11.333 -9.66699 25 -9 41
c154.667 186 308.334 384 461.001 594h-132c-31.333 0 -56.5 -3.33301 -75.5 -10s-35.833 -19.167 -50.5 -37.5s-29 -45.5 -43 -81.5c-22 2 -39.333 8.33301 -52 19c8.66699 20 17 44.5 25 73.5s14 56.833 18 83.5c54 -2 131.333 -3 232 -3c80 0 146.333 1 199 3
c8.66699 -10 13 -23.667 13 -41c-163.333 -222.667 -316.333 -420.334 -459 -593.001h145c43.333 0 76.166 3 98.499 9z" />
    <glyph glyph-name="bracketleft" unicode="[" horiz-adv-x="291" 
d="M245 740c32.667 0 65 0.666992 97 2c4 -6.66699 6 -15 6 -25c0 -6 -0.333008 -10.333 -1 -13c-40 -3.33301 -69 -7.33301 -87 -12s-31.667 -13 -41 -25s-16.333 -31 -21 -57l-133 -757c-2 -10 -3 -18.667 -3 -26c0 -20 8 -34 24 -42s45 -12.667 87 -14
c2.66699 -4.66699 4 -11 4 -19s-1.33301 -15 -4 -21c-24 1.33301 -56.667 2 -98 2c-40 0 -74 -0.666992 -102 -2l178 1011c30.667 -1.33301 62 -2 94 -2z" />
    <glyph glyph-name="backslash" unicode="\" horiz-adv-x="292" 
d="M129 716c6.66699 0 11.667 -0.332031 15 -0.999023l103 -715c-12 -6.66699 -28.333 -9.33398 -49 -8.00098c-33.333 259.333 -68 498.333 -104 717c10 4.66699 21.667 7 35 7z" />
    <glyph glyph-name="bracketright" unicode="]" horiz-adv-x="290" 
d="M40 -267c-34 0 -66.335 -0.665039 -97.002 -1.99805c-0.666992 6.66699 -0.166992 13.834 1.5 21.501s4.5 13.834 8.5 18.501c35.333 1.33301 62 4.16602 80 8.49902s31.5 11.166 40.5 20.499s15.167 23.666 18.5 42.999l135 767c2.66699 18.667 4 30.334 4 35.001
c0 15.333 -3.66699 26.666 -11 33.999s-18.666 12.666 -33.999 15.999s-39.333 6.33301 -72 9c0 7.33301 1.16699 14.5 3.5 21.5s5.5 12.5 9.5 16.5c33.333 -1.33301 66 -2 98 -2c32.667 0 64.334 0.666992 95.001 2l-178 -1011c-34.667 1.33301 -68.667 2 -102 2z" />
    <glyph glyph-name="asciicircum" unicode="^" horiz-adv-x="499" 
d="M350 696c3.33301 0 8.33301 -0.666992 15 -2l62.5 -147.5c24.333 -55.667 46.166 -103.167 65.499 -142.5c-4.66699 -3.33301 -11 -6 -19 -8s-15.667 -2.66699 -23 -2l-113 257c-59.333 -62 -140.333 -151.333 -243 -268c-5.33301 6.66699 -9.16602 13.5 -11.499 20.5
s-3.5 15.833 -3.5 26.5l234 255c11.333 7.33301 23.333 11 36 11z" />
    <glyph glyph-name="underscore" unicode="_" 
d="M-23 -92l473.999 -0.00195312c0 -7.33301 -1.16699 -16.166 -3.5 -26.499s-5.16602 -18.166 -8.49902 -23.499c-48.667 0.666992 -91.667 1 -129 1h-114l-155 -1l-76 -1c0 22.667 4 39.667 12 51z" />
    <glyph glyph-name="grave" unicode="`" horiz-adv-x="300" 
d="M295 536c-2.66699 -1.33301 -7.33203 -2.00195 -13.999 -2.00195c-8.66699 0 -15.667 1.33301 -21 4c-13.333 26.667 -29.333 55.334 -48 86.001s-37 57.334 -55 80.001c18 6 35 9 51 9c15.333 0 29.666 -2.33301 42.999 -7c9.33301 -59.333 24 -116 44 -170z" />
    <glyph glyph-name="a" unicode="a" horiz-adv-x="473" 
d="M440 59c-40.667 -45.333 -79.334 -67.999 -116.001 -67.999c-22 0 -38 7 -48 21s-15 32 -15 54c0 20 3.33301 39 10 57c2.66699 7.33301 10.334 25.333 23.001 54l8 19h-3c-20 -54.667 -48.833 -102.5 -86.5 -143.5s-76.5 -61.5 -116.5 -61.5c-26 0 -46 9.5 -60 28.5
s-21 47.833 -21 86.5c0 25.333 3.66699 57.333 11 96c10 51.333 28 97 54 137s57.667 71.333 95 94s77.333 34 120 34c19.333 0 38 -3 56 -9c24 0 43 3 57 9c4 -2 7.16699 -4.83301 9.5 -8.5s3.5 -9.83398 3.5 -18.501c0 -14.667 -3.66699 -37.667 -11 -69l-50 -224
c-7.33301 -35.333 -11 -58 -11 -68c0 -7.33301 1.33301 -12.333 4 -15s7 -4 13 -4c8 0 16 2.16699 24 6.5s18.667 12.166 32 23.499c8 -7.33301 14 -17.666 18 -30.999zM202.5 105.501c21 22.333 41.832 53.501 62.499 93.501s37 85.667 49 137l17 70
c-17.333 6.66699 -37.666 10 -60.999 10c-39.333 0 -71 -14.833 -95 -44.5s-41.333 -70.834 -52 -123.501c-8 -38 -12 -70.333 -12 -97c0 -26 3.5 -45.667 10.5 -59s17.167 -20 30.5 -20c12.667 0 29.5 11.167 50.5 33.5z" />
    <glyph glyph-name="b" unicode="b" horiz-adv-x="442" 
d="M406 438.5c14 -19 21 -47.834 21 -86.501c0 -25.333 -3.66699 -57.333 -11 -96c-10 -51.333 -28 -97 -54 -137s-57.667 -71.333 -95 -94s-77.333 -34 -120 -34h-2c-31.333 0 -57.833 4 -79.5 12s-40.834 20.667 -57.501 38c9.33301 14 18.833 37.5 28.5 70.5
s17.834 68.167 24.501 105.5l56 317c6 34.667 9 56 9 64c0 14.667 -4 23.834 -12 27.501s-24 5.5 -48 5.5c-1.33301 16 0.666992 28.667 6 38c20.667 3.33301 44 8.83301 70 16.5s47.667 15.834 65 24.501c15.333 -4.66699 23 -18 23 -40c0 -4 -0.666992 -12 -2 -24
c-20 -114.667 -34.833 -192.834 -44.5 -234.501s-23.5 -91.5 -41.5 -149.5h1c20 54.667 48.833 102.5 86.5 143.5s76.5 61.5 116.5 61.5c26 0 46 -9.5 60 -28.5zM331 306.999c0 26 -3.49902 45.666 -10.499 58.999s-17.167 20 -30.5 20c-12.667 0 -29.5 -11.167 -50.5 -33.5
s-41.833 -53.5 -62.5 -93.5s-37 -85.667 -49 -137l-17 -70c17.333 -6.66699 37.666 -10 60.999 -10c39.333 0 71 14.833 95 44.5s41.333 70.834 52 123.501c8 38 12 70.333 12 97z" />
    <glyph glyph-name="c" unicode="c" horiz-adv-x="364" 
d="M49 31.5c-18.667 27 -27.998 62.5 -27.998 106.5c0 33.333 4 66.333 12 99c16 70 43.333 125.833 82 167.5s88.334 62.5 149.001 62.5c18.667 0 36.167 -2 52.5 -6s29.833 -10 40.5 -18c-10.667 -32.667 -18.334 -68.667 -23.001 -108c-8 -3.33301 -18.333 -5 -31 -5
c-7.33301 0 -13 0.333008 -17 1c0.666992 5.33301 1 12.333 1 21c0 24 -4 41 -12 51s-20.333 15 -37 15c-58.667 0 -97.667 -56 -117 -168c-5.33301 -34.667 -8 -61.334 -8 -80.001c0 -32.667 5.66699 -59.167 17 -79.5s30.333 -30.5 57 -30.5
c37.333 0 73.666 19.333 108.999 58c8.66699 -6 15.667 -15.333 21 -28c-26 -33.333 -54.5 -58.166 -85.5 -74.499s-62.167 -24.5 -93.5 -24.5c-40.667 0 -70.334 13.5 -89.001 40.5z" />
    <glyph glyph-name="d" unicode="d" horiz-adv-x="482" 
d="M375 177c-9.33301 -54.667 -14 -87.665 -14 -98.998c0 -7.33301 1 -12.166 3 -14.499s5.33301 -3.5 10 -3.5c8 0 16.167 2.16699 24.5 6.5s19.166 12.166 32.499 23.499c8 -7.33301 14 -17.666 18 -30.999c-40.667 -45.333 -80.334 -68 -119.001 -68
c-42.667 0 -64 24.667 -64 74c0 17.333 2.66699 35.666 8 54.999c12 38 21.333 63.333 28 76h-3c-20 -54.667 -48.833 -102.5 -86.5 -143.5s-76.5 -61.5 -116.5 -61.5c-26 0 -46 9.5 -60 28.5s-21 47.833 -21 86.5c0 25.333 3.66699 57.333 11 96c10 51.333 28 97 54 137
s57.667 71.333 95 94s77.333 34 120 34c12.667 0 26.334 -1.66699 41.001 -5c2 22 5.33301 46 10 72c5.33301 32 8 54 8 66c0 14.667 -3.66699 23.5 -11 26.5s-23.333 4.5 -48 4.5c-1.33301 15.333 0.666992 28 6 38c16 1.33301 38.833 6.66602 68.5 15.999
s51.834 17.666 66.501 24.999c15.333 -4.66699 23 -18 23 -40c0 -4 -0.666992 -12 -2 -24zM202.5 105.502c21 22.333 41.832 53.501 62.499 93.501s37 85.667 49 137l17 70c-17.333 6.66699 -37.666 10 -60.999 10c-39.333 0 -71 -14.833 -95 -44.5
s-41.333 -70.834 -52 -123.501c-8 -38 -12 -70.333 -12 -97c0 -26 3.5 -45.667 10.5 -59s17.167 -20 30.5 -20c12.667 0 29.5 11.167 50.5 33.5z" />
    <glyph glyph-name="e" unicode="e" horiz-adv-x="365" 
d="M327.5 441.5c17 -17 25.499 -37.834 25.499 -62.501c0 -31.333 -12.833 -60.166 -38.5 -86.499s-57.167 -47.333 -94.5 -63s-72.333 -24.5 -105 -26.5c-1.33301 -14.667 -2 -26 -2 -34c0 -32 5.66699 -57.667 17 -77s29.666 -29 54.999 -29
c36.667 0 70.334 18.667 101.001 56c10 -7.33301 17 -17 21 -29c-22.667 -30 -48.667 -54 -78 -72s-61.666 -27 -96.999 -27c-39.333 0 -67.833 13.5 -85.5 40.5s-26.5 62.167 -26.5 105.5c0 29.333 3 57.333 9 84c10.667 53.333 27.834 98.5 51.501 135.5
s50.667 64.667 81 83s61.166 27.5 92.499 27.5c32 0 56.5 -8.5 73.5 -25.5zM270.999 362.999c0 16 -3.83301 28.833 -11.5 38.5s-18.167 14.5 -31.5 14.5c-22.667 0 -44 -15 -64 -45s-34.667 -73.333 -44 -130v-1c38.667 4 71.667 14.667 99 32s44 41 50 71
c1.33301 9.33301 2 16 2 20z" />
    <glyph glyph-name="f" unicode="f" horiz-adv-x="294" 
d="M422.5 707c18.333 -4.66699 32.168 -10.6641 41.501 -17.9971c-15.333 -32.667 -24 -68.334 -26 -107.001c-11.333 -6.66699 -25.333 -9.33398 -42 -8.00098c-1.33301 33.333 -7.5 57.333 -18.5 72s-26.833 22 -47.5 22c-16.667 0 -30.667 -6 -42 -18
s-22.166 -33.667 -32.499 -65s-21.166 -77 -32.499 -137h99c0 -16 -2.33301 -29 -7 -39c-31.333 0 -65 -2.66699 -101 -8c-15.333 -83.333 -27.333 -156 -36 -218c-2.66699 -15.333 -4.83398 -28.333 -6.50098 -39s-3.16699 -19.334 -4.5 -26.001
c-18.667 -111.333 -47 -200.166 -85 -266.499s-83.333 -99.5 -136 -99.5c-31.333 0 -61 12 -89 36c-2 20 0.333008 40 7 60c33.333 -10.667 70.333 -16 111 -16c17.333 0 30.5 4.33301 39.5 13s17.667 28.667 26 60s17.833 82.666 28.5 153.999l18 131c10 82 20 153 30 213
c-30.667 4 -54.334 6 -71.001 6c0 15.333 3.66699 28.333 11 39h67l1 6c14.667 85.333 43.5 150 86.5 194s92.5 66 148.5 66c23.333 0 44.166 -2.33301 62.499 -7z" />
    <glyph glyph-name="g" unicode="g" horiz-adv-x="444" 
d="M415 441c0 -8 -0.999023 -18 -2.99902 -30l-51 -293c-12.667 -71.333 -30.667 -134.666 -54 -189.999s-51 -98.5 -83 -129.5s-67 -46.5 -105 -46.5c-21.333 0 -43 4.16699 -65 12.5s-42.667 19.833 -62 34.5c-0.666992 4 -1 10 -1 18c0 16.667 3 31.667 9 45
c56 -20 110.667 -30 164 -30c17.333 0 30.333 3.83301 39 11.5s17.167 26.667 25.5 57s17.833 81.166 28.5 152.499c5.33301 33.333 17.666 75 36.999 125l6 18h-1c-20 -54.667 -48.833 -102.5 -86.5 -143.5s-76.5 -61.5 -116.5 -61.5c-26 0 -46 9.5 -60 28.5
s-21 47.833 -21 86.5c0 25.333 3.66699 57.333 11 96c10 51.333 28 97 54 137s57.667 71.333 95 94s77.333 34 120 34c20 0 39 -3 57 -9c22 1.33301 38.667 4.33301 50 9c8.66699 -3.33301 13 -12 13 -26zM202.501 105.5c21 22.333 41.832 53.501 62.499 93.501
s37 85.667 49 137l17 70c-17.333 6.66699 -37.666 10 -60.999 10c-39.333 0 -71 -14.833 -95 -44.5s-41.333 -70.834 -52 -123.501c-8 -38 -12 -70.333 -12 -97c0 -26 3.5 -45.667 10.5 -59s17.167 -20 30.5 -20c12.667 0 29.5 11.167 50.5 33.5z" />
    <glyph glyph-name="h" unicode="h" horiz-adv-x="497" 
d="M464 58c-22.667 -22.667 -43.1699 -39.501 -61.5029 -50.501s-36.166 -16.5 -53.499 -16.5c-22.667 0 -38.834 5 -48.501 15s-14.5 25.333 -14.5 46c0 19.333 5.33301 52.666 16 99.999l27 119c7.33301 32 11 58.333 11 79c0 29.333 -8.66699 44 -26 44
s-38.166 -11.5 -62.499 -34.5s-47.166 -54.667 -68.499 -95s-36.666 -85.166 -45.999 -134.499l-23 -130h-91l94 534c6 34.667 9 56 9 64c0 14.667 -4 23.834 -12 27.501s-24 5.5 -48 5.5c-1.33301 16 0.666992 28.667 6 38c20.667 3.33301 44 8.83301 70 16.5
s47.667 15.834 65 24.501c15.333 -4.66699 23 -18 23 -40c0 -4 -0.666992 -12 -2 -24c-20 -114.667 -34.833 -192.834 -44.5 -234.501s-23.5 -91.5 -41.5 -149.5h2l23 49c10.667 22.667 26.5 46.167 47.5 70.5s43.833 44.666 68.5 60.999s48 24.5 70 24.5
c21.333 0 40.166 -8.16699 56.499 -24.5s24.5 -44.166 24.5 -83.499c0 -26 -3.66699 -54 -11 -84l-29 -122c-10.667 -45.333 -16 -73 -16 -83c0 -4.66699 0.833008 -7.66699 2.5 -9s4.83398 -2 9.50098 -2c6.66699 0 15.667 3.16699 27 9.5s21 13.5 29 21.5
c9.33301 -9.33301 15.333 -20 18 -32z" />
    <glyph glyph-name="i" unicode="i" horiz-adv-x="247" 
d="M155 589c-8 8 -12 18.667 -12 32c0 3.33301 0.666992 8.33301 2 15c4 18.667 12 33.5 24 44.5s25.667 16.5 41 16.5c14 0 25 -4 33 -12s12 -18.667 12 -32c0 -22 -6.5 -40.167 -19.5 -54.5s-29.167 -21.5 -48.5 -21.5c-13.333 0 -24 4 -32 12zM34 64
c0 19.333 3.66992 42.999 11.0029 70.999l41 144c11.333 40 17 66.667 17 80c0 12 -4 19.833 -12 23.5s-23 5.5 -45 5.5c-0.666992 14.667 1.33301 27.334 6 38.001c15.333 2 35.166 7.33301 59.499 16s42.833 17 55.5 25c13.333 -5.33301 23.166 -13.166 29.499 -23.499
s9.5 -23.833 9.5 -40.5c0 -18.667 -4 -42.667 -12 -72l-55 -193c-8 -28 -12 -47.333 -12 -58c0 -7.33301 1.33301 -12.333 4 -15s7 -4 13 -4c15.333 0 32.666 9.66699 51.999 29c10 -6.66699 16 -17.334 18 -32.001c-41.333 -44.667 -79.333 -67 -114 -67
c-44 0 -66 24.333 -66 73z" />
    <glyph glyph-name="j" unicode="j" horiz-adv-x="233" 
d="M150 589c-8 8 -12 18.667 -12 32c0 3.33301 0.666992 8.33301 2 15c4 18.667 12 33.5 24 44.5s25.667 16.5 41 16.5c14 0 25 -4 33 -12s12 -18.667 12 -32c0 -22 -6.5 -40.167 -19.5 -54.5s-29.167 -21.5 -48.5 -21.5c-13.333 0 -24 4 -32 12zM-119 -216
c47.333 33.333 84.3301 71.832 110.997 115.499s45.334 94.167 56.001 151.5l49 263c3.33301 18 5 31 5 39c0 14 -4.16699 23.333 -12.5 28s-24.166 7 -47.499 7c-1.33301 15.333 0.666992 28 6 38c15.333 1.33301 35.833 6.5 61.5 15.5s44.834 17.5 57.501 25.5
c12 -5.33301 20.667 -12 26 -20s8 -20.333 8 -37c0 -19.333 -4 -49.666 -12 -90.999l-46 -245c-15.333 -82.667 -42.333 -149.167 -81 -199.5s-94 -91.5 -166 -123.5c-9.33301 8 -14.333 19 -15 33z" />
    <glyph glyph-name="k" unicode="k" horiz-adv-x="463" 
d="M237 209c10 -10.667 20.502 -24.335 31.502 -41.002l38.5 -61c11.333 -18.667 20.666 -30.834 27.999 -36.501s15.333 -8.5 24 -8.5s16.667 2.16699 24 6.5s16.666 11.833 27.999 22.5c10 -8.66699 16.333 -19.334 19 -32.001c-18.667 -20.667 -37.5 -37.167 -56.5 -49.5
s-39.5 -18.5 -61.5 -18.5c-15.333 0 -28.333 3.5 -39 10.5s-19.834 16.333 -27.501 28s-17.5 29.5 -29.5 53.5c-17.333 34 -40.333 69.667 -69 107l-6 -37l-27 -153h-91l94 534c5.33301 30.667 8 52 8 64c0 14.667 -3.83301 23.834 -11.5 27.501s-23.5 5.5 -47.5 5.5
c-1.33301 16 0.666992 28.667 6 38c20.667 3.33301 44 8.83301 70 16.5s47.667 15.834 65 24.501c15.333 -4.66699 23 -18 23 -40c0 -4 -0.666992 -12 -2 -24c-17.333 -99.333 -30.5 -169.833 -39.5 -211.5s-19.5 -83.5 -31.5 -125.5h1c22.667 48 49.5 86.333 80.5 115
s65.167 43 102.5 43c28.667 0 51 -8 67 -24s24 -36.333 24 -61c0 -9.33301 -0.666992 -16.666 -2 -21.999c-13.333 -63.333 -77.666 -113.666 -192.999 -150.999zM334.002 359.999c0 12 -2.83203 21.834 -8.49902 29.501s-13.834 11.5 -24.501 11.5
c-15.333 0 -32.5 -7.66699 -51.5 -23s-37.167 -36.833 -54.5 -64.5s-31.333 -58.5 -42 -92.5c53.333 12.667 95 28.667 125 48s48 43.666 54 72.999c1.33301 8 2 14 2 18z" />
    <glyph glyph-name="l" unicode="l" horiz-adv-x="250" 
d="M36 66c0 19.333 1.49902 40.1699 4.49902 62.5029s11.167 67.833 24.5 136.5l53 269c6 29.333 9 50.333 9 63c0 15.333 -4 24.833 -12 28.5s-24 5.5 -48 5.5c0 18.667 2 31.334 6 38.001c16 1.33301 38.833 6.66602 68.5 15.999s51.834 17.666 66.501 24.999
c15.333 -4.66699 23 -18 23 -40c0 -4 -0.666992 -12 -2 -24c-19.333 -106.667 -46.333 -247.334 -81 -422.001c-12 -60.667 -18 -104 -18 -130c0 -12.667 1.5 -21.334 4.5 -26.001s7.5 -7 13.5 -7c14 0 31 9.66699 51 29c8.66699 -8 14.667 -18 18 -30
c-16.667 -20 -35.167 -36.5 -55.5 -49.5s-39.5 -19.5 -57.5 -19.5c-45.333 0 -68 25 -68 75z" />
    <glyph glyph-name="m" unicode="m" horiz-adv-x="770" 
d="M572.5 5.5c-9 9.66699 -13.4961 25.1699 -13.4961 46.5029c0 20 5 53.333 15 100l26 114c8.66699 36.667 13 65.334 13 86.001c0 28 -8.66699 42 -26 42c-16.667 0 -36.834 -10.333 -60.501 -31s-46.5 -51.167 -68.5 -91.5s-38.333 -87.5 -49 -141.5l-25 -130h-90l46 225
c12 60 18 101.667 18 125c0 16 -2.16699 27.333 -6.5 34s-10.5 10 -18.5 10c-16.667 0 -36.667 -10.667 -60 -32s-45.5 -52.166 -66.5 -92.499s-36.5 -86.833 -46.5 -139.5l-25 -130h-91l55 291c5.33301 30.667 8 51.667 8 63c0 15.333 -4 24.833 -12 28.5s-24 5.5 -48 5.5
l-1 9c0 10 2.33301 19.667 7 29c16 1.33301 38.667 6.5 68 15.5s51.333 17.5 66 25.5c15.333 -4.66699 23 -18.334 23 -41.001c0 -4 -0.666992 -12 -2 -24c-9.33301 -48 -21.333 -89.333 -36 -124h1l15 33c9.33301 20.667 24.166 43.167 44.499 67.5s43 45 68 62
s48.833 25.5 71.5 25.5c20.667 0 38.334 -7.16699 53.001 -21.5s22 -35.833 22 -64.5c0 -12 -0.666992 -21.333 -2 -28c-4 -22.667 -11.333 -47.334 -22 -74.001h1l15 33c9.33301 21.333 24.666 44.166 45.999 68.499s45.166 45 71.499 62s51.166 25.5 74.499 25.5
c24 0 42.667 -9.33301 56 -28s20 -45 20 -79c0 -27.333 -4.33301 -57.333 -13 -90l-30 -117c-10.667 -40 -16 -65.667 -16 -77c0 -6.66699 1.16699 -11 3.5 -13s6.16602 -3 11.499 -3c8.66699 0 17.334 2.16699 26.001 6.5s19 12.166 31 23.499
c9.33301 -8.66699 15 -19.334 17 -32.001c-21.333 -23.333 -41.5 -40.333 -60.5 -51s-39.167 -16 -60.5 -16c-20 0 -34.5 4.83301 -43.5 14.5z" />
    <glyph glyph-name="n" unicode="n" horiz-adv-x="518" 
d="M485 58c-22.667 -22.667 -43.1699 -39.499 -61.5029 -50.499s-36.166 -16.5 -53.499 -16.5c-22.667 0 -38.834 5 -48.501 15s-14.5 25.333 -14.5 46c0 19.333 5.33301 52.666 16 99.999l27 119c7.33301 32 11 58.333 11 79c0 29.333 -8.66699 44 -26 44
s-38.166 -11.5 -62.499 -34.5s-47.166 -54.667 -68.499 -95s-36.666 -85.166 -45.999 -134.499l-25 -130h-91l55 291c6 28.667 9 50 9 64c0 14.667 -4 23.834 -12 27.501s-24 5.5 -48 5.5c0 18.667 2 31.334 6 38.001c16 1.33301 39 6.66602 69 15.999
s52.333 17.666 67 24.999c15.333 -4.66699 23 -18.334 23 -41.001c0 -4 -0.666992 -12 -2 -24c-8.66699 -44.667 -21 -86 -37 -124v-1l16 34c10.667 22.667 26.5 46.167 47.5 70.5s43.833 44.666 68.5 60.999s48 24.5 70 24.5c21.333 0 40.166 -8.16699 56.499 -24.5
s24.5 -44.166 24.5 -83.499c0 -26 -3.66699 -54 -11 -84l-29 -122c-10.667 -45.333 -16 -73 -16 -83c0 -4.66699 0.833008 -7.66699 2.5 -9s4.83398 -2 9.50098 -2c6.66699 0 15.667 3.16699 27 9.5s21 13.5 29 21.5c9.33301 -9.33301 15.333 -20 18 -32z" />
    <glyph glyph-name="o" unicode="o" horiz-adv-x="455" 
d="M65.5 39c-27.667 32 -41.499 73.9961 -41.499 125.996c0 16.667 2.33301 38.334 7 65.001c8.66699 46.667 24.834 87.834 48.501 123.501s52.5 63.5 86.5 83.5s70.667 30 110 30c49.333 0 87.5 -15.5 114.5 -46.5s40.5 -72.5 40.5 -124.5c0 -22 -1.66699 -41.333 -5 -58
c-8 -47.333 -23.833 -89.666 -47.5 -126.999s-52.834 -66.666 -87.501 -87.999s-71.667 -32 -111 -32c-48.667 0 -86.834 16 -114.501 48zM274.501 92.4961c25 35.667 42.5 80.834 52.5 135.501c4.66699 24 7 47.667 7 71c0 37.333 -6.33301 66.666 -19 87.999
s-30.667 32 -54 32c-28.667 0 -55 -16.5 -79 -49.5s-41.333 -76.167 -52 -129.5c-5.33301 -24.667 -8 -51 -8 -79c0 -37.333 6.33301 -67 19 -89s30 -33 52 -33c29.333 0 56.5 17.833 81.5 53.5z" />
    <glyph glyph-name="p" unicode="p" horiz-adv-x="467" 
d="M432 439.5c14 -19 20.999 -47.833 20.999 -86.5c0 -25.333 -3.66699 -57.333 -11 -96c-10 -51.333 -28 -97 -54 -137s-57.667 -71.333 -95 -94s-77.333 -34 -120 -34c-12 0 -27.333 2 -46 6l1 -19c0 -22.667 -3.66699 -53.667 -11 -93l-23 -131h-91l94 534
c6 34.667 9 56 9 64c0 14.667 -4 23.834 -12 27.501s-24 5.5 -48 5.5c0 18.667 2 31.334 6 38.001c16 1.33301 38.833 6.66602 68.5 15.999s51.834 17.666 66.501 24.999c15.333 -4.66699 23 -18 23 -40c0 -4 -0.666992 -12 -2 -24c-6 -40.667 -16.667 -79 -32 -115l-9 -23
h2c20 54.667 48.833 102.5 86.5 143.5s76.5 61.5 116.5 61.5c26 0 46 -9.5 60 -28.5zM356.999 308c0 26 -3.49902 45.666 -10.499 58.999s-17.167 20 -30.5 20c-12.667 0 -29.5 -11.167 -50.5 -33.5s-41.833 -53.5 -62.5 -93.5s-37 -85.667 -49 -137l-17 -70
c17.333 -6.66699 37.666 -10 60.999 -10c39.333 0 71 14.833 95 44.5s41.333 70.834 52 123.501c8 38 12 70.333 12 97z" />
    <glyph glyph-name="q" unicode="q" horiz-adv-x="458" 
d="M376.5 455c21.667 -8 40.835 -20.667 57.502 -38c-9.33301 -14 -18.833 -37.5 -28.5 -70.5s-17.834 -68.167 -24.501 -105.5l-85 -483h-91l52 295c5.33301 33.333 17.666 75 36.999 125l6 18h-1c-20 -54.667 -48.833 -102.5 -86.5 -143.5s-76.5 -61.5 -116.5 -61.5
c-26 0 -46 9.5 -60 28.5s-21 47.833 -21 86.5c0 25.333 3.66699 57.333 11 96c10 51.333 28 97 54 137s57.667 71.333 95 94s77.333 34 120 34h2c31.333 0 57.833 -4 79.5 -12zM202.501 105.5c21 22.333 41.833 53.501 62.5 93.501s37 85.667 49 137l16 69v1
c-16 6.66699 -36 10 -60 10c-39.333 0 -71 -14.833 -95 -44.5s-41.333 -70.834 -52 -123.501c-8 -38 -12 -70.333 -12 -97c0 -26 3.5 -45.667 10.5 -59s17.167 -20 30.5 -20c12.667 0 29.5 11.167 50.5 33.5z" />
    <glyph glyph-name="r" unicode="r" horiz-adv-x="375" 
d="M211 429c0 -32 -15.6689 -84.6641 -47.002 -157.997h2l17 37c26 54 49.5 94 70.5 120s45.167 39 72.5 39c19.333 0 36.333 -6 51 -18c-11.333 -35.333 -19.333 -74 -24 -116c-12.667 -6.66699 -29 -9.33398 -49 -8.00098c0.666992 6 1 13.667 1 23c0 23.333 -4 35 -12 35
s-18.167 -7 -30.5 -21s-26.166 -35.667 -41.499 -65c-36 -72.667 -60.333 -142 -73 -208l-17 -89h-92l56 291c6.66699 33.333 10 55.333 10 66c0 13.333 -4 21.833 -12 25.5s-23.667 5.5 -47 5.5c0 17.333 2.33301 30 7 38c16 1.33301 38.833 6.66602 68.5 15.999
s51.834 17.666 66.501 24.999c15.333 -5.33301 23 -18 23 -38z" />
    <glyph glyph-name="s" unicode="s" horiz-adv-x="368" 
d="M293.5 458c23.667 -6 42.8271 -13.667 57.4941 -23c-11.333 -34 -17.666 -70 -18.999 -108c-11.333 -6 -27.666 -9 -48.999 -9c0 38 -5.5 64.5 -16.5 79.5s-28.167 22.5 -51.5 22.5c-22 0 -38.333 -4.83301 -49 -14.5s-16 -22.167 -16 -37.5
c0 -14 5.33301 -27.5 16 -40.5s26.334 -28.5 47.001 -46.5c30 -27.333 52.833 -51.833 68.5 -73.5s23.5 -47.5 23.5 -77.5c0 -9.33301 -1 -19.666 -3 -30.999c-7.33301 -36 -24.166 -63 -50.499 -81s-60.166 -27 -101.499 -27c-28.667 0 -55 3.83301 -79 11.5
s-44 16.834 -60 27.501c10 36.667 15.667 73 17 109c15.333 7.33301 31.333 10.333 48 9c-1.33301 -35.333 4 -62.666 16 -81.999s33.333 -29 64 -29c22 0 38.833 4.83301 50.5 14.5s17.5 22.167 17.5 37.5c0 13.333 -5 26.666 -15 39.999s-25 29.666 -45 48.999
c-29.333 29.333 -51.5 55 -66.5 77s-22.5 47.667 -22.5 77c0 10 1 20 3 30c6.66699 33.333 22.334 59.166 47.001 77.499s57 27.5 97 27.5c24 0 47.833 -3 71.5 -9z" />
    <glyph glyph-name="t" unicode="t" horiz-adv-x="322" 
d="M167 203c-8 -34 -12.001 -63.998 -12.001 -89.998c0 -40 11.667 -60 35 -60c11.333 0 23.833 4.16699 37.5 12.5s25.834 19.166 36.501 32.499c4.66699 -2.66699 9 -7.16699 13 -13.5s6.66699 -12.5 8 -18.5c-15.333 -20 -35.166 -37.5 -59.499 -52.5
s-48.833 -22.5 -73.5 -22.5c-30.667 0 -53.5 8.33301 -68.5 25s-22.5 42.667 -22.5 78c0 26.667 4.66699 60.667 14 102l47 207c-30.667 4 -55.334 6 -74.001 6c0 15.333 3.66699 28.333 11 39h74l2 10c15.333 68 24 114 26 138c14 2 28.333 5.16699 43 9.5
s26.667 9.16602 36 14.499c4.66699 -2 8 -5 10 -9s3 -10 3 -18c0 -16 -5.66699 -48 -17 -96l-11 -49h113c0 -16 -2.33301 -29 -7 -39c-48 0 -87 -2.33301 -117 -7z" />
    <glyph glyph-name="u" unicode="u" horiz-adv-x="508" 
d="M56 93c0 34.667 6.6709 78.6689 20.0039 132.002c9.33301 37.333 16 65.666 20 84.999s6 34.333 6 45c0 14.667 -3.83301 23.834 -11.5 27.501s-22.167 5.5 -43.5 5.5c-0.666992 2.66699 -1 6.66699 -1 12c0 9.33301 2 18 6 26
c15.333 1.33301 38.166 6.66602 68.499 15.999s51.833 17.666 64.5 24.999c7.33301 -4.66699 12.666 -9.33398 15.999 -14.001s5 -12.334 5 -23.001c0 -13.333 -3 -34.666 -9 -63.999s-17.333 -78.666 -34 -147.999c-10 -40 -15 -72.667 -15 -98
c0 -36.667 10.667 -55 32 -55c14 0 32.333 10.667 55 32s44.5 52.5 65.5 93.5s36.833 89.833 47.5 146.5l23 121h91l-49 -248c-14.667 -73.333 -22 -117.333 -22 -132c0 -7.33301 1.16699 -12.166 3.5 -14.499s6.5 -3.5 12.5 -3.5c6.66699 0 13.667 2.33301 21 7
s16.666 12.667 27.999 24c8 -7.33301 14.333 -18 19 -32c-16.667 -19.333 -35.167 -35.5 -55.5 -48.5s-39.166 -19.5 -56.499 -19.5c-44.667 0 -67 24 -67 72c0 14 1.33301 27.333 4 40c3.33301 17.333 8.66602 33.333 15.999 48h-2c-11.333 -24 -26.833 -48.333 -46.5 -73
s-41.834 -45.334 -66.501 -62.001s-49 -25 -73 -25c-48 0 -72 34 -72 102z" />
    <glyph glyph-name="v" unicode="v" horiz-adv-x="466" 
d="M439 365c0 -42 -18.4971 -92.165 -55.4971 -150.498s-100.833 -132.833 -191.5 -223.5c-18.667 -1.33301 -34.667 1.66699 -48 9c-4 58.667 -10.333 116.667 -19 174s-18.334 108 -29.001 152c-4.66699 18 -9.16699 31.333 -13.5 40s-10.833 14.667 -19.5 18
s-21.667 4.66602 -39 3.99902c0 16 1.66699 28.667 5 38c16 2 33.833 7.16699 53.5 15.5s35.167 16.833 46.5 25.5c12.667 -4 22 -9.5 28 -16.5s10.667 -16.667 14 -29s8 -34.166 14 -65.499c9.33301 -49.333 17.5 -99.5 24.5 -150.5s11.5 -94.167 13.5 -129.5
c41.333 48 72.666 92.5 93.999 133.5s32 74.167 32 99.5c0 26 -4.66699 44.667 -14 56s-25 18.666 -47 21.999c-5.33301 11.333 -7.33301 23.666 -6 36.999c17.333 4.66699 36.166 11.667 56.499 21s34.5 17 42.5 23c38.667 -14.667 58 -49 58 -103z" />
    <glyph glyph-name="w" unicode="w" horiz-adv-x="694" 
d="M666 363c0 -42.667 -16.4971 -92.6641 -49.4971 -149.997s-93.5 -131.333 -181.5 -222c-18.667 -1.33301 -34.667 1.66699 -48 9c-6.66699 83.333 -16 158 -28 224c-14 -39.333 -33 -75.666 -57 -108.999s-60.667 -74.666 -110 -123.999
c-18.667 -1.33301 -34.667 1.66699 -48 9c-4 58.667 -10.333 116.667 -19 174s-18.334 108 -29.001 152c-4.66699 18 -9.16699 31.333 -13.5 40s-10.833 14.667 -19.5 18s-21.667 4.66602 -39 3.99902c0 16 1.66699 28.667 5 38c16 2 33.833 7.16699 53.5 15.5
s35.167 16.833 46.5 25.5c12.667 -4 22 -9.5 28 -16.5s10.667 -16.667 14 -29s8 -34.166 14 -65.499c8.66699 -46.667 16.5 -95.334 23.5 -146.001s11.833 -94.334 14.5 -131.001c36 42 62.333 81.167 79 117.5s25 75.5 25 117.5c0 36 -6 76.333 -18 121
c10.667 2.66699 21.167 7 31.5 13s18.166 12.333 23.499 19c10.667 -2.66699 18.667 -6.83398 24 -12.501s10.166 -15.334 14.499 -29.001s9.83301 -36.5 16.5 -68.5c10 -47.333 19.333 -96.5 28 -147.5s14.667 -94.167 18 -129.5c38 47.333 66.167 90.5 84.5 129.5
s27.5 71.5 27.5 97.5s-5.16699 45.167 -15.5 57.5s-26.5 19.833 -48.5 22.5c-5.33301 11.333 -7.33301 23.666 -6 36.999c18 5.33301 37 12.333 57 21s34 16 42 22c40 -15.333 60 -50 60 -104z" />
    <glyph glyph-name="x" unicode="x" horiz-adv-x="464" 
d="M303.5 347.5c-19.667 -29.667 -37.165 -64.168 -52.498 -103.501c19.333 -64 36.333 -112.333 51 -145c6.66699 -15.333 13 -25.666 19 -30.999s13 -8 21 -8c7.33301 0 15.166 2.33301 23.499 7s18.833 12.667 31.5 24c8 -8.66699 14 -19.334 18 -32.001
c-17.333 -20 -36.166 -36.333 -56.499 -49s-39.5 -19 -57.5 -19c-20.667 0 -36.334 3.66699 -47.001 11s-20 20 -28 38c-10.667 24.667 -24.334 61.667 -41.001 111c-22 -44.667 -46.833 -82.5 -74.5 -113.5s-55.5 -46.5 -83.5 -46.5c-12 0 -21.5 1 -28.5 3
s-13.833 5.66699 -20.5 11c5.33301 15.333 9.66602 33.666 12.999 54.999s5 41.333 5 60c12.667 7.33301 27.334 10.333 44.001 9c1.33301 -22 3.66602 -36.333 6.99902 -43s8.66602 -10 15.999 -10c13.333 0 30 12.833 50 38.5s37.667 56.834 53 93.501
c-14.667 49.333 -25.667 90 -33 122c-5.33301 23.333 -14 39.166 -26 47.499s-30.667 11.833 -56 10.5c-0.666992 2.66699 -1 6.33398 -1 11.001c0 10 2 19 6 27c16.667 2 36.667 7.33301 60 16s40.333 17 51 25c10 -2 17.5 -6.66699 22.5 -14s9.83301 -20.333 14.5 -39
c8 -33.333 17.667 -69.666 29 -108.999c22 44.667 46.833 82.834 74.5 114.501s55.834 47.5 84.501 47.5c22.667 0 41.334 -6 56.001 -18c-6.66699 -14.667 -12.5 -33 -17.5 -55s-8.16699 -42.333 -9.5 -61c-11.333 -6.66699 -25.333 -9.33398 -42 -8.00098
c-0.666992 27.333 -3 45.333 -7 54s-10 13 -18 13c-14 0 -30.833 -14.833 -50.5 -44.5z" />
    <glyph glyph-name="y" unicode="y" horiz-adv-x="453" 
d="M417.5 437c9 -14 13.499 -30.001 13.499 -48.001c0 -40.667 -14.833 -90 -44.5 -148s-76.167 -132.667 -139.5 -224c-53.333 -77.333 -95.666 -134.666 -126.999 -171.999s-57.666 -62.166 -78.999 -74.499s-44.333 -18.5 -69 -18.5c-31.333 0 -61 12 -89 36
c-2 20 0.333008 40 7 60c33.333 -10.667 67 -16 101 -16c22 0 44 7.66699 66 23s50.333 45.666 85 90.999c-4 77.333 -10.5 149.333 -19.5 216s-19.167 121.334 -30.5 164.001c-4.66699 18 -9.16699 31.333 -13.5 40s-10.833 14.667 -19.5 18s-21.667 4.66602 -39 3.99902v9
c0 12 1.66699 21.667 5 29c16 2 33.833 7.16699 53.5 15.5s35.167 16.833 46.5 25.5c11.333 -4 19.833 -8.66699 25.5 -14s10.5 -13.833 14.5 -25.5s8.33301 -30.167 13 -55.5c11.333 -61.333 20.166 -117.166 26.499 -167.499s10.5 -101.833 12.5 -154.5l9 14
c36.667 54.667 64.834 106 84.501 154s29.5 86.333 29.5 115c0 15.333 -4.16699 27.5 -12.5 36.5s-22.833 14.833 -43.5 17.5c-5.33301 11.333 -7.33301 23.666 -6 36.999c17.333 4.66699 36.166 11.667 56.499 21s34.5 17 42.5 23c18 -6.66699 31.5 -17 40.5 -31z" />
    <glyph glyph-name="z" unicode="z" horiz-adv-x="398" 
d="M352 123c-15.333 -35.333 -25.001 -73.334 -29.001 -114.001c-4.66699 -6 -13.334 -10.5 -26.001 -13.5s-32.334 -4.5 -59.001 -4.5c-16.667 0 -49.334 1.66699 -98.001 5c-30.667 2.66699 -52.667 4 -66 4c-25.333 0 -48.333 -3 -69 -9
c-7.33301 12 -10.666 25.333 -9.99902 40c68 60.667 128.833 120.834 182.5 180.501s96.167 114.167 127.5 163.5c-22.667 4 -50.667 6 -84 6c-25.333 0 -45.166 -1.83301 -59.499 -5.5s-26.166 -9.5 -35.499 -17.5s-19.333 -20 -30 -36
c-15.333 0 -27.666 5.66699 -36.999 17c20.667 37.333 34.667 77 42 119c36.667 2.66699 81 4 133 4c54.667 0 99.667 -1.33301 135 -4c3.33301 -4.66699 6.33301 -10.5 9 -17.5s4.33398 -13.167 5.00098 -18.5c-32.667 -56.667 -73.167 -115.5 -121.5 -176.5
s-99.5 -117.167 -153.5 -168.5c14.667 4.66699 32.334 7 53.001 7l34 -1c14.667 -1.33301 26.667 -2 36 -2c22 0 37.667 3.5 47 10.5s19.666 21.5 30.999 43.5c17.333 1.33301 31.666 -2.66699 42.999 -12z" />
    <glyph glyph-name="braceleft" unicode="{" horiz-adv-x="336" 
d="M387 723c0 -6.66699 -0.334961 -11.6641 -1.00195 -14.9971c-37.333 -6.66699 -65 -20 -83 -40s-29.5 -42.667 -34.5 -68s-8.5 -59 -10.5 -101c-2 -45.333 -5.83301 -82 -11.5 -110s-19 -54 -40 -78s-52.833 -41.333 -95.5 -52
c34.667 -10.667 59.334 -26.834 74.001 -48.501s22 -48.167 22 -79.5c0 -19.333 -2 -39.833 -6 -61.5s-10 -47.5 -18 -77.5c-7.33301 -28.667 -13 -53.167 -17 -73.5s-6 -39.166 -6 -56.499c0 -24.667 5 -45.334 15 -62.001s26.333 -29.334 49 -38.001
c0 -14.667 -3.33301 -25.667 -10 -33c-46 16.667 -78.167 39.167 -96.5 67.5s-27.5 61.833 -27.5 100.5c0 29.333 6 72 18 128c4 20 7.66699 40 11 60s5 37.667 5 53c0 26 -5.16699 47.833 -15.5 65.5s-28.166 31.167 -53.499 40.5c0 13.333 3.66699 24 11 32
c31.333 10.667 54.5 26 69.5 46s24.833 41.5 29.5 64.5s8 53.5 10 91.5c2 48 7.16699 87.667 15.5 119s27.333 60.166 57 86.499s75.167 45.833 136.5 58.5c2 -4.66699 3 -11 3 -19z" />
    <glyph glyph-name="bar" unicode="|" horiz-adv-x="141" 
d="M139 711c10 6 20.667 9 32 9c6 0 12.667 -1 20 -3c-59.333 -286.667 -121.333 -605 -186 -955c-11.333 -6 -23 -9 -35 -9c-6.66699 0 -11.667 0.333008 -15 1z" />
    <glyph glyph-name="braceright" unicode="}" horiz-adv-x="342" 
d="M232 674.5c20.667 -27 31 -58.167 31 -93.5c0 -16 -1.5 -32.5 -4.5 -49.5s-7.5 -37.5 -13.5 -61.5c-4 -16.667 -7.66699 -33.667 -11 -51s-5 -32.333 -5 -45c0 -22 5 -41 15 -57s27.333 -29 52 -39c0.666992 -2.66699 1 -6.33398 1 -11.001c0 -6 -1 -13 -3 -21
c-32 -9.33301 -56.5 -24.833 -73.5 -46.5s-28.833 -46.167 -35.5 -73.5s-12.667 -63 -18 -107c-6.66699 -54.667 -14.834 -99.167 -24.501 -133.5s-28.667 -66 -57 -95s-69.5 -49.5 -123.5 -61.5c-2.66699 7.33301 -4 14.666 -4 21.999c0 4.66699 0.333008 8.33398 1 11.001
c33.333 6 58.166 19.333 74.499 40s27 44.334 32 71.001s9.16699 63 12.5 109c3.33301 52 8.5 94.5 15.5 127.5s22 63.333 45 91s57.5 47.167 103.5 58.5c-35.333 10 -60.333 24.167 -75 42.5s-22 40.5 -22 66.5c0 15.333 2 31.5 6 48.5s10 39.5 18 67.5
c16.667 51.333 25 90.333 25 117c0 24.667 -6.16699 46 -18.5 64s-33.166 32.333 -62.499 43c2.66699 16.667 6.66699 27.667 12 33c50.667 -17.333 86.334 -39.5 107.001 -66.5z" />
    <glyph glyph-name="asciitilde" unicode="~" 
d="M46 221c24 34.667 47.1709 59.333 69.5039 74s45.166 22 68.499 22c15.333 0 30.666 -2.5 45.999 -7.5s33 -12.167 53 -21.5c21.333 -9.33301 39.166 -16.333 53.499 -21s28.833 -7 43.5 -7c32 0 63 15 93 45c12 -0.666992 22.333 -5 31 -13
c-44.667 -62.667 -89 -94 -133 -94c-14.667 0 -29.334 2.66699 -44.001 8s-31.667 13 -51 23c-22 10.667 -39.833 18.5 -53.5 23.5s-27.834 7.5 -42.501 7.5c-37.333 0 -74.666 -21.667 -111.999 -65c-12.667 6 -20 14.667 -22 26z" />
    <glyph glyph-name="uni00A0" unicode="&#xa0;" horiz-adv-x="180" 
 />
    <glyph glyph-name="exclamdown" unicode="&#xa1;" horiz-adv-x="414" 
d="M273 454c9.33301 -8.66699 14.001 -20.334 14.001 -35.001c0 -17.333 -5.5 -32.166 -16.5 -44.499s-24.833 -18.5 -41.5 -18.5c-13.333 0 -24.666 4.66699 -33.999 14s-14 21 -14 35c0 6 0.333008 10.333 1 13c3.33301 15.333 9.66602 27.333 18.999 36s21 13 35 13
c15.333 0 27.666 -4.33301 36.999 -13zM122.501 1.5c20.333 81.667 38.498 159.165 54.498 232.498c2.66699 0.666992 6.66699 1 12 1c12.667 0 23.334 -2.33301 32.001 -7c-19.333 -158.667 -32.666 -308.667 -39.999 -450c-15.333 -3.33301 -33 -8.16602 -53 -14.499
s-35.667 -12.5 -47 -18.5c-12 4.66699 -18 13 -18 25c0 6 1.66699 15 5 27c16 54.667 34.167 122.834 54.5 204.501z" />
    <glyph glyph-name="cent" unicode="&#xa2;" horiz-adv-x="364" 
d="M303 330c-7.33301 0 -12.999 0.334961 -16.999 1.00195c0.666992 5.33301 1 12.333 1 21c0 33.333 -8.66699 54 -26 62c-28.667 -135.333 -51.667 -253.333 -69 -354c34.667 2 69.334 21.333 104.001 58c8.66699 -6 15.667 -15.333 21 -28
c-39.333 -50.667 -84.666 -82 -135.999 -94l-22 -132c-22.667 1.33301 -38.334 7.66602 -47.001 18.999l21 108c-39.333 1.33301 -67.833 15.5 -85.5 42.5s-26.5 62.167 -26.5 105.5c0 32.667 4 65.334 12 98.001c14 61.333 37.167 112.166 69.5 152.499
s73.166 65.166 122.499 74.499l29 151c21.333 0 37.333 -6.33301 48 -19l-29 -129c36 -1.33301 64 -9.33301 84 -24c-10.667 -32.667 -18.334 -68.667 -23.001 -108c-8 -3.33301 -18.333 -5 -31 -5zM114.001 170.002c0 -50 11.333 -83 34 -99l67 344
c-46.667 -13.333 -78 -68.333 -94 -165c-4.66699 -30 -7 -56.667 -7 -80z" />
    <glyph glyph-name="sterling" unicode="&#xa3;" horiz-adv-x="491" 
d="M416.5 674.5c23 -7 44.499 -17.832 64.499 -32.499c-8 -36.667 -13.667 -80.334 -17 -131.001c-8 -1.33301 -14 -2 -18 -2c-12 0 -23.667 2.33301 -35 7c0.666992 6 1 14.333 1 25c0 34.667 -7.33301 59.5 -22 74.5s-37.667 22.5 -69 22.5c-28 0 -52.5 -9.5 -73.5 -28.5
s-34.167 -43.833 -39.5 -74.5c-2 -14 -3 -26.667 -3 -38c0 -15.333 1.5 -29.5 4.5 -42.5s7.16699 -27.5 12.5 -43.5c10 -30 15.333 -55.333 16 -76h128c0 -21.333 -4.66699 -38.666 -14 -51.999h-120c-6.66699 -30 -18.5 -59.5 -35.5 -88.5s-40.5 -59.5 -70.5 -91.5
c29.333 14.667 59.333 22 90 22c19.333 0 36.833 -3 52.5 -9s31.834 -14 48.501 -24c8.66699 -4.66699 17 -8.83398 25 -12.501s15 -5.5 21 -5.5c18.667 0 33.667 9 45 27c6.66699 -1.33301 13.167 -4.66602 19.5 -9.99902s10.5 -11 12.5 -17
c-11.333 -25.333 -27.166 -45.5 -47.499 -60.5s-41.833 -22.5 -64.5 -22.5c-14.667 0 -27 2.16699 -37 6.5s-21.667 10.833 -35 19.5c-16 10.667 -31.333 18.834 -46 24.501s-33.667 8.5 -57 8.5c-47.333 0 -94 -19.667 -140 -59c-12.667 8 -23 20.667 -31 38
c48 38 84.5 73.167 109.5 105.5s41.5 70.166 49.5 113.499c2 12 3 23.333 3 34c-28.667 0 -63.667 -0.666992 -105 -2c-1.33301 23.333 3 41.666 13 54.999h84l-6 21c-5.33301 18 -9.33301 34.333 -12 49s-4 30.334 -4 47.001c0 13.333 1.66699 30.666 5 51.999
c5.33301 31.333 17.666 60.833 36.999 88.5s44.5 50 75.5 67s66.167 25.5 105.5 25.5c30 0 56.5 -3.5 79.5 -10.5z" />
    <glyph glyph-name="currency" unicode="&#xa4;" horiz-adv-x="466" 
d="M398 361c13.333 -22.667 20.002 -48.666 20.002 -77.999c0 -12 -1 -24 -3 -36c-8 -44.667 -26.667 -82.334 -56 -113.001l56 -61c-4 -4 -10.333 -7.5 -19 -10.5s-17.334 -4.83301 -26.001 -5.5l-44 50c-30.667 -21.333 -66.667 -32 -108 -32
c-45.333 0 -82.333 11.667 -111 35l-55 -52c-7.33301 0.666992 -15 2.83398 -23 6.50098s-14.333 8.5 -19 14.5l70 61c-16.667 26 -25 57.333 -25 94c0 15.333 1.33301 29.666 4 42.999c6 35.333 21 66 45 92l-48 50c4.66699 4.66699 11.5 8.5 20.5 11.5
s17.833 4.83301 26.5 5.5l34 -39c32.667 22.667 72 34 118 34c48 0 86.667 -12.667 116 -38l52 45c8 -2 15.667 -5.16699 23 -9.5s12.666 -8.83301 15.999 -13.5zM362.002 273.001c0 36 -10.333 64.501 -31 85.501s-49.334 31.5 -86.001 31.5c-32.667 0 -61 -10.5 -85 -31.5
s-39 -48.5 -45 -82.5c-2.66699 -17.333 -4 -30 -4 -38c0 -37.333 10.333 -67 31 -89s49.334 -33 86.001 -33c32 0 60.167 11.667 84.5 35s39.833 52.666 46.5 87.999c2 12 3 23.333 3 34z" />
    <glyph glyph-name="yen" unicode="&#xa5;" horiz-adv-x="582" 
d="M652 679c0 -14.667 -2.99805 -28.9941 -8.99805 -42.9941c-14.667 -6 -27.834 -14.333 -39.501 -25s-28.5 -33.334 -50.5 -68.001c-50.667 -78.667 -89 -136.667 -115 -174h108c1.33301 -19.333 -2.66699 -36.666 -12 -51.999h-133l-35 -48l-4 -21h170
c-1.33301 -20 -6.66602 -37.333 -15.999 -52h-163l-13 -74c-2.66699 -17.333 -4 -28.333 -4 -33c0 -14.667 4.83301 -25.334 14.5 -32.001s28.5 -12.334 56.5 -17.001c2 -8 3 -17 3 -27c0 -6.66699 -0.333008 -12 -1 -16c-28 2 -70.667 3 -128 3c-63.333 0 -107 -1 -131 -3
c0 16.667 2.33301 31.334 7 44.001c22.667 4 39.667 8.66699 51 14s19.833 13.666 25.5 24.999s10.5 28.666 14.5 51.999l11 63c-40.667 0 -97 -0.666992 -169 -2c-2 22 1.33301 40.333 10 55h168l4 20c-8 25.333 -13.333 41.666 -16 48.999l-151 -3
c-1.33301 23.333 3 41.666 13 54.999h121c-20 57.333 -41.667 114.666 -65 171.999c-10.667 26 -19.334 45.167 -26.001 57.5s-13.167 20.833 -19.5 25.5s-14.833 9 -25.5 13c-1.33301 5.33301 -2 12.666 -2 21.999c0 8.66699 0.333008 15.334 1 20.001
c24.667 -2 61.667 -3 111 -3c50.667 0 92.667 1 126 3c0 -12.667 -3 -27.334 -9 -44.001c-24.667 -3.33301 -42.167 -8.16602 -52.5 -14.499s-15.5 -15.5 -15.5 -27.5c0 -9.33301 3 -21.666 9 -36.999c29.333 -75.333 55 -154.333 77 -237
c49.333 68 95.666 138.667 138.999 212c18.667 32 28 55.333 28 70c0 9.33301 -3.66699 16.666 -11 21.999s-19.333 9.66602 -36 12.999c-1.33301 5.33301 -2 13 -2 23c0 8.66699 0.333008 15.334 1 20.001c22 -2 54 -3 96 -3c38 0 67.667 1 89 3z" />
    <glyph glyph-name="brokenbar" unicode="&#xa6;" horiz-adv-x="143" 
d="M139 711c10 6 20.667 9 32 9c6 0 12.667 -1 20 -3c-31.333 -150.667 -55.333 -276.667 -72 -378c-9.33301 -5.33301 -19.333 -8 -30 -8c-8.66699 0 -16 1.33301 -22 4zM33 161c9.33301 4.66699 19.667 7 31 7c6.66699 0 13.667 -1 21 -3
c-19.333 -86.667 -46 -221 -80 -403c-11.333 -6 -23 -9 -35 -9c-6.66699 0 -11.667 0.333008 -15 1z" />
    <glyph glyph-name="section" unicode="&#xa7;" horiz-adv-x="512" 
d="M257 519c17.333 -19.333 44 -42.333 80 -69c29.333 -21.333 53.333 -40.5 72 -57.5s34.5 -37.333 47.5 -61s19.5 -50.5 19.5 -80.5c0 -12.667 -1.66699 -28 -5 -46c-7.33301 -36.667 -26 -68.834 -56 -96.501s-69 -48.834 -117 -63.501c23.333 -20.667 41.5 -42 54.5 -64
s19.5 -47 19.5 -75c0 -11.333 -1 -23 -3 -35c-6.66699 -34.667 -26.334 -63 -59.001 -85s-74 -33 -124 -33c-28 0 -54.167 4 -78.5 12s-45.5 19.667 -63.5 35c7.33301 47.333 11 90.333 11 129c10 4 22.333 6 37 6c8 0 14 -0.333008 18 -1
c0.666992 -36.667 4.5 -64.667 11.5 -84s16.833 -32.666 29.5 -39.999s29.334 -11 50.001 -11c24.667 0 44.334 7.66699 59.001 23s22 35.666 22 60.999c0 24.667 -8.66699 46.667 -26 66s-44 42.333 -80 69c-29.333 21.333 -53.333 40.5 -72 57.5s-34.5 37.333 -47.5 61
s-19.5 50.5 -19.5 80.5c0 12.667 1.66699 28 5 46c7.33301 36.667 26 68.834 56 96.501s69 48.834 117 63.501c-23.333 20.667 -41.5 42 -54.5 64s-19.5 47 -19.5 75c0 11.333 1 23 3 35c6.66699 34.667 26.334 63 59.001 85s74 33 124 33c28 0 54.167 -4 78.5 -12
s45.5 -19.667 63.5 -35c-7.33301 -47.333 -11 -90.333 -11 -129c-10 -4 -22.333 -6 -37 -6c-8 0 -14 0.333008 -18 1c-0.666992 36.667 -4.5 64.667 -11.5 84s-16.833 32.666 -29.5 39.999s-29.334 11 -50.001 11c-24.667 0 -44.334 -7.66699 -59.001 -23
s-22 -35.666 -22 -60.999c0 -24.667 8.66699 -46.667 26 -66zM376 226c0 23.333 -5.33301 44.334 -16 63.001s-23.334 34.667 -38.001 48s-36.334 31 -65.001 53c-30 -10.667 -55.667 -26.5 -77 -47.5s-34.666 -44.167 -39.999 -69.5c-2 -10.667 -3 -21 -3 -31
c0 -23.333 5.33301 -44.333 16 -63s23.334 -34.667 38.001 -48s36.334 -31 65.001 -53c30 10.667 55.667 26.5 77 47.5s34.666 44.167 39.999 69.5c2 11.333 3 21.666 3 30.999z" />
    <glyph glyph-name="dieresis" unicode="&#xa8;" horiz-adv-x="300" 
d="M102 545.5c-8 9 -12 20.167 -12 33.5c0 3.33301 0.666992 9 2 17c6.66699 29.333 24.334 44 53.001 44c15.333 0 27.166 -4 35.499 -12s12.5 -18.667 12.5 -32c0 -18 -5.5 -33.167 -16.5 -45.5s-24.833 -18.5 -41.5 -18.5c-14 0 -25 4.5 -33 13.5zM256.5 545
c-8.33301 8 -12.501 19.001 -12.501 33.001c0 3.33301 0.666992 8.33301 2 15c6.66699 31.333 25.334 47 56.001 47c14 0 25.167 -3.5 33.5 -10.5s12.5 -17.5 12.5 -31.5c0 -6 -0.333008 -10.667 -1 -14c-2.66699 -16.667 -9 -29.334 -19 -38.001s-22.333 -13 -37 -13
s-26.167 4 -34.5 12z" />
    <glyph glyph-name="copyright" unicode="&#xa9;" horiz-adv-x="737" 
d="M175.5 -76c-44.333 23.333 -78.3311 56.498 -101.998 99.498s-35.5 92.833 -35.5 149.5c0 27.333 3 56.333 9 87c12.667 62.667 35.667 117.334 69 164.001s75.166 82.834 125.499 108.501s106.5 38.5 168.5 38.5c59.333 0 110.833 -11.833 154.5 -35.5
s77.167 -56.667 100.5 -99s35 -91.5 35 -147.5c0 -28 -3 -57.667 -9 -89c-12.667 -64 -35.834 -119.333 -69.501 -166s-75.5 -82.5 -125.5 -107.5s-105.333 -37.5 -166 -37.5c-58.667 0 -110.167 11.667 -154.5 35zM540.502 4.49805
c54.333 47.667 89.833 112.833 106.5 195.5c6 28 9 55.333 9 82c0 48 -9.66699 90.667 -29 128s-47.833 66.333 -85.5 87s-83.5 31 -137.5 31c-81.333 0 -149.5 -23.667 -204.5 -71s-91.167 -113 -108.5 -197c-6 -28.667 -9 -56.667 -9 -84c0 -74 22.167 -133 66.5 -177
s106.5 -66 186.5 -66c82.667 0 151.167 23.833 205.5 71.5zM217.002 48.9971c-18.667 24.667 -28.001 57.332 -28.001 97.999c0 30 4 60.333 12 91c16 64.667 43.333 116.167 82 154.5s88.334 57.5 149.001 57.5c18 0 35.333 -2 52 -6s30.334 -9.33301 41.001 -16
c-11.333 -31.333 -19 -64.666 -23 -99.999c-6 -2.66699 -16 -4 -30 -4c-8 0 -14 0.333008 -18 1c0.666992 4.66699 1 11 1 19c0 22 -4 37.667 -12 47s-20.333 14 -37 14c-58.667 0 -97.667 -51.667 -117 -155c-5.33301 -32 -8 -56.667 -8 -74c0 -30 5.66699 -54.333 17 -73
s30.333 -28 57 -28c38 0 74.333 18 109 54c8.66699 -6 15.667 -14.667 21 -26c-26 -30.667 -54.5 -53.5 -85.5 -68.5s-62.167 -22.5 -93.5 -22.5c-40.667 0 -70.334 12.333 -89.001 37z" />
    <glyph glyph-name="ordfeminine" unicode="&#xaa;" horiz-adv-x="453" 
d="M420.5 429c3.66699 -6.66699 6.16895 -12.9961 7.50195 -18.9961c-12.667 -14 -26.667 -25.667 -42 -35s-29 -14 -41 -14c-18.667 0 -32.167 5 -40.5 15s-12.5 22.667 -12.5 38c0 20 5 40.667 15 62h-2c-16 -31.333 -36.333 -58.333 -61 -81s-50 -34 -76 -34
c-39.333 0 -59 28.333 -59 85c0 23.333 2.66699 47.333 8 72c11.333 58.667 35.666 106.5 72.999 143.5s80 55.5 128 55.5c15.333 0 29.333 -2.33301 42 -7c6.66699 -0.666992 14.167 -0.333984 22.5 0.999023s15.166 3.33301 20.499 6c4 -2 6.83301 -4.5 8.5 -7.5
s2.5 -7.83301 2.5 -14.5c0 -10.667 -2.33301 -26.667 -7 -48l-39 -171c-4 -20.667 -6 -34.334 -6 -41.001c0 -4.66699 0.833008 -7.83398 2.5 -9.50098s4.5 -2.5 8.5 -2.5c4.66699 0 10.167 1.66699 16.5 5s12.833 8.33301 19.5 15
c4 -2.66699 7.83301 -7.33398 11.5 -14.001zM244.502 454.504c14.333 14.333 29.168 35.501 44.501 63.501s28.333 61.667 39 101l14 50c-12.667 4 -27 6 -43 6c-52 0 -87 -40.333 -105 -121c-6.66699 -30.667 -10 -56.334 -10 -77.001c0 -29.333 8.33301 -44 25 -44
c9.33301 0 21.166 7.16699 35.499 21.5z" />
    <glyph glyph-name="guillemotleft" unicode="&#xab;" horiz-adv-x="431" 
d="M238 411.5c6.66699 -3.66699 11.3311 -7.83203 13.998 -12.499c-19.333 -20 -41.166 -44 -65.499 -72s-42.166 -50 -53.499 -66c6 -18 16.333 -42.167 31 -72.5s27 -54.166 37 -71.499c-2.66699 -14 -10.334 -25.333 -23.001 -34c-42.667 58.667 -85.667 111 -129 157
c0 16 4.33301 29 13 39l23 19l70 60.5c23.333 20.333 44.333 40.166 63 59.499c6.66699 -0.666992 13.334 -2.83398 20.001 -6.50098zM397.997 405.502c6.66699 -3.66699 11.3311 -7.83203 13.998 -12.499c-16.667 -18 -35.667 -40 -57 -66s-38.666 -48 -51.999 -66
c6.66699 -19.333 15.834 -42.833 27.501 -70.5s21.834 -50.5 30.501 -68.5c-2.66699 -14 -10.334 -25.333 -23.001 -34c-42.667 58.667 -82.334 109.334 -119.001 152.001c0 16 4.33301 29 13 39c56 47.333 104.667 91.666 146 132.999
c6.66699 -0.666992 13.334 -2.83398 20.001 -6.50098z" />
    <glyph glyph-name="logicalnot" unicode="&#xac;" 
d="M510 348l-46 -232c-12 -6 -25.667 -9 -41 -9c-6.66699 0 -11.667 0.333008 -15 1l39 190h-187c-84 0 -148.667 -0.333008 -194 -1c0 8 1 17.5 3 28.5s4.33301 18.5 7 22.5h434z" />
    <glyph glyph-name="uni00AD" unicode="&#xad;" horiz-adv-x="372" 
d="M63 293h272.999c-0.666992 -26 -5 -47.667 -13 -65c-108 0 -200.333 -1 -277 -3c2.66699 29.333 8.33398 52 17.001 68z" />
    <glyph glyph-name="registered" unicode="&#xae;" horiz-adv-x="503" 
d="M416 748c28.667 -16.667 51.166 -39.334 67.499 -68.001s24.5 -60.334 24.5 -95.001s-8.33301 -66.334 -25 -95.001s-39.167 -51.167 -67.5 -67.5s-59.833 -24.5 -94.5 -24.5s-66.334 8.16699 -95.001 24.5s-51.334 38.833 -68.001 67.5s-25 60.334 -25 95.001
s8.33301 66.334 25 95.001s39.334 51.334 68.001 68.001s60.334 25 95.001 25s66.334 -8.33301 95.001 -25zM398.499 454c23 13.333 40.999 31.5 53.999 54.5s19.5 48.5 19.5 76.5s-6.66699 53.667 -20 77s-31.5 41.666 -54.5 54.999s-48.5 20 -76.5 20
s-53.667 -6.66699 -77 -20s-41.666 -31.666 -54.999 -54.999s-20 -49 -20 -77s6.66699 -53.5 20 -76.5s31.5 -41.167 54.5 -54.5s48.833 -20 77.5 -20s54.5 6.66699 77.5 20zM390.998 680c10 -7.33301 14.999 -18.666 14.999 -33.999
c0 -16.667 -4.66699 -32.834 -14 -48.501s-23.666 -26.167 -42.999 -31.5c18 -21.333 31.667 -47 41 -77c-8.66699 -4 -17.667 -6 -27 -6c-5.33301 0 -9.33301 0.333008 -12 1c-8 30 -19.667 55 -35 75l-22 1l-12 -75c-9.33301 -1.33301 -16 -2 -20 -2s-10 0.666992 -18 2
l31 197c21.333 6 44 9 68 9c22 0 38 -3.66699 48 -11zM366.997 636c0 10 -3.16895 17.5 -9.50195 22.5s-14.166 7.5 -23.499 7.5c-5.33301 0 -13.333 -1.33301 -24 -4l-12 -77c4 -0.666992 10 -1 18 -1c28.667 0 45.334 13.333 50.001 40c0.666992 2.66699 1 6.66699 1 12z
" />
    <glyph glyph-name="macron" unicode="&#xaf;" horiz-adv-x="300" 
d="M47 608.5c1.33301 9.66699 3.66699 17.166 7 22.499h348c0 -13.333 -3 -27.666 -9 -42.999c-137.333 0 -253.333 -1 -348 -3c0 6 0.666992 13.833 2 23.5z" />
    <glyph glyph-name="degree" unicode="&#xb0;" horiz-adv-x="385" 
d="M361 672c21.333 -18.667 32.001 -43.999 32.001 -75.999c0 -42 -13.5 -76.167 -40.5 -102.5s-61.167 -39.5 -102.5 -39.5c-37.333 0 -66.833 10 -88.5 30s-32.5 47 -32.5 81c0 9.33301 1 19.333 3 30c5.33301 31.333 21 56.666 47 75.999s57.333 29 94 29
c37.333 0 66.666 -9.33301 87.999 -28zM225.001 644.001c-12 -12 -19.667 -27.667 -23 -47c-2 -10.667 -3 -20.667 -3 -30c0 -22.667 5 -40.5 15 -53.5s24 -19.5 42 -19.5c18.667 0 34.5 9.5 47.5 28.5s19.5 42.833 19.5 71.5c0 20.667 -5 37.167 -15 49.5
s-23.667 18.5 -41 18.5c-16 0 -30 -6 -42 -18z" />
    <glyph glyph-name="plusminus" unicode="&#xb1;" 
d="M239 187l8.00098 39.001c2 8.66699 5.33301 25 10 49c-59.333 0 -111 -0.333008 -155 -1c0 21.333 3.33301 37.666 10 48.999h154c10 50.667 19.333 102.667 28 156c10 4 20 6 30 6c5.33301 0 12 -0.666992 20 -2l-30 -160h156c2 -18 -1 -34 -9 -48h-51h-105l-27 -144
c-8 -4.66699 -17 -7 -27 -7c-4.66699 0 -12.334 1.33301 -23.001 4c4 23.333 7.66699 43 11 59zM464.001 90.001c2 -18.667 -1.33398 -34.666 -10.001 -47.999c-37.333 0.666992 -104.666 1 -201.999 1c-96.667 0 -174 -0.666992 -232 -2c0 21.333 3.33301 37.666 10 48.999
h434z" />
    <glyph glyph-name="uni00B2" unicode="&#xb2;" horiz-adv-x="346" 
d="M351.5 617.5c-14.333 -15.667 -40.499 -36.835 -78.499 -63.502c-24.667 -18 -53 -40 -85 -66h76c21.333 0 35.333 2.16699 42 6.5s12.334 15.5 17.001 33.5c19.333 0 32.666 -1.66699 39.999 -5c-7.33301 -40 -11 -71.333 -11 -94
c-3.33301 -6 -7.83301 -10.833 -13.5 -14.5s-11.834 -5.5 -18.501 -5.5l-126 1l-113 -1c-4 7.33301 -6 15 -6 23c0 2.66699 0.666992 8.66699 2 18c23.333 20.667 64.333 54 123 100c30.667 23.333 52 43 64 59s20 33.333 24 52c1.33301 4.66699 2 11.667 2 21
c0 27.333 -13.333 41 -40 41c-16.667 0 -30.334 -6.66699 -41.001 -20s-21.667 -37.666 -33 -72.999c-19.333 0 -34.666 2.33301 -45.999 7c4 12.667 7.83301 28 11.5 46s5.5 33 5.5 45c40 22.667 84.333 34 133 34c67.333 0 101 -22.333 101 -67
c0 -9.33301 -0.666992 -16.666 -2 -21.999c-4 -21.333 -13.167 -39.833 -27.5 -55.5z" />
    <glyph glyph-name="uni00B3" unicode="&#xb3;" horiz-adv-x="330" 
d="M331 582c-19.333 -16 -42.666 -25.9971 -69.999 -29.9971c26 -4.66699 46.333 -14.834 61 -30.501s22 -35.834 22 -60.501c0 -8.66699 -1 -18.667 -3 -30c-8.66699 -42 -30 -75.833 -64 -101.5s-76.333 -38.5 -127 -38.5c-49.333 0 -83.333 12.667 -102 38
c1.33301 10 6.66602 18.333 15.999 25c5.33301 -6.66699 14.166 -11.834 26.499 -15.501s25.5 -5.5 39.5 -5.5c30 0 56.333 9 79 27s37 43 43 75c1.33301 10.667 2 17.667 2 21c0 24 -8.16699 41 -24.5 51s-38.166 16.333 -65.499 19c-0.666992 2 -1 5.33301 -1 10
c0 10 2 18.333 6 25c64 3.33301 102.333 36.333 115 99c1.33301 6 2 13.667 2 23c0 14 -3.5 24.167 -10.5 30.5s-17.5 9.5 -31.5 9.5c-20 0 -35.833 -6.83301 -47.5 -20.5s-23.167 -38.167 -34.5 -73.5c-20 0 -35 4 -45 12c9.33301 40.667 14.333 72 15 94
c34.667 17.333 74.667 26 120 26c80 0 120 -27.333 120 -82c0 -8.66699 -1 -18 -3 -28c-6 -30 -18.667 -53 -38 -69z" />
    <glyph glyph-name="acute" unicode="&#xb4;" horiz-adv-x="300" 
d="M268 722c22.667 0 41.667 -5 57 -15c-54 -50.667 -107.333 -110.667 -160 -180c-14.667 1.33301 -26.667 6 -36 14c44.667 70 75.667 128.333 93 175c16 4 31.333 6 46 6z" />
    <glyph glyph-name="uni00B5" unicode="&#xb5;" horiz-adv-x="508" 
d="M475 59c-40 -45.333 -78.3301 -67.999 -114.997 -67.999c-19.333 0 -33.666 6.16699 -42.999 18.5s-14 29.833 -14 52.5c0 14 1.33301 27.667 4 41c3.33301 16.667 8.66602 32.667 15.999 48h-2c-8.66699 -23.333 -21.5 -47.5 -38.5 -72.5s-35.667 -45.833 -56 -62.5
s-39.833 -25 -58.5 -25c-18 0 -31.333 7.5 -40 22.5s-13.334 33.833 -14.001 56.5l-22 -114c-8 -42 -12 -75.667 -12 -101c0 -8 0.666992 -17.333 2 -28c-16.667 -9.33301 -30 -18.5 -40 -27.5s-24.333 -23.5 -43 -43.5c-4.66699 3.33301 -8.5 7.83301 -11.5 13.5
s-4.83301 11.5 -5.5 17.5l13 41c6.66699 21.333 14 51.666 22 90.999l75 364c7.33301 33.333 11 56.666 11 69.999c0 15.333 -3.83301 25 -11.5 29s-22.5 6 -44.5 6c-0.666992 2.66699 -1 6.66699 -1 12c0 9.33301 2 18 6 26c15.333 1.33301 38.166 6.66602 68.499 15.999
s51.833 17.666 64.5 24.999c8 -5.33301 13.5 -10.166 16.5 -14.499s4.5 -11.5 4.5 -21.5c0 -13.333 -3 -34.666 -9 -63.999s-17.333 -79 -34 -149c-10 -42 -15 -75.333 -15 -100c0 -35.333 9.66699 -53 29 -53c15.333 0 34.333 10.5 57 31.5s44.667 52.167 66 93.5
s37.333 90.333 48 147l23 121h91l-49 -248c-14.667 -75.333 -22 -119.666 -22 -132.999c0 -7.33301 1 -12 3 -14s5.33301 -3 10 -3c8.66699 0 16.667 2.33301 24 7s16.666 12.667 27.999 24c8 -7.33301 14.333 -18 19 -32z" />
    <glyph glyph-name="paragraph" unicode="&#xb6;" horiz-adv-x="555" 
d="M600 679c-1.33301 -16 -4.33398 -30.3311 -9.00098 -42.998c-20 -2.66699 -34.667 -6.33398 -44 -11.001s-16.166 -12 -20.499 -22s-8.5 -26 -12.5 -48c-28.667 -148.667 -52.334 -277.334 -71.001 -386.001l-68 -415c-10.667 -1.33301 -18.334 -2 -23.001 -2
c-10 0 -19 1.33301 -27 4l153 877c-25.333 1.33301 -44.666 2 -57.999 2c-57.333 -294 -109 -588.333 -155 -883c-3.33301 -0.666992 -8.33301 -1 -15 -1c-14.667 0 -26 2.66699 -34 8l97 559c-8.66699 -1.33301 -21.334 -2 -38.001 -2
c-59.333 0 -104.833 12.833 -136.5 38.5s-47.5 62.5 -47.5 110.5c0 16.667 1.33301 32 4 46c9.33301 51.333 37.333 92 84 122s113.334 45 200.001 45l84 -1c14.667 -0.666992 36.334 -1 65.001 -1s52.667 1 72 3zM368.999 636.002h-12c-54 0 -93.833 -9 -119.5 -27
s-42.5 -49 -50.5 -93c-2.66699 -13.333 -4 -27 -4 -41c0 -40 11.167 -70 33.5 -90s50.833 -30 85.5 -30h18z" />
    <glyph glyph-name="periodcentered" unicode="&#xb7;" horiz-adv-x="196" 
d="M68 232c-9.33301 8.66699 -14.002 20.334 -14.002 35.001c0 17.333 5.5 32.166 16.5 44.499s24.833 18.5 41.5 18.5c14 0 25.5 -4.5 34.5 -13.5s13.5 -20.833 13.5 -35.5c0 -6 -0.333008 -10.333 -1 -13c-3.33301 -15.333 -9.66602 -27.333 -18.999 -36s-21 -13 -35 -13
c-15.333 0 -27.666 4.33301 -36.999 13z" />
    <glyph glyph-name="cedilla" unicode="&#xb8;" horiz-adv-x="300" 
d="M-4 -225c0 6.66699 0.333008 11.668 1 15.001c28.667 0 50.834 5.16699 66.501 15.5s23.5 26.166 23.5 47.499c0 14.667 -5 26 -15 34s-23.333 12 -40 12c-7.33301 6 -11 15 -11 27c0 4.66699 0.333008 8.33398 1 11.001l65 79h55l-58 -71c42.667 -8 64 -32.667 64 -74
c0 -9.33301 -1 -19 -3 -29c-6 -28 -22.333 -49.333 -49 -64s-59.334 -21.334 -98.001 -20.001c-1.33301 3.33301 -2 9 -2 17z" />
    <glyph glyph-name="uni00B9" unicode="&#xb9;" horiz-adv-x="262" 
d="M85 445c18.667 1.33301 32.0029 6.33008 40.0029 14.9971s14.333 25.667 19 51l28 146c2.66699 12.667 4 23.667 4 33c0 12 -2.83301 20.167 -8.5 24.5s-15.167 6.83301 -28.5 7.5c-1.33301 6.66699 -2 12 -2 16c0 6.66699 1 14 3 22c14 -1.33301 44.667 -2 92 -2
s78 0.666992 92 2c0 -12 -3 -24.667 -9 -38c-18.667 -1.33301 -31.834 -6.16602 -39.501 -14.499s-13.834 -25.166 -18.501 -50.499l-28 -145c-2.66699 -13.333 -4 -25 -4 -35c0 -12 2.66699 -20.167 8 -24.5s14.666 -6.83301 27.999 -7.5
c0.666992 -3.33301 1 -8.66602 1 -15.999c0 -9.33301 -0.666992 -16.333 -2 -21l-92 2c-29.333 0 -60 -0.666992 -92 -2c0 12.667 3 25 9 37z" />
    <glyph glyph-name="ordmasculine" unicode="&#xba;" horiz-adv-x="413" 
d="M387 683c20 -22.667 29.999 -54.333 29.999 -95c0 -16 -1.33301 -31.667 -4 -47c-10 -56 -32 -100.5 -66 -133.5s-73.667 -49.5 -119 -49.5c-36.667 0 -64.834 11 -84.501 33s-29.5 52.333 -29.5 91c0 16 1.33301 30.667 4 44c10.667 58.667 32.834 105.167 66.501 139.5
s72.834 51.5 117.501 51.5c36.667 0 65 -11.333 85 -34zM239.999 640.501c-15.333 -23 -27 -56.5 -35 -100.5c-4.66699 -23.333 -7 -45.333 -7 -66c0 -24 3.33301 -42.333 10 -55s15.667 -19 27 -19c20 0 38 11.667 54 35s28 57 36 101c4 23.333 6 44 6 62
c0 23.333 -3.16699 42 -9.5 56s-15.5 21 -27.5 21c-20.667 0 -38.667 -11.5 -54 -34.5z" />
    <glyph glyph-name="guillemotright" unicode="&#xbb;" horiz-adv-x="441" 
d="M396 281c3.33301 -8 5.00098 -15.333 5.00098 -22c0 -6 -1 -11.667 -3 -17c-46.667 -38 -104.667 -88.667 -174 -152c-4.66699 4.66699 -8.33398 10.5 -11.001 17.5s-4 13.833 -4 20.5c46.667 44.667 85 84.667 115 120c-7.33301 20.667 -18.5 47 -33.5 79
s-28.5 58.667 -40.5 80c10 8 22.333 11 37 9c32 -45.333 68.333 -90.333 109 -135zM219.001 281c3.33301 -8 4.99902 -15.333 4.99902 -22c0 -6 -1 -11.667 -3 -17c-53.333 -44.667 -107.666 -93.667 -162.999 -147c-4.66699 4.66699 -8.33398 10.5 -11.001 17.5
s-4 13.833 -4 20.5c38.667 38.667 73.334 77 104.001 115c-18 50 -39.333 101.333 -64 154c10 8 22.333 11 37 9c30 -44 63 -87.333 99 -130z" />
    <glyph glyph-name="onequarter" unicode="&#xbc;" horiz-adv-x="846" 
d="M321 722c2.66699 -3.33301 3.99707 -8.33496 3.99707 -15.002c0 -2 -0.666992 -7.66699 -2 -17l-57 -292c-3.33301 -16.667 -5 -29 -5 -37c0 -15.333 4.66699 -25.666 14 -30.999s26.333 -8.66602 51 -9.99902c1.33301 -12 0.333008 -25.667 -3 -41
c-53.333 1.33301 -96.666 2 -129.999 2c-37.333 0 -80.666 -0.666992 -129.999 -2c2 16 6 29.667 12 41c22.667 1.33301 40.167 3.83301 52.5 7.5s22.333 10.834 30 21.501s13.5 27 17.5 49l37 191c2.66699 16 4 26 4 30c0 14 -6.16699 23.333 -18.5 28s-37.166 7 -74.499 7
c3.33301 18 7.66602 32 12.999 42c67.333 5.33301 124.333 16.666 171 33.999c6.66699 -2 11.334 -4.66699 14.001 -8zM112.997 20.998l644 691.999c12 -3.33301 24 -12.666 36 -27.999l-644 -692c-14.667 4.66699 -26.667 14 -36 28zM709.997 110.997
c-2.66699 -13.333 -3.99805 -25.334 -3.99805 -36.001c0 -12.667 3 -21 9 -25s16.333 -6.66699 31 -8c1.33301 -5.33301 0.333008 -20.333 -3 -45c-46 2 -80 3 -102 3c-31.333 0 -66 -1 -104 -3c1.33301 8.66699 3.16602 17.667 5.49902 27s4.5 15.333 6.5 18
c25.333 1.33301 43.333 6.33301 54 15s19 26.667 25 54l1 7c-62 -0.666992 -119.667 -3 -173 -7c-6.66699 8.66699 -10 20.334 -10 35.001c0 6 0.333008 10.667 1 14l26 26c110.667 109.333 194 197 250 263c3.33301 0.666992 8 1 14 1c13.333 0 25.666 -2.33301 36.999 -7
l-49 -252h47c8.66699 0 15.167 -0.666992 19.5 -2s7.83301 -4 10.5 -8c-13.333 -20 -23.333 -40.667 -30 -62h-60zM642.999 190.996l29 147l-136 -147h107z" />
    <glyph glyph-name="onehalf" unicode="&#xbd;" horiz-adv-x="928" 
d="M321 722c2.66699 -3.33301 3.99707 -8.33496 3.99707 -15.002c0 -2 -0.666992 -7.66699 -2 -17l-57 -292c-3.33301 -16.667 -5 -29 -5 -37c0 -15.333 4.66699 -25.666 14 -30.999s26.333 -8.66602 51 -9.99902c1.33301 -12 0.333008 -25.667 -3 -41
c-53.333 1.33301 -96.666 2 -129.999 2c-37.333 0 -80.666 -0.666992 -129.999 -2c2 16 6 29.667 12 41c22.667 1.33301 40.167 3.83301 52.5 7.5s22.333 10.834 30 21.501s13.5 27 17.5 49l37 191c2.66699 16 4 26 4 30c0 14 -6.16699 23.333 -18.5 28s-37.166 7 -74.499 7
c3.33301 18 7.66602 32 12.999 42c67.333 5.33301 124.333 16.666 171 33.999c6.66699 -2 11.334 -4.66699 14.001 -8zM112.997 20.998l644 691.999c12 -3.33301 24 -12.666 36 -27.999l-644 -692c-14.667 4.66699 -26.667 14 -36 28zM857.497 276.497
c-17.667 -21.667 -45.1641 -47.833 -82.4971 -78.5c-50.667 -40.667 -94 -77.667 -130 -111h92c18.667 0 33 1.66699 43 5s18.333 9.5 25 18.5s13 23.167 19 42.5c20 1.33301 36.333 -1 49 -7c-7.33301 -30 -12.333 -54.5 -15 -73.5s-3.66699 -36.5 -3 -52.5
c-4 -7.33301 -9.66699 -12.833 -17 -16.5s-15 -5.5 -23 -5.5c-3.33301 0 -15.833 0.333008 -37.5 1s-49.167 1 -82.5 1c-38.667 0 -70 -0.333008 -94 -1l-67 -1c-5.33301 6.66699 -8 15 -8 25c0 3.33301 0.666992 8.33301 2 15l189 179
c21.333 19.333 37.666 37.5 48.999 54.5s18.666 35.167 21.999 54.5c2 8 3 15.667 3 23c0 32 -18 48 -54 48c-22 0 -39.167 -7.33301 -51.5 -22s-25.5 -41.667 -39.5 -81c-20 0 -37 2.33301 -51 7c10.667 33.333 17.667 72.333 21 117c46.667 20.667 95.667 31 147 31
c87.333 0 131 -26 131 -78c0 -7.33301 -1 -15.666 -3 -24.999c-4.66699 -24.667 -15.834 -47.834 -33.501 -69.501z" />
    <glyph glyph-name="threequarters" unicode="&#xbe;" horiz-adv-x="912" 
d="M402.5 562c-22.333 -20 -53.499 -32.6699 -93.499 -38.0029c33.333 -5.33301 59.166 -16.166 77.499 -32.499s27.5 -37.5 27.5 -63.5c0 -10.667 -0.666992 -18.667 -2 -24c-8 -41.333 -30.667 -73.166 -68 -95.499s-86.666 -33.5 -147.999 -33.5
c-58 0 -103.333 12.333 -136 37c8.66699 25.333 14 54 16 86c7.33301 2 14.666 3 21.999 3c8.66699 0 18.667 -1.66699 30 -5c0 -30 4.33301 -50.833 13 -62.5s27 -17.5 55 -17.5c30.667 0 56.334 8.16699 77.001 24.5s33.667 38.833 39 67.5c0.666992 3.33301 1 8 1 14
c0 44 -40.667 67.667 -122 71c-2 14.667 0.666992 28.334 8 41.001c38 0 69 8.33301 93 25s39 40 45 70c0.666992 3.33301 1 8 1 14c0 14.667 -4.83301 26 -14.5 34s-23.834 12 -42.501 12c-24 0 -42.667 -6.66699 -56 -20s-26.333 -36 -39 -68
c-22 2.66699 -38.333 8.66699 -49 18c8.66699 32 13 60.667 13 86c38.667 16.667 86.667 25 144 25c46 0 81.167 -7.83301 105.5 -23.5s36.5 -37.5 36.5 -65.5c0 -32.667 -11.167 -59 -33.5 -79zM179.001 20.9971l644 691.999c12 -3.33301 24 -12.666 36 -27.999l-644 -692
c-14.667 4.66699 -26.667 14 -36 28zM776.001 110.996c-2.66699 -13.333 -3.99805 -25.334 -3.99805 -36.001c0 -12.667 3 -21 9 -25s16.333 -6.66699 31 -8c1.33301 -5.33301 0.333008 -20.333 -3 -45c-46 2 -80 3 -102 3c-31.333 0 -66 -1 -104 -3
c1.33301 8.66699 3.16602 17.667 5.49902 27s4.5 15.333 6.5 18c25.333 1.33301 43.333 6.33301 54 15s19 26.667 25 54l1 7c-62 -0.666992 -119.667 -3 -173 -7c-6.66699 8.66699 -10 20.334 -10 35.001c0 6 0.333008 10.667 1 14l26 26c110.667 109.333 194 197 250 263
c3.33301 0.666992 8 1 14 1c13.333 0 25.666 -2.33301 36.999 -7l-49 -252h47c8.66699 0 15.167 -0.666992 19.5 -2s7.83301 -4 10.5 -8c-13.333 -20 -23.333 -40.667 -30 -62h-60zM709.003 190.995l29 147l-136 -147h107z" />
    <glyph glyph-name="questiondown" unicode="&#xbf;" horiz-adv-x="521" 
d="M337 453c9.33301 -8.66699 14.001 -20.334 14.001 -35.001c0 -17.333 -5.5 -32.166 -16.5 -44.499s-24.833 -18.5 -41.5 -18.5c-13.333 0 -24.666 4.66699 -33.999 14s-14 21 -14 35c0 6 0.333008 10.333 1 13c3.33301 15.333 9.66602 27.333 18.999 36s21 13 35 13
c15.333 0 27.666 -4.33301 36.999 -13zM256.501 -243c-26.333 -8.66699 -54.1699 -13 -83.5029 -13c-43.333 0 -77.5 10.333 -102.5 31s-37.5 48.334 -37.5 83.001c0 9.33301 1 19.666 3 30.999c6 27.333 16.667 51.166 32 71.499s37 43.833 65 70.5
c30.667 28.667 54.334 54.167 71.001 76.5s28 49.5 34 81.5c3.33301 13.333 5 30 5 50c0 8.66699 -0.333008 14.667 -1 18c9.33301 5.33301 20.333 8 33 8c6.66699 -5.33301 12.167 -15.333 16.5 -30s6.5 -31.334 6.5 -50.001c0 -14.667 -1.33301 -28.667 -4 -42
c-6 -32 -16.5 -58.833 -31.5 -80.5s-35.833 -46.5 -62.5 -74.5c-20.667 -20.667 -36.667 -38.667 -48 -54s-18.666 -32.666 -21.999 -51.999c-2 -10 -3 -19.667 -3 -29c0 -20.667 5.16699 -37.167 15.5 -49.5s25.5 -18.5 45.5 -18.5c22.667 0 42.334 10 59.001 30
s32 53 46 99c10.667 0 19.167 -0.666992 25.5 -2s12.5 -4 18.5 -8c-7.33301 -25.333 -12.5 -45.666 -15.5 -60.999s-5.16699 -34 -6.5 -56c-12.667 -11.333 -32.167 -21.333 -58.5 -30z" />
    <glyph glyph-name="Agrave" unicode="&#xc0;" horiz-adv-x="687" 
d="M626 -3c-22 2 -59.001 3.00195 -111.001 3.00195c-49.333 0 -87.333 -1 -114 -3c0 17.333 2.66699 31.666 8 42.999c22.667 2.66699 38.5 7 47.5 13s13.5 16.333 13.5 31c0 9.33301 -2 22 -6 38c-9.33301 38 -17 70.333 -23 97c-106.667 0 -195.667 -1.33301 -267 -4
c-12 -21.333 -21.333 -37.333 -28 -48l-14 -24c-20 -34 -30 -58 -30 -72c0 -9.33301 3.5 -16.166 10.5 -20.499s18.5 -7.83301 34.5 -10.5c2.66699 -14 3.66699 -28.333 3 -43c-21.333 2 -52 3 -92 3c-37.333 0 -65.666 -1 -84.999 -3c0 17.333 2.66699 31.666 8 42.999
c18 5.33301 33.5 15.166 46.5 29.499s31.167 41.5 54.5 81.5l299 525c9.33301 4 22.333 6 39 6c51.333 -178.667 99.333 -362 144 -550c6 -24.667 11.667 -43 17 -55s11 -20.333 17 -25s14.333 -8.66699 25 -12c3.33301 -12 4.33301 -26.333 3 -43zM428.999 265.002
c-15.333 63.333 -31.334 123.998 -48.001 181.998c-10 34 -18 69 -24 105c-13.333 -27.333 -32.666 -64.666 -57.999 -111.999c-36.667 -69.333 -68.667 -127.666 -96 -174.999h226zM433.998 737c-8.66699 0 -15.334 1.33301 -20.001 4c-22 32.667 -58.667 74.667 -110 126
c16 5.33301 33.667 8 53 8c12.667 0 26.334 -1.66699 41.001 -5c12 -46.667 29 -90 51 -130c-4 -2 -9 -3 -15 -3z" />
    <glyph glyph-name="Aacute" unicode="&#xc1;" horiz-adv-x="687" 
d="M626 -3c-22 2 -59.001 3.00195 -111.001 3.00195c-49.333 0 -87.333 -1 -114 -3c0 17.333 2.66699 31.666 8 42.999c22.667 2.66699 38.5 7 47.5 13s13.5 16.333 13.5 31c0 9.33301 -2 22 -6 38c-9.33301 38 -17 70.333 -23 97c-106.667 0 -195.667 -1.33301 -267 -4
c-12 -21.333 -21.333 -37.333 -28 -48l-14 -24c-20 -34 -30 -58 -30 -72c0 -9.33301 3.5 -16.166 10.5 -20.499s18.5 -7.83301 34.5 -10.5c2.66699 -14 3.66699 -28.333 3 -43c-21.333 2 -52 3 -92 3c-37.333 0 -65.666 -1 -84.999 -3c0 17.333 2.66699 31.666 8 42.999
c18 5.33301 33.5 15.166 46.5 29.499s31.167 41.5 54.5 81.5l299 525c9.33301 4 22.333 6 39 6c51.333 -178.667 99.333 -362 144 -550c6 -24.667 11.667 -43 17 -55s11 -20.333 17 -25s14.333 -8.66699 25 -12c3.33301 -12 4.33301 -26.333 3 -43zM428.999 265.002
c-15.333 63.333 -31.334 123.998 -48.001 181.998c-10 34 -18 69 -24 105c-13.333 -27.333 -32.666 -64.666 -57.999 -111.999c-36.667 -69.333 -68.667 -127.666 -96 -174.999h226zM360.998 745c19.333 22.667 36.333 45.668 51 69.001s26 43.666 34 60.999
c18.667 2.66699 32.334 4 41.001 4c23.333 0 44.333 -4.33301 63 -13c-48.667 -39.333 -99.334 -85 -152.001 -137c-14 0.666992 -26.333 6 -37 16z" />
    <glyph glyph-name="Acircumflex" unicode="&#xc2;" horiz-adv-x="687" 
d="M626 -3c-22 2 -59.001 3.00195 -111.001 3.00195c-49.333 0 -87.333 -1 -114 -3c0 17.333 2.66699 31.666 8 42.999c22.667 2.66699 38.5 7 47.5 13s13.5 16.333 13.5 31c0 9.33301 -2 22 -6 38c-9.33301 38 -17 70.333 -23 97c-106.667 0 -195.667 -1.33301 -267 -4
c-12 -21.333 -21.333 -37.333 -28 -48l-14 -24c-20 -34 -30 -58 -30 -72c0 -9.33301 3.5 -16.166 10.5 -20.499s18.5 -7.83301 34.5 -10.5c2.66699 -14 3.66699 -28.333 3 -43c-21.333 2 -52 3 -92 3c-37.333 0 -65.666 -1 -84.999 -3c0 17.333 2.66699 31.666 8 42.999
c18 5.33301 33.5 15.166 46.5 29.499s31.167 41.5 54.5 81.5l299 525c9.33301 4 22.333 6 39 6c51.333 -178.667 99.333 -362 144 -550c6 -24.667 11.667 -43 17 -55s11 -20.333 17 -25s14.333 -8.66699 25 -12c3.33301 -12 4.33301 -26.333 3 -43zM428.999 265.002
c-15.333 63.333 -31.334 123.998 -48.001 181.998c-10 34 -18 69 -24 105c-13.333 -27.333 -32.666 -64.666 -57.999 -111.999c-36.667 -69.333 -68.667 -127.666 -96 -174.999h226zM280.998 749.5c-2 7.66699 -2.66602 14.8311 -1.99902 21.498
c38.667 22.667 89 58 151 106c2.66699 0.666992 6 1 10 1c9.33301 0 18.666 -2 27.999 -6c21.333 -26 56.666 -64.333 105.999 -115c-2 -6 -5.66699 -11.167 -11 -15.5s-11.333 -7.16602 -18 -8.49902c-39.333 26 -79.666 47.333 -120.999 64
c-34 -13.333 -78.667 -35.666 -134 -66.999c-4 5.33301 -7 11.833 -9 19.5z" />
    <glyph glyph-name="Atilde" unicode="&#xc3;" horiz-adv-x="687" 
d="M626 -3c-22 2 -59.001 3.00195 -111.001 3.00195c-49.333 0 -87.333 -1 -114 -3c0 17.333 2.66699 31.666 8 42.999c22.667 2.66699 38.5 7 47.5 13s13.5 16.333 13.5 31c0 9.33301 -2 22 -6 38c-9.33301 38 -17 70.333 -23 97c-106.667 0 -195.667 -1.33301 -267 -4
c-12 -21.333 -21.333 -37.333 -28 -48l-14 -24c-20 -34 -30 -58 -30 -72c0 -9.33301 3.5 -16.166 10.5 -20.499s18.5 -7.83301 34.5 -10.5c2.66699 -14 3.66699 -28.333 3 -43c-21.333 2 -52 3 -92 3c-37.333 0 -65.666 -1 -84.999 -3c0 17.333 2.66699 31.666 8 42.999
c18 5.33301 33.5 15.166 46.5 29.499s31.167 41.5 54.5 81.5l299 525c9.33301 4 22.333 6 39 6c51.333 -178.667 99.333 -362 144 -550c6 -24.667 11.667 -43 17 -55s11 -20.333 17 -25s14.333 -8.66699 25 -12c3.33301 -12 4.33301 -26.333 3 -43zM428.999 265.002
c-15.333 63.333 -31.334 123.998 -48.001 181.998c-10 34 -18 69 -24 105c-13.333 -27.333 -32.666 -64.666 -57.999 -111.999c-36.667 -69.333 -68.667 -127.666 -96 -174.999h226zM442.498 752.5c-10.333 3 -21.833 7.49902 -34.5 13.499
c-12.667 5.33301 -23.5 9.5 -32.5 12.5s-18.5 4.5 -28.5 4.5c-24 0 -50 -10.667 -78 -32c-8 9.33301 -11 22 -9 38c39.333 38.667 79.333 58 120 58c12 0 23.167 -1.5 33.5 -4.5s22.833 -7.83301 37.5 -14.5c11.333 -5.33301 20.833 -9.16602 28.5 -11.499
s15.834 -3.5 24.501 -3.5c19.333 0 40 9.33301 62 28c13.333 -6.66699 21.666 -14 24.999 -22c-36.667 -47.333 -75.334 -71 -116.001 -71c-11.333 0 -22.166 1.5 -32.499 4.5z" />
    <glyph glyph-name="Adieresis" unicode="&#xc4;" horiz-adv-x="687" 
d="M626 -3c-22 2 -59.001 3.00195 -111.001 3.00195c-49.333 0 -87.333 -1 -114 -3c0 17.333 2.66699 31.666 8 42.999c22.667 2.66699 38.5 7 47.5 13s13.5 16.333 13.5 31c0 9.33301 -2 22 -6 38c-9.33301 38 -17 70.333 -23 97c-106.667 0 -195.667 -1.33301 -267 -4
c-12 -21.333 -21.333 -37.333 -28 -48l-14 -24c-20 -34 -30 -58 -30 -72c0 -9.33301 3.5 -16.166 10.5 -20.499s18.5 -7.83301 34.5 -10.5c2.66699 -14 3.66699 -28.333 3 -43c-21.333 2 -52 3 -92 3c-37.333 0 -65.666 -1 -84.999 -3c0 17.333 2.66699 31.666 8 42.999
c18 5.33301 33.5 15.166 46.5 29.499s31.167 41.5 54.5 81.5l299 525c9.33301 4 22.333 6 39 6c51.333 -178.667 99.333 -362 144 -550c6 -24.667 11.667 -43 17 -55s11 -20.333 17 -25s14.333 -8.66699 25 -12c3.33301 -12 4.33301 -26.333 3 -43zM428.999 265.002
c-15.333 63.333 -31.334 123.998 -48.001 181.998c-10 34 -18 69 -24 105c-13.333 -27.333 -32.666 -64.666 -57.999 -111.999c-36.667 -69.333 -68.667 -127.666 -96 -174.999h226zM284.998 745c-8 8.66699 -11.999 20.333 -11.999 35c0 18.667 5.16699 33.334 15.5 44.001
s24.166 16 41.499 16c14 0 25.167 -3.83301 33.5 -11.5s12.5 -17.834 12.5 -30.501c0 -7.33301 -0.666992 -13 -2 -17c-4 -15.333 -10.833 -27.333 -20.5 -36s-21.5 -13 -35.5 -13s-25 4.33301 -33 13zM479.999 745.499c-8 8.33301 -12 19.5 -12 33.5
c0 19.333 5.16699 34.333 15.5 45s24.833 16 43.5 16c14 0 24.833 -3.83301 32.5 -11.5s11.5 -18.167 11.5 -31.5c0 -5.33301 -0.333008 -9.66602 -1 -12.999c-2.66699 -16.667 -9 -29.334 -19 -38.001s-22.667 -13 -38 -13c-14 0 -25 4.16699 -33 12.5z" />
    <glyph glyph-name="Aring" unicode="&#xc5;" horiz-adv-x="687" 
d="M626 -3c-22 2 -59.001 3.00195 -111.001 3.00195c-49.333 0 -87.333 -1 -114 -3c0 17.333 2.66699 31.666 8 42.999c22.667 2.66699 38.5 7 47.5 13s13.5 16.333 13.5 31c0 9.33301 -2 22 -6 38c-9.33301 38 -17 70.333 -23 97c-106.667 0 -195.667 -1.33301 -267 -4
c-12 -21.333 -21.333 -37.333 -28 -48l-14 -24c-20 -34 -30 -58 -30 -72c0 -9.33301 3.5 -16.166 10.5 -20.499s18.5 -7.83301 34.5 -10.5c2.66699 -14 3.66699 -28.333 3 -43c-21.333 2 -52 3 -92 3c-37.333 0 -65.666 -1 -84.999 -3c0 17.333 2.66699 31.666 8 42.999
c18 5.33301 33.5 15.166 46.5 29.499s31.167 41.5 54.5 81.5l299 525c9.33301 4 22.333 6 39 6c51.333 -178.667 99.333 -362 144 -550c6 -24.667 11.667 -43 17 -55s11 -20.333 17 -25s14.333 -8.66699 25 -12c3.33301 -12 4.33301 -26.333 3 -43zM428.999 265.002
c-15.333 63.333 -31.334 123.998 -48.001 181.998c-10 34 -18 69 -24 105c-13.333 -27.333 -32.666 -64.666 -57.999 -111.999c-36.667 -69.333 -68.667 -127.666 -96 -174.999h226zM348.998 741c-16.667 12.667 -25 29.332 -25 49.999c0 26 9.33301 46.333 28 61
s44.667 22 78 22s57.5 -6.66699 72.5 -20s22.5 -30.333 22.5 -51c0 -25.333 -9.16699 -45.166 -27.5 -59.499s-44.166 -21.5 -77.499 -21.5c-30.667 0 -54.334 6.33301 -71.001 19zM467.998 790.998c1.33301 5.33301 2.00195 9.33301 2.00195 12
c0 11.333 -3.83301 20.666 -11.5 27.999s-17.834 11 -30.501 11c-14.667 0 -26.834 -5 -36.501 -15s-14.5 -21.667 -14.5 -35c0 -11.333 4 -20.166 12 -26.499s19 -9.5 33 -9.5c24.667 0 40 11.667 46 35z" />
    <glyph glyph-name="AE" unicode="&#xc6;" horiz-adv-x="856" 
d="M584 631l-49 -290.003h42c42 0 72.167 5.83301 90.5 17.5s30.166 33.5 35.499 65.5c10 2 19 3 27 3c3.33301 0 10.333 -0.666992 21 -2c-9.33301 -37.333 -16.333 -74.333 -21 -111c-6 -39.333 -10 -77.666 -12 -114.999c-20.667 2 -36 6.33301 -46 13l1 17
c0 26.667 -7.16699 44.834 -21.5 54.501s-40.5 14.5 -78.5 14.5h-46l-26 -155c-3.33301 -21.333 -5 -37.333 -5 -48c0 -20.667 5.5 -34.167 16.5 -40.5s31.5 -9.5 61.5 -9.5h4c39.333 0 70.5 4.66699 93.5 14s41.167 22.5 54.5 39.5s28 41.5 44 73.5
c19.333 -3.33301 34.333 -10.666 45 -21.999c-24.667 -47.333 -42.667 -98.333 -54 -153c-39.333 2 -103.666 3 -192.999 3c-115.333 0 -199.333 -1 -252 -3c0 15.333 2.33301 29.666 7 42.999c20.667 2.66699 36.167 7 46.5 13s18 15.5 23 28.5s9.83301 33.5 14.5 61.5
l27 155c-58.667 0 -113 -1 -163 -3l-126 -173c-18 -24 -27 -42.333 -27 -55s9.66699 -21.667 29 -27c2.66699 -14 3.66699 -28.333 3 -43c-21.333 2 -52 3 -92 3c-37.333 0 -65.666 -1 -84.999 -3c0 17.333 2.66699 31.666 8 42.999c19.333 6 36.666 15.167 51.999 27.5
s36.333 35.5 63 69.5l299 401c16.667 22.667 25 42 25 58c0 22.667 -19 36 -57 40c-1.33301 5.33301 -2 13 -2 23c0 8.66699 0.333008 15.334 1 20.001c53.333 -2 109 -3 167 -3h1h62c106.667 0 194.334 1 263.001 3c-5.33301 -40.667 -8 -83 -8 -127
c0 -16.667 0.333008 -28.667 1 -36c-12.667 -5.33301 -29.334 -7.66602 -50.001 -6.99902c-1.33301 32.667 -5 57.167 -11 73.5s-18.833 28.5 -38.5 36.5s-50.5 12 -92.5 12h-72zM442 340.997l29.999 173.001c6.66699 37.333 14.334 71.666 23.001 102.999
c-40 -63.333 -103.333 -155.333 -190 -276h137z" />
    <glyph glyph-name="Ccedilla" unicode="&#xc7;" horiz-adv-x="635" 
d="M565 671c32.667 -9.33301 66.334 -24.3311 101.001 -44.998c-14 -38 -25 -88.333 -33 -151c-10 -3.33301 -20 -5 -30 -5c-8 0 -16 1 -24 3c2.66699 25.333 4 42.666 4 51.999c0 45.333 -10.167 76.5 -30.5 93.5s-50.833 25.5 -91.5 25.5c-55.333 0 -104 -13.667 -146 -41
s-75.5 -64.5 -100.5 -111.5s-40.833 -99.833 -47.5 -158.5c-2 -16 -3 -31.333 -3 -46c0 -68.667 17.167 -125 51.5 -169s85.166 -66 152.499 -66c70 0 136.667 19.333 200 58c9.33301 -9.33301 14.666 -22 15.999 -38c-71.333 -50.667 -146.666 -77.667 -225.999 -81
l-38 -46c42.667 -8 64 -32.667 64 -74c0 -9.33301 -1 -19 -3 -29c-6 -28 -22.333 -49.333 -49 -64s-59.334 -21.334 -98.001 -20.001c-1.33301 3.33301 -2 9 -2 17c0 6.66699 0.333008 11.667 1 15c28.667 0 50.834 5.16699 66.501 15.5s23.5 26.166 23.5 47.499
c0 14.667 -5 26 -15 34s-23.333 12 -40 12c-7.33301 6 -11 15 -11 27c0 4.66699 0.333008 8.33398 1 11.001l46 56c-78.667 7.33301 -139.5 36.5 -182.5 87.5s-64.5 115.167 -64.5 192.5c0 11.333 1.33301 29.666 4 54.999c10 79.333 35 145.833 75 199.5
s88 93.334 144 119.001s114 38.5 174 38.5c41.333 0 78.333 -4.66699 111 -14z" />
    <glyph glyph-name="Egrave" unicode="&#xc8;" horiz-adv-x="583" 
d="M296 631l-45.001 -267.003h56c42 0 72.167 5.66699 90.5 17s30.166 33 35.499 65c10 2 19 3 27 3c3.33301 0 10.333 -0.666992 21 -2c-9.33301 -37.333 -16.333 -74.333 -21 -111c-6 -39.333 -10 -77.666 -12 -114.999c-20.667 2 -36 6.33301 -46 13l1 17
c0 26 -7.16699 43.833 -21.5 53.5s-40.5 14.5 -78.5 14.5h-60l-30 -176c-3.33301 -21.333 -5 -37.333 -5 -48c0 -20.667 5.5 -34.167 16.5 -40.5s31.5 -9.5 61.5 -9.5h19c39.333 0 70.5 4.66699 93.5 14s41.167 22.5 54.5 39.5s28 41.5 44 73.5
c19.333 -3.33301 34.333 -10.666 45 -21.999c-24.667 -47.333 -42.667 -98.333 -54 -153c-39.333 2 -108.666 3 -207.999 3c-115.333 0 -199 -1 -251 -3c0 15.333 2.33301 29.666 7 42.999c20.667 2.66699 36 7 46 13s17.5 15.5 22.5 28.5s9.83301 33.5 14.5 61.5l69 397
c2.66699 14 4 27.333 4 40c0 19.333 -4.66699 32.833 -14 40.5s-25.666 12.834 -48.999 15.501c-1.33301 10.667 -2 19 -2 25c0 8 0.333008 14 1 18c52 -2 110.667 -3 176 -3c116.667 0 209.334 1 278.001 3c-5.33301 -40.667 -8 -83 -8 -127
c0 -16.667 0.333008 -28.667 1 -36c-12.667 -5.33301 -29.334 -7.66602 -50.001 -6.99902c-1.33301 32.667 -5 57.167 -11 73.5s-18.833 28.5 -38.5 36.5s-50.5 12 -92.5 12h-87zM398.999 736.997c-8.66699 0 -15.334 1.33301 -20.001 4c-22 32.667 -58.667 74.667 -110 126
c16 5.33301 33.667 8 53 8c12.667 0 26.334 -1.66699 41.001 -5c12 -46.667 29 -90 51 -130c-4 -2 -9 -3 -15 -3z" />
    <glyph glyph-name="Eacute" unicode="&#xc9;" horiz-adv-x="583" 
d="M296 631l-45.001 -267.003h56c42 0 72.167 5.66699 90.5 17s30.166 33 35.499 65c10 2 19 3 27 3c3.33301 0 10.333 -0.666992 21 -2c-9.33301 -37.333 -16.333 -74.333 -21 -111c-6 -39.333 -10 -77.666 -12 -114.999c-20.667 2 -36 6.33301 -46 13l1 17
c0 26 -7.16699 43.833 -21.5 53.5s-40.5 14.5 -78.5 14.5h-60l-30 -176c-3.33301 -21.333 -5 -37.333 -5 -48c0 -20.667 5.5 -34.167 16.5 -40.5s31.5 -9.5 61.5 -9.5h19c39.333 0 70.5 4.66699 93.5 14s41.167 22.5 54.5 39.5s28 41.5 44 73.5
c19.333 -3.33301 34.333 -10.666 45 -21.999c-24.667 -47.333 -42.667 -98.333 -54 -153c-39.333 2 -108.666 3 -207.999 3c-115.333 0 -199 -1 -251 -3c0 15.333 2.33301 29.666 7 42.999c20.667 2.66699 36 7 46 13s17.5 15.5 22.5 28.5s9.83301 33.5 14.5 61.5l69 397
c2.66699 14 4 27.333 4 40c0 19.333 -4.66699 32.833 -14 40.5s-25.666 12.834 -48.999 15.501c-1.33301 10.667 -2 19 -2 25c0 8 0.333008 14 1 18c52 -2 110.667 -3 176 -3c116.667 0 209.334 1 278.001 3c-5.33301 -40.667 -8 -83 -8 -127
c0 -16.667 0.333008 -28.667 1 -36c-12.667 -5.33301 -29.334 -7.66602 -50.001 -6.99902c-1.33301 32.667 -5 57.167 -11 73.5s-18.833 28.5 -38.5 36.5s-50.5 12 -92.5 12h-87zM325.999 744.997c19.333 22.667 36.333 45.668 51 69.001s26 43.666 34 60.999
c18.667 2.66699 32.334 4 41.001 4c23.333 0 44.333 -4.33301 63 -13c-48.667 -39.333 -99.334 -85 -152.001 -137c-14 0.666992 -26.333 6 -37 16z" />
    <glyph glyph-name="Ecircumflex" unicode="&#xca;" horiz-adv-x="583" 
d="M296 631l-45.001 -267.003h56c42 0 72.167 5.66699 90.5 17s30.166 33 35.499 65c10 2 19 3 27 3c3.33301 0 10.333 -0.666992 21 -2c-9.33301 -37.333 -16.333 -74.333 -21 -111c-6 -39.333 -10 -77.666 -12 -114.999c-20.667 2 -36 6.33301 -46 13l1 17
c0 26 -7.16699 43.833 -21.5 53.5s-40.5 14.5 -78.5 14.5h-60l-30 -176c-3.33301 -21.333 -5 -37.333 -5 -48c0 -20.667 5.5 -34.167 16.5 -40.5s31.5 -9.5 61.5 -9.5h19c39.333 0 70.5 4.66699 93.5 14s41.167 22.5 54.5 39.5s28 41.5 44 73.5
c19.333 -3.33301 34.333 -10.666 45 -21.999c-24.667 -47.333 -42.667 -98.333 -54 -153c-39.333 2 -108.666 3 -207.999 3c-115.333 0 -199 -1 -251 -3c0 15.333 2.33301 29.666 7 42.999c20.667 2.66699 36 7 46 13s17.5 15.5 22.5 28.5s9.83301 33.5 14.5 61.5l69 397
c2.66699 14 4 27.333 4 40c0 19.333 -4.66699 32.833 -14 40.5s-25.666 12.834 -48.999 15.501c-1.33301 10.667 -2 19 -2 25c0 8 0.333008 14 1 18c52 -2 110.667 -3 176 -3c116.667 0 209.334 1 278.001 3c-5.33301 -40.667 -8 -83 -8 -127
c0 -16.667 0.333008 -28.667 1 -36c-12.667 -5.33301 -29.334 -7.66602 -50.001 -6.99902c-1.33301 32.667 -5 57.167 -11 73.5s-18.833 28.5 -38.5 36.5s-50.5 12 -92.5 12h-87zM245.999 749.497c-2 7.66699 -2.66602 14.8311 -1.99902 21.498c38.667 22.667 89 58 151 106
c2.66699 0.666992 6 1 10 1c9.33301 0 18.666 -2 27.999 -6c21.333 -26 56.666 -64.333 105.999 -115c-2 -6 -5.66699 -11.167 -11 -15.5s-11.333 -7.16602 -18 -8.49902c-39.333 26 -79.666 47.333 -120.999 64c-34 -13.333 -78.667 -35.666 -134 -66.999
c-4 5.33301 -7 11.833 -9 19.5z" />
    <glyph glyph-name="Edieresis" unicode="&#xcb;" horiz-adv-x="583" 
d="M296 631l-45.001 -267.003h56c42 0 72.167 5.66699 90.5 17s30.166 33 35.499 65c10 2 19 3 27 3c3.33301 0 10.333 -0.666992 21 -2c-9.33301 -37.333 -16.333 -74.333 -21 -111c-6 -39.333 -10 -77.666 -12 -114.999c-20.667 2 -36 6.33301 -46 13l1 17
c0 26 -7.16699 43.833 -21.5 53.5s-40.5 14.5 -78.5 14.5h-60l-30 -176c-3.33301 -21.333 -5 -37.333 -5 -48c0 -20.667 5.5 -34.167 16.5 -40.5s31.5 -9.5 61.5 -9.5h19c39.333 0 70.5 4.66699 93.5 14s41.167 22.5 54.5 39.5s28 41.5 44 73.5
c19.333 -3.33301 34.333 -10.666 45 -21.999c-24.667 -47.333 -42.667 -98.333 -54 -153c-39.333 2 -108.666 3 -207.999 3c-115.333 0 -199 -1 -251 -3c0 15.333 2.33301 29.666 7 42.999c20.667 2.66699 36 7 46 13s17.5 15.5 22.5 28.5s9.83301 33.5 14.5 61.5l69 397
c2.66699 14 4 27.333 4 40c0 19.333 -4.66699 32.833 -14 40.5s-25.666 12.834 -48.999 15.501c-1.33301 10.667 -2 19 -2 25c0 8 0.333008 14 1 18c52 -2 110.667 -3 176 -3c116.667 0 209.334 1 278.001 3c-5.33301 -40.667 -8 -83 -8 -127
c0 -16.667 0.333008 -28.667 1 -36c-12.667 -5.33301 -29.334 -7.66602 -50.001 -6.99902c-1.33301 32.667 -5 57.167 -11 73.5s-18.833 28.5 -38.5 36.5s-50.5 12 -92.5 12h-87zM249.999 744.997c-8 8.66699 -11.999 20.333 -11.999 35
c0 18.667 5.16699 33.334 15.5 44.001s24.166 16 41.499 16c14 0 25.167 -3.83301 33.5 -11.5s12.5 -17.834 12.5 -30.501c0 -7.33301 -0.666992 -13 -2 -17c-4 -15.333 -10.833 -27.333 -20.5 -36s-21.5 -13 -35.5 -13s-25 4.33301 -33 13zM445 745.496
c-8 8.33301 -12 19.5 -12 33.5c0 19.333 5.16699 34.333 15.5 45s24.833 16 43.5 16c14 0 24.833 -3.83301 32.5 -11.5s11.5 -18.167 11.5 -31.5c0 -5.33301 -0.333008 -9.66602 -1 -12.999c-2.66699 -16.667 -9 -29.334 -19 -38.001s-22.667 -13 -38 -13
c-14 0 -25 4.16699 -33 12.5z" />
    <glyph glyph-name="Igrave" unicode="&#xcc;" horiz-adv-x="357" 
d="M193 583c0 18 -4.83398 30.5029 -14.501 37.5029s-26.167 12.167 -49.5 15.5c-1.33301 10.667 -2 19 -2 25c0 8 0.333008 14 1 18c37.333 -2 77.333 -3 120 -3c41.333 0 82 1 122 3c-1.33301 -18 -4.33301 -32.333 -9 -43c-18 -3.33301 -31.667 -7.5 -41 -12.5
s-16.833 -13.167 -22.5 -24.5s-10.5 -28 -14.5 -50l-73 -422c-2.66699 -13.333 -4 -26 -4 -38c0 -16.667 4.5 -28.334 13.5 -35.001s25.5 -11.334 49.5 -14.001c2 -8 3 -17 3 -27c0 -7.33301 -0.333008 -12.666 -1 -15.999c-40 2 -80.333 3 -121 3c-46.667 0 -87 -1 -121 -3
c0 16.667 2.66699 31 8 43c18.667 2 32.834 5.5 42.501 10.5s17.167 13.167 22.5 24.5s10 28.666 14 51.999l73 422c2.66699 17.333 4 28.666 4 33.999zM280.999 737.003c-8.66699 0 -15.334 1.33301 -20.001 4c-22 32.667 -58.667 74.667 -110 126
c16 5.33301 33.667 8 53 8c12.667 0 26.334 -1.66699 41.001 -5c12 -46.667 29 -90 51 -130c-4 -2 -9 -3 -15 -3z" />
    <glyph glyph-name="Iacute" unicode="&#xcd;" horiz-adv-x="357" 
d="M193 583c0 18 -4.83398 30.5029 -14.501 37.5029s-26.167 12.167 -49.5 15.5c-1.33301 10.667 -2 19 -2 25c0 8 0.333008 14 1 18c37.333 -2 77.333 -3 120 -3c41.333 0 82 1 122 3c-1.33301 -18 -4.33301 -32.333 -9 -43c-18 -3.33301 -31.667 -7.5 -41 -12.5
s-16.833 -13.167 -22.5 -24.5s-10.5 -28 -14.5 -50l-73 -422c-2.66699 -13.333 -4 -26 -4 -38c0 -16.667 4.5 -28.334 13.5 -35.001s25.5 -11.334 49.5 -14.001c2 -8 3 -17 3 -27c0 -7.33301 -0.333008 -12.666 -1 -15.999c-40 2 -80.333 3 -121 3c-46.667 0 -87 -1 -121 -3
c0 16.667 2.66699 31 8 43c18.667 2 32.834 5.5 42.501 10.5s17.167 13.167 22.5 24.5s10 28.666 14 51.999l73 422c2.66699 17.333 4 28.666 4 33.999zM207.999 745.003c19.333 22.667 36.333 45.668 51 69.001s26 43.666 34 60.999c18.667 2.66699 32.334 4 41.001 4
c23.333 0 44.333 -4.33301 63 -13c-48.667 -39.333 -99.334 -85 -152.001 -137c-14 0.666992 -26.333 6 -37 16z" />
    <glyph glyph-name="Icircumflex" unicode="&#xce;" horiz-adv-x="357" 
d="M141 750c41.333 28.667 87.666 69.335 138.999 122.002c18 0 29.333 -1 34 -3c36.667 -60.667 56.334 -93.334 59.001 -98.001l27 -45c-3.33301 -2.66699 -8.5 -5 -15.5 -7s-13.5 -3.33301 -19.5 -4c-34 35.333 -63.333 61.666 -88 78.999
c-33.333 -22 -72 -50.333 -116 -85c-13.333 10 -20 23.667 -20 41zM193 583.001c0 18 -4.83398 30.5029 -14.501 37.5029s-26.167 12.167 -49.5 15.5c-1.33301 10.667 -2 19 -2 25c0 8 0.333008 14 1 18c37.333 -2 77.333 -3 120 -3c41.333 0 82 1 122 3
c-1.33301 -18 -4.33301 -32.333 -9 -43c-18 -3.33301 -31.667 -7.5 -41 -12.5s-16.833 -13.167 -22.5 -24.5s-10.5 -28 -14.5 -50l-73 -422c-2.66699 -13.333 -4 -26 -4 -38c0 -16.667 4.5 -28.334 13.5 -35.001s25.5 -11.334 49.5 -14.001c2 -8 3 -17 3 -27
c0 -7.33301 -0.333008 -12.666 -1 -15.999c-40 2 -80.333 3 -121 3c-46.667 0 -87 -1 -121 -3c0 16.667 2.66699 31 8 43c18.667 2 32.834 5.5 42.501 10.5s17.167 13.167 22.5 24.5s10 28.666 14 51.999l73 422c2.66699 17.333 4 28.666 4 33.999z" />
    <glyph glyph-name="Idieresis" unicode="&#xcf;" horiz-adv-x="357" 
d="M150 750c-9.33301 8.66699 -14.001 19.667 -14.001 33c0 15.333 5.5 28.5 16.5 39.5s26.167 16.5 45.5 16.5c17.333 0 30 -4 38 -12s12 -19 12 -33c0 -6 -0.333008 -10.667 -1 -14c-2.66699 -12.667 -9.5 -23 -20.5 -31s-24.167 -12 -39.5 -12
s-27.666 4.33301 -36.999 13zM304.499 750.5c-9 8.33301 -13.499 19.499 -13.499 33.499c0 17.333 5.66699 30.833 17 40.5s26.333 14.5 45 14.5c15.333 0 27.666 -4.16699 36.999 -12.5s14 -19.166 14 -32.499c0 -4 -0.333008 -7.33301 -1 -10
c-6.66699 -30.667 -26.667 -46 -60 -46c-16.667 0 -29.5 4.16699 -38.5 12.5zM193 582.999c0 18 -4.83398 30.5029 -14.501 37.5029s-26.167 12.167 -49.5 15.5c-1.33301 10.667 -2 19 -2 25c0 8 0.333008 14 1 18c37.333 -2 77.333 -3 120 -3c41.333 0 82 1 122 3
c-1.33301 -18 -4.33301 -32.333 -9 -43c-18 -3.33301 -31.667 -7.5 -41 -12.5s-16.833 -13.167 -22.5 -24.5s-10.5 -28 -14.5 -50l-73 -422c-2.66699 -13.333 -4 -26 -4 -38c0 -16.667 4.5 -28.334 13.5 -35.001s25.5 -11.334 49.5 -14.001c2 -8 3 -17 3 -27
c0 -7.33301 -0.333008 -12.666 -1 -15.999c-40 2 -80.333 3 -121 3c-46.667 0 -87 -1 -121 -3c0 16.667 2.66699 31 8 43c18.667 2 32.834 5.5 42.501 10.5s17.167 13.167 22.5 24.5s10 28.666 14 51.999l73 422c2.66699 17.333 4 28.666 4 33.999z" />
    <glyph glyph-name="Eth" unicode="&#xd0;" horiz-adv-x="735" 
d="M628 620.5c62.667 -39 93.998 -107.168 93.998 -204.501c0 -28 -3 -59 -9 -93c-20 -107.333 -67.833 -188 -143.5 -242s-172.5 -81 -290.5 -81h-3c-115.333 0 -199 -1 -251 -3c1.33301 16.667 4 31 8 43c20.667 2.66699 36.167 7 46.5 13s18.166 15.667 23.499 29
s10.333 33.666 15 60.999l31 176l-74 -2c0 8 0.833008 17.5 2.5 28.5s3.83398 18.5 6.50098 22.5h73l33 186c2 12 3 22.333 3 31c0 18.667 -4.66699 31.334 -14 38.001s-25.666 11.334 -48.999 14.001c-2 8 -3 16.333 -3 25c0 8 0.333008 13.667 1 17
c43.333 -2 89.333 -3 138 -3c14 0 35.667 0.666992 65 2l61 1c94.667 0 173.334 -19.5 236.001 -58.5zM618.998 409.999c0 80 -23.167 137.668 -69.5 173.001s-107.166 53 -182.499 53c-22.667 0 -46.334 -2.66699 -71.001 -8l-45 -260h135c0 -21.333 -3 -38 -9 -50
c-32.667 0.666992 -75.667 1 -129 1h-5l-32 -186c-3.33301 -20 -5 -34.333 -5 -43c0 -18 5.33301 -30 16 -36s31 -9 61 -9c86 0 157.333 21.667 214 65s94 111.666 112 204.999c6.66699 33.333 10 65 10 95z" />
    <glyph glyph-name="Ntilde" unicode="&#xd1;" horiz-adv-x="675" 
d="M720 679c0 -14.667 -2.66309 -29.001 -7.99609 -43.001c-15.333 -4 -27.333 -10.667 -36 -20s-16 -23.666 -22 -42.999s-12 -47.333 -18 -84l-85 -493c-9.33301 -3.33301 -23 -5 -41 -5l-278 532l-60 -341c-5.33301 -33.333 -8 -57.666 -8 -72.999
c0 -22.667 4.66699 -38.834 14 -48.501s25.333 -16.5 48 -20.5c2 -8 3 -16 3 -24s-0.333008 -14.333 -1 -19c-26.667 2 -63 3 -109 3c-34 0 -65.667 -1 -95 -3c0.666992 16 3 30.333 7 43c25.333 3.33301 44.166 14.333 56.499 33s22.833 51.667 31.5 99l74 422l-5 9
c-6.66699 12.667 -13.834 21 -21.501 25s-19.834 6.66699 -36.501 8c-2 8 -3 16.333 -3 25c0 8 0.333008 14 1 18c20 -2 40 -3 60 -3c29.333 0 52.333 1 69 3c84 -149.333 174.333 -321 271 -515l59 335c5.33301 30.667 8 53.667 8 69c0 22.667 -4.66699 38.667 -14 48
s-25.333 16 -48 20c-1.33301 10.667 -2 19 -2 25c0 8 0.333008 14 1 18c19.333 -2 49.666 -3 90.999 -3c46.667 0 79 1 97 3zM468.504 752.499c-10.333 3 -21.833 7.49902 -34.5 13.499c-12.667 5.33301 -23.5 9.5 -32.5 12.5s-18.5 4.5 -28.5 4.5
c-24 0 -50 -10.667 -78 -32c-8 9.33301 -11 22 -9 38c39.333 38.667 79.333 58 120 58c12 0 23.167 -1.5 33.5 -4.5s22.833 -7.83301 37.5 -14.5c11.333 -5.33301 20.833 -9.16602 28.5 -11.499s15.834 -3.5 24.501 -3.5c19.333 0 40 9.33301 62 28
c13.333 -6.66699 21.666 -14 24.999 -22c-36.667 -47.333 -75.334 -71 -116.001 -71c-11.333 0 -22.166 1.5 -32.499 4.5z" />
    <glyph glyph-name="Ograve" unicode="&#xd2;" horiz-adv-x="741" 
d="M197 27c-43.333 24 -77 58.332 -101 102.999s-36 96.334 -36 155.001c0 29.333 3 59.333 9 90c10.667 58 33.5 110.5 68.5 157.5s78.5 84.167 130.5 111.5s108 41 168 41c56 0 105.667 -11.167 149 -33.5s77.333 -55.333 102 -99s37 -96.167 37 -157.5
c0 -32.667 -3.33301 -65.667 -10 -99c-10.667 -56.667 -33 -108.167 -67 -154.5s-77 -83 -129 -110s-109 -40.5 -171 -40.5c-56.667 0 -106.667 12 -150 36zM526 106.999c43.333 48 72 110.334 86 187.001c5.33301 27.333 8 56.666 8 87.999c0 51.333 -8.5 96.5 -25.5 135.5
s-41 69.333 -72 91s-66.167 32.5 -105.5 32.5c-38.667 0 -75 -11.5 -109 -34.5s-62.667 -54.333 -86 -94s-39.666 -83.167 -48.999 -130.5c-6 -32 -9 -63.333 -9 -94c0 -74.667 17.667 -135.5 53 -182.5s84.666 -70.5 147.999 -70.5c64 0 117.667 24 161 72zM465 737
c-8.66699 0 -15.334 1.33301 -20.001 4c-22 32.667 -58.667 74.667 -110 126c16 5.33301 33.667 8 53 8c12.667 0 26.334 -1.66699 41.001 -5c12 -46.667 29 -90 51 -130c-4 -2 -9 -3 -15 -3z" />
    <glyph glyph-name="Oacute" unicode="&#xd3;" horiz-adv-x="741" 
d="M197 27c-43.333 24 -77 58.332 -101 102.999s-36 96.334 -36 155.001c0 29.333 3 59.333 9 90c10.667 58 33.5 110.5 68.5 157.5s78.5 84.167 130.5 111.5s108 41 168 41c56 0 105.667 -11.167 149 -33.5s77.333 -55.333 102 -99s37 -96.167 37 -157.5
c0 -32.667 -3.33301 -65.667 -10 -99c-10.667 -56.667 -33 -108.167 -67 -154.5s-77 -83 -129 -110s-109 -40.5 -171 -40.5c-56.667 0 -106.667 12 -150 36zM526 106.999c43.333 48 72 110.334 86 187.001c5.33301 27.333 8 56.666 8 87.999c0 51.333 -8.5 96.5 -25.5 135.5
s-41 69.333 -72 91s-66.167 32.5 -105.5 32.5c-38.667 0 -75 -11.5 -109 -34.5s-62.667 -54.333 -86 -94s-39.666 -83.167 -48.999 -130.5c-6 -32 -9 -63.333 -9 -94c0 -74.667 17.667 -135.5 53 -182.5s84.666 -70.5 147.999 -70.5c64 0 117.667 24 161 72zM392 745
c19.333 22.667 36.333 45.668 51 69.001s26 43.666 34 60.999c18.667 2.66699 32.334 4 41.001 4c23.333 0 44.333 -4.33301 63 -13c-48.667 -39.333 -99.334 -85 -152.001 -137c-14 0.666992 -26.333 6 -37 16z" />
    <glyph glyph-name="Ocircumflex" unicode="&#xd4;" horiz-adv-x="741" 
d="M197 27c-43.333 24 -77 58.332 -101 102.999s-36 96.334 -36 155.001c0 29.333 3 59.333 9 90c10.667 58 33.5 110.5 68.5 157.5s78.5 84.167 130.5 111.5s108 41 168 41c56 0 105.667 -11.167 149 -33.5s77.333 -55.333 102 -99s37 -96.167 37 -157.5
c0 -32.667 -3.33301 -65.667 -10 -99c-10.667 -56.667 -33 -108.167 -67 -154.5s-77 -83 -129 -110s-109 -40.5 -171 -40.5c-56.667 0 -106.667 12 -150 36zM526 106.999c43.333 48 72 110.334 86 187.001c5.33301 27.333 8 56.666 8 87.999c0 51.333 -8.5 96.5 -25.5 135.5
s-41 69.333 -72 91s-66.167 32.5 -105.5 32.5c-38.667 0 -75 -11.5 -109 -34.5s-62.667 -54.333 -86 -94s-39.666 -83.167 -48.999 -130.5c-6 -32 -9 -63.333 -9 -94c0 -74.667 17.667 -135.5 53 -182.5s84.666 -70.5 147.999 -70.5c64 0 117.667 24 161 72zM312 749.5
c-2 7.66699 -2.66602 14.8311 -1.99902 21.498c38.667 22.667 89 58 151 106c2.66699 0.666992 6 1 10 1c9.33301 0 18.666 -2 27.999 -6c21.333 -26 56.666 -64.333 105.999 -115c-2 -6 -5.66699 -11.167 -11 -15.5s-11.333 -7.16602 -18 -8.49902
c-39.333 26 -79.666 47.333 -120.999 64c-34 -13.333 -78.667 -35.666 -134 -66.999c-4 5.33301 -7 11.833 -9 19.5z" />
    <glyph glyph-name="Otilde" unicode="&#xd5;" horiz-adv-x="741" 
d="M197 27c-43.333 24 -77 58.332 -101 102.999s-36 96.334 -36 155.001c0 29.333 3 59.333 9 90c10.667 58 33.5 110.5 68.5 157.5s78.5 84.167 130.5 111.5s108 41 168 41c56 0 105.667 -11.167 149 -33.5s77.333 -55.333 102 -99s37 -96.167 37 -157.5
c0 -32.667 -3.33301 -65.667 -10 -99c-10.667 -56.667 -33 -108.167 -67 -154.5s-77 -83 -129 -110s-109 -40.5 -171 -40.5c-56.667 0 -106.667 12 -150 36zM526 106.999c43.333 48 72 110.334 86 187.001c5.33301 27.333 8 56.666 8 87.999c0 51.333 -8.5 96.5 -25.5 135.5
s-41 69.333 -72 91s-66.167 32.5 -105.5 32.5c-38.667 0 -75 -11.5 -109 -34.5s-62.667 -54.333 -86 -94s-39.666 -83.167 -48.999 -130.5c-6 -32 -9 -63.333 -9 -94c0 -74.667 17.667 -135.5 53 -182.5s84.666 -70.5 147.999 -70.5c64 0 117.667 24 161 72zM473.5 752.5
c-10.333 3 -21.833 7.49902 -34.5 13.499c-12.667 5.33301 -23.5 9.5 -32.5 12.5s-18.5 4.5 -28.5 4.5c-24 0 -50 -10.667 -78 -32c-8 9.33301 -11 22 -9 38c39.333 38.667 79.333 58 120 58c12 0 23.167 -1.5 33.5 -4.5s22.833 -7.83301 37.5 -14.5
c11.333 -5.33301 20.833 -9.16602 28.5 -11.499s15.834 -3.5 24.501 -3.5c19.333 0 40 9.33301 62 28c13.333 -6.66699 21.666 -14 24.999 -22c-36.667 -47.333 -75.334 -71 -116.001 -71c-11.333 0 -22.166 1.5 -32.499 4.5z" />
    <glyph glyph-name="Odieresis" unicode="&#xd6;" horiz-adv-x="741" 
d="M197 27c-43.333 24 -77 58.332 -101 102.999s-36 96.334 -36 155.001c0 29.333 3 59.333 9 90c10.667 58 33.5 110.5 68.5 157.5s78.5 84.167 130.5 111.5s108 41 168 41c56 0 105.667 -11.167 149 -33.5s77.333 -55.333 102 -99s37 -96.167 37 -157.5
c0 -32.667 -3.33301 -65.667 -10 -99c-10.667 -56.667 -33 -108.167 -67 -154.5s-77 -83 -129 -110s-109 -40.5 -171 -40.5c-56.667 0 -106.667 12 -150 36zM526 106.999c43.333 48 72 110.334 86 187.001c5.33301 27.333 8 56.666 8 87.999c0 51.333 -8.5 96.5 -25.5 135.5
s-41 69.333 -72 91s-66.167 32.5 -105.5 32.5c-38.667 0 -75 -11.5 -109 -34.5s-62.667 -54.333 -86 -94s-39.666 -83.167 -48.999 -130.5c-6 -32 -9 -63.333 -9 -94c0 -74.667 17.667 -135.5 53 -182.5s84.666 -70.5 147.999 -70.5c64 0 117.667 24 161 72zM316 745
c-8 8.66699 -11.999 20.333 -11.999 35c0 18.667 5.16699 33.334 15.5 44.001s24.166 16 41.499 16c14 0 25.167 -3.83301 33.5 -11.5s12.5 -17.834 12.5 -30.501c0 -7.33301 -0.666992 -13 -2 -17c-4 -15.333 -10.833 -27.333 -20.5 -36s-21.5 -13 -35.5 -13
s-25 4.33301 -33 13zM511.001 745.499c-8 8.33301 -12 19.5 -12 33.5c0 19.333 5.16699 34.333 15.5 45s24.833 16 43.5 16c14 0 24.833 -3.83301 32.5 -11.5s11.5 -18.167 11.5 -31.5c0 -5.33301 -0.333008 -9.66602 -1 -12.999c-2.66699 -16.667 -9 -29.334 -19 -38.001
s-22.667 -13 -38 -13c-14 0 -25 4.16699 -33 12.5z" />
    <glyph glyph-name="multiply" unicode="&#xd7;" 
d="M312 258l167.001 -212.001c-6.66699 -7.33301 -14.834 -13.166 -24.501 -17.499s-19.5 -6.5 -29.5 -6.5l-152 199l-210 -199c-26 0 -43 7.33301 -51 22l232 215l-164 206c14.667 16 31.667 24 51 24l152 -193l217 202c21.333 -6.66699 35.333 -16.667 42 -30z" />
    <glyph glyph-name="Oslash" unicode="&#xd8;" horiz-adv-x="741" 
d="M703 641l-45 -47c44 -50 66 -116.333 66 -199c0 -32.667 -3.33301 -65.667 -10 -99c-10.667 -56.667 -33 -108.167 -67 -154.5s-77 -83 -129 -110s-109 -40.5 -171 -40.5c-75.333 0 -138.333 20.667 -189 62l-55 -62c-10.667 0 -20.167 2.16699 -28.5 6.5
s-13.833 10.166 -16.5 17.499l66 72c-42.667 52 -64 118.333 -64 199c0 28.667 3 58.334 9 89.001c10.667 58 33.5 110.5 68.5 157.5s78.5 84.167 130.5 111.5s108 41 168 41c74.667 0 137 -19.333 187 -58l53 58c10 0 19.5 -2 28.5 -6s15.833 -9 20.5 -15zM164 287
c0 -49.333 7.99902 -92.999 23.999 -130.999l378 410c-18 24 -39.833 42.5 -65.5 55.5s-53.5 19.5 -83.5 19.5c-38.667 0 -75 -11.5 -109 -34.5s-62.667 -54.333 -86 -94s-39.666 -83.167 -48.999 -130.5c-6 -32.667 -9 -64.334 -9 -95.001zM619.999 381.001
c0 54.667 -9.66699 102.333 -29 143l-379 -411c36 -52 87 -78 153 -78c64 0 117.667 24 161 72s72 110.333 86 187c5.33301 26.667 8 55.667 8 87z" />
    <glyph glyph-name="Ugrave" unicode="&#xd9;" horiz-adv-x="635" 
d="M144 40.5c-34.667 33 -51.998 80.167 -51.998 141.5c0 25.333 2.33301 50 7 74l51 298c2.66699 14 4 27 4 39c0 14 -3.33301 24.167 -10 30.5s-18.334 10.5 -35.001 12.5c-1.33301 4.66699 -2 12 -2 22c0 9.33301 0.333008 16.333 1 21c31.333 -2 68.333 -3 111 -3
c47.333 0 87.333 1 120 3c-1.33301 -17.333 -4.33301 -31.666 -9 -42.999c-21.333 -2 -37.333 -5.5 -48 -10.5s-18.834 -13.5 -24.501 -25.5s-10.834 -30.667 -15.501 -56l-49 -284c-4.66699 -24 -7 -47.333 -7 -70c0 -50 11.833 -86.833 35.5 -110.5
s56.834 -35.5 99.501 -35.5c48.667 0 89.334 17.5 122.001 52.5s54.667 84.833 66 149.5l47 268c4 22 6 40 6 54c0 19.333 -4.33301 33.666 -13 42.999s-24.334 17.666 -47.001 24.999c-1.33301 5.33301 -2 13 -2 23c0 8.66699 0.333008 15.334 1 20.001c28 -2 61 -3 99 -3
c36 0 69.333 1 100 3c0 -14.667 -3 -29 -9 -43c-20 -6.66699 -35 -14 -45 -22s-17.833 -20 -23.5 -36s-11.5 -40.667 -17.5 -74l-44 -249c-16 -90 -45.167 -156.5 -87.5 -199.5s-99.833 -64.5 -172.5 -64.5c-70 0 -122.333 16.5 -157 49.5zM452.002 737
c-8.66699 0 -15.334 1.33301 -20.001 4c-22 32.667 -58.667 74.667 -110 126c16 5.33301 33.667 8 53 8c12.667 0 26.334 -1.66699 41.001 -5c12 -46.667 29 -90 51 -130c-4 -2 -9 -3 -15 -3z" />
    <glyph glyph-name="Uacute" unicode="&#xda;" horiz-adv-x="635" 
d="M144 40.5c-34.667 33 -51.998 80.167 -51.998 141.5c0 25.333 2.33301 50 7 74l51 298c2.66699 14 4 27 4 39c0 14 -3.33301 24.167 -10 30.5s-18.334 10.5 -35.001 12.5c-1.33301 4.66699 -2 12 -2 22c0 9.33301 0.333008 16.333 1 21c31.333 -2 68.333 -3 111 -3
c47.333 0 87.333 1 120 3c-1.33301 -17.333 -4.33301 -31.666 -9 -42.999c-21.333 -2 -37.333 -5.5 -48 -10.5s-18.834 -13.5 -24.501 -25.5s-10.834 -30.667 -15.501 -56l-49 -284c-4.66699 -24 -7 -47.333 -7 -70c0 -50 11.833 -86.833 35.5 -110.5
s56.834 -35.5 99.501 -35.5c48.667 0 89.334 17.5 122.001 52.5s54.667 84.833 66 149.5l47 268c4 22 6 40 6 54c0 19.333 -4.33301 33.666 -13 42.999s-24.334 17.666 -47.001 24.999c-1.33301 5.33301 -2 13 -2 23c0 8.66699 0.333008 15.334 1 20.001c28 -2 61 -3 99 -3
c36 0 69.333 1 100 3c0 -14.667 -3 -29 -9 -43c-20 -6.66699 -35 -14 -45 -22s-17.833 -20 -23.5 -36s-11.5 -40.667 -17.5 -74l-44 -249c-16 -90 -45.167 -156.5 -87.5 -199.5s-99.833 -64.5 -172.5 -64.5c-70 0 -122.333 16.5 -157 49.5zM379.002 745
c19.333 22.667 36.333 45.668 51 69.001s26 43.666 34 60.999c18.667 2.66699 32.334 4 41.001 4c23.333 0 44.333 -4.33301 63 -13c-48.667 -39.333 -99.334 -85 -152.001 -137c-14 0.666992 -26.333 6 -37 16z" />
    <glyph glyph-name="Ucircumflex" unicode="&#xdb;" horiz-adv-x="635" 
d="M144 40.5c-34.667 33 -51.998 80.167 -51.998 141.5c0 25.333 2.33301 50 7 74l51 298c2.66699 14 4 27 4 39c0 14 -3.33301 24.167 -10 30.5s-18.334 10.5 -35.001 12.5c-1.33301 4.66699 -2 12 -2 22c0 9.33301 0.333008 16.333 1 21c31.333 -2 68.333 -3 111 -3
c47.333 0 87.333 1 120 3c-1.33301 -17.333 -4.33301 -31.666 -9 -42.999c-21.333 -2 -37.333 -5.5 -48 -10.5s-18.834 -13.5 -24.501 -25.5s-10.834 -30.667 -15.501 -56l-49 -284c-4.66699 -24 -7 -47.333 -7 -70c0 -50 11.833 -86.833 35.5 -110.5
s56.834 -35.5 99.501 -35.5c48.667 0 89.334 17.5 122.001 52.5s54.667 84.833 66 149.5l47 268c4 22 6 40 6 54c0 19.333 -4.33301 33.666 -13 42.999s-24.334 17.666 -47.001 24.999c-1.33301 5.33301 -2 13 -2 23c0 8.66699 0.333008 15.334 1 20.001c28 -2 61 -3 99 -3
c36 0 69.333 1 100 3c0 -14.667 -3 -29 -9 -43c-20 -6.66699 -35 -14 -45 -22s-17.833 -20 -23.5 -36s-11.5 -40.667 -17.5 -74l-44 -249c-16 -90 -45.167 -156.5 -87.5 -199.5s-99.833 -64.5 -172.5 -64.5c-70 0 -122.333 16.5 -157 49.5zM299.002 749.5
c-2 7.66699 -2.66602 14.8311 -1.99902 21.498c38.667 22.667 89 58 151 106c2.66699 0.666992 6 1 10 1c9.33301 0 18.666 -2 27.999 -6c21.333 -26 56.666 -64.333 105.999 -115c-2 -6 -5.66699 -11.167 -11 -15.5s-11.333 -7.16602 -18 -8.49902
c-39.333 26 -79.666 47.333 -120.999 64c-34 -13.333 -78.667 -35.666 -134 -66.999c-4 5.33301 -7 11.833 -9 19.5z" />
    <glyph glyph-name="Udieresis" unicode="&#xdc;" horiz-adv-x="635" 
d="M144 40.5c-34.667 33 -51.998 80.167 -51.998 141.5c0 25.333 2.33301 50 7 74l51 298c2.66699 14 4 27 4 39c0 14 -3.33301 24.167 -10 30.5s-18.334 10.5 -35.001 12.5c-1.33301 4.66699 -2 12 -2 22c0 9.33301 0.333008 16.333 1 21c31.333 -2 68.333 -3 111 -3
c47.333 0 87.333 1 120 3c-1.33301 -17.333 -4.33301 -31.666 -9 -42.999c-21.333 -2 -37.333 -5.5 -48 -10.5s-18.834 -13.5 -24.501 -25.5s-10.834 -30.667 -15.501 -56l-49 -284c-4.66699 -24 -7 -47.333 -7 -70c0 -50 11.833 -86.833 35.5 -110.5
s56.834 -35.5 99.501 -35.5c48.667 0 89.334 17.5 122.001 52.5s54.667 84.833 66 149.5l47 268c4 22 6 40 6 54c0 19.333 -4.33301 33.666 -13 42.999s-24.334 17.666 -47.001 24.999c-1.33301 5.33301 -2 13 -2 23c0 8.66699 0.333008 15.334 1 20.001c28 -2 61 -3 99 -3
c36 0 69.333 1 100 3c0 -14.667 -3 -29 -9 -43c-20 -6.66699 -35 -14 -45 -22s-17.833 -20 -23.5 -36s-11.5 -40.667 -17.5 -74l-44 -249c-16 -90 -45.167 -156.5 -87.5 -199.5s-99.833 -64.5 -172.5 -64.5c-70 0 -122.333 16.5 -157 49.5zM303.002 745
c-8 8.66699 -11.999 20.333 -11.999 35c0 18.667 5.16699 33.334 15.5 44.001s24.166 16 41.499 16c14 0 25.167 -3.83301 33.5 -11.5s12.5 -17.834 12.5 -30.501c0 -7.33301 -0.666992 -13 -2 -17c-4 -15.333 -10.833 -27.333 -20.5 -36s-21.5 -13 -35.5 -13
s-25 4.33301 -33 13zM498.003 745.499c-8 8.33301 -12 19.5 -12 33.5c0 19.333 5.16699 34.333 15.5 45s24.833 16 43.5 16c14 0 24.833 -3.83301 32.5 -11.5s11.5 -18.167 11.5 -31.5c0 -5.33301 -0.333008 -9.66602 -1 -12.999c-2.66699 -16.667 -9 -29.334 -19 -38.001
s-22.667 -13 -38 -13c-14 0 -25 4.16699 -33 12.5z" />
    <glyph glyph-name="Yacute" unicode="&#xdd;" horiz-adv-x="582" 
d="M652 679c0 -14.667 -2.99707 -28.9971 -8.99707 -42.9971c-14.667 -6 -27.834 -14.333 -39.501 -25s-28.5 -33.334 -50.5 -68.001c-58 -91.333 -120.333 -182.666 -187 -273.999l-26 -147c-2.66699 -17.333 -4 -28.333 -4 -33c0 -14.667 4.83301 -25.334 14.5 -32.001
s28.5 -12.334 56.5 -17.001c2 -8 3 -17 3 -27c0 -6.66699 -0.333008 -12 -1 -16c-28 2 -70.667 3 -128 3c-63.333 0 -107 -1 -131 -3c0 16.667 2.33301 31.334 7 44.001c22.667 4 39.667 8.66699 51 14s19.833 13.666 25.5 24.999s10.5 28.666 14.5 51.999l24 136
c-28 90.667 -60.667 181.667 -98 273c-10.667 26 -19.334 45.167 -26.001 57.5s-13.167 20.833 -19.5 25.5s-14.833 9 -25.5 13c-1.33301 5.33301 -2 12.666 -2 21.999c0 8.66699 0.333008 15.334 1 20.001c24.667 -2 61.667 -3 111 -3c50.667 0 92.667 1 126 3
c0 -12.667 -3 -27.334 -9 -44.001c-24.667 -3.33301 -42.167 -8.16602 -52.5 -14.499s-15.5 -15.5 -15.5 -27.5c0 -9.33301 3 -21.666 9 -36.999c29.333 -75.333 55 -154.333 77 -237c49.333 68 95.666 138.667 138.999 212c18.667 32 28 55.333 28 70
c0 9.33301 -3.66699 16.666 -11 21.999s-19.333 9.66602 -36 12.999c-1.33301 5.33301 -2 13 -2 23c0 8.66699 0.333008 15.334 1 20.001c22 -2 54 -3 96 -3c38 0 67.667 1 89 3zM362.003 745.003c19.333 22.667 36.333 45.668 51 69.001s26 43.666 34 60.999
c18.667 2.66699 32.334 4 41.001 4c23.333 0 44.333 -4.33301 63 -13c-48.667 -39.333 -99.334 -85 -152.001 -137c-14 0.666992 -26.333 6 -37 16z" />
    <glyph glyph-name="Thorn" unicode="&#xde;" horiz-adv-x="586" 
d="M525 497c30.667 -28.667 45.998 -66.332 45.998 -112.999c0 -12.667 -1 -26 -3 -40c-5.33301 -31.333 -19.166 -61.833 -41.499 -91.5s-52 -54 -89 -73s-79.167 -28.5 -126.5 -28.5c-31.333 0 -53.666 4.66699 -66.999 14c0 15.333 3.66699 28 11 38
c12.667 -4.66699 29.667 -7 51 -7c41.333 0 77 11.167 107 33.5s50 60.166 60 113.499c2 13.333 3 26 3 38c0 38 -11.667 67.667 -35 89s-59.333 32 -108 32c-20 0 -39.667 -2.33301 -59 -7l-64 -368c-2.66699 -13.333 -4 -25.666 -4 -36.999
c0 -17.333 5.5 -29.333 16.5 -36s31.167 -11.334 60.5 -14.001c2 -8 3 -17 3 -27c0 -7.33301 -0.333008 -12.666 -1 -15.999c-40.667 2 -82.334 3 -125.001 3c-50 0 -93.667 -1 -131 -3c0 16.667 2.66699 31 8 43c18.667 2 32.834 5.5 42.501 10.5s17.167 13.167 22.5 24.5
s10 28.666 14 51.999l73 422c2.66699 17.333 4 28.666 4 33.999c0 18 -4.83301 30.5 -14.5 37.5s-26.167 12.167 -49.5 15.5c-1.33301 10.667 -2 19 -2 25c0 8 0.333008 14 1 18c37.333 -2 77.333 -3 120 -3c41.333 0 82 1 122 3c-1.33301 -18 -4.33301 -32.333 -9 -43
c-18 -3.33301 -31.833 -7.66602 -41.5 -12.999s-17.167 -13.5 -22.5 -24.5s-10 -27.5 -14 -49.5l-2 -10l105 1c62 0 108.333 -14.333 139 -43z" />
    <glyph glyph-name="germandbls" unicode="&#xdf;" horiz-adv-x="536" 
d="M462.5 496c-17.667 -21.333 -40.4951 -43.335 -68.4951 -66.002c-16.667 -13.333 -28.667 -23.833 -36 -31.5s-12 -15.834 -14 -24.501c-0.666992 -3.33301 -1 -8 -1 -14c0 -15.333 4.5 -29.166 13.5 -41.499s22.833 -27.166 41.5 -44.499
c24.667 -23.333 43.5 -44.833 56.5 -64.5s19.5 -43.834 19.5 -72.501c0 -9.33301 -1 -19.666 -3 -30.999c-6.66699 -37.333 -23.167 -65.5 -49.5 -84.5s-59.5 -28.5 -99.5 -28.5c-44.667 0 -83.667 12.333 -117 37c10 36.667 15.667 73 17 109
c15.333 7.33301 31.333 10.333 48 9c-1.33301 -37.333 3.5 -65.666 14.5 -84.999s29.167 -29 54.5 -29c17.333 0 31.666 4.5 42.999 13.5s18.333 22.5 21 40.5c0.666992 2.66699 1 7 1 13c0 16.667 -5 32.167 -15 46.5s-25.333 31.833 -46 52.5
c-24.667 24.667 -43.334 46.5 -56.001 65.5s-19 41.5 -19 67.5c0 8 1 17 3 27c3.33301 18.667 11 34.167 23 46.5s29 25.833 51 40.5c25.333 17.333 45.166 33.666 59.499 48.999s23.833 35.333 28.5 60c1.33301 5.33301 2 13.333 2 24c0 26 -7.83301 47.333 -23.5 64
s-38.834 25 -69.501 25c-27.333 0 -50.166 -17 -68.499 -51s-35.166 -91 -50.499 -171c-10.667 -55.333 -27.334 -152.333 -50.001 -291l-4 -28c-18 -114 -46.5 -205.167 -85.5 -273.5s-85.5 -102.5 -139.5 -102.5c-28.667 0 -57.667 12 -87 36
c-0.666992 20.667 1.66602 40.667 6.99902 60c39.333 -10.667 76.666 -16 111.999 -16c17.333 0 31 5.5 41 16.5s18.833 32.167 26.5 63.5s16.5 80.333 26.5 147l17 120c10.667 83.333 21 158 31 224c-23.333 4 -47.333 6 -72 6c0 15.333 3.66699 28.333 11 39h68
c0.666992 0.666992 1 2 1 4c13.333 79.333 40 142.833 80 190.5s97.333 71.5 172 71.5c44.667 0 76.667 -9.66699 96 -29s29 -43.666 29 -72.999c0 -11.333 -1 -22 -3 -32c-7.33301 -34.667 -19.833 -62.667 -37.5 -84z" />
    <glyph glyph-name="agrave" unicode="&#xe0;" horiz-adv-x="473" 
d="M440 59c-40.667 -45.333 -79.334 -67.999 -116.001 -67.999c-22 0 -38 7 -48 21s-15 32 -15 54c0 20 3.33301 39 10 57c2.66699 7.33301 10.334 25.333 23.001 54l8 19h-3c-20 -54.667 -48.833 -102.5 -86.5 -143.5s-76.5 -61.5 -116.5 -61.5c-26 0 -46 9.5 -60 28.5
s-21 47.833 -21 86.5c0 25.333 3.66699 57.333 11 96c10 51.333 28 97 54 137s57.667 71.333 95 94s77.333 34 120 34c19.333 0 38 -3 56 -9c24 0 43 3 57 9c4 -2 7.16699 -4.83301 9.5 -8.5s3.5 -9.83398 3.5 -18.501c0 -14.667 -3.66699 -37.667 -11 -69l-50 -224
c-7.33301 -35.333 -11 -58 -11 -68c0 -7.33301 1.33301 -12.333 4 -15s7 -4 13 -4c8 0 16 2.16699 24 6.5s18.667 12.166 32 23.499c8 -7.33301 14 -17.666 18 -30.999zM202.5 105.501c21 22.333 41.832 53.501 62.499 93.501s37 85.667 49 137l17 70
c-17.333 6.66699 -37.666 10 -60.999 10c-39.333 0 -71 -14.833 -95 -44.5s-41.333 -70.834 -52 -123.501c-8 -38 -12 -70.333 -12 -97c0 -26 3.5 -45.667 10.5 -59s17.167 -20 30.5 -20c12.667 0 29.5 11.167 50.5 33.5zM311.999 536.002
c-2.66699 -1.33301 -7.33203 -2.00195 -13.999 -2.00195c-8.66699 0 -15.667 1.33301 -21 4c-13.333 26.667 -29.333 55.334 -48 86.001s-37 57.334 -55 80.001c18 6 35 9 51 9c15.333 0 29.666 -2.33301 42.999 -7c9.33301 -59.333 24 -116 44 -170z" />
    <glyph glyph-name="aacute" unicode="&#xe1;" horiz-adv-x="473" 
d="M440 59c-40.667 -45.333 -79.334 -67.999 -116.001 -67.999c-22 0 -38 7 -48 21s-15 32 -15 54c0 20 3.33301 39 10 57c2.66699 7.33301 10.334 25.333 23.001 54l8 19h-3c-20 -54.667 -48.833 -102.5 -86.5 -143.5s-76.5 -61.5 -116.5 -61.5c-26 0 -46 9.5 -60 28.5
s-21 47.833 -21 86.5c0 25.333 3.66699 57.333 11 96c10 51.333 28 97 54 137s57.667 71.333 95 94s77.333 34 120 34c19.333 0 38 -3 56 -9c24 0 43 3 57 9c4 -2 7.16699 -4.83301 9.5 -8.5s3.5 -9.83398 3.5 -18.501c0 -14.667 -3.66699 -37.667 -11 -69l-50 -224
c-7.33301 -35.333 -11 -58 -11 -68c0 -7.33301 1.33301 -12.333 4 -15s7 -4 13 -4c8 0 16 2.16699 24 6.5s18.667 12.166 32 23.499c8 -7.33301 14 -17.666 18 -30.999zM202.5 105.501c21 22.333 41.832 53.501 62.499 93.501s37 85.667 49 137l17 70
c-17.333 6.66699 -37.666 10 -60.999 10c-39.333 0 -71 -14.833 -95 -44.5s-41.333 -70.834 -52 -123.501c-8 -38 -12 -70.333 -12 -97c0 -26 3.5 -45.667 10.5 -59s17.167 -20 30.5 -20c12.667 0 29.5 11.167 50.5 33.5zM395.999 722.002c23.333 0 42.333 -5 57 -15
c-54 -50.667 -107.333 -110.667 -160 -180c-14.667 1.33301 -26.667 6 -36 14c44.667 70 75.667 128.333 93 175c16 4 31.333 6 46 6z" />
    <glyph glyph-name="acircumflex" unicode="&#xe2;" horiz-adv-x="473" 
d="M440 59c-40.667 -45.333 -79.334 -67.999 -116.001 -67.999c-22 0 -38 7 -48 21s-15 32 -15 54c0 20 3.33301 39 10 57c2.66699 7.33301 10.334 25.333 23.001 54l8 19h-3c-20 -54.667 -48.833 -102.5 -86.5 -143.5s-76.5 -61.5 -116.5 -61.5c-26 0 -46 9.5 -60 28.5
s-21 47.833 -21 86.5c0 25.333 3.66699 57.333 11 96c10 51.333 28 97 54 137s57.667 71.333 95 94s77.333 34 120 34c19.333 0 38 -3 56 -9c24 0 43 3 57 9c4 -2 7.16699 -4.83301 9.5 -8.5s3.5 -9.83398 3.5 -18.501c0 -14.667 -3.66699 -37.667 -11 -69l-50 -224
c-7.33301 -35.333 -11 -58 -11 -68c0 -7.33301 1.33301 -12.333 4 -15s7 -4 13 -4c8 0 16 2.16699 24 6.5s18.667 12.166 32 23.499c8 -7.33301 14 -17.666 18 -30.999zM202.5 105.501c21 22.333 41.832 53.501 62.499 93.501s37 85.667 49 137l17 70
c-17.333 6.66699 -37.666 10 -60.999 10c-39.333 0 -71 -14.833 -95 -44.5s-41.333 -70.834 -52 -123.501c-8 -38 -12 -70.333 -12 -97c0 -26 3.5 -45.667 10.5 -59s17.167 -20 30.5 -20c12.667 0 29.5 11.167 50.5 33.5zM162.999 565.002
c0 4.66699 0.333984 8.00098 1.00098 10.001c53.333 38 105.333 81.333 156 130l9 1c10 0 19.667 -2.66699 29 -8c26 -42 59.333 -87.667 100 -137c-2 -6.66699 -5.83301 -12.667 -11.5 -18s-11.834 -9 -18.501 -11c-35.333 30 -74.666 57 -117.999 81
c-48.667 -24.667 -94.334 -52.334 -137.001 -83.001c-6.66699 10 -10 21.667 -10 35z" />
    <glyph glyph-name="atilde" unicode="&#xe3;" horiz-adv-x="473" 
d="M440 59c-40.667 -45.333 -79.334 -67.999 -116.001 -67.999c-22 0 -38 7 -48 21s-15 32 -15 54c0 20 3.33301 39 10 57c2.66699 7.33301 10.334 25.333 23.001 54l8 19h-3c-20 -54.667 -48.833 -102.5 -86.5 -143.5s-76.5 -61.5 -116.5 -61.5c-26 0 -46 9.5 -60 28.5
s-21 47.833 -21 86.5c0 25.333 3.66699 57.333 11 96c10 51.333 28 97 54 137s57.667 71.333 95 94s77.333 34 120 34c19.333 0 38 -3 56 -9c24 0 43 3 57 9c4 -2 7.16699 -4.83301 9.5 -8.5s3.5 -9.83398 3.5 -18.501c0 -14.667 -3.66699 -37.667 -11 -69l-50 -224
c-7.33301 -35.333 -11 -58 -11 -68c0 -7.33301 1.33301 -12.333 4 -15s7 -4 13 -4c8 0 16 2.16699 24 6.5s18.667 12.166 32 23.499c8 -7.33301 14 -17.666 18 -30.999zM202.5 105.501c21 22.333 41.832 53.501 62.499 93.501s37 85.667 49 137l17 70
c-17.333 6.66699 -37.666 10 -60.999 10c-39.333 0 -71 -14.833 -95 -44.5s-41.333 -70.834 -52 -123.501c-8 -38 -12 -70.333 -12 -97c0 -26 3.5 -45.667 10.5 -59s17.167 -20 30.5 -20c12.667 0 29.5 11.167 50.5 33.5zM343.999 559.502
c-10 3.66699 -21.3311 9.16895 -33.998 16.502c-14.667 7.33301 -26.334 12.666 -35.001 15.999s-17.667 5 -27 5c-15.333 0 -30 -2.83301 -44 -8.5s-29.333 -15.5 -46 -29.5c-8 5.33301 -11.333 13.333 -10 24c44 56 84.667 84 122 84c11.333 0 22 -1.83301 32 -5.5
s22.333 -9.5 37 -17.5c11.333 -6 21 -10.667 29 -14s15.667 -5 23 -5c24.667 0 49 12 73 36c8 -3.33301 14 -10 18 -20c-20.667 -32.667 -39.834 -55.334 -57.501 -68.001s-34.5 -19 -50.5 -19c-10 0 -20 1.83301 -30 5.5z" />
    <glyph glyph-name="adieresis" unicode="&#xe4;" horiz-adv-x="473" 
d="M440 59c-40.667 -45.333 -79.334 -67.999 -116.001 -67.999c-22 0 -38 7 -48 21s-15 32 -15 54c0 20 3.33301 39 10 57c2.66699 7.33301 10.334 25.333 23.001 54l8 19h-3c-20 -54.667 -48.833 -102.5 -86.5 -143.5s-76.5 -61.5 -116.5 -61.5c-26 0 -46 9.5 -60 28.5
s-21 47.833 -21 86.5c0 25.333 3.66699 57.333 11 96c10 51.333 28 97 54 137s57.667 71.333 95 94s77.333 34 120 34c19.333 0 38 -3 56 -9c24 0 43 3 57 9c4 -2 7.16699 -4.83301 9.5 -8.5s3.5 -9.83398 3.5 -18.501c0 -14.667 -3.66699 -37.667 -11 -69l-50 -224
c-7.33301 -35.333 -11 -58 -11 -68c0 -7.33301 1.33301 -12.333 4 -15s7 -4 13 -4c8 0 16 2.16699 24 6.5s18.667 12.166 32 23.499c8 -7.33301 14 -17.666 18 -30.999zM202.5 105.501c21 22.333 41.832 53.501 62.499 93.501s37 85.667 49 137l17 70
c-17.333 6.66699 -37.666 10 -60.999 10c-39.333 0 -71 -14.833 -95 -44.5s-41.333 -70.834 -52 -123.501c-8 -38 -12 -70.333 -12 -97c0 -26 3.5 -45.667 10.5 -59s17.167 -20 30.5 -20c12.667 0 29.5 11.167 50.5 33.5zM192.999 545.502c-8 9 -12 20.167 -12 33.5
c0 3.33301 0.666992 9 2 17c6.66699 29.333 24.334 44 53.001 44c15.333 0 27.166 -4 35.499 -12s12.5 -18.667 12.5 -32c0 -18 -5.5 -33.167 -16.5 -45.5s-24.833 -18.5 -41.5 -18.5c-14 0 -25 4.5 -33 13.5zM347.499 545.002c-8.33301 8 -12.501 19.001 -12.501 33.001
c0 3.33301 0.666992 8.33301 2 15c6.66699 31.333 25.334 47 56.001 47c14 0 25.167 -3.5 33.5 -10.5s12.5 -17.5 12.5 -31.5c0 -6 -0.333008 -10.667 -1 -14c-2.66699 -16.667 -9 -29.334 -19 -38.001s-22.333 -13 -37 -13s-26.167 4 -34.5 12z" />
    <glyph glyph-name="aring" unicode="&#xe5;" horiz-adv-x="473" 
d="M440 59c-40.667 -45.333 -79.334 -67.999 -116.001 -67.999c-22 0 -38 7 -48 21s-15 32 -15 54c0 20 3.33301 39 10 57c2.66699 7.33301 10.334 25.333 23.001 54l8 19h-3c-20 -54.667 -48.833 -102.5 -86.5 -143.5s-76.5 -61.5 -116.5 -61.5c-26 0 -46 9.5 -60 28.5
s-21 47.833 -21 86.5c0 25.333 3.66699 57.333 11 96c10 51.333 28 97 54 137s57.667 71.333 95 94s77.333 34 120 34c19.333 0 38 -3 56 -9c24 0 43 3 57 9c4 -2 7.16699 -4.83301 9.5 -8.5s3.5 -9.83398 3.5 -18.501c0 -14.667 -3.66699 -37.667 -11 -69l-50 -224
c-7.33301 -35.333 -11 -58 -11 -68c0 -7.33301 1.33301 -12.333 4 -15s7 -4 13 -4c8 0 16 2.16699 24 6.5s18.667 12.166 32 23.499c8 -7.33301 14 -17.666 18 -30.999zM202.5 105.501c21 22.333 41.832 53.501 62.499 93.501s37 85.667 49 137l17 70
c-17.333 6.66699 -37.666 10 -60.999 10c-39.333 0 -71 -14.833 -95 -44.5s-41.333 -70.834 -52 -123.501c-8 -38 -12 -70.333 -12 -97c0 -26 3.5 -45.667 10.5 -59s17.167 -20 30.5 -20c12.667 0 29.5 11.167 50.5 33.5zM237.999 548.002c-16 14.667 -24 33.667 -24 57
c0 30 10 54.667 30 74s47 29 81 29c31.333 0 54.5 -8 69.5 -24s22.5 -35.333 22.5 -58c0 -30 -9.83301 -54.167 -29.5 -72.5s-46.5 -27.5 -80.5 -27.5c-30 0 -53 7.33301 -69 22zM358.999 606.002c1.33301 8 2 14.333 2 19c0 14 -3.5 25.667 -10.5 35s-16.833 14 -29.5 14
c-15.333 0 -28 -6.66699 -38 -20s-15 -29 -15 -47c0 -13.333 3.83301 -24 11.5 -32s18.167 -12 31.5 -12c25.333 0 41.333 14.333 48 43z" />
    <glyph glyph-name="ae" unicode="&#xe6;" horiz-adv-x="576" 
d="M490.5 220c-39 -44 -86.4961 -85 -142.496 -123c10.667 -20.667 27 -31 49 -31c15.333 0 32.333 4.66699 51 14s35 22.333 49 39c10 -7.33301 17 -17 21 -29c-22.667 -28 -49 -51.5 -79 -70.5s-60.667 -28.5 -92 -28.5c-40.667 0 -69.667 17 -87 51
c-50.667 -34 -97.334 -51 -140.001 -51c-34 0 -60 10.667 -78 32s-27 52.333 -27 93c0 24 3.66699 52.667 11 86c13.333 57.333 33.666 105.833 60.999 145.5s58.666 69.5 93.999 89.5s72 30 110 30c34 0 66 -8.66699 96 -26c29.333 17.333 59.333 26 90 26
c29.333 0 51.666 -8.33301 66.999 -25s23 -37.667 23 -63c0 -7.33301 -1.33301 -18.333 -4 -33c-9.33301 -40 -33.5 -82 -72.5 -126zM245.004 90c-2.66699 13.333 -4 29.001 -4 47.001c0 27.333 3 55.333 9 84c16 76 46 136.667 90 182c-20 8.66699 -40.667 13 -62 13
c-44 0 -78 -13.833 -102 -41.5s-42.667 -69.834 -56 -126.501c-8.66699 -35.333 -13 -66.333 -13 -93c0 -57.333 22 -86 66 -86c22 0 46 7 72 21zM482.004 333.001c1.33301 12 2.00098 20.001 2.00098 24.001c0 18.667 -4 32.667 -12 42s-18 14 -30 14
c-20.667 0 -40.334 -12.333 -59.001 -37s-32.667 -59.667 -42 -105c-6 -28.667 -9 -58.334 -9 -89.001c0 -14.667 1 -29 3 -43c87.333 60 136.333 124.667 147 194z" />
    <glyph glyph-name="ccedilla" unicode="&#xe7;" horiz-adv-x="364" 
d="M303 330c-7.33301 0 -12.999 0.333008 -16.999 1c0.666992 5.33301 1 12.333 1 21c0 24 -4 41 -12 51s-20.333 15 -37 15c-58.667 0 -97.667 -56 -117 -168c-5.33301 -34.667 -8 -61.334 -8 -80.001c0 -32.667 5.66699 -59.167 17 -79.5s30.333 -30.5 57 -30.5
c37.333 0 73.666 19.333 108.999 58c8.66699 -6 15.667 -15.333 21 -28c-19.333 -25.333 -40.5 -45.666 -63.5 -60.999s-46.5 -26 -70.5 -32l-42 -52c42.667 -8 64 -32.667 64 -74c0 -9.33301 -1 -19 -3 -29c-6 -28 -22.333 -49.333 -49 -64
s-59.334 -21.334 -98.001 -20.001c-1.33301 3.33301 -2 9 -2 17c0 6.66699 0.333008 11.667 1 15c28.667 0 50.834 5.16699 66.501 15.5s23.5 26.166 23.5 47.499c0 14.667 -5 26 -15 34s-23.333 12 -40 12c-7.33301 6 -11 15 -11 27c0 4.66699 0.333008 8.33398 1 11.001
l45 55c-36 2.66699 -62.167 17.334 -78.5 44.001s-24.5 60.667 -24.5 102c0 33.333 4 66.333 12 99c16 70 43.333 125.833 82 167.5s88.334 62.5 149.001 62.5c18.667 0 36.167 -2 52.5 -6s29.833 -10 40.5 -18c-10.667 -32.667 -18.334 -68.667 -23.001 -108
c-8 -3.33301 -18.333 -5 -31 -5z" />
    <glyph glyph-name="egrave" unicode="&#xe8;" horiz-adv-x="365" 
d="M327.5 441.5c17 -17 25.499 -37.834 25.499 -62.501c0 -31.333 -12.833 -60.166 -38.5 -86.499s-57.167 -47.333 -94.5 -63s-72.333 -24.5 -105 -26.5c-1.33301 -14.667 -2 -26 -2 -34c0 -32 5.66699 -57.667 17 -77s29.666 -29 54.999 -29
c36.667 0 70.334 18.667 101.001 56c10 -7.33301 17 -17 21 -29c-22.667 -30 -48.667 -54 -78 -72s-61.666 -27 -96.999 -27c-39.333 0 -67.833 13.5 -85.5 40.5s-26.5 62.167 -26.5 105.5c0 29.333 3 57.333 9 84c10.667 53.333 27.834 98.5 51.501 135.5
s50.667 64.667 81 83s61.166 27.5 92.499 27.5c32 0 56.5 -8.5 73.5 -25.5zM270.999 362.999c0 16 -3.83301 28.833 -11.5 38.5s-18.167 14.5 -31.5 14.5c-22.667 0 -44 -15 -64 -45s-34.667 -73.333 -44 -130v-1c38.667 4 71.667 14.667 99 32s44 41 50 71
c1.33301 9.33301 2 16 2 20zM267.999 535.999c-2.66699 -1.33301 -7.33203 -2.00195 -13.999 -2.00195c-8.66699 0 -15.667 1.33301 -21 4c-13.333 26.667 -29.333 55.334 -48 86.001s-37 57.334 -55 80.001c18 6 35 9 51 9c15.333 0 29.666 -2.33301 42.999 -7
c9.33301 -59.333 24 -116 44 -170z" />
    <glyph glyph-name="eacute" unicode="&#xe9;" horiz-adv-x="365" 
d="M327.5 441.5c17 -17 25.499 -37.834 25.499 -62.501c0 -31.333 -12.833 -60.166 -38.5 -86.499s-57.167 -47.333 -94.5 -63s-72.333 -24.5 -105 -26.5c-1.33301 -14.667 -2 -26 -2 -34c0 -32 5.66699 -57.667 17 -77s29.666 -29 54.999 -29
c36.667 0 70.334 18.667 101.001 56c10 -7.33301 17 -17 21 -29c-22.667 -30 -48.667 -54 -78 -72s-61.666 -27 -96.999 -27c-39.333 0 -67.833 13.5 -85.5 40.5s-26.5 62.167 -26.5 105.5c0 29.333 3 57.333 9 84c10.667 53.333 27.834 98.5 51.501 135.5
s50.667 64.667 81 83s61.166 27.5 92.499 27.5c32 0 56.5 -8.5 73.5 -25.5zM270.999 362.999c0 16 -3.83301 28.833 -11.5 38.5s-18.167 14.5 -31.5 14.5c-22.667 0 -44 -15 -64 -45s-34.667 -73.333 -44 -130v-1c38.667 4 71.667 14.667 99 32s44 41 50 71
c1.33301 9.33301 2 16 2 20zM351.999 721.999c23.333 0 42.333 -5 57 -15c-54 -50.667 -107.333 -110.667 -160 -180c-14.667 1.33301 -26.667 6 -36 14c44.667 70 75.667 128.333 93 175c16 4 31.333 6 46 6z" />
    <glyph glyph-name="ecircumflex" unicode="&#xea;" horiz-adv-x="365" 
d="M327.5 441.5c17 -17 25.499 -37.834 25.499 -62.501c0 -31.333 -12.833 -60.166 -38.5 -86.499s-57.167 -47.333 -94.5 -63s-72.333 -24.5 -105 -26.5c-1.33301 -14.667 -2 -26 -2 -34c0 -32 5.66699 -57.667 17 -77s29.666 -29 54.999 -29
c36.667 0 70.334 18.667 101.001 56c10 -7.33301 17 -17 21 -29c-22.667 -30 -48.667 -54 -78 -72s-61.666 -27 -96.999 -27c-39.333 0 -67.833 13.5 -85.5 40.5s-26.5 62.167 -26.5 105.5c0 29.333 3 57.333 9 84c10.667 53.333 27.834 98.5 51.501 135.5
s50.667 64.667 81 83s61.166 27.5 92.499 27.5c32 0 56.5 -8.5 73.5 -25.5zM270.999 362.999c0 16 -3.83301 28.833 -11.5 38.5s-18.167 14.5 -31.5 14.5c-22.667 0 -44 -15 -64 -45s-34.667 -73.333 -44 -130v-1c38.667 4 71.667 14.667 99 32s44 41 50 71
c1.33301 9.33301 2 16 2 20zM118.999 564.999c0 4.66699 0.333984 8.00098 1.00098 10.001c53.333 38 105.333 81.333 156 130l9 1c10 0 19.667 -2.66699 29 -8c26 -42 59.333 -87.667 100 -137c-2 -6.66699 -5.83301 -12.667 -11.5 -18s-11.834 -9 -18.501 -11
c-35.333 30 -74.666 57 -117.999 81c-48.667 -24.667 -94.334 -52.334 -137.001 -83.001c-6.66699 10 -10 21.667 -10 35z" />
    <glyph glyph-name="edieresis" unicode="&#xeb;" horiz-adv-x="365" 
d="M327.5 441.5c17 -17 25.499 -37.834 25.499 -62.501c0 -31.333 -12.833 -60.166 -38.5 -86.499s-57.167 -47.333 -94.5 -63s-72.333 -24.5 -105 -26.5c-1.33301 -14.667 -2 -26 -2 -34c0 -32 5.66699 -57.667 17 -77s29.666 -29 54.999 -29
c36.667 0 70.334 18.667 101.001 56c10 -7.33301 17 -17 21 -29c-22.667 -30 -48.667 -54 -78 -72s-61.666 -27 -96.999 -27c-39.333 0 -67.833 13.5 -85.5 40.5s-26.5 62.167 -26.5 105.5c0 29.333 3 57.333 9 84c10.667 53.333 27.834 98.5 51.501 135.5
s50.667 64.667 81 83s61.166 27.5 92.499 27.5c32 0 56.5 -8.5 73.5 -25.5zM270.999 362.999c0 16 -3.83301 28.833 -11.5 38.5s-18.167 14.5 -31.5 14.5c-22.667 0 -44 -15 -64 -45s-34.667 -73.333 -44 -130v-1c38.667 4 71.667 14.667 99 32s44 41 50 71
c1.33301 9.33301 2 16 2 20zM148.999 545.499c-8 9 -12 20.167 -12 33.5c0 3.33301 0.666992 9 2 17c6.66699 29.333 24.334 44 53.001 44c15.333 0 27.166 -4 35.499 -12s12.5 -18.667 12.5 -32c0 -18 -5.5 -33.167 -16.5 -45.5s-24.833 -18.5 -41.5 -18.5
c-14 0 -25 4.5 -33 13.5zM303.499 544.999c-8.33301 8 -12.501 19.001 -12.501 33.001c0 3.33301 0.666992 8.33301 2 15c6.66699 31.333 25.334 47 56.001 47c14 0 25.167 -3.5 33.5 -10.5s12.5 -17.5 12.5 -31.5c0 -6 -0.333008 -10.667 -1 -14
c-2.66699 -16.667 -9 -29.334 -19 -38.001s-22.333 -13 -37 -13s-26.167 4 -34.5 12z" />
    <glyph glyph-name="igrave" unicode="&#xec;" horiz-adv-x="247" 
d="M34 64c0 19.333 3.66992 42.999 11.0029 70.999l41 144c11.333 40 17 66.667 17 80c0 12 -4 19.833 -12 23.5s-23 5.5 -45 5.5c-0.666992 14.667 1.33301 27.334 6 38.001c15.333 2 35.166 7.33301 59.499 16s42.833 17 55.5 25
c13.333 -5.33301 23.166 -13.166 29.499 -23.499s9.5 -23.833 9.5 -40.5c0 -18.667 -4 -42.667 -12 -72l-55 -193c-8 -28 -12 -47.333 -12 -58c0 -7.33301 1.33301 -12.333 4 -15s7 -4 13 -4c15.333 0 32.666 9.66699 51.999 29c10 -6.66699 16 -17.334 18 -32.001
c-41.333 -44.667 -79.333 -67 -114 -67c-44 0 -66 24.333 -66 73zM194.003 535.999c-2.66699 -1.33301 -7.33203 -2.00195 -13.999 -2.00195c-8.66699 0 -15.667 1.33301 -21 4c-13.333 26.667 -29.333 55.334 -48 86.001s-37 57.334 -55 80.001c18 6 35 9 51 9
c15.333 0 29.666 -2.33301 42.999 -7c9.33301 -59.333 24 -116 44 -170z" />
    <glyph glyph-name="iacute" unicode="&#xed;" horiz-adv-x="247" 
d="M34 64c0 19.333 3.66992 42.999 11.0029 70.999l41 144c11.333 40 17 66.667 17 80c0 12 -4 19.833 -12 23.5s-23 5.5 -45 5.5c-0.666992 14.667 1.33301 27.334 6 38.001c15.333 2 35.166 7.33301 59.499 16s42.833 17 55.5 25
c13.333 -5.33301 23.166 -13.166 29.499 -23.499s9.5 -23.833 9.5 -40.5c0 -18.667 -4 -42.667 -12 -72l-55 -193c-8 -28 -12 -47.333 -12 -58c0 -7.33301 1.33301 -12.333 4 -15s7 -4 13 -4c15.333 0 32.666 9.66699 51.999 29c10 -6.66699 16 -17.334 18 -32.001
c-41.333 -44.667 -79.333 -67 -114 -67c-44 0 -66 24.333 -66 73zM278.003 721.999c23.333 0 42.333 -5 57 -15c-54 -50.667 -107.333 -110.667 -160 -180c-14.667 1.33301 -26.667 6 -36 14c44.667 70 75.667 128.333 93 175c16 4 31.333 6 46 6z" />
    <glyph glyph-name="icircumflex" unicode="&#xee;" horiz-adv-x="247" 
d="M69 561c47.333 41.333 95.332 90.666 143.999 147.999c16 0 27 -1.66699 33 -5l80 -171c-2.66699 -2 -7.5 -3.66699 -14.5 -5s-13.5 -2 -19.5 -2c-34.667 46.667 -62.667 79.667 -84 99c-39.333 -32 -79.333 -68 -120 -108c-13.333 12.667 -19.666 27.334 -18.999 44.001
zM33.999 64c0 19.333 3.66992 42.999 11.0029 70.999l41 144c11.333 40 17 66.667 17 80c0 12 -4 19.833 -12 23.5s-23 5.5 -45 5.5c-0.666992 14.667 1.33301 27.334 6 38.001c15.333 2 35.166 7.33301 59.499 16s42.833 17 55.5 25
c13.333 -5.33301 23.166 -13.166 29.499 -23.499s9.5 -23.833 9.5 -40.5c0 -18.667 -4 -42.667 -12 -72l-55 -193c-8 -28 -12 -47.333 -12 -58c0 -7.33301 1.33301 -12.333 4 -15s7 -4 13 -4c15.333 0 32.666 9.66699 51.999 29c10 -6.66699 16 -17.334 18 -32.001
c-41.333 -44.667 -79.333 -67 -114 -67c-44 0 -66 24.333 -66 73z" />
    <glyph glyph-name="idieresis" unicode="&#xef;" horiz-adv-x="247" 
d="M71.5 545c-9 8.66699 -13.501 20 -13.501 34c0 16.667 5.33301 31 16 43s26 18 46 18c16.667 0 29.334 -4.16699 38.001 -12.5s13 -19.5 13 -33.5c0 -18 -6 -32.833 -18 -44.5s-27 -17.5 -45 -17.5c-15.333 0 -27.5 4.33301 -36.5 13zM225.499 546
c-9 8.66699 -13.5 20.333 -13.5 35c0 18.667 5.83301 33.167 17.5 43.5s26.834 15.5 45.501 15.5c15.333 0 27.666 -4.33301 36.999 -13s14 -20 14 -34c0 -16 -5.16699 -30 -15.5 -42s-25.5 -18 -45.5 -18c-17.333 0 -30.5 4.33301 -39.5 13zM33.999 63.999
c0 19.333 3.66992 42.999 11.0029 70.999l41 144c11.333 40 17 66.667 17 80c0 12 -4 19.833 -12 23.5s-23 5.5 -45 5.5c-0.666992 14.667 1.33301 27.334 6 38.001c15.333 2 35.166 7.33301 59.499 16s42.833 17 55.5 25c13.333 -5.33301 23.166 -13.166 29.499 -23.499
s9.5 -23.833 9.5 -40.5c0 -18.667 -4 -42.667 -12 -72l-55 -193c-8 -28 -12 -47.333 -12 -58c0 -7.33301 1.33301 -12.333 4 -15s7 -4 13 -4c15.333 0 32.666 9.66699 51.999 29c10 -6.66699 16 -17.334 18 -32.001c-41.333 -44.667 -79.333 -67 -114 -67
c-44 0 -66 24.333 -66 73z" />
    <glyph glyph-name="eth" unicode="&#xf0;" horiz-adv-x="453" 
d="M481 638c0 -7.33301 -0.333008 -12.999 -1 -16.999l-79 -38c27.333 -58.667 41 -124.334 41 -197.001c0 -40.667 -4.33301 -81.667 -13 -123c-17.333 -86 -47.333 -152.667 -90 -200s-95.667 -71 -159 -71c-50.667 0 -89.5 14.833 -116.5 44.5s-40.5 70.5 -40.5 122.5
c0 20 2.66699 44 8 72c14.667 73.333 43.167 131 85.5 173s92.5 63 150.5 63c32.667 0 57.667 -7.66699 75 -23c-2.66699 36.667 -10.667 70 -24 100l-106 -55c-4 10 -6 23 -6 39c0 6.66699 0.333008 11 1 13l89 43c-24.667 37.333 -59 68 -103 92
c0 10 3.66699 21.667 11 35c6 -0.666992 15 -1 27 -1c24.667 0 47.667 2 69 6c30.667 -24.667 57 -55 79 -91l97 48c3.33301 -13.333 5 -25 5 -35zM345 386.001c-9.33301 10 -21.502 17.999 -36.502 23.999s-29.167 9 -42.5 9c-32 0 -60.167 -17.333 -84.5 -52
s-42.166 -81.667 -53.499 -141c-5.33301 -26 -8 -52 -8 -78c0 -35.333 6.16699 -62.333 18.5 -81s29.5 -28 51.5 -28c32.667 0 61 19.833 85 59.5s42.667 94.834 56 165.501c8.66699 46 13.334 86.667 14.001 122z" />
    </font>
</defs>
</svg>
